<svg width="52" height="40" viewBox="0 0 52 40" fill="none" xmlns="http://www.w3.org/2000/svg">
<path d="M1.53384 18.819C1.53384 19.2071 1.51518 19.5572 1.53771 19.9048C1.59499 20.7788 1.67866 21.6515 1.73466 22.5262C1.75461 22.8319 1.88977 22.9857 2.18583 23.0481C2.91183 23.2007 3.58503 23.4941 4.23057 23.8565C4.42302 23.9646 4.5717 24.0998 4.65472 24.3038C5.11233 25.4289 5.57058 26.5532 6.0224 27.6802C6.09127 27.8527 6.13052 28.0374 6.17879 28.2176C6.35064 28.8535 6.21934 29.4167 5.77976 29.9122C5.61113 30.1028 5.46181 30.3107 5.29189 30.5256C5.37621 30.6428 5.43285 30.7451 5.51137 30.8262C6.30881 31.6481 7.0998 32.4771 7.91462 33.281C8.32717 33.6884 8.34778 33.6658 8.84723 33.3903C9.23597 33.176 9.62985 32.9714 10.0147 32.7506C10.211 32.638 10.408 32.6051 10.6191 32.6792C11.0593 32.8343 11.5053 32.9778 11.9359 33.1573C12.6793 33.4669 13.4059 33.819 14.1538 34.1177C14.7807 34.368 15.2158 34.7863 15.4488 35.4126C15.6161 35.8612 15.7654 36.3156 15.9225 36.768C16.0171 37.0416 16.0274 37.0634 16.3176 37.0673C16.9252 37.075 17.5328 37.066 18.141 37.0641C18.2575 37.0641 18.3759 37.0532 18.4905 37.068C18.8322 37.1117 19.0929 37.3827 19.1277 37.7167C19.1605 38.0289 18.9687 38.3526 18.6597 38.4639C18.5194 38.5148 18.3637 38.5432 18.2144 38.5451C17.525 38.5535 16.8351 38.5702 16.1464 38.5451C15.2422 38.5116 14.8116 38.166 14.5258 37.3132C14.381 36.8813 14.2323 36.4507 14.0856 36.0202C13.9974 35.7608 13.8256 35.5999 13.5681 35.4911C12.6748 35.1146 11.786 34.7278 10.9042 34.3261C10.6442 34.2077 10.4292 34.2046 10.1846 34.3564C9.88729 34.5412 9.57 34.6924 9.26235 34.861C8.54537 35.2549 7.85991 35.1963 7.24526 34.666C6.75033 34.2393 6.28178 33.781 5.81967 33.3182C5.33245 32.8304 4.85231 32.3342 4.39663 31.8167C3.62108 30.9356 3.614 30.2348 4.33678 29.3092C4.39406 29.2359 4.4462 29.1541 4.51635 29.0942C4.76929 28.8799 4.78409 28.6263 4.66952 28.3367C4.33871 27.5007 4.01368 26.6627 3.68415 25.8266C3.64167 25.7179 3.56701 25.6187 3.54191 25.5074C3.4428 25.0627 3.14416 24.8593 2.72453 24.7601C2.37311 24.6771 2.03393 24.5419 1.68316 24.455C0.809138 24.2394 0.345097 23.6699 0.271081 22.7959C0.164241 21.5389 0.0895709 20.2787 0.00203956 19.0204C-0.00182212 18.9625 0.000752331 18.9033 0.00203956 18.8454C0.016199 18.046 0.338661 17.6109 1.10778 17.385C1.51068 17.2666 1.92066 17.1707 2.32935 17.0729C2.58937 17.0104 2.72903 16.8798 2.80562 16.5979C3.12679 15.4104 3.57539 14.2692 4.17845 13.1944C4.28015 13.0129 4.30202 12.8623 4.2029 12.675C3.99566 12.2824 3.80515 11.8814 3.61014 11.4824C3.53355 11.3254 3.45439 11.1683 3.39132 11.0049C3.21304 10.5434 3.28061 10.1102 3.56509 9.70927C3.62559 9.62366 3.68802 9.53677 3.76139 9.46276C4.59165 8.62413 5.4129 7.77648 6.26311 6.95845C6.53665 6.69457 6.87133 6.48283 7.20537 6.29554C7.6353 6.05483 8.08711 6.01232 8.53507 6.2968C8.96886 6.57226 9.41231 6.83168 9.86799 7.10779C9.942 7.06531 10.0225 7.02217 10.1003 6.97454C11.1385 6.338 12.205 5.75877 13.3635 5.37003C13.5906 5.29408 13.6994 5.17113 13.7651 4.94716C13.9034 4.47668 14.0727 4.01584 14.2285 3.5505C14.4261 2.95902 14.847 2.6649 15.4591 2.63015C16.2172 2.58703 16.976 2.54584 17.7342 2.50658C17.8153 2.50208 17.8983 2.50659 17.9788 2.51947C18.3669 2.58254 18.6289 2.86249 18.6424 3.22291C18.6565 3.59299 18.3972 3.90966 17.9962 3.97338C17.7317 4.01586 17.4613 4.02548 17.1936 4.039C16.6806 4.06538 16.167 4.0847 15.6238 4.10851C15.5794 4.22887 15.5324 4.34538 15.4938 4.46445C15.3387 4.94201 15.1765 5.41763 15.0362 5.89969C14.9242 6.28329 14.688 6.5092 14.3057 6.62633C12.92 7.05112 11.645 7.70891 10.4653 8.54303C10.092 8.80691 9.76887 8.81206 9.40394 8.57779C9.0403 8.3448 8.67086 8.11956 8.30272 7.89301C8.10448 7.77072 7.90432 7.65227 7.67648 7.51583C6.64541 8.44713 5.82609 9.56446 4.81305 10.4919C4.85038 10.5917 4.86905 10.6573 4.89865 10.7184C5.17927 11.2964 5.45216 11.8782 5.74629 12.4491C5.93036 12.8069 5.92265 13.1577 5.72313 13.486C4.98233 14.7063 4.49961 16.0315 4.11023 17.3933C3.97249 17.8748 3.69959 18.1959 3.21817 18.3369C2.80369 18.4579 2.38985 18.5795 1.97537 18.6992C1.8209 18.7436 1.66578 18.7836 1.5332 18.8196L1.53384 18.819Z" fill="#DFDFE0"/>
<path d="M43.8735 20.0913C44.1091 18.9213 44.6864 18.0112 45.7065 17.4139C46.4724 16.9653 47.302 16.8205 48.1722 16.9583C49.8952 17.2299 51.2004 18.7147 51.2847 20.4363C51.371 22.187 50.2202 23.7838 48.4786 24.2356C46.9983 24.6192 44.7656 24.0464 43.9437 21.5749C43.8027 21.5749 43.6528 21.5736 43.5022 21.5749C37.6363 21.6193 31.7697 21.6644 25.9038 21.7088C23.9524 21.7236 22.001 21.7397 20.0495 21.7525C19.8751 21.7538 19.6968 21.7493 19.5269 21.7152C19.1832 21.6463 18.9483 21.3542 18.9425 21.0201C18.9361 20.6887 19.1626 20.383 19.5025 20.3064C19.682 20.2658 19.8725 20.2594 20.0585 20.2581C25.0131 20.222 29.9683 20.1892 34.9228 20.1544C37.7624 20.1345 40.602 20.1126 43.4416 20.0913C43.58 20.0901 43.7184 20.0913 43.8735 20.0913ZM47.5666 18.4032C46.3263 18.4058 45.3519 19.3873 45.3532 20.6333C45.3538 21.8774 46.3315 22.8486 47.5794 22.8461C48.8177 22.8435 49.8005 21.8568 49.7973 20.6191C49.7941 19.3827 48.8055 18.4 47.5666 18.4032Z" fill="#DFDFE0"/>
<path d="M35.7994 10.3718C36.0858 9.42122 36.6425 8.67398 37.5564 8.22409C38.2644 7.87525 39.0071 7.79483 39.7743 7.96796C41.2656 8.30457 42.3411 9.66581 42.3366 11.1995C42.3321 12.7526 41.2347 14.1061 39.7235 14.4234C39.1513 14.5437 38.5856 14.5212 38.0282 14.3461C37.458 14.1672 36.9721 13.8545 36.5685 13.4142C36.1746 12.9836 35.9281 12.4726 35.7775 11.9004C35.419 11.9249 35.0811 11.9384 34.7464 11.9731C33.2597 12.1289 31.7736 12.2847 30.2888 12.4552C29.9895 12.4893 29.6973 12.5865 29.4025 12.6567C29.0884 12.7313 28.8896 12.925 28.8207 13.2417C28.7486 13.5725 28.6862 13.9046 28.6154 14.2355C28.5594 14.4981 28.506 14.7613 28.4377 15.0207C28.1803 16.0054 27.5496 16.669 26.6401 17.088C26.0615 17.3544 25.4482 17.496 24.8181 17.5642C23.153 17.7457 21.4822 17.7296 19.8114 17.6975C19.579 17.693 19.3428 17.6705 19.115 17.6241C18.64 17.5282 18.3678 17.1163 18.4836 16.6992C18.5769 16.3626 18.846 16.1515 19.2096 16.1586C19.525 16.165 19.8391 16.2088 20.1538 16.2152C21.6148 16.2435 23.0752 16.2345 24.531 16.093C25.033 16.044 25.5241 15.9449 25.9894 15.7422C26.5108 15.5143 26.886 15.1539 27.0096 14.5791C27.1003 14.1569 27.1949 13.7354 27.2631 13.3093C27.4601 12.0807 28.1475 11.3218 29.3832 11.1139C30.3383 10.9537 31.2973 10.8089 32.2595 10.7033C33.3968 10.5785 34.5398 10.5038 35.6803 10.406C35.7138 10.4034 35.746 10.3867 35.7994 10.3699V10.3718ZM40.8337 11.1847C40.8318 10.1717 40.0189 9.36334 39.0078 9.36977C38.0018 9.37621 37.2005 10.1961 37.2063 11.2137C37.2115 12.2036 38.0243 13.01 39.0174 13.0113C40.0253 13.0126 40.8357 12.1984 40.8337 11.1847Z" fill="#DFDFE0"/>
<path d="M35.9997 28.9472C36.7089 26.7879 38.6102 26.2891 39.8652 26.5755C41.3835 26.9224 42.4628 28.2921 42.4178 29.8387C42.3727 31.375 41.2142 32.7072 39.7185 32.9422C38.0148 33.2092 36.6491 32.3191 35.9874 30.4758C35.8902 30.4758 35.7763 30.4771 35.663 30.4758C34.3539 30.4565 33.0448 30.4488 31.7364 30.4134C31.0471 30.3947 30.361 30.3181 29.691 30.1405C29.0802 29.9789 28.5473 29.6745 28.08 29.2529C27.6211 28.8391 27.3521 28.3184 27.213 27.7218C27.1229 27.335 27.02 26.9514 26.935 26.5633C26.852 26.1842 26.6357 25.9139 26.3062 25.7195C25.8846 25.4705 25.4232 25.3301 24.9443 25.3031C24.1404 25.2567 23.334 25.242 22.5282 25.24C21.8743 25.2387 21.2197 25.2748 20.5658 25.2973C20.3206 25.3057 20.076 25.3282 19.8308 25.3327C19.6924 25.3353 19.5483 25.3366 19.4163 25.3018C19.1016 25.2182 18.8918 24.9466 18.8795 24.6415C18.8667 24.3345 19.0488 24.0384 19.352 23.9309C19.5251 23.8691 19.7156 23.8331 19.899 23.8279C21.2307 23.7906 22.5629 23.7565 23.8952 23.7365C24.5749 23.7262 25.2532 23.7816 25.9091 23.9683C26.2656 24.07 26.6183 24.2076 26.9485 24.3756C27.7209 24.7695 28.2074 25.399 28.3979 26.2524C28.4765 26.6058 28.5859 26.9533 28.6496 27.3086C28.7539 27.8943 29.1169 28.2567 29.6163 28.5193C30.0507 28.7484 30.5283 28.8127 31.0039 28.8578C32.6245 29.0103 34.2497 28.9917 35.8742 28.9678C35.9083 28.9678 35.943 28.9563 35.9984 28.946L35.9997 28.9472ZM40.9124 29.7428C40.9091 28.7703 40.1503 28.0062 39.1843 28.0011C38.197 27.9966 37.424 28.769 37.433 29.7511C37.442 30.7333 38.1918 31.4908 39.1572 31.4927C40.1445 31.4953 40.9156 30.7262 40.9124 29.7428Z" fill="#DFDFE0"/>
<path d="M30.0464 3.0455C30.5684 0.649325 32.5353 -0.119783 33.91 0.0147324C35.6555 0.18529 37.0283 1.53558 37.1841 3.22507C37.3553 5.0864 36.1459 6.61366 34.5594 7.05582C33.0534 7.47546 30.9404 6.86082 30.1333 4.57471C29.0044 4.60817 27.8749 4.6346 27.0002 5.54145C26.6494 5.90509 26.4094 6.32923 26.2922 6.81258C26.1577 7.36802 26.0792 7.93696 25.9427 8.49176C25.7805 9.14824 25.6042 9.80277 25.3937 10.4451C25.1736 11.1196 24.7778 11.7015 24.3144 12.2357C23.8304 12.7937 23.2421 13.2043 22.5464 13.4591C21.5823 13.8125 20.5827 13.9708 19.5607 13.9998C19.4345 14.0037 19.3019 13.9875 19.1816 13.9508C18.8083 13.8376 18.6017 13.5203 18.6442 13.1522C18.6853 12.7943 18.9743 12.5285 19.3669 12.5195C20.0357 12.5034 20.6902 12.3978 21.3448 12.2691C22.6635 12.0091 23.4803 11.1795 23.9752 9.98426C24.308 9.18103 24.4676 8.33084 24.6092 7.47612C24.6742 7.08545 24.7598 6.69477 24.8801 6.31762C25.4562 4.51421 26.7093 3.4915 28.5635 3.19672C29.0462 3.12013 29.5373 3.0957 30.0445 3.0455H30.0464ZM35.7044 3.59062C35.7044 2.42504 34.7795 1.49888 33.6159 1.49888C32.4548 1.49888 31.5184 2.4321 31.5184 3.58867C31.5184 4.74589 32.4548 5.68045 33.6146 5.68173C34.7783 5.68238 35.7044 4.7562 35.7044 3.59062Z" fill="#DFDFE0"/>
<path d="M30.5127 38.1429C30.0423 38.0991 29.5763 38.0747 29.1161 38.009C27.0218 37.7104 25.7262 36.4463 25.033 34.5226C24.7408 33.7123 24.5677 32.8601 24.3379 32.0273C24.2227 31.6109 24.1049 31.1957 23.9807 30.7819C23.8153 30.2309 23.4639 29.8248 22.9902 29.5101C22.3833 29.1072 21.7101 28.8897 20.995 28.8021C20.6848 28.7642 20.3675 28.7783 20.054 28.7661C19.9614 28.7622 19.8667 28.7603 19.776 28.741C19.4387 28.6683 19.2173 28.4134 19.1961 28.0839C19.1736 27.7382 19.3692 27.4344 19.7058 27.334C19.8719 27.2845 20.0502 27.2568 20.2233 27.2568C21.3882 27.2562 22.4933 27.4994 23.5147 28.0793C24.4943 28.6354 25.1714 29.4316 25.47 30.5302C25.7455 31.5439 26.0255 32.557 26.2945 33.572C26.4515 34.1647 26.6787 34.7163 27.0572 35.2099C27.7111 36.0634 28.5729 36.5017 29.6329 36.577C29.8164 36.5898 30.0004 36.595 30.2096 36.6053C30.3113 35.5678 30.7277 34.7208 31.5573 34.11C32.1816 33.6505 32.887 33.4451 33.6632 33.4831C35.2053 33.5584 36.452 34.6983 36.7153 36.279C36.9573 37.7303 36.0761 39.2248 34.6628 39.7803C33.4142 40.2713 31.5419 40.0203 30.5127 38.1416V38.1429ZM33.4978 38.5007C34.4755 38.4936 35.2607 37.7059 35.2587 36.7347C35.2568 35.7551 34.442 34.957 33.4566 34.9699C32.5034 34.9821 31.7047 35.7725 31.7189 36.7231C31.7363 37.8861 32.6495 38.5233 33.4978 38.5014V38.5007Z" fill="#DFDFE0"/>
<path d="M9.4759 20.3513C9.48169 15.8518 12.4938 12.2232 16.7346 11.4225C16.9978 11.3729 17.2662 11.3375 17.5333 11.3246C18.0083 11.3015 18.3391 11.5679 18.3758 11.9766C18.4144 12.4078 18.1299 12.7278 17.6479 12.8005C17.3479 12.8455 17.0461 12.8829 16.7494 12.9453C13.8029 13.5677 11.5187 16.0192 11.0663 18.9985C10.4433 23.0976 13.1554 26.9941 17.1413 27.9556C17.3795 28.0129 17.6221 28.0509 17.8622 28.0979C17.9195 28.1088 17.978 28.1153 18.034 28.1294C18.4859 28.2395 18.7317 28.578 18.6622 28.9957C18.5978 29.387 18.2593 29.6361 17.8056 29.5904C16.8678 29.4958 15.968 29.2416 15.1217 28.8348C11.9493 27.3082 10.0841 24.8013 9.55186 21.3167C9.49393 20.937 9.49006 20.5489 9.47461 20.3513H9.4759Z" fill="#DFDFE0"/>
</svg>
