<svg width="55" height="40" viewBox="0 0 55 40" fill="none" xmlns="http://www.w3.org/2000/svg">
<path d="M11.1415 32.0132C11.5853 32.7885 11.7147 33.6144 11.425 34.4788C11.1997 35.152 10.7799 35.6787 10.1703 36.0478C8.96287 36.7786 7.39861 36.5327 6.47403 35.4691C5.54054 34.3952 5.52547 32.7988 6.43773 31.6982C7.4171 30.5167 8.92795 30.3483 10.4997 31.2633C10.5826 31.19 10.6764 31.1133 10.7634 31.0297C11.4168 30.3989 12.075 29.7737 12.7181 29.1326C12.9632 28.8881 13.2256 28.7799 13.5776 28.7799C15.2939 28.7799 17.0102 28.7559 18.7272 28.7402C18.8498 28.7388 18.9717 28.7402 19.1203 28.7402V23.3468C14.5761 23.3296 10.0429 23.3995 5.49534 23.4091C5.26248 24.2754 4.78443 24.9309 3.98997 25.3261C3.39961 25.6199 2.775 25.6849 2.13738 25.5356C0.777894 25.2172 -0.093956 24.009 0.00809084 22.6064C0.104659 21.275 1.15663 20.2134 2.52091 20.071C3.92902 19.9237 5.09537 20.8312 5.53711 22.4557C10.0443 22.4496 14.5652 22.4345 19.1107 22.3907V17.0829C18.9073 17.0829 18.7244 17.0787 18.5423 17.0829C16.8136 17.126 15.085 17.1602 13.3577 17.2219C12.9215 17.2376 12.5955 17.0993 12.301 16.7897C11.5976 16.0514 10.8778 15.3282 10.1676 14.5961C10.0813 14.507 10.0107 14.4029 9.92444 14.2961C9.09506 14.8029 8.25813 14.983 7.35615 14.7002C6.68908 14.4906 6.16378 14.092 5.78435 13.5078C5.0214 12.3332 5.21659 10.7902 6.24391 9.82794C7.24999 8.88554 8.80741 8.79103 9.91759 9.60878C10.5586 10.0813 10.9518 10.7149 11.0675 11.5018C11.1805 12.2682 11.0148 12.9832 10.5669 13.627C10.6196 13.6927 10.6545 13.7434 10.6963 13.7865C11.4319 14.5461 12.1708 15.3022 12.903 16.0651C13.0406 16.2083 13.1804 16.2795 13.3899 16.274C15.1555 16.2268 16.9212 16.1918 18.6875 16.1521C18.821 16.1494 18.9546 16.1343 19.123 16.1227C19.123 15.9597 19.123 15.8261 19.123 15.6919C19.1155 12.6942 19.1135 9.69644 19.0929 6.69873C19.0902 6.30972 19.197 6.02412 19.473 5.74127C21.1941 3.97908 22.9022 2.20524 24.5993 0.420448C24.8829 0.123896 25.1931 0.00130231 25.5862 0.00130231C30.5249 0.00335695 35.4629 -0.00897086 40.4008 0.0156848C41.0761 0.0191092 41.7747 0.126635 42.4192 0.325935C43.9677 0.80535 44.858 1.9491 45.2388 3.48185C45.3902 4.0914 45.4573 4.7345 45.4648 5.3639C45.4895 7.37813 45.4676 9.39372 45.4641 11.4086C45.4635 11.9545 45.4641 12.5003 45.4641 13.0565C45.595 13.1106 45.708 13.1564 45.821 13.2037C48.2728 14.2249 50.0131 15.9576 51.024 18.417C51.0712 18.5314 51.1199 18.6485 51.1452 18.769C51.1973 19.0197 51.0801 19.2361 50.8678 19.3162C50.648 19.3991 50.424 19.3176 50.2953 19.0957C50.2398 18.9998 50.2083 18.8902 50.1645 18.7875C48.9269 15.8829 46.7572 14.1112 43.6478 13.5893C39.1852 12.84 34.8937 15.9603 34.1239 20.41C33.3555 24.8514 36.2498 29.286 40.9754 30.114C44.3286 30.7017 47.7845 29.1155 49.5337 26.1931C49.5912 26.0972 49.6453 25.9972 49.72 25.9157C49.8816 25.739 50.1035 25.7062 50.2946 25.8151C50.4925 25.9281 50.5905 26.1712 50.4891 26.3945C50.3918 26.6075 50.2603 26.8068 50.1316 27.004C49.9823 27.2321 49.8193 27.4512 49.6494 27.6923C49.7159 27.78 49.7768 27.8704 49.8474 27.9526C51.2623 29.6065 52.6773 31.2605 54.0943 32.9131C54.4326 33.3076 54.7155 33.7151 54.6778 34.2774C54.6059 35.3623 53.6121 36.167 52.5547 35.9458C52.2985 35.8924 52.0424 35.7444 51.8342 35.5794C51.5541 35.3575 51.3027 35.0917 51.0706 34.8185C49.783 33.3015 48.5043 31.7762 47.2222 30.2544C47.1435 30.1613 47.0592 30.0729 46.9784 29.9839C46.4517 30.2216 45.9449 30.451 45.397 30.6982C45.397 30.7982 45.3984 30.9195 45.397 31.0414C45.382 32.5214 45.3847 34.0014 45.345 35.4807C45.3114 36.7354 44.7224 37.7402 43.8067 38.5613C43.063 39.2284 42.1843 39.6222 41.185 39.6921C39.6598 39.7982 38.1339 39.9167 36.6059 39.9571C33.2356 40.0461 29.8647 39.9879 26.4951 39.8619C25.489 39.8242 24.4815 39.7756 23.4796 39.6818C22.9645 39.6332 22.4433 39.5243 21.9543 39.3551C20.4613 38.8387 19.5771 37.7655 19.2977 36.2204C19.1963 35.6622 19.171 35.0849 19.1628 34.5151C19.1415 32.9604 19.1484 31.4057 19.1429 29.8504C19.1429 29.8141 19.1333 29.7771 19.1244 29.7168C19.047 29.7058 18.9648 29.6839 18.8833 29.6846C17.167 29.6928 15.45 29.7045 13.7337 29.712C13.5796 29.7127 13.4461 29.7346 13.3269 29.8517C12.6249 30.5393 11.9168 31.2208 11.212 31.9057C11.1867 31.9303 11.1716 31.9659 11.1394 32.0146L11.1415 32.0132ZM44.5204 12.7387C44.5204 12.627 44.5197 12.5065 44.5204 12.3853C44.5279 11.6271 44.5307 10.8683 44.5444 10.1101C44.5759 8.35682 44.6252 6.60353 44.4998 4.85161C44.4457 4.09071 44.3293 3.34693 43.9252 2.67507C43.4321 1.85527 42.7472 1.28819 41.7959 1.12245C41.2104 1.0204 40.6104 0.954653 40.0166 0.953283C35.3279 0.939586 30.6393 0.94575 25.9506 0.947119C25.8568 0.947119 25.7629 0.967666 25.6451 0.980678C25.6451 1.1156 25.6451 1.22586 25.6451 1.33545C25.6451 2.65384 25.6451 3.97223 25.6438 5.29062C25.6438 5.46458 25.6287 5.63785 25.6205 5.81181C25.604 6.15836 25.4047 6.36108 25.0883 6.44875C24.8979 6.50148 24.6986 6.54121 24.5014 6.54737C23.52 6.58161 22.5378 6.60148 21.5564 6.62887C21.0612 6.64257 20.5668 6.66311 20.0312 6.68161C20.0312 6.82885 20.0312 6.95008 20.0312 7.07199C20.0545 16.2254 20.0764 25.3788 20.1038 34.5322C20.1052 34.9787 20.1223 35.4294 20.1853 35.8704C20.3825 37.2484 21.1455 38.1675 22.4961 38.5449C22.9597 38.6743 23.446 38.7524 23.9268 38.7825C25.1671 38.8599 26.4101 38.9106 27.6525 38.9483C31.7433 39.0729 35.8341 39.1264 39.9221 38.8627C40.6152 38.8182 41.3131 38.7901 41.9822 38.5648C43.3355 38.1079 44.3998 36.7423 44.4224 35.3828C44.445 33.9904 44.4409 32.5967 44.4457 31.2044C44.4457 31.1256 44.4224 31.0462 44.4129 30.9866C40.3433 31.6297 36.9826 30.4592 34.665 27.0307C32.5542 23.9084 32.5206 20.5826 34.2835 17.2479C36.6621 13.4325 40.1152 12.0538 44.5204 12.7394V12.7387ZM47.7982 29.4579C47.8818 29.5634 47.9544 29.6613 48.0331 29.7545C48.7933 30.6585 49.5542 31.5612 50.3145 32.4652C50.9062 33.1693 51.5 33.872 52.0876 34.5801C52.2773 34.8082 52.4951 34.9801 52.7951 35.0239C53.1293 35.0732 53.4437 34.9171 53.6128 34.6219C53.8128 34.2726 53.8053 34.0391 53.545 33.7329C52.0636 31.9899 50.5774 30.2517 49.0919 28.5121C49.0693 28.4854 49.0358 28.4683 48.9961 28.4395C48.6002 28.7758 48.2071 29.1107 47.7989 29.4579H47.7982ZM8.65742 35.5232C9.75048 35.5294 10.6292 34.6609 10.6333 33.5727C10.6374 32.4803 9.76898 31.6036 8.67933 31.5989C7.59175 31.5934 6.70278 32.4673 6.69456 33.5501C6.68634 34.6294 7.57052 35.5177 8.65742 35.5232ZM6.26856 11.899C6.24185 12.9756 7.0822 13.8584 8.16225 13.8879C9.23477 13.9173 10.1333 13.0715 10.1642 12.0024C10.1957 10.9196 9.3286 10.0081 8.24718 9.98751C7.18151 9.96697 6.29527 10.8231 6.26856 11.899ZM4.59335 22.8434C4.59541 21.8147 3.77903 20.9997 2.75103 21.0058C1.74563 21.012 0.933361 21.8277 0.930622 22.8338C0.927882 23.8488 1.7648 24.6836 2.77979 24.6782C3.7804 24.6727 4.5913 23.8522 4.59404 22.8434H4.59335ZM20.8873 5.63717C20.9017 5.66388 20.9161 5.69127 20.9311 5.71798C22.0475 5.69127 23.1645 5.66662 24.2809 5.63443C24.4233 5.63032 24.5644 5.5858 24.6993 5.56114V1.67994C23.3898 3.03942 22.1386 4.33795 20.888 5.63717H20.8873Z" fill="#DFDFE0"/>
<path d="M45.6163 24.1185C45.7369 24.0028 45.8362 23.9137 45.9286 23.8178C46.656 23.0679 47.3902 22.3241 48.1038 21.5612C48.3606 21.2865 48.625 21.1749 49.014 21.1769C50.394 21.1824 51.7748 21.1365 53.1548 21.1119C53.5157 21.1057 53.876 21.0975 54.2369 21.1043C54.5499 21.1105 54.7369 21.2721 54.7567 21.5276C54.7786 21.7995 54.6026 21.9878 54.2752 22.0296C54.1403 22.0467 54.0027 22.0461 53.8657 22.0481C52.3117 22.0776 50.757 22.1104 49.2024 22.131C48.962 22.1344 48.7866 22.2008 48.6175 22.3789C47.7874 23.2542 46.9457 24.1185 46.1026 24.9814C45.9834 25.1034 45.8444 25.2177 45.6937 25.2965C45.4492 25.4232 45.2335 25.3574 45.0753 25.1321C45.004 25.0314 44.9527 24.9164 44.8979 24.8047C44.1192 23.235 43.3418 21.6639 42.5631 20.0942C42.5042 19.9757 42.4371 19.8606 42.3549 19.7099C42.2693 19.812 42.2022 19.8791 42.1488 19.9565C41.7694 20.5106 41.379 21.0571 41.0215 21.6255C40.8359 21.9207 40.6133 22.0584 40.2633 22.0598C39.0572 22.0632 37.8505 22.0865 36.6444 22.0995C36.5458 22.1008 36.4438 22.0981 36.3479 22.0776C36.1321 22.031 35.9972 21.868 35.9869 21.6612C35.976 21.4413 36.1136 21.2461 36.3362 21.1941C36.4438 21.1687 36.5581 21.1722 36.6698 21.1701C37.7265 21.1502 38.784 21.1311 39.8407 21.1126C39.9647 21.1105 40.088 21.1126 40.2058 21.1126C40.7222 20.3702 41.2235 19.6449 41.731 18.9237C41.8303 18.7826 41.942 18.6456 42.068 18.5278C42.3769 18.2388 42.672 18.2895 42.8891 18.6593C42.9391 18.7449 42.9809 18.836 43.0247 18.9251C43.8199 20.5284 44.6137 22.1323 45.4095 23.7356C45.4684 23.8541 45.5348 23.9692 45.6156 24.1185H45.6163Z" fill="#DFDFE0"/>
<path d="M31.6838 33.3417C34.4445 33.3417 37.2053 33.3417 39.966 33.3417C40.0777 33.3417 40.1914 33.3342 40.3016 33.3493C40.5304 33.3808 40.6906 33.5554 40.7057 33.7711C40.7215 33.9876 40.5893 34.1807 40.3612 34.241C40.2434 34.2725 40.116 34.2773 39.9927 34.2773C34.4466 34.2786 28.9005 34.2786 23.3543 34.2773C23.2187 34.2773 23.0783 34.2732 22.9475 34.2423C22.7194 34.1882 22.5777 33.991 22.5907 33.7807C22.6037 33.5684 22.7653 33.3876 22.9927 33.3534C23.1146 33.3349 23.2406 33.3424 23.3653 33.3424C26.1383 33.3424 28.9114 33.3424 31.6845 33.3424L31.6838 33.3417Z" fill="#DFDFE0"/>
<path d="M31.6491 11.3122C29.063 11.3506 26.4775 11.3896 23.8914 11.4266C23.7798 11.428 23.6661 11.4266 23.5579 11.4047C23.3312 11.3581 23.1805 11.1691 23.1847 10.9568C23.1888 10.7636 23.3333 10.5726 23.5353 10.5239C23.6422 10.4986 23.7572 10.5007 23.8688 10.4993C29.0404 10.4171 34.2119 10.3356 39.3834 10.2548C39.495 10.2527 39.6087 10.2527 39.7176 10.2726C39.9484 10.3144 40.0998 10.4931 40.1046 10.7082C40.11 10.9335 39.9423 11.1328 39.7039 11.1753C39.6313 11.1883 39.5553 11.1835 39.4806 11.1848C36.8699 11.2287 34.2591 11.2725 31.6491 11.3163C31.6491 11.3157 31.6491 11.315 31.6491 11.3136V11.3122Z" fill="#DFDFE0"/>
<path d="M27.7373 26.6989C26.358 26.7263 24.9786 26.7537 23.5993 26.7797C23.4753 26.7818 23.3493 26.7886 23.2274 26.7708C22.9815 26.7352 22.813 26.5393 22.8165 26.3147C22.8199 26.101 22.9699 25.9243 23.202 25.8763C23.2986 25.8565 23.3993 25.8524 23.4986 25.8503C26.3566 25.7928 29.2146 25.7359 32.0726 25.6818C32.1945 25.6798 32.3219 25.6935 32.439 25.7277C32.6232 25.7825 32.7219 25.9215 32.7369 26.1147C32.752 26.3133 32.6582 26.4845 32.463 26.5551C32.3376 26.6003 32.1972 26.6167 32.063 26.6194C30.622 26.6503 29.1803 26.6756 27.7387 26.7023C27.7387 26.7016 27.7387 26.7003 27.7387 26.6996L27.7373 26.6989Z" fill="#DFDFE0"/>
<path d="M27.811 18.9832C26.4809 19.0113 25.1502 19.0407 23.8202 19.0661C23.6846 19.0688 23.5449 19.0647 23.4147 19.0325C23.2072 18.9805 23.0949 18.8284 23.0839 18.6325C23.0716 18.4202 23.1812 18.2483 23.3976 18.1812C23.514 18.1456 23.6414 18.1333 23.764 18.1312C26.4618 18.0757 29.1602 18.023 31.8579 17.9709C31.9696 17.9689 32.0832 17.962 32.1928 17.9785C32.425 18.0127 32.577 18.1833 32.5894 18.4038C32.6031 18.6455 32.4627 18.8305 32.21 18.8777C32.0764 18.9024 31.9381 18.9044 31.8018 18.9065C30.4717 18.9325 29.141 18.9565 27.811 18.9811C27.811 18.9818 27.811 18.9825 27.811 18.9839V18.9832Z" fill="#DFDFE0"/>
<path d="M36.1536 5.36437C35.0468 5.36437 33.9407 5.36437 32.834 5.36437C32.71 5.36437 32.5833 5.36985 32.4621 5.34793C32.2511 5.31026 32.1059 5.1363 32.0936 4.93495C32.0806 4.71853 32.2196 4.51923 32.4402 4.46512C32.547 4.4391 32.6621 4.43704 32.773 4.43636C35.0728 4.41855 37.3727 4.40211 39.6732 4.38773C39.7958 4.38705 39.9238 4.39595 40.0396 4.43156C40.2416 4.49389 40.3471 4.65141 40.3519 4.84865C40.3567 5.05823 40.2402 5.23356 40.0266 5.2952C39.9094 5.32875 39.7814 5.33355 39.6588 5.33355C38.4904 5.33629 37.3213 5.33492 36.1529 5.33492V5.36437H36.1536Z" fill="#DFDFE0"/>
</svg>
