<svg width="18" height="19" viewBox="0 0 18 19" fill="none" xmlns="http://www.w3.org/2000/svg">
<g id="vuesax/outline/arrow-right">
<g id="arrow-right">
<path id="Vector" d="M10.8223 14.6148C10.6798 14.6148 10.5373 14.5623 10.4248 14.4498C10.2073 14.2323 10.2073 13.8723 10.4248 13.6548L14.5798 9.49984L10.4248 5.34484C10.2073 5.12734 10.2073 4.76734 10.4248 4.54984C10.6423 4.33234 11.0023 4.33234 11.2198 4.54984L15.7723 9.10234C15.9898 9.31984 15.9898 9.67984 15.7723 9.89734L11.2198 14.4498C11.1073 14.5623 10.9648 14.6148 10.8223 14.6148Z" fill="white"/>
<path id="Vector_2" d="M15.2475 10.0625H2.625C2.3175 10.0625 2.0625 9.8075 2.0625 9.5C2.0625 9.1925 2.3175 8.9375 2.625 8.9375H15.2475C15.555 8.9375 15.81 9.1925 15.81 9.5C15.81 9.8075 15.555 10.0625 15.2475 10.0625Z" fill="white"/>
</g>
</g>
</svg>
