<svg width="40" height="40" viewBox="0 0 40 40" fill="none" xmlns="http://www.w3.org/2000/svg">
<path fill-rule="evenodd" clip-rule="evenodd" d="M7.19922 8.31152V30.7115C7.19922 33.3625 9.34826 35.5115 11.9992 35.5115H27.9992C30.6503 35.5115 32.7992 33.3625 32.7992 30.7115V14.7115C32.7992 12.0605 30.6503 9.91152 27.9992 9.91152H8.79922C7.91557 9.91152 7.19922 9.19517 7.19922 8.31152ZM12.3992 19.5115C12.3992 18.8487 12.9365 18.3115 13.5992 18.3115H26.3992C27.0619 18.3115 27.5992 18.8487 27.5992 19.5115C27.5992 20.1742 27.0619 20.7115 26.3992 20.7115H13.5992C12.9365 20.7115 12.3992 20.1742 12.3992 19.5115ZM12.3992 25.1115C12.3992 24.4487 12.9365 23.9115 13.5992 23.9115H22.3992C23.0619 23.9115 23.5992 24.4487 23.5992 25.1115C23.5992 25.7742 23.0619 26.3115 22.3992 26.3115H13.5992C12.9365 26.3115 12.3992 25.7742 12.3992 25.1115Z" fill="#3F49A7"/>
<path opacity="0.5" d="M29.5992 7.2006V10.1841C29.0987 10.0072 28.5602 9.91094 27.9992 9.91094H8.79922C7.91557 9.91094 7.19922 9.19459 7.19922 8.31094V8.19726C7.19922 7.34443 7.82631 6.62139 8.67056 6.50078L25.9467 4.03276C27.8744 3.75736 29.5992 5.25324 29.5992 7.2006Z" fill="#3F49A7"/>
</svg>
