<svg width="88" height="88" viewBox="0 0 88 88" fill="none" xmlns="http://www.w3.org/2000/svg">
<path d="M43.0198 6.82015C42.8732 7.08904 42.7754 9.06904 42.7754 11.4646C42.7754 15.8646 42.8976 16.3779 43.9976 16.3779C45.0976 16.3779 45.2198 15.8646 45.2198 11.4646C45.2198 9.06904 45.1221 7.08904 44.9754 6.82015C44.8043 6.52682 44.4621 6.35571 43.9976 6.35571C43.5332 6.35571 43.1909 6.52682 43.0198 6.82015Z" fill="#3F49A7"/>
<path d="M26.3257 11.1952C26.0813 11.4396 25.9102 11.8063 25.9102 12.0018C25.9102 12.5396 29.9435 19.384 30.4813 19.7263C30.8724 19.9952 31.0435 19.9707 31.4835 19.6529C31.7768 19.4574 32.0213 19.0663 32.0213 18.8218C32.0213 18.2596 28.2324 11.5129 27.6702 11.0485C27.1324 10.6329 26.7902 10.6818 26.3257 11.1952Z" fill="#3F49A7"/>
<path d="M60.3261 11.0494C59.9839 11.3672 57.2461 15.9139 56.195 18.0161C55.5594 19.2383 56.6839 20.4361 57.6861 19.605C58.2972 19.0672 62.0861 12.4672 62.0861 11.9294C62.0861 11.7094 61.8416 11.3428 61.5483 11.1472C60.8883 10.6828 60.815 10.6828 60.3261 11.0494Z" fill="#3F49A7"/>
<path d="M39.9654 19.4096C30.9699 21.1941 24.0276 28.1607 22.341 37.0585C22.0476 38.7207 21.9743 39.9918 22.0721 42.4118C22.2921 47.5452 23.1232 49.6474 26.5699 53.8274C30.1143 58.1052 31.2632 60.5007 32.1187 65.4141C32.3632 66.8318 32.6565 67.6874 32.9254 67.9074C33.2432 68.1274 35.8587 68.2007 44.0232 68.2007C55.9032 68.2007 55.341 68.2741 55.6099 66.5385C56.4165 61.3074 57.8832 58.0318 61.2076 54.0229C63.6521 51.0652 64.801 49.1585 65.4121 46.9341C65.9499 45.003 66.1454 40.0407 65.7787 37.743C64.3854 29.2118 58.3476 22.3918 49.9876 19.923C47.2499 19.1163 42.6543 18.8963 39.9654 19.4096ZM48.8876 22.0252C51.7476 22.7341 54.9499 24.4696 57.1254 26.4985C59.4476 28.6496 60.6699 30.3118 61.8432 32.8541C63.0165 35.3718 63.5543 37.7185 63.6521 40.4807C63.8232 45.2963 62.7232 48.6941 59.961 51.9452C56.3187 56.2718 55.0232 58.6185 54.0943 62.5541C53.7521 63.9718 53.4343 65.2918 53.3854 65.4385C53.3121 65.6829 51.2099 65.7563 43.9254 65.7563H34.5387L34.3676 64.5829C34.1232 62.6763 32.8276 58.9118 31.801 57.0785C31.2632 56.1252 29.8454 54.1696 28.6232 52.7029C25.1521 48.5229 24.3699 46.3718 24.3699 41.1896C24.3943 38.4763 24.4921 37.6941 25.0299 35.8118C26.0076 32.6096 27.3521 30.1896 29.5032 27.8674C34.661 22.3185 41.6032 20.2407 48.8876 22.0252Z" fill="#3F49A7"/>
<path d="M53.2137 27.7446C52.6759 27.9157 52.0159 28.2824 51.747 28.5513C51.4537 28.8202 50.4515 29.2602 49.4982 29.5291C48.5693 29.8224 46.9315 30.5313 45.9048 31.1424L43.9982 32.218L42.1159 31.1424C39.5737 29.7002 38.107 29.2357 36.0537 29.2113C33.1937 29.2113 31.9715 30.3113 31.8248 33.0491C31.7026 35.0535 32.2893 37.0091 33.8293 39.6002L34.8804 41.3846L33.9759 42.8757C32.0448 46.1024 31.3359 49.1335 32.0204 51.1869C32.9737 54.1202 37.4959 54.2913 42.1404 51.578C43.0448 51.0402 43.9004 50.6002 44.0226 50.6002C44.1448 50.6002 44.7559 50.918 45.4159 51.3335C47.127 52.3846 48.5693 52.9713 50.4515 53.4113C51.9671 53.7535 52.2359 53.7535 53.4337 53.4113C54.4115 53.1424 54.9004 52.8246 55.4137 52.1402C56.0493 51.3335 56.0982 51.0646 56.0982 49.158C56.0982 47.178 56.0248 46.9091 55.0715 44.9046C54.4848 43.7069 53.8004 42.4357 53.5559 42.0691L53.0915 41.4091L53.8248 40.2113C54.8026 38.6469 55.6582 36.7402 56.0004 35.2735C56.1715 34.6135 56.6115 33.7335 56.9782 33.318C58.2248 31.8757 58.1515 29.8224 56.7582 28.5513C56.1715 27.9891 55.7804 27.7935 54.5093 27.5002C54.3137 27.4513 53.727 27.5491 53.2137 27.7446ZM55.1937 30.1157C55.3648 30.2869 55.487 30.7024 55.487 31.0446C55.487 32.218 54.3871 32.6824 53.4826 31.8513C52.9448 31.3624 52.9204 30.8491 53.4582 30.2624C53.8982 29.7491 54.7537 29.6757 55.1937 30.1157ZM37.4715 31.6557C38.7182 31.9735 40.5271 32.7802 41.5293 33.4402C41.7737 33.6113 41.187 34.3446 39.0604 36.4957L36.2493 39.3069L35.3448 37.5469C33.4626 33.7335 33.6337 31.7291 35.9315 31.3135C36.0048 31.2891 36.7137 31.4602 37.4715 31.6557ZM51.2093 32.5846C51.5759 33.318 51.9915 33.7335 52.7248 34.1002C53.9715 34.6869 53.9715 34.8824 52.6271 37.5713L51.747 39.3313L48.9604 36.5446C47.4448 35.0046 46.1982 33.7091 46.1982 33.6357C46.1982 33.3913 49.987 31.6069 50.5982 31.558C50.6715 31.558 50.9404 32.0224 51.2093 32.5846ZM46.687 37.5713C48.0559 38.8669 49.3759 40.2357 49.6693 40.6269C50.1337 41.3113 50.1337 41.3602 49.7182 41.9957C48.9848 43.1446 44.4626 47.4224 43.9982 47.4224C43.4604 47.4224 37.887 41.9713 37.887 41.458C37.887 40.798 43.387 35.2002 44.047 35.2002C44.1448 35.2002 45.3426 36.2757 46.687 37.5713ZM39.1582 46.298L41.9693 49.1091L40.6004 49.818C39.0359 50.6491 36.9093 51.3335 35.8826 51.3335C35.4426 51.3335 34.9293 51.0891 34.5382 50.698C33.9759 50.1357 33.927 49.9646 34.0737 48.8157C34.2204 47.7402 35.9559 43.5113 36.2248 43.5113C36.2982 43.5113 37.5937 44.758 39.1582 46.298ZM52.5537 44.978C54.4848 48.8157 54.2893 51.3335 52.0404 51.3335C51.0137 51.3335 48.5204 50.478 47.0048 49.598L46.0759 49.0602L48.7648 46.3224C50.2315 44.8069 51.5271 43.5602 51.6248 43.5602C51.7226 43.5357 52.1382 44.1713 52.5537 44.978Z" fill="#3F49A7"/>
<path d="M42.1166 38.3783C40.1854 39.5516 39.9654 42.4605 41.6766 43.976C44.6832 46.5916 48.8877 43.1449 47.0543 39.6005C46.5166 38.5494 45.3188 37.8894 43.9988 37.8894C43.3388 37.8894 42.581 38.0849 42.1166 38.3783ZM44.8299 40.4805C45.6121 41.2627 45.0988 42.5338 43.9988 42.5338C43.2899 42.5338 42.7766 41.996 42.7766 41.2138C42.7766 40.7249 43.461 40.0894 43.9988 40.0894C44.2432 40.0894 44.6343 40.2605 44.8299 40.4805Z" fill="#3F49A7"/>
<path d="M13.8581 23.6619C13.3203 24.2486 13.3448 24.7619 13.8826 25.2263C14.8114 26.033 20.947 29.3819 21.4848 29.3819C22.1692 29.4063 22.5114 28.9419 22.4381 28.1352C22.3648 27.6463 21.6803 27.1574 18.6248 25.373C16.5714 24.1997 14.7381 23.2219 14.567 23.2219C14.3959 23.2219 14.0781 23.4174 13.8581 23.6619Z" fill="#3F49A7"/>
<path d="M69.2986 25.3974C66.3408 27.133 65.6075 27.6708 65.5586 28.1352C65.4853 28.9419 65.8275 29.4063 66.5119 29.3819C66.8297 29.3819 68.4675 28.5997 70.1541 27.6219C74.0408 25.373 74.5541 25.0063 74.5541 24.4686C74.5541 23.9552 73.8208 23.2219 73.3075 23.2463C73.1119 23.2463 71.3275 24.2241 69.2986 25.3974Z" fill="#3F49A7"/>
<path d="M9.77559 40.3093C9.09115 40.5049 8.79782 41.5805 9.31115 42.1916C9.75115 42.7293 18.1356 42.7049 18.6734 42.1427C19.1623 41.6782 19.1623 41.2871 18.7223 40.676C18.4045 40.2605 18.0134 40.2116 14.3711 40.1627C12.1711 40.1382 10.1178 40.2116 9.77559 40.3093Z" fill="#3F49A7"/>
<path d="M69.9094 40.2599C69.445 40.431 68.9316 41.0665 68.9316 41.4576C68.9316 41.6288 69.1028 41.9465 69.3228 42.1421C69.6405 42.4599 70.4228 42.5332 74.0405 42.5332C78.7094 42.5332 78.9539 42.4599 78.9539 41.2621C78.9539 40.7488 78.8072 40.5043 78.3183 40.3332C77.6828 40.0888 70.5694 40.0154 69.9094 40.2599Z" fill="#3F49A7"/>
<path d="M17.3785 55.3671C15.4229 56.4915 13.7363 57.6159 13.614 57.8359C13.2718 58.4226 13.8096 59.4004 14.4696 59.4004C14.9829 59.4004 18.5029 57.5182 21.2163 55.8071C22.5118 54.9759 22.854 54.2426 22.194 53.5826C21.6563 53.0448 20.9229 53.3137 17.3785 55.3671Z" fill="#3F49A7"/>
<path d="M65.9483 53.5582C65.0683 54.0471 65.4106 54.9515 66.8039 55.8071C69.4683 57.5182 73.0128 59.4004 73.5261 59.4004C74.1128 59.4004 74.6506 58.5937 74.455 57.9826C74.3083 57.5426 67.2195 53.2893 66.6817 53.2893C66.5106 53.2893 66.1683 53.4115 65.9483 53.5582Z" fill="#3F49A7"/>
<path d="M34.4876 71.4268C34.3653 71.7446 34.3653 72.209 34.4631 72.4779C34.6342 72.9668 34.8542 72.9668 43.9964 72.9668C53.1387 72.9668 53.3587 72.9668 53.5298 72.4779C53.6276 72.209 53.6276 71.7446 53.5053 71.4268L53.3098 70.889H43.9964H34.6831L34.4876 71.4268Z" fill="#3F49A7"/>
<path d="M36.5191 75.6549C36.1525 76.2172 36.1525 76.3149 36.5191 76.8772L36.9103 77.4883H43.9991H51.088L51.4791 76.8772C51.8458 76.3149 51.8458 76.2172 51.4791 75.6549L51.088 75.0438H43.9991H36.9103L36.5191 75.6549Z" fill="#3F49A7"/>
<path d="M37.9094 79.9823C37.7872 80.3001 37.7872 80.7645 37.885 81.0334C38.0561 81.4979 38.325 81.5223 43.9717 81.5956L49.8872 81.6445L50.0828 81.1068C50.3028 80.4956 50.1805 79.909 49.765 79.6401C49.6183 79.5423 46.9294 79.4445 43.8005 79.4445C38.1294 79.4445 38.105 79.4445 37.9094 79.9823Z" fill="#3F49A7"/>
</svg>
