<svg width="64" height="64" viewBox="0 0 64 64" fill="none" xmlns="http://www.w3.org/2000/svg">
<path d="M27.589 2.37478L24.6408 4.81741L20.8307 4.18413C17.2474 3.55086 16.9753 3.59609 15.8867 4.4103C15.2063 4.90788 14.1631 6.58153 13.4374 8.34565C11.8952 12.1905 11.7591 12.3715 9.40053 13.05C6.54299 13.9094 4.18439 15.2212 3.86688 16.1259C3.68545 16.533 3.77616 18.659 4.09367 20.8302L4.63796 24.7203L2.32471 27.6153C-0.759616 31.4149 -0.759616 32.4101 2.234 36.1645C4.72868 39.2404 4.72868 39.3308 4.00295 43.8995C3.36794 48.061 3.77616 48.6942 8.40266 50.5036L11.9859 51.8606L13.392 55.3889C14.1631 57.3339 15.2063 59.2337 15.6599 59.5504C16.5217 60.1836 18.336 60.1384 23.0986 59.4147C24.55 59.1885 25.049 59.4147 27.2715 61.224C30.1291 63.5762 31.7619 64.2999 32.9412 63.8928C33.3948 63.7571 35.0277 62.6263 36.5699 61.405L39.382 59.1885L43.5096 59.7765C47.4104 60.2741 47.6825 60.2741 48.5443 59.4147C49.0433 58.9171 50.0411 57.0173 50.7215 55.1627L52.0369 51.8154L55.4841 50.5036C60.2466 48.6942 60.5641 48.1062 59.8838 43.0852L59.3395 39.2404L61.3806 36.6168C64.8731 32.1839 64.8731 31.5054 61.3806 27.2082C59.5209 24.9465 59.3395 24.4941 59.5663 23.0466C60.7456 16.0354 60.4281 14.995 56.5727 13.7737C52.309 12.3715 51.9008 12.0096 50.7669 8.93369C48.8165 3.64133 48.1815 3.23422 42.7385 4.18413L39.4728 4.77217L36.4338 2.37478C32.4423 -0.791595 31.4898 -0.791595 27.589 2.37478ZM36.0256 5.36021L38.5656 7.3505L42.0582 6.85293C47.1382 6.03872 46.8661 5.94825 48.2722 9.56696C48.9525 11.3763 49.8143 13.1857 50.1772 13.5928C50.5401 13.9999 52.3544 14.9498 54.2141 15.6283C58.0241 17.0758 57.9334 16.9401 57.117 22.0515C56.5727 25.2631 56.7541 25.7154 59.3848 28.9271C61.8795 32.003 61.8795 31.9125 59.9291 34.2646C56.618 38.2905 56.5273 38.5166 57.0716 41.7282C57.9788 46.8397 57.9788 46.7944 54.3955 48.1514C50.404 49.6894 49.769 50.2322 48.499 53.5795C46.73 58.1481 47.229 57.8315 43.1921 57.1077C41.2417 56.7911 39.246 56.6102 38.747 56.7006C38.2481 56.8363 36.6152 57.9672 35.1184 59.1885C33.6216 60.4551 32.2609 61.4954 32.0794 61.4954C31.898 61.4954 30.6733 60.5908 29.3126 59.5051C25.5933 56.5197 25.4118 56.4292 21.6471 57.0173C19.8328 57.2434 18.0639 57.5148 17.7464 57.5601C17.3835 57.6053 16.6578 56.5197 16.0681 55.0722L14.9795 52.4487L16.2042 52.1773C16.8846 51.9963 17.7464 51.6344 18.1092 51.3178C18.5628 50.9559 21.6471 50.6393 27.1808 50.4584C39.881 49.9608 42.1035 49.6894 43.1467 48.3776C43.8725 47.5182 44.0085 46.8397 43.7818 45.3469C43.6457 44.3066 43.691 43.3567 43.9178 43.221C44.5528 42.8138 44.8703 40.2808 44.4168 39.1047C44.1446 38.3809 44.1446 37.9286 44.4621 37.7024C44.7343 37.5667 45.2332 36.7073 45.5961 35.8931C46.1404 34.5813 46.1404 34.1289 45.6414 32.8624C45.1425 31.6863 45.1425 31.1435 45.5961 30.0579C46.3218 28.2938 45.9589 26.7106 44.5528 25.3988C43.5096 24.4489 43.1014 24.4037 36.4791 24.4037H29.5394L30.4012 21.1016C31.898 15.4021 31.4444 13.0047 28.5415 11.512C25.5479 9.97407 25.3211 10.155 21.8286 17.9352C19.1978 23.7252 18.4267 25.0369 17.7917 24.9012C17.3382 24.8108 14.7981 24.6298 12.122 24.5394L7.31407 24.3584L6.76978 21.1921C6.45228 19.4732 6.3162 17.7543 6.45228 17.4377C6.58835 17.0758 8.31195 16.2163 10.2623 15.4926L13.8002 14.1356L15.4331 10.3359C17.2928 6.03872 16.9753 6.17442 22.8718 6.9434L25.5933 7.30527L28.7683 4.77217C31.4444 2.64618 32.0341 2.32954 32.7145 2.82712C33.1227 3.14375 34.6195 4.2746 36.0256 5.36021ZM28.3147 14.6332C28.9951 15.6283 28.9498 16.0354 27.9519 19.9255C27.1354 23.3181 26.7272 24.2227 26.0015 24.3584C24.9583 24.5394 24.4593 25.2179 24.7768 26.0773C24.9583 26.5297 26.8633 26.6654 33.7123 26.6654C42.421 26.6654 43.5096 26.8463 43.5096 28.2938C43.5096 29.2437 42.1489 30.2841 40.9696 30.2841C40.3346 30.2841 39.7449 30.6007 39.6088 30.9626C39.246 31.9125 40.2438 32.9981 41.4685 32.9981C43.8725 32.9981 44.0539 35.7574 41.6499 36.074C39.246 36.4359 38.7017 38.0191 40.6974 38.969C42.5117 39.8736 42.421 41.6378 40.4706 42.2258C38.611 42.7234 38.2935 44.6232 40.0171 44.8494C41.4685 45.0303 41.6499 46.9301 40.2438 47.2015C38.8831 47.4729 20.7853 48.4681 20.5586 48.2419C20.4678 48.1967 20.3771 43.4471 20.3771 37.7024L20.3318 27.3439L22.1007 23.4538C23.0986 21.3278 24.55 18.2519 25.2758 16.5782C26.0469 14.9046 26.8633 13.5475 27.1354 13.5475C27.4076 13.5475 27.9519 14.0451 28.3147 14.6332ZM16.7939 27.5248C17.8824 28.3842 17.8824 28.4295 17.8824 38.1095C17.8824 47.0206 17.7917 47.9253 17.0206 48.7847C15.8413 50.0965 14.2538 49.9608 9.94483 48.2871L6.22549 46.8397L6.49763 44.8041C7.49551 38.2452 7.54086 38.5166 4.77404 35.0789C3.18651 33.179 2.37007 31.7768 2.59686 31.4601C2.82365 31.1887 3.77616 30.0127 4.68332 28.7914L6.40692 26.6654H11.0788C14.9795 26.6654 15.9321 26.8011 16.7939 27.5248Z" fill="#3F49A7"/>
<path d="M41.9211 3.36322C40.8722 6.0306 41.4491 7.59965 43.1798 6.91973C44.0713 6.55362 45.0678 3.72933 44.6482 2.631C44.2287 1.48036 42.4455 1.95108 41.9211 3.36322Z" fill="#3F49A7"/>
<path d="M47.6836 5.66398C46.4249 7.44223 46.4774 8.95898 47.7885 9.22049C48.9947 9.4297 51.145 6.2916 50.4632 5.24556C49.6241 3.88572 48.8899 3.99032 47.6836 5.66398Z" fill="#3F49A7"/>
<path d="M52.5139 9.48224C50.049 12.0973 51.9895 13.9802 54.5593 11.4697C55.5033 10.5283 55.9753 9.63915 55.7655 9.11613C55.2935 7.91319 53.825 8.0701 52.5139 9.48224Z" fill="#3F49A7"/>
<path d="M56.2334 14.1338C54.8698 14.7614 54.4503 15.7028 55.0272 16.6443C55.8663 18.0564 60.1668 15.912 59.5899 14.343C59.2228 13.4015 57.9641 13.2969 56.2334 14.1338Z" fill="#3F49A7"/>
<path d="M58.3351 19.7873C57.6534 20.1011 57.1289 20.7287 57.1289 21.3563C57.1289 22.1931 57.4436 22.4023 58.8596 22.4023C61.0098 22.4023 62.6881 21.304 62.2161 20.1011C61.849 19.2119 60.1707 19.055 58.3351 19.7873Z" fill="#3F49A7"/>
<path d="M57.8615 26.2714C57.3371 27.6313 58.1238 28.1543 60.5887 28.1543C62.7389 28.1543 62.9487 28.0497 62.7914 26.9514C62.6865 26.0099 62.2669 25.7484 60.3789 25.6438C58.8056 25.5392 58.0713 25.6961 57.8615 26.2714Z" fill="#3F49A7"/>
</svg>
