<svg width="88" height="88" viewBox="0 0 88 88" fill="none" xmlns="http://www.w3.org/2000/svg">
<path d="M50.9572 47.7096L50.9575 47.7094L62.1982 40.6942L50.9572 47.7096ZM50.9572 47.7096C49.8996 48.3722 48.6377 49.0176 47.2935 49.7051C47.2039 49.7509 47.1139 49.7969 47.0236 49.8431C44.6749 51.0345 42.1517 52.3152 40.2172 53.8871C38.2812 55.4602 36.9105 57.3448 36.9105 59.7481C36.9105 63.8994 40.2871 67.2761 44.4384 67.2761C46.8417 67.2761 48.7263 65.9053 50.2994 63.9693C51.8713 62.0348 53.152 59.5116 54.3434 57.1629L54.3827 57.0857C55.1072 55.6635 55.7827 54.3374 56.4769 53.2293L56.4771 53.2291M50.9572 47.7096L56.4771 53.2291M56.4771 53.2291L63.4923 41.9883C63.4923 41.9883 63.4923 41.9883 63.4923 41.9882C63.7282 41.614 63.671 41.1335 63.362 40.8245C63.0532 40.5156 62.5729 40.4584 62.1988 40.6939L56.4771 53.2291ZM22.724 71.4795L22.7251 71.4784L26.6227 67.5809L29.727 64.4765C30.0939 64.1096 30.0923 63.5163 29.7282 63.1441L29.727 63.143C29.3601 62.7761 28.7668 62.7777 28.3947 63.1418L28.3935 63.143L25.9664 65.57C21.8391 61.1242 19.483 55.4441 19.2596 49.3816H22.6943C23.2147 49.3816 23.6375 48.9589 23.6375 48.4384C23.6375 47.9179 23.2147 47.4952 22.6943 47.4952H19.2596C19.4911 41.2627 21.9958 35.5954 25.9732 31.3136L28.3935 33.7339C28.58 33.9204 28.817 34.0103 29.0603 34.0103C29.3035 34.0103 29.5405 33.9204 29.727 33.7339C30.0939 33.3669 30.0923 32.7737 29.7282 32.4015L29.727 32.4003L27.3067 29.9801C31.5885 26.0026 37.2493 23.4979 43.4884 23.2665V26.7011C43.4884 27.2216 43.9111 27.6443 44.4316 27.6443C44.952 27.6443 45.3748 27.2216 45.3748 26.7011V23.2665C51.6073 23.4979 57.2746 26.0027 61.5564 29.9801L59.1361 32.4003C58.7692 32.7672 58.7709 33.3605 59.135 33.7327L59.1361 33.7339C59.3227 33.9204 59.5596 34.0103 59.8029 34.0103C60.0462 34.0103 60.2831 33.9204 60.4697 33.7339L62.8899 31.3136C66.8674 35.5953 69.3721 41.2561 69.6035 47.4952H66.1689C65.6484 47.4952 65.2257 47.918 65.2257 48.4384C65.2257 48.9589 65.6484 49.3816 66.1689 49.3816H69.6035C69.3802 55.4444 67.0306 61.131 62.8969 65.5702L60.4697 63.143C60.1027 62.7761 59.5095 62.7777 59.1373 63.1418L59.1361 63.143C58.7692 63.5099 58.7709 64.1031 59.135 64.4753L59.1361 64.4765L66.1449 71.4852C66.3314 71.6718 66.5684 71.7616 66.8116 71.7616C67.0549 71.7616 67.2918 71.6718 67.4784 71.4852C73.6332 65.3304 77.02 57.1485 77.02 48.4453C77.0269 39.7352 73.6332 31.5464 67.4784 25.3916C61.3236 19.2368 53.1416 15.85 44.4384 15.85C35.7352 15.85 27.5532 19.2368 21.3984 25.3916C15.2437 31.5464 11.85 39.7351 11.85 48.4384C11.85 57.1416 15.2368 65.3236 21.3916 71.4784C21.7585 71.8453 22.3518 71.8436 22.724 71.4795ZM54.8823 52.2292L54.8823 52.2293C54.1329 53.4324 53.4188 54.8335 52.6673 56.309L52.6673 56.3091C51.575 58.4595 50.4172 60.7365 49.0728 62.477C47.7264 64.22 46.2199 65.3897 44.4384 65.3897C41.3281 65.3897 38.7968 62.8586 38.7968 59.7413C38.7968 57.9598 39.9665 56.4532 41.7095 55.1069C43.4501 53.7624 45.727 52.6047 47.8774 51.5124L47.8775 51.5123C49.353 50.7609 50.7541 50.0468 51.9572 49.2974L51.9573 49.2973L59.743 44.4369L54.8823 52.2292ZM71.5087 48.4384C71.5087 41.031 68.5147 34.3103 63.6801 29.4159C63.6505 29.3728 63.6192 29.3344 63.5809 29.296C63.5487 29.2639 63.5056 29.2313 63.4784 29.2108C63.4732 29.2069 63.4685 29.2034 63.4647 29.2004C58.5699 24.3637 51.8477 21.3681 44.4384 21.3681C37.031 21.3681 30.3103 24.3622 25.4159 29.1967C25.3728 29.2263 25.3344 29.2576 25.296 29.296C25.2639 29.3281 25.2313 29.3712 25.2108 29.3984C25.2069 29.4036 25.2034 29.4083 25.2004 29.4121C20.3637 34.3069 17.3681 41.0291 17.3681 48.4384C17.3681 55.3546 19.9446 61.8716 24.6462 66.904L22.075 69.4752C16.6848 63.7536 13.7364 56.3214 13.7364 48.4384C13.7364 31.5088 27.5089 17.7295 44.4384 17.7295C61.3679 17.7295 75.1405 31.5088 75.1405 48.4384C75.1405 56.3281 72.1853 63.7603 66.8018 69.4751L64.2307 66.904C68.9322 61.8716 71.5087 55.3546 71.5087 48.4384ZM44.4384 56.357C42.5709 56.357 41.0473 57.8806 41.0473 59.7481C41.0473 61.6156 42.5709 63.1392 44.4384 63.1392C46.3059 63.1392 47.8295 61.6156 47.8295 59.7481C47.8295 57.8806 46.3059 56.357 44.4384 56.357ZM44.4384 61.2528C43.605 61.2528 42.9268 60.5747 42.9268 59.7413C42.9268 58.9086 43.6042 58.2365 44.4384 58.2365C45.2714 58.2365 45.9432 58.9143 45.9432 59.7413C45.9432 60.5819 45.2714 61.2528 44.4384 61.2528Z" fill="#3F4473" stroke="#3F4473" stroke-width="0.3"/>
</svg>
