<svg width="40" height="41" viewBox="0 0 40 41" fill="none" xmlns="http://www.w3.org/2000/svg">
<path d="M3.33602 15.7888C4.23638 15.1503 5.12806 14.5178 6.01563 13.8884C5.87852 12.8939 6.18658 12.1051 7.05678 11.6105C7.7917 11.1928 8.55449 11.2317 9.24416 11.7166C10.0824 12.3052 10.3031 13.1384 10.0444 14.1284C10.8488 14.6745 11.6509 15.2189 12.4526 15.7632C13.4315 15.068 14.3836 15.0882 15.3379 15.8523C15.7044 15.6142 16.0778 15.372 16.4526 15.1288C15.538 11.3098 16.1614 7.79473 18.5463 4.66355C20.4037 2.22525 22.8858 0.733935 25.9018 0.191887C32.1308 -0.927401 38.1157 2.95514 39.6253 9.09363C40.4572 12.4762 39.9014 15.6658 37.9827 18.5708C36.0673 21.4702 33.3306 23.1631 29.8977 23.7961C29.8721 24.8313 29.8461 25.8642 29.82 26.9159C29.8973 26.9259 29.9594 26.9392 30.0225 26.9405C30.1884 26.9451 30.3548 26.9405 30.5207 26.9469C30.9581 26.9634 31.2451 27.2527 31.262 27.6896C31.2643 27.7477 31.2629 27.8057 31.2624 27.8638C31.2524 30.7522 31.2437 33.6412 31.2318 36.5297C31.2263 37.8898 30.2625 39.2993 28.9997 39.8044C27.6628 40.3386 26.1957 39.8473 25.3936 38.6019C24.9549 37.9209 24.8095 37.1618 24.8063 36.3702C24.7972 34.1124 24.7981 31.8546 24.7935 29.5968C24.7922 28.8912 24.7867 28.186 24.7835 27.4803C24.7817 27.1284 24.9983 26.9104 25.3584 26.9053C25.6148 26.9022 25.8712 26.9049 26.1263 26.9049C26.1811 26.7353 26.2629 24.2061 26.2263 23.8208C21.7199 22.9753 18.5783 20.4355 16.7867 16.1768C16.49 16.3688 16.1879 16.5639 15.8813 16.7623C16.0833 17.808 15.8008 18.6604 14.8602 19.196C14.1185 19.6183 13.347 19.5767 12.6505 19.0827C11.8059 18.4835 11.5915 17.6416 11.8561 16.6384C11.0568 16.0959 10.256 15.5525 9.45576 15.0095C8.42788 15.7371 7.45393 15.6828 6.50329 14.8414C5.65 15.4465 4.79305 16.0539 3.93061 16.6654C4.09972 17.2463 4.05906 17.7961 3.76518 18.3139C3.52707 18.7335 3.17742 19.0306 2.72678 19.202C1.82459 19.5461 0.799897 19.1924 0.295326 18.3674C-0.204217 17.5502 -0.0579604 16.4931 0.64268 15.8404C1.3223 15.207 2.44616 15.074 3.33602 15.7888ZM32.2748 10.1156C32.2611 10.0955 32.2474 10.0749 32.2341 10.0548C32.2117 10.0479 32.1898 10.0356 32.1674 10.0351C31.3292 10.0255 30.491 10.0173 29.6532 10.0073C29.5376 10.0059 29.4206 10.0041 29.3059 9.98897C29.0997 9.96155 28.9658 9.82215 28.9316 9.61466C28.8881 9.35323 29.0358 9.09729 29.305 9.01456C29.4531 8.96886 29.6148 8.94921 29.7702 8.94875C30.9073 8.94281 32.0435 8.93732 33.1793 9.03102C33.6331 9.06849 33.7917 9.07855 33.9101 9.65762C34.1583 10.8729 34.2716 12.1023 34.2721 13.3423C34.2721 13.3921 34.2698 13.4424 34.262 13.4913C34.2232 13.739 34.0367 13.9172 33.7967 13.9373C33.5499 13.9584 33.3379 13.8235 33.2602 13.5836C33.2327 13.4986 33.2232 13.4053 33.2186 13.3148C33.1953 12.8509 33.1843 12.3861 33.1537 11.9227C33.1304 11.5703 33.0838 11.2198 33.0408 10.8025C31.2327 12.5955 29.47 14.3446 27.7067 16.0927C27.7483 16.1732 27.7789 16.2317 27.8091 16.2902C28.1395 16.9405 28.0965 17.5744 27.703 18.1796C27.1889 18.9702 26.1555 19.319 25.2451 19.0233C24.2734 18.7074 23.7625 17.8043 23.9914 16.8107C24.0038 16.7563 24.0074 16.7001 24.0134 16.6558C23.1148 16.0461 22.2305 15.4465 21.3493 14.8487C20.49 15.4807 19.6258 15.4949 18.7373 14.9081C18.3996 15.1275 18.0618 15.3468 17.7305 15.5621C19.5705 20.9574 25.6062 24.3002 31.5399 22.2824C37.4974 20.2568 40.486 13.632 38.0993 7.81575C35.7218 2.02187 28.9201 -0.599247 23.283 2.14299C17.6546 4.88065 16.3817 10.8857 17.4443 14.4835C17.6683 14.3377 17.8886 14.1946 18.1089 14.0516C18.081 13.9561 18.0586 13.8852 18.0399 13.8135C17.8031 12.9049 18.2158 11.9437 19.0463 11.5077C19.9206 11.0484 20.8676 11.2239 21.5371 11.9597C22.0024 12.4711 22.1404 13.0909 21.9932 13.7696C21.9795 13.8322 21.9686 13.8957 21.9526 13.9762C22.8507 14.585 23.7419 15.1892 24.6299 15.7906C24.7254 15.728 24.7926 15.6809 24.8625 15.638C25.4146 15.3016 26.0056 15.1942 26.629 15.3779C26.8095 15.4309 26.9114 15.3925 27.0376 15.2669C28.719 13.5909 30.406 11.9204 32.0929 10.2495C32.1459 10.1974 32.2131 10.1594 32.2734 10.1151L32.2748 10.1156ZM30.2008 28.0004H25.8507C25.8507 28.3066 25.8498 28.611 25.8507 28.9159C25.8575 31.4296 25.874 33.9437 25.8639 36.4575C25.8616 37.0178 25.9754 37.5242 26.267 37.9954C26.9 39.0187 28.1226 39.2669 29.0865 38.5475C29.8036 38.0123 30.1669 37.2701 30.1733 36.382C30.193 33.6773 30.193 30.973 30.2008 28.2682C30.2008 28.1947 30.2008 28.1211 30.2008 28.0004ZM28.8333 23.9282H27.3255C27.257 24.3706 27.2177 26.7253 27.2753 26.9204H28.7597C28.7844 25.9136 28.8091 24.9172 28.8333 23.9282ZM14.8877 17.3523C14.8831 16.7751 14.416 16.3167 13.8365 16.3208C13.2634 16.3244 12.7958 16.8002 12.8022 17.3733C12.8086 17.9428 13.2889 18.414 13.858 18.4085C14.4311 18.4031 14.8922 17.93 14.8877 17.3523ZM8.0563 14.4506C8.62395 14.457 9.09196 13.9963 9.09288 13.4309C9.09333 12.8706 8.62121 12.3967 8.06271 12.398C7.50786 12.3994 7.05129 12.8528 7.04169 13.4113C7.03209 13.9807 7.48456 14.4442 8.05586 14.4506H8.0563ZM20.0175 12.3263C19.4736 12.3212 19.0394 12.7504 19.0339 13.2988C19.0289 13.8208 19.4635 14.2627 19.9946 14.2746C20.5298 14.287 20.9837 13.8532 20.9873 13.308C20.9905 12.8121 20.6285 12.329 20.0175 12.3258V12.3263ZM2.02705 18.2673C2.55265 18.2641 2.97221 17.8427 2.97266 17.3176C2.97266 16.7792 2.54946 16.3615 2.0065 16.3651C1.47862 16.3683 1.06316 16.7861 1.06225 17.3144C1.06179 17.8542 1.48363 18.271 2.02705 18.2673ZM25.8594 18.0667C26.2391 18.0667 26.549 17.9273 26.7579 17.6818C27.1272 17.2481 26.9914 16.6435 26.4626 16.4332C26.0536 16.2705 25.6628 16.335 25.3214 16.6169C25.06 16.8331 24.927 17.1147 25.012 17.4542C25.0975 17.7943 25.3516 17.9707 25.6806 18.0475C25.7524 18.0644 25.8283 18.0635 25.8594 18.0662V18.0667Z" fill="#DFDFE0"/>
<path d="M28.0443 2.7998C32.6696 2.81123 36.5338 6.03747 37.3378 10.4598C38.2445 15.4474 35.0261 20.2409 30.0654 21.2884C29.282 21.4538 28.489 21.5128 27.6897 21.4831C27.6156 21.4804 27.5407 21.4698 27.4685 21.452C27.218 21.3903 27.0462 21.1728 27.0507 20.9305C27.0548 20.6961 27.2199 20.4886 27.4625 20.4301C27.5494 20.4091 27.6435 20.4072 27.734 20.4118C30.8547 20.5681 33.7751 18.9749 35.3309 16.2655C38.106 11.4324 35.3876 5.26142 29.9534 4.06032C25.5457 3.08591 21.2043 5.76827 20.1065 10.144C20.0823 10.2404 20.0594 10.3387 20.0206 10.4292C19.9123 10.6819 19.6718 10.8026 19.4127 10.7441C19.175 10.6901 19.0101 10.4717 19.021 10.2079C19.0256 10.1015 19.0498 9.99451 19.0754 9.89031C19.9301 6.37568 22.8487 3.61745 26.4059 2.96708C26.7157 2.91041 27.0283 2.86607 27.3419 2.835C27.6138 2.80803 27.8889 2.80757 28.0439 2.80026L28.0443 2.7998Z" fill="#DFDFE0"/>
<path d="M20.5054 16.1606C20.6485 16.162 20.7984 16.2909 20.9113 16.481C21.0927 16.7872 21.2655 17.0998 21.4639 17.3955C21.8889 18.029 22.4273 18.556 23.0525 18.9906C23.2349 19.1172 23.4405 19.2109 23.6371 19.3169C23.973 19.4979 24.0575 19.891 23.8117 20.151C23.6439 20.3288 23.4314 20.3613 23.2171 20.2763C23.0027 20.1913 22.7911 20.088 22.5987 19.9618C21.8423 19.4659 21.1924 18.8521 20.6727 18.1113C20.4259 17.7594 20.2134 17.3828 19.9995 17.0089C19.9405 16.9061 19.9076 16.7749 19.9054 16.6556C19.9003 16.3695 20.1298 16.1579 20.5054 16.1602V16.1606Z" fill="#DFDFE0"/>
</svg>
