<svg width="24" height="24" viewBox="0 0 24 24" fill="none" xmlns="http://www.w3.org/2000/svg">
<rect width="24" height="24" rx="12" fill="#F2F3FA"/>
<g clip-path="url(#clip0_8815_114220)">
<path fill-rule="evenodd" clip-rule="evenodd" d="M11.8553 7.94639V8.71248H14.8881C15.1906 8.71248 15.4657 8.83606 15.6651 9.03541C15.8644 9.23475 15.988 9.50937 15.988 9.8124V10.5586H16.5988C16.8223 10.5586 17.0254 10.65 17.1722 10.7968C17.3194 10.944 17.4103 11.1467 17.4103 11.3702V13.4365C17.4103 13.66 17.319 13.8631 17.1722 14.0099C17.0671 14.115 16.9331 14.1917 16.7839 14.2267V15.0113C16.7839 15.5752 16.5538 16.0875 16.1831 16.4587C15.8119 16.8299 15.3 17.0595 14.7357 17.0595H12.4354C12.4061 17.1481 12.3564 17.2276 12.2915 17.2925C12.1845 17.3995 12.0363 17.4663 11.8734 17.4663H11.399C11.2361 17.4663 11.0879 17.3995 10.9809 17.2925C10.8739 17.1855 10.8071 17.0373 10.8071 16.8744C10.8071 16.7115 10.8739 16.5633 10.9809 16.4563C11.0879 16.3493 11.2361 16.2825 11.399 16.2825H11.8734C12.0363 16.2825 12.1845 16.3493 12.2915 16.4563C12.3559 16.5212 12.4061 16.6003 12.4354 16.6893H14.736C15.1982 16.6893 15.6177 16.5008 15.9212 16.1968C16.2251 15.8929 16.4136 15.4734 16.4136 15.0112V14.248H15.9879V14.9942C15.9879 15.2968 15.8644 15.5718 15.665 15.7712C15.4657 15.9705 15.1911 16.0941 14.888 16.0941H10.8525L9.33784 17.2759C9.25593 17.3394 9.16454 17.3602 9.07885 17.3498C9.01493 17.3417 8.9548 17.3162 8.90413 17.2773C8.85442 17.239 8.81417 17.1874 8.79002 17.1277C8.75735 17.0472 8.75356 16.9535 8.79428 16.8588L9.12051 16.0946H8.45243C8.14987 16.0946 7.87478 15.971 7.67543 15.7717C7.4761 15.5723 7.35251 15.2972 7.35251 14.9947V14.2485L6.74171 14.248C6.51822 14.248 6.31511 14.1566 6.16832 14.0098C6.02107 13.8626 5.93016 13.6599 5.93016 13.4364L5.92969 11.3701C5.92969 11.1466 6.02107 10.9435 6.16785 10.7967C6.31509 10.6495 6.51775 10.5586 6.74124 10.5586H7.35204V9.81237C7.35204 9.50981 7.47561 9.23472 7.67496 9.03537C7.87429 8.83604 8.14892 8.71245 8.45195 8.71245H11.4847V7.94635C11.2849 7.90847 11.1064 7.81093 10.9686 7.67315C10.7891 7.4937 10.6779 7.2456 10.6779 6.97192C10.6779 6.69824 10.7887 6.45013 10.9686 6.27068C11.1485 6.09075 11.3966 5.97949 11.6703 5.97949C11.944 5.97949 12.1921 6.09029 12.3715 6.27021C12.551 6.44966 12.6622 6.69776 12.6622 6.97144C12.6622 7.24512 12.5515 7.49323 12.3715 7.67268C12.2337 7.81093 12.0551 7.90851 11.8553 7.94639ZM15.988 10.9284V13.8778H16.5988C16.72 13.8778 16.8303 13.8281 16.9103 13.748C16.9903 13.668 17.04 13.5577 17.04 13.4365L17.0405 11.3702C17.0405 11.249 16.9908 11.1387 16.9108 11.0586C16.8308 10.9786 16.7204 10.9289 16.5992 10.9289L15.988 10.9284ZM7.35256 13.8778V10.9284H6.74176C6.62054 10.9284 6.51022 10.9782 6.4302 11.0582C6.35018 11.1382 6.30047 11.2485 6.30047 11.3697V13.436C6.30047 13.5572 6.35019 13.6676 6.4302 13.7476C6.51022 13.8276 6.62054 13.8773 6.74176 13.8773L7.35256 13.8778ZM14.8886 9.08239H8.45195C8.25167 9.08239 8.06938 9.1643 7.9368 9.29687C7.8047 9.42897 7.72231 9.61127 7.72231 9.81202V14.9948C7.72231 15.1951 7.80423 15.3774 7.9368 15.51C8.06938 15.6421 8.25167 15.7244 8.45195 15.7244H9.40034V15.7249C9.42449 15.7249 9.44911 15.7297 9.47278 15.7396C9.56653 15.7794 9.61056 15.8883 9.57032 15.982L9.15745 16.9498L10.6641 15.7742C10.6973 15.7434 10.7413 15.7249 10.7901 15.7249H14.8885C15.0888 15.7249 15.2711 15.643 15.4036 15.5104C15.5357 15.3779 15.6181 15.1956 15.6181 14.9953V14.0639L15.6177 10.7433V9.81199C15.6177 9.61171 15.5353 9.42942 15.4032 9.29684C15.2711 9.16475 15.0888 9.08239 14.8886 9.08239ZM11.8734 16.6534H11.399C11.3384 16.6534 11.283 16.6785 11.2427 16.7183C11.2025 16.7585 11.1774 16.8139 11.1774 16.8745C11.1774 16.9352 11.2025 16.9905 11.2427 17.0308C11.283 17.071 11.3384 17.0957 11.399 17.0957H11.8734C11.934 17.0957 11.9894 17.0706 12.0297 17.0308C12.0699 16.9905 12.0945 16.9352 12.0945 16.8745C12.0945 16.8139 12.0694 16.7585 12.0297 16.7183C11.9894 16.6785 11.934 16.6534 11.8734 16.6534ZM12.1097 6.53221C11.9975 6.41952 11.8417 6.35039 11.6703 6.35039C11.4989 6.35039 11.3431 6.41999 11.2309 6.53268C11.1182 6.64537 11.0486 6.80067 11.0486 6.97207C11.0486 7.14348 11.1182 7.29925 11.2309 7.41147C11.3436 7.52416 11.4989 7.59376 11.6703 7.59376C11.8417 7.59376 11.9975 7.52415 12.1097 7.41147C12.2224 7.29878 12.292 7.14348 12.292 6.97207C12.292 6.80019 12.2224 6.64442 12.1097 6.53221ZM9.04713 11.5777C8.81938 11.5777 8.61294 11.67 8.46332 11.8196C8.14277 12.1402 8.14277 12.6662 8.46332 12.9872C8.61247 13.1368 8.81891 13.2292 9.04713 13.2292C9.27534 13.2292 9.48131 13.1368 9.63093 12.9872C9.78056 12.8381 9.87288 12.6316 9.87288 12.4034C9.87288 12.1752 9.78055 11.9692 9.63093 11.8196C9.48178 11.67 9.27534 11.5777 9.04713 11.5777ZM9.36909 12.0814C9.2867 11.9991 9.17306 11.9479 9.04713 11.9479C8.92165 11.9479 8.80754 11.9991 8.72516 12.0814C8.64277 12.1638 8.59163 12.2775 8.59163 12.4034C8.59163 12.5289 8.64277 12.643 8.72516 12.7254C8.80755 12.8078 8.92119 12.8589 9.04713 12.8589C9.1726 12.8589 9.28671 12.8078 9.36909 12.7254C9.45148 12.643 9.50262 12.5293 9.50262 12.4034C9.50262 12.2775 9.45148 12.1638 9.36909 12.0814ZM11.5377 11.5777C11.3099 11.5777 11.1035 11.67 10.9539 11.8196C10.8047 11.9692 10.7119 12.1752 10.7119 12.4034C10.7119 12.6312 10.8043 12.8376 10.9539 12.9872C11.1035 13.1368 11.3095 13.2292 11.5377 13.2292C11.7659 13.2292 11.9719 13.1368 12.1215 12.9872C12.2711 12.8376 12.3635 12.6316 12.3635 12.4034C12.3635 12.1752 12.2711 11.9692 12.1215 11.8196C11.9719 11.67 11.7654 11.5777 11.5377 11.5777ZM11.8597 12.0814C11.7773 11.9991 11.6636 11.9479 11.5377 11.9479C11.4122 11.9479 11.2981 11.9991 11.2157 12.0814C11.1333 12.1638 11.0822 12.2775 11.0822 12.4034C11.0822 12.5289 11.1333 12.643 11.2157 12.7254C11.2981 12.8078 11.4118 12.8589 11.5377 12.8589C11.6632 12.8589 11.7773 12.8078 11.8597 12.7254C11.942 12.643 11.9932 12.5293 11.9932 12.4034C11.9927 12.2775 11.9421 12.1638 11.8597 12.0814ZM14.0283 11.5777C13.8 11.5777 13.5941 11.67 13.4445 11.8196C13.2948 11.9692 13.2025 12.1752 13.2025 12.4034C13.2025 12.6312 13.2948 12.8376 13.4445 12.9872C13.5936 13.1368 13.8 13.2292 14.0283 13.2292C14.2565 13.2292 14.4624 13.1368 14.6121 12.9872C14.7612 12.8381 14.854 12.6316 14.854 12.4034C14.854 12.1752 14.7617 11.9692 14.6121 11.8196C14.4624 11.67 14.256 11.5777 14.0283 11.5777ZM14.3498 12.0814C14.2674 11.9991 14.1537 11.9479 14.0278 11.9479C13.9023 11.9479 13.7882 11.9991 13.7058 12.0814C13.6234 12.1638 13.5723 12.2775 13.5723 12.4034C13.5723 12.5289 13.6234 12.643 13.7058 12.7254C13.7882 12.8078 13.9019 12.8589 14.0278 12.8589C14.1533 12.8589 14.2674 12.8078 14.3498 12.7254C14.4321 12.643 14.4833 12.5293 14.4833 12.4034C14.4833 12.2775 14.4321 12.1638 14.3498 12.0814Z" fill="#3F49A7"/>
</g>
<defs>
<clipPath id="clip0_8815_114220">
<rect width="13.3333" height="14.1818" fill="white" transform="translate(5 4.4502)"/>
</clipPath>
</defs>
</svg>
