<svg width="105" height="112" viewBox="0 0 105 112" fill="none" xmlns="http://www.w3.org/2000/svg">
<g opacity="0.2">
<path d="M52.7351 0.275421C43.349 1.32858 35.1429 5.17257 28.0631 11.7548C22.3779 17.0205 18.5698 23.3394 16.3171 31.08C14.7081 36.7671 14.7081 46.5613 16.3171 52.4063C17.7116 57.4614 20.447 62.8325 23.9333 67.3084C25.3814 69.2567 26.615 70.9418 26.615 71.0997C26.615 71.205 25.8641 71.3104 24.9523 71.3104C23.826 71.3104 22.9142 70.8364 21.9488 69.7306C20.2861 67.7823 19.5352 67.7823 10.0955 69.2567C2.2112 70.5205 0.333984 71.521 0.333984 74.3118C0.333984 76.2602 6.0729 109.645 6.55561 110.33C6.71652 110.645 7.68194 111.225 8.59373 111.593C10.0955 112.225 11.3291 112.173 17.9262 111.067C22.1097 110.33 25.9714 109.54 26.5077 109.276C27.0441 109.013 27.795 108.118 28.2241 107.275C28.6531 106.486 29.0286 105.748 29.0822 105.643C29.1358 105.538 32.4076 106.117 36.3765 106.854C41.4718 107.907 44.3145 108.171 46.299 107.96C49.8389 107.539 69.0937 104.116 71.7218 103.431C73.9209 102.852 102.669 81.4206 103.688 79.5776C104.6 77.9452 104.546 74.9437 103.527 73.522C102.24 71.7316 99.6655 70.6258 97.5201 70.9944C96.5011 71.1524 91.7276 73.522 86.9005 76.3128C82.127 79.051 78.0507 81.3153 77.8898 81.3153C77.7289 81.3153 77.568 80.7887 77.568 80.1042C77.568 79.209 78.4262 78.3665 81.0006 76.6814C93.5512 68.5722 100.738 54.5653 99.9337 39.7159C99.6119 33.239 98.6465 29.3424 96.0184 23.9186C88.295 7.80544 70.7028 -1.77822 52.7351 0.275421ZM56.1141 14.2297V25.0244L53.5933 24.7085C49.7316 24.1819 45.4944 23.3394 42.6518 22.5495L40.0773 21.8123L40.8282 19.6534C43.8854 11.1229 50.6434 3.48753 55.2023 3.38222C56.0605 3.38222 56.1141 4.22473 56.1141 14.2297ZM63.7303 4.90928C66.8947 6.91026 70.3273 11.0702 72.4727 15.7567C75.4226 21.9176 75.4226 21.6017 71.5073 22.8128C69.6301 23.3394 66.8947 23.9713 65.4466 24.1819C63.9984 24.3399 62.0139 24.6032 61.1021 24.7612L59.3322 25.0244V14.177C59.3322 1.85515 59.2249 2.11844 63.7303 4.90928ZM43.7245 8.06873C42.2227 10.1224 40.1846 13.5978 39.1655 15.862C37.9319 18.7055 37.0738 19.9693 36.4838 19.864C36.0011 19.864 34.0702 18.7582 32.1394 17.4944L28.7068 15.2301L31.7103 12.492C35.0893 9.43783 41.6864 5.85712 46.299 4.48802C46.4062 4.43536 45.2263 6.06775 43.7245 8.06873ZM74.7254 6.8576C78.2116 8.48999 86.1496 14.1243 86.1496 14.9669C86.1496 15.7041 78.3189 20.6012 77.8362 20.1273C77.7289 20.022 77.0317 18.4423 76.2271 16.5992C74.6181 12.7552 71.7218 8.06873 69.5764 5.80446L68.1819 4.33005L69.5228 4.69865C70.2737 4.90928 72.58 5.85712 74.7254 6.8576ZM32.6757 21.3911C36.0011 23.3394 36.3229 23.708 36.0547 24.9191C35.8938 25.6563 35.5184 28.1839 35.1429 30.5008C34.7139 33.1863 34.1239 35.1347 33.4803 35.8192C32.8903 36.4511 32.3003 37.6096 32.0321 38.4521L31.6567 39.9792L24.8451 40.1371L18.0334 40.2951V38.8207C18.0871 33.9236 21.4661 24.4979 24.7914 20.0746C26.615 17.5997 26.7223 17.5471 27.8486 18.3369C28.4922 18.8109 30.6912 20.1799 32.6757 21.3911ZM90.0649 19.6007C93.8193 25.2351 96.8765 33.5549 96.8765 38.2415V40.2424H90.3331L83.736 40.1898L82.0733 36.6617C81.1079 34.6608 80.0889 31.2907 79.7134 28.9737C79.3916 26.6568 78.9625 24.4979 78.8552 24.1819C78.6943 23.8133 79.8207 22.8128 81.4297 21.9176C82.9851 21.0225 85.1305 19.706 86.1496 18.9688C87.1686 18.2316 88.1877 17.6524 88.3486 17.5997C88.5631 17.5997 89.314 18.4949 90.0649 19.6007ZM43.939 26.0249C46.0844 26.6042 49.6779 27.2361 51.877 27.4993L55.8459 27.8679L56.0068 30.3428C56.1678 32.4491 56.0068 32.8177 55.0414 33.1337C52.9497 33.7656 50.2679 36.5564 49.8925 38.4521C49.4098 40.927 48.5516 40.7164 47.1571 37.7149C45.7626 34.7661 42.8663 32.8704 39.8092 32.8704C38.7365 32.8704 37.8783 32.6071 37.8783 32.2912C37.8783 30.6061 39.2192 24.9718 39.5946 24.9718C39.8092 24.9718 41.7936 25.4457 43.939 26.0249ZM76.4417 27.6047C77.4607 32.3438 77.3535 32.8704 75.0472 32.8704C73.9209 32.8704 72.2045 33.3443 71.2391 33.9236C69.3619 35.0294 67.3774 37.8202 67.3774 39.2946C67.3774 41.085 66.0365 40.1898 64.6957 37.5043C63.7303 35.5559 62.7648 34.5028 61.3703 33.7656C59.4395 32.8177 59.3322 32.6071 59.3322 30.2375V27.7626L63.2475 27.4467C65.3393 27.2361 68.6646 26.6568 70.5955 26.0776C75.7981 24.6032 75.7981 24.6032 76.4417 27.6047ZM43.4563 37.6622C47.7471 42.612 40.56 48.8256 36.162 43.9285C34.1239 41.7695 34.1775 39.5579 36.2156 37.5569C38.4683 35.3453 41.5255 35.398 43.4563 37.6622ZM60.4585 36.7144C62.5503 38.2941 63.0866 40.8743 61.7458 43.4019C60.3513 46.0348 56.3287 46.456 54.0224 44.2444C52.0379 42.2961 52.0915 39.0313 54.1296 37.2936C55.7923 35.8719 59.0104 35.6086 60.4585 36.7144ZM78.8552 37.3989C79.8743 38.3994 80.2498 39.3473 80.2498 40.769C80.2498 45.1923 74.9399 47.2986 71.6682 44.1391C69.7373 42.2961 69.791 38.9787 71.8291 37.2936C73.9209 35.5033 76.978 35.5559 78.8552 37.3989ZM32.9975 45.0343C34.0166 46.3507 34.1239 46.772 33.5339 47.1406C33.1048 47.4039 32.6221 47.6145 32.3539 47.6145C31.3885 47.6145 26.9368 52.2484 25.8105 54.46C24.2014 57.6194 23.5578 61.4108 24.5769 62.2006C24.9523 62.5692 26.615 62.8852 28.1704 62.9905L31.0667 63.1485L28.9749 64.6229L26.8832 66.0973L25.435 64.4122C22.1633 60.6209 18.0334 49.7208 18.0334 44.8236V43.4019H24.8987H31.7639L32.9975 45.0343ZM50.2143 44.1391C50.2143 44.5077 50.5897 45.1396 51.0188 45.5082C52.1988 46.456 52.0379 46.8773 50.2143 47.6145C48.9271 48.1411 48.2834 48.1411 47.0498 47.6145L45.4944 46.9826L46.5671 45.1923C47.318 43.9285 48.0153 43.4019 48.9271 43.4019C49.6779 43.4019 50.2143 43.7178 50.2143 44.1391ZM68.5037 44.8236C68.8792 45.6662 69.3083 46.456 69.4155 46.614C69.4692 46.8246 68.8256 47.2459 67.9138 47.6145C66.6265 48.1411 65.9829 48.1411 64.7493 47.6145L63.1939 46.9826L64.2666 45.1923C65.6075 42.928 67.431 42.77 68.5037 44.8236ZM96.8765 45.4029C96.8765 50.3 92.8003 60.8842 89.3677 64.8862L88.295 66.1499L86.0423 64.5175L83.7896 62.8852H86.7396C90.8158 62.8852 91.1912 62.5166 90.8158 59.2518C90.2258 54.4073 85.6669 48.1937 82.0733 47.2986L80.8934 46.9826L81.9661 45.1923L83.0388 43.4019H89.9576H96.8765V45.4029ZM43.0272 49.2469C45.8162 49.9314 46.3526 50.5107 45.2263 51.7218C44.0463 53.0382 42.1691 57.1455 42.1691 58.5146C42.1691 59.7257 42.0618 59.7257 34.6602 59.7257C30.5303 59.7257 27.1514 59.6204 27.1514 59.5151C27.1514 58.304 29.1895 54.3547 30.5303 52.9856C34.0702 49.3522 38.3074 48.0884 43.0272 49.2469ZM61.1021 49.4049C62.443 49.7735 64.2666 50.616 65.1784 51.2479C66.9483 52.5116 69.201 55.9344 69.791 58.2513L70.1664 59.7257H57.455H44.7972L45.1726 58.5146C46.0308 55.8291 46.4599 54.9865 48.1225 53.1962C51.6088 49.2469 56.1141 47.9304 61.1021 49.4049ZM78.8016 49.4049C82.2879 50.4053 84.326 52.0377 86.1496 55.1445C88.8313 59.7257 88.8849 59.7257 80.5716 59.7257H73.3845L72.8482 57.4614C72.5264 56.2503 71.5073 54.144 70.6491 52.7223C69.7373 51.3532 69.0401 50.2474 69.1474 50.2474C69.201 50.2474 70.2201 49.8788 71.4 49.4575C74.1354 48.5097 75.7444 48.5097 78.8016 49.4049ZM56.1141 69.7306V76.5761H52.3597C48.8198 76.5761 48.498 76.4708 46.9962 74.8384C45.6017 73.364 40.56 64.3069 40.56 63.2538C40.56 63.0431 44.0463 62.8852 48.3371 62.8852H56.1141V69.7306ZM74.3499 63.4644C74.3499 64.2543 70.9173 71.2577 69.9519 72.4688C69.5764 72.9427 67.002 73.9432 64.3202 74.6804L59.3322 75.9969V69.4147V62.8852H66.8411C72.0973 62.8852 74.3499 63.0431 74.3499 63.4644ZM39.1655 67.677C40.131 69.8886 41.4718 72.4162 42.1155 73.364C42.7591 74.2592 43.1881 74.9964 43.0809 74.9964C42.9736 74.9964 41.0964 74.3118 39.0046 73.4167C36.8592 72.5741 34.3384 71.7316 33.3194 71.521C32.3539 71.363 30.9058 70.5732 30.1013 69.7306L28.7068 68.3089L31.5494 66.4659C35.3038 64.0436 36.4302 63.4117 36.9665 63.5697C37.1811 63.6224 38.2001 65.4654 39.1655 67.677ZM81.6443 65.3074C86.6859 68.2562 86.6323 68.1509 83.3069 71.0997C81.7515 72.5215 79.4989 74.2065 78.3189 74.8384L76.2271 75.9442L74.6717 74.7331L73.0627 73.4693L74.4572 70.6785C75.2081 69.1514 76.2808 66.8871 76.7635 65.6234C77.2998 64.4122 77.8362 63.4117 78.0507 63.4117C78.2653 63.4117 79.8743 64.2543 81.6443 65.3074ZM19.6961 71.8896C19.9107 72.3109 21.3588 80.1568 22.9142 89.3719C25.1132 102.536 25.5959 106.222 25.0596 106.538C23.8796 107.275 9.88097 109.329 9.45189 108.855C8.96918 108.381 3.55207 76.9447 3.55207 74.7858C3.55207 73.7326 3.87388 73.4167 5.32202 73.1534C12.9381 71.7843 18.3553 70.9418 18.7843 70.9944C19.0525 71.0471 19.4816 71.4683 19.6961 71.8896ZM39.3801 76.8394C43.4027 78.3138 47.318 79.367 49.4098 79.5776C53.3251 79.9462 60.1367 79.051 65.1248 77.5239C69.791 76.1022 72.1509 76.1549 73.3845 77.6293C74.3499 78.7877 74.6717 81.5259 74.0281 83.1056C73.2772 85.054 68.1283 87.1076 58.474 89.2666C48.4444 91.4782 46.6744 92.268 48.1225 93.6898C48.8198 94.427 49.9998 94.269 59.1177 92.2154L69.3083 89.9511L82.127 82.5264C97.8956 73.4693 97.1447 73.8379 98.9146 74.0485C100.738 74.2592 101.865 76.2602 101.06 77.8399C100.792 78.4718 94.0339 83.7902 86.1496 89.7405L71.7218 100.535L62.443 102.22C44.6899 105.432 44.7972 105.432 36.0011 103.747C28.5995 102.326 28.2777 102.22 28.0095 100.851C27.8486 100.114 26.8295 94.3743 25.8105 88.1608C24.7378 81.9472 23.7724 76.3128 23.6115 75.6809C23.236 74.2592 24.416 73.9432 29.2967 74.2065C31.8176 74.3645 34.6602 75.1017 39.3801 76.8394Z" fill="#EBFCE3"/>
<path d="M14.2908 97.3209C12.789 99.164 14.8808 102.218 16.8653 101.007C18.7425 99.8485 18.0452 96.5837 15.8998 96.5837C15.3635 96.5837 14.6662 96.9523 14.2908 97.3209Z" fill="#EBFCE3"/>
</g>
</svg>
