<svg width="104" height="112" viewBox="0 0 104 112" fill="none" xmlns="http://www.w3.org/2000/svg">
<g opacity="0.2">
<path d="M77.6818 11.3902C75.3566 12.2108 72.6667 14.4448 71.299 16.5876C70.4327 18.001 69.7489 18.5936 69.2929 18.4113C68.8826 18.2745 66.831 17.545 64.7338 16.77C44.9471 9.52095 21.8779 17.0435 9.93291 34.5962C7.2886 38.5171 4.32516 44.9911 3.0486 49.5958C2.13677 52.9696 2 54.5197 2 61.4496C2 68.3795 2.13677 69.9296 3.0486 73.3034C7.37979 89.1692 18.9144 101.388 34.5067 106.585C40.0688 108.409 45.0839 109.047 51.7402 108.728C57.6671 108.454 59.2172 107.998 59.2172 106.585C59.2172 105.263 57.9407 104.807 55.342 105.263C49.5974 106.175 40.6615 105.4 34.9626 103.439C26.3458 100.476 18.4585 94.6401 13.0787 87.1631C11.3462 84.838 7.69893 77.6801 7.69893 76.6771C7.69893 75.6285 9.93291 75.5373 12.0301 76.4492C13.6714 77.1786 14.492 77.9993 16.2245 80.6892C19.0512 85.1115 20.191 86.069 22.3338 86.069C23.6559 86.069 24.2942 85.7954 25.206 84.6556C25.8443 83.8806 26.3914 83.0599 26.3914 82.832C26.3914 82.1937 29.446 80.8259 33.914 79.4582C40.1144 77.5889 41.8925 75.1726 41.8925 68.6074C41.8925 64.1851 41.2542 63.5924 36.1024 63.2276C32.3639 62.9541 31.8168 62.8173 28.443 60.8113C26.437 59.6715 23.9751 58.4861 22.9721 58.2126C20.1454 57.4375 18.4129 56.161 17.5011 54.2005C16.5437 52.0122 16.726 50.0973 18.3673 45.5382C19.3703 42.8939 19.6439 41.2982 19.6895 37.7876C19.7351 35.3713 19.5983 32.4534 19.4159 31.3137L19.0512 29.2164L22.3794 26.7089C28.4886 22.1042 34.9626 19.2775 41.9837 18.1377C45.8589 17.4995 57.1656 17.7274 57.8495 18.4113C58.123 18.6848 57.8039 19.4143 57.12 20.3261C55.5699 22.2866 51.9682 23.3352 47.865 23.016C40.2512 22.3777 36.8318 25.25 39.3394 30.1739C40.6615 32.727 40.5247 33.958 38.4275 40.9334C36.3303 47.7722 37.6069 51.6474 43.2602 55.5683C47.5002 58.5317 50.4637 57.939 52.6065 53.699C53.9286 51.1003 55.6611 49.6414 59.7643 47.8177C61.4056 47.0427 64.1411 45.4014 65.828 44.1248C67.4693 42.8939 68.9282 41.8453 69.065 41.8453C69.1562 41.8453 69.2473 47.2707 69.2473 53.8814C69.2473 66.7382 69.3841 67.3765 71.4813 66.6926C72.3932 66.419 72.3932 66.0087 72.5299 43.7601C72.6667 21.5571 72.6667 21.0556 73.6697 19.2775C74.9007 16.9979 76.314 15.6302 78.4568 14.7184C83.1071 12.8035 88.5325 15.0375 90.7209 19.7334C91.496 21.4203 91.5871 23.244 91.5871 47.0883C91.5871 75.9932 91.4048 74.352 95.4168 78.8199C104.398 88.8044 99.8392 104.442 86.8456 108.181C83.4263 109.184 78.6848 108.91 75.083 107.543C72.0284 106.357 68.062 102.938 66.3295 99.9743C62.6822 93.7739 63.2293 85.2483 67.6516 79.7317C69.5209 77.4066 69.6121 76.7227 68.2443 75.9932C67.3325 75.4917 67.059 75.6285 65.6912 77.2242C56.8465 87.4823 60.4026 103.986 72.8035 110.096C75.8125 111.6 76.6332 111.828 80.5084 111.965C85.8426 112.193 89.5811 111.327 93.3196 108.91C100.067 104.488 103.259 98.1963 102.894 89.7619C102.757 85.841 102.529 84.9748 101.116 81.9657C100.204 80.0965 98.6538 77.6345 97.6508 76.4948C94.8241 73.3034 94.7785 73.121 94.7785 65.3704V58.3038L96.9213 58.167C98.6538 58.0758 99.1553 57.8479 99.2465 57.164C99.4745 55.9786 98.1523 55.0668 96.2831 55.0668H94.7785V52.1033V49.1399H97.2861C99.2009 49.1399 99.8392 48.9575 100.204 48.3193C101.025 46.7691 99.976 45.9485 97.2861 45.9485H94.7785V42.9851V40.0672L97.7876 39.9304C100.022 39.8392 100.979 39.6113 101.298 39.0186C102.21 37.6053 100.933 36.8302 97.6964 36.8302H94.7785V33.8668V30.9033H98.1067C101.891 30.9033 102.666 30.5386 102.438 29.0341C102.301 27.9855 102.119 27.9399 98.6082 27.8031L94.9153 27.6663L94.6418 24.1102C94.2314 18.0465 91.8151 14.0801 87.256 11.9373C84.7484 10.7519 80.2349 10.4784 77.6818 11.3902ZM65.8736 20.4629L69.2473 21.8762V29.8091V37.742L67.3325 38.9274C66.2383 39.6113 64.6882 40.7511 63.8676 41.4805C63.0469 42.1644 60.357 43.7601 57.9407 44.9911C52.9712 47.4986 50.8284 49.3679 49.5519 52.1945C49.0048 53.4711 48.4121 54.155 47.865 54.155C46.5884 54.155 43.0323 51.5562 41.7101 49.687C40.2056 47.4986 40.2056 45.7205 41.7101 40.6143C42.3484 38.3803 42.9867 35.3257 43.1235 33.73C43.3514 31.2681 43.2602 30.5842 42.394 29.0341C40.8439 26.2986 41.4366 25.8883 46.862 25.8883C49.2783 25.8883 52.0138 25.7515 52.9712 25.6147C55.5699 25.1588 59.2172 22.7425 60.2658 20.7364C60.7218 19.8246 61.4512 19.0496 61.8159 19.0496C62.1807 19.0496 64.0043 19.6878 65.8736 20.4629ZM16.6804 37.2861C16.4981 41.0702 16.1789 42.8027 15.2215 45.0823C12.8963 50.8268 13.2611 54.6565 16.5437 58.0302C17.957 59.4892 19.188 60.2186 21.6043 60.9937C23.3824 61.5864 26.1179 62.8173 27.7592 63.8203C31.3153 65.9631 33.7316 66.647 36.2847 66.2823C37.8804 66.0543 38.2908 66.1911 38.7011 66.9206C39.3394 68.1059 39.2938 69.0633 38.4731 71.8444C37.6069 74.6711 36.8318 75.2638 32.3183 76.5403C27.6224 77.8169 24.7045 79.4582 23.5647 81.2819C23.0632 82.1481 22.3794 82.8776 22.0146 82.8776C21.6499 82.8776 20.4645 81.4642 19.3703 79.7773C15.8598 74.3064 12.8963 72.4371 8.3828 72.9386L6.37678 73.1666L5.87527 70.8414C4.87226 66.6014 4.78108 58.4405 5.60172 53.9726C6.51355 49.2767 8.42839 43.7145 10.48 40.0672C12.4404 36.5567 16.0422 31.8607 16.5437 32.1343C16.7716 32.2711 16.8172 34.5962 16.6804 37.2861Z" fill="#EBFCE3"/>
<path d="M80.728 26.8916C80.3177 27.3019 80.1809 33.9582 80.1809 54.0185C80.1809 77.6348 80.0897 80.5983 79.497 80.5983C78.1293 80.5983 75.257 82.4219 73.6613 84.2456C69.0566 89.671 71.1082 98.151 77.7645 100.978C78.5852 101.297 80.5456 101.57 82.0957 101.57C84.4665 101.57 85.4239 101.297 87.3387 100.203C95.1805 95.7346 93.9495 83.7897 85.3783 80.8262L83.6002 80.2335L83.4635 53.6537C83.3723 26.618 83.3267 26.3901 81.7766 26.3445C81.503 26.3445 81.0471 26.5724 80.728 26.8916ZM85.971 84.5191C88.3873 86.3428 89.0712 87.7561 89.0712 90.8107C89.0712 93.2271 88.8888 93.911 87.8402 95.2787C86.1534 97.5127 83.7826 98.5157 81.0015 98.2877C73.7069 97.5583 71.7009 88.5312 77.9013 84.3368C79.2235 83.4249 79.9073 83.2882 82.1413 83.4249C83.8282 83.5617 85.1959 83.9264 85.971 84.5191Z" fill="#EBFCE3"/>
<path d="M43.7157 80.9638C42.9406 81.7845 42.3479 82.9698 42.12 84.2464C41.892 85.4774 41.1626 87.0275 40.0684 88.3952C38.1535 90.8572 37.5152 93.4103 38.2447 96.0546C38.9742 98.7901 40.114 99.5195 43.5789 99.5195C46.2688 99.5195 46.6335 99.3828 47.6365 98.243C48.3204 97.4679 48.7307 96.3737 48.7307 95.4619C48.7307 94.2765 49.2322 93.5471 51.4206 91.4499C54.2473 88.76 54.7944 87.4834 54.2017 84.8391C53.7458 82.8331 52.606 81.6021 50.3264 80.5535C47.591 79.2769 45.2658 79.4137 43.7157 80.9638ZM49.597 83.4714C50.2353 83.7449 50.8735 84.6111 51.0559 85.3406C51.375 86.526 51.1471 86.9363 48.6851 89.4894C46.6335 91.6778 45.9041 92.772 45.6761 94.0942C45.357 96.1002 44.9011 96.5561 43.1686 96.5561C40.8434 96.5561 40.2507 93.5926 42.12 91.0395C44.5363 87.7114 44.9922 86.7995 45.3114 84.8847C45.5849 83.0154 45.6761 82.8787 47.0439 82.8787C47.8645 82.8787 49.0043 83.1522 49.597 83.4714Z" fill="#EBFCE3"/>
</g>
</svg>
