<svg xmlns="http://www.w3.org/2000/svg" width="80" height="80" viewBox="0 0 80 80" fill="none">
  <rect width="80" height="80" rx="40" fill="#EBFCE3"/>
  <path d="M39.9768 17.4452C36.2195 17.8746 32.9345 19.442 30.1003 22.1258C27.8244 24.2729 26.3 26.8494 25.3983 30.0055C24.7541 32.3244 24.7541 36.3179 25.3983 38.7012C25.9565 40.7623 27.0515 42.9524 28.4471 44.7774C29.0268 45.5718 29.5206 46.2588 29.5206 46.3232C29.5206 46.3662 29.22 46.4091 28.855 46.4091C28.4042 46.4091 28.0391 46.2159 27.6527 45.765C26.9871 44.9706 26.6865 44.9706 22.9077 45.5718C19.7515 46.0871 19 46.495 19 47.633C19 48.4274 21.2974 62.0398 21.4906 62.3189C21.555 62.4477 21.9415 62.6839 22.3065 62.8342C22.9077 63.0918 23.4015 63.0704 26.0424 62.6195C27.7171 62.3189 29.263 61.9968 29.4777 61.8895C29.6924 61.7821 29.993 61.4171 30.1647 61.0736C30.3365 60.7515 30.4868 60.4509 30.5083 60.408C30.5297 60.3651 31.8395 60.6012 33.4283 60.9018C35.468 61.3312 36.6059 61.4386 37.4004 61.3527C38.8174 61.1809 46.5254 59.7853 47.5775 59.5062C48.4578 59.2701 59.966 50.5315 60.374 49.78C60.739 49.1144 60.7175 47.8906 60.3096 47.3109C59.7943 46.5809 58.7637 46.13 57.9048 46.2803C57.4969 46.3447 55.586 47.3109 53.6537 48.4488C51.7428 49.5653 50.111 50.4886 50.0466 50.4886C49.9822 50.4886 49.9178 50.2738 49.9178 49.9947C49.9178 49.6297 50.2613 49.2862 51.2919 48.5991C56.316 45.2927 59.1931 39.5815 58.871 33.5267C58.7422 30.8858 58.3557 29.297 57.3037 27.0855C54.2119 20.5155 47.1695 16.6078 39.9768 17.4452ZM41.3295 23.1349V27.5364L40.3204 27.4076C38.7745 27.1929 37.0783 26.8494 35.9404 26.5273L34.9098 26.2267L35.2104 25.3464C36.4342 21.8682 39.1395 18.7549 40.9645 18.712C41.308 18.712 41.3295 19.0555 41.3295 23.1349ZM44.3783 19.3346C45.6451 20.1505 47.0192 21.8467 47.878 23.7576C49.0589 26.2696 49.0589 26.1408 47.4916 26.6346C46.7401 26.8494 45.6451 27.107 45.0654 27.1929C44.4857 27.2573 43.6913 27.3647 43.3263 27.4291L42.6177 27.5364V23.1135C42.6177 18.0893 42.5748 18.1967 44.3783 19.3346ZM36.3698 20.6229C35.7686 21.4602 34.9527 22.8773 34.5448 23.8005C34.0509 24.9599 33.7074 25.4752 33.4712 25.4323C33.278 25.4323 32.505 24.9814 31.7321 24.4661L30.358 23.5429L31.5603 22.4264C32.913 21.1811 35.5539 19.7211 37.4004 19.1629C37.4433 19.1414 36.9709 19.807 36.3698 20.6229ZM48.7798 20.129C50.1754 20.7946 53.3531 23.092 53.3531 23.4355C53.3531 23.7361 50.2183 25.7329 50.0251 25.5396C49.9822 25.4967 49.703 24.8526 49.381 24.1011C48.7369 22.5338 47.5775 20.6229 46.7186 19.6996L46.1604 19.0984L46.6972 19.2487C46.9977 19.3346 47.921 19.7211 48.7798 20.129ZM31.9468 26.0549C33.278 26.8494 33.4068 26.9996 33.2995 27.4935C33.2351 27.7941 33.0848 28.8247 32.9345 29.7694C32.7627 30.8644 32.5265 31.6588 32.2689 31.9379C32.0327 32.1955 31.7965 32.6679 31.6892 33.0114L31.5389 33.6341L28.8121 33.6985L26.0853 33.7629V33.1617C26.1068 31.165 27.4594 27.3217 28.7906 25.5182C29.5206 24.5091 29.5636 24.4876 30.0145 24.8096C30.2721 25.0029 31.1524 25.5611 31.9468 26.0549ZM54.9204 25.3249C56.4234 27.6223 57.6472 31.0147 57.6472 32.9256V33.7414H55.0278L52.3869 33.72L51.7213 32.2814C51.3348 31.4655 50.9269 30.0914 50.7766 29.1467C50.6478 28.202 50.476 27.3217 50.4331 27.1929C50.3686 27.0426 50.8195 26.6346 51.4636 26.2696C52.0863 25.9046 52.9451 25.3679 53.3531 25.0673C53.761 24.7667 54.1689 24.5305 54.2334 24.5091C54.3192 24.5091 54.6198 24.8741 54.9204 25.3249ZM36.4557 27.9444C37.3145 28.1805 38.753 28.4382 39.6333 28.5455L41.2221 28.6958L41.2865 29.705C41.351 30.5638 41.2865 30.7141 40.9001 30.8429C40.0627 31.1005 38.9892 32.2385 38.8389 33.0114C38.6457 34.0206 38.3021 33.9347 37.7439 32.7108C37.1857 31.5085 36.0262 30.7355 34.8024 30.7355C34.373 30.7355 34.0295 30.6282 34.0295 30.4994C34.0295 29.8123 34.5662 27.5149 34.7165 27.5149C34.8024 27.5149 35.5968 27.7082 36.4557 27.9444ZM49.4669 28.5885C49.8748 30.5208 49.8319 30.7355 48.9086 30.7355C48.4578 30.7355 47.7707 30.9288 47.3842 31.165C46.6327 31.6158 45.8383 32.7538 45.8383 33.355C45.8383 34.085 45.3016 33.72 44.7648 32.625C44.3783 31.8305 43.9919 31.4011 43.4336 31.1005C42.6607 30.7141 42.6177 30.6282 42.6177 29.662V28.6529L44.1851 28.5241C45.0224 28.4382 46.3536 28.202 47.1266 27.9658C49.2092 27.3647 49.2092 27.3647 49.4669 28.5885ZM36.2624 32.6894C37.9801 34.7076 35.103 37.2412 33.3424 35.2444C32.5265 34.3641 32.548 33.4623 33.3639 32.6464C34.2656 31.7447 35.4895 31.7661 36.2624 32.6894ZM43.0686 32.3029C43.906 32.947 44.1207 33.9991 43.5839 35.0297C43.0257 36.1032 41.4154 36.275 40.4921 35.3732C39.6977 34.5788 39.7192 33.2476 40.5351 32.5391C41.2007 31.9594 42.4889 31.852 43.0686 32.3029ZM50.4331 32.582C50.841 32.99 50.9913 33.3764 50.9913 33.9561C50.9913 35.7597 48.8657 36.6185 47.556 35.3303C46.783 34.5788 46.8045 33.2261 47.6204 32.5391C48.4578 31.8091 49.6816 31.8305 50.4331 32.582ZM32.0756 35.6953C32.4836 36.232 32.5265 36.4038 32.2903 36.5541C32.1186 36.6614 31.9253 36.7473 31.818 36.7473C31.4315 36.7473 29.6494 38.6367 29.1986 39.5385C28.5544 40.8268 28.2968 42.3726 28.7047 42.6947C28.855 42.845 29.5206 42.9738 30.1433 43.0168L31.3027 43.0812L30.4653 43.6824L29.628 44.2835L29.0483 43.5965C27.7386 42.0506 26.0853 37.6062 26.0853 35.6094V35.0297H28.8336H31.5818L32.0756 35.6953ZM38.9677 35.3303C38.9677 35.4806 39.118 35.7382 39.2898 35.8885C39.7621 36.275 39.6977 36.4467 38.9677 36.7473C38.4524 36.962 38.1948 36.962 37.7009 36.7473L37.0783 36.4897L37.5077 35.7597C37.8083 35.2444 38.0874 35.0297 38.4524 35.0297C38.753 35.0297 38.9677 35.1585 38.9677 35.3303ZM46.2892 35.6094C46.4395 35.9529 46.6113 36.275 46.6542 36.3394C46.6757 36.4253 46.418 36.597 46.053 36.7473C45.5377 36.962 45.2801 36.962 44.7863 36.7473L44.1636 36.4897L44.593 35.7597C45.1298 34.8364 45.8598 34.772 46.2892 35.6094ZM57.6472 35.8456C57.6472 37.8423 56.0154 42.1579 54.6413 43.7897L54.2119 44.305L53.3101 43.6394L52.4084 42.9738H53.5892C55.221 42.9738 55.3713 42.8235 55.221 41.4923C54.9848 39.517 53.1598 36.9835 51.7213 36.6185L51.2489 36.4897L51.6784 35.7597L52.1078 35.0297H54.8775H57.6472V35.8456ZM36.0906 37.4129C37.2071 37.692 37.4218 37.9282 36.9709 38.422C36.4986 38.9588 35.7471 40.6335 35.7471 41.1918C35.7471 41.6856 35.7042 41.6856 32.7412 41.6856C31.088 41.6856 29.7353 41.6426 29.7353 41.5997C29.7353 41.1059 30.5512 39.4956 31.088 38.9373C32.505 37.4559 34.2012 36.9406 36.0906 37.4129ZM43.3263 37.4773C43.863 37.6276 44.593 37.9712 44.958 38.2288C45.6666 38.7441 46.5683 40.1397 46.8045 41.0844L46.9548 41.6856H41.8663H36.7992L36.9495 41.1918C37.293 40.0968 37.4648 39.7532 38.1304 39.0232C39.526 37.4129 41.3295 36.8762 43.3263 37.4773ZM50.4116 37.4773C51.8072 37.8853 52.6231 38.5509 53.3531 39.8176C54.4266 41.6856 54.4481 41.6856 51.1201 41.6856H48.243L48.0283 40.7623C47.8995 40.2685 47.4916 39.4097 47.148 38.83C46.783 38.2717 46.5039 37.8209 46.5469 37.8209C46.5683 37.8209 46.9763 37.6706 47.4486 37.4988C48.5436 37.1123 49.1878 37.1123 50.4116 37.4773ZM41.3295 45.765V48.5562H39.8265C38.4095 48.5562 38.2807 48.5133 37.6795 47.8477C37.1212 47.2465 35.103 43.5535 35.103 43.1241C35.103 43.0382 36.4986 42.9738 38.2162 42.9738H41.3295V45.765ZM48.6295 43.21C48.6295 43.5321 47.2554 46.3877 46.8689 46.8815C46.7186 47.0747 45.688 47.4827 44.6145 47.7832L42.6177 48.32V45.6362V42.9738H45.6236C47.7277 42.9738 48.6295 43.0382 48.6295 43.21ZM34.5448 44.9277C34.9312 45.8294 35.468 46.86 35.7256 47.2465C35.9833 47.6115 36.1551 47.9121 36.1121 47.9121C36.0692 47.9121 35.3177 47.633 34.4803 47.268C33.6215 46.9244 32.6124 46.5809 32.2045 46.495C31.818 46.4306 31.2383 46.1085 30.9162 45.765L30.358 45.1853L31.4959 44.4338C32.9989 43.4462 33.4498 43.1885 33.6645 43.2529C33.7503 43.2744 34.1583 44.0259 34.5448 44.9277ZM51.5495 43.9615C53.5678 45.1638 53.5463 45.1209 52.2151 46.3232C51.5925 46.903 50.6907 47.59 50.2183 47.8477L49.381 48.2985L48.7583 47.8047L48.1142 47.2894L48.6725 46.1515C48.973 45.5288 49.4025 44.6056 49.5957 44.0903C49.8104 43.5965 50.0251 43.1885 50.111 43.1885C50.1969 43.1885 50.841 43.5321 51.5495 43.9615ZM26.7509 46.6453C26.8368 46.8171 27.4165 50.0162 28.0391 53.7736C28.9194 59.1412 29.1127 60.6442 28.898 60.773C28.4256 61.0736 22.8218 61.9109 22.65 61.7177C22.4568 61.5245 20.2882 48.7065 20.2882 47.8262C20.2882 47.3968 20.4171 47.268 20.9968 47.1606C24.0456 46.6024 26.2141 46.2588 26.3859 46.2803C26.4933 46.3018 26.665 46.4735 26.7509 46.6453ZM34.6306 48.6635C36.2409 49.2647 37.8083 49.6941 38.6457 49.78C40.213 49.9303 42.9398 49.5653 44.9366 48.9427C46.8045 48.363 47.7492 48.3844 48.243 48.9856C48.6295 49.458 48.7583 50.5744 48.5007 51.2186C48.2001 52.013 46.1389 52.8503 42.2742 53.7306C38.2592 54.6324 37.5507 54.9545 38.1304 55.5342C38.4095 55.8347 38.8818 55.7703 42.5318 54.933L46.6113 54.0097L51.7428 50.9824C58.0551 47.2894 57.7545 47.4397 58.4631 47.5256C59.1931 47.6115 59.644 48.4274 59.3219 49.0715C59.2146 49.3291 56.5093 51.4977 53.3531 53.9239L47.5775 58.3253L43.863 59.0124C36.7562 60.3221 36.7992 60.3221 33.278 59.6351C30.315 59.0553 30.1862 59.0124 30.0789 58.4542C30.0145 58.1536 29.6065 55.8133 29.1986 53.2797C28.7692 50.7462 28.3827 48.4488 28.3183 48.1912C28.168 47.6115 28.6403 47.4827 30.5942 47.59C31.6033 47.6544 32.7412 47.955 34.6306 48.6635Z" fill="#05771D"/>
  <path d="M24.5876 57.0153C23.9864 57.7668 24.8238 59.0121 25.6182 58.5182C26.3696 58.0459 26.0905 56.7147 25.2317 56.7147C25.017 56.7147 24.7379 56.865 24.5876 57.0153Z" fill="#05771D"/>
</svg>