<svg xmlns="http://www.w3.org/2000/svg" width="81" height="80" viewBox="0 0 81 80" fill="none">
  <rect x="0.332031" width="80" height="80" rx="40" fill="#EBFCE3"/>
  <path d="M36.8133 16.2294C30.8718 16.8258 25.1367 19.9228 21.4434 24.5338C12.2443 36.0497 15.8689 52.7731 29.0136 59.4029C29.9083 59.8387 31.5371 60.4811 32.6611 60.8481C34.3816 61.3757 34.8405 61.6281 35.5975 62.4539C36.1022 63.0045 37.0657 63.7156 37.7539 64.0368C38.9926 64.6332 42.0666 65.1609 42.9842 64.9544C43.2366 64.8856 45.2782 64.7938 47.4805 64.7479C51.9538 64.6562 53.0091 64.4268 55.6931 63.0962C56.886 62.5227 57.8495 61.7886 59.0194 60.6187C62.8963 56.7189 64.2727 52.5208 64.3186 44.5835C64.3416 40.6148 64.2957 40.2249 63.9286 39.9496C63.3781 39.5596 63.0798 39.6743 62.4834 40.546L62.0017 41.2342L61.864 37.9538C61.7264 34.2375 61.3134 32.4252 59.8682 29.3512C56.3813 21.8956 49.5451 17.0552 41.2637 16.2065C39.9791 16.0918 38.8779 16 38.7862 16C38.7173 16.0229 37.8227 16.1147 36.8133 16.2294ZM42.4337 17.8123C44.8883 18.2023 47.687 19.1887 48.0999 19.7851C48.5816 20.5422 48.2834 21.1615 47.2511 21.5745C46.7464 21.7809 46.3335 22.0792 46.3335 22.2627C46.3335 22.4462 46.6088 23.1344 46.9299 23.7997C47.7328 25.3825 47.8017 27.0572 47.0905 28.0666C46.4023 28.9842 46.4253 29.0989 47.297 30.1082C49.4534 32.5628 53.1009 32.3793 56.1748 29.6494C56.8172 29.0759 57.5054 28.5942 57.666 28.5942C58.0559 28.5942 59.2488 31.2552 59.1112 31.7829C59.0653 31.9893 57.9642 33.5722 56.6795 35.3157C53.8808 39.1008 53.8579 39.1008 51.8621 37.0821C51.1051 36.325 50.348 35.7056 50.1645 35.7056C48.811 35.7056 47.7558 37.0821 48.0311 38.4814C48.2375 39.6514 48.9257 40.6148 50.2792 41.6471C52.0685 43.0236 52.0685 43.0236 52.0685 43.4135C52.0685 44.0329 50.3022 45.6846 48.4211 46.7858C45.8518 48.3227 43.9477 49.0568 42.4795 49.1027C41.2866 49.1257 41.2637 49.1027 39.9332 47.7034C38.7173 46.4417 38.4421 46.2811 37.2492 46.0287C35.1157 45.6158 34.4275 45.3405 33.5787 44.6064C32.6841 43.8035 32.5464 42.9318 33.2346 42.106C33.6017 41.6471 33.9228 41.5554 35.3451 41.4866C36.2857 41.4177 38.1897 41.5095 39.612 41.6701C41.0343 41.8307 42.4566 41.8766 42.7778 41.8077C43.6495 41.5783 44.0395 40.4313 44.1083 37.9997C44.1542 36.2562 44.0854 35.8662 43.6724 35.3157C42.8925 34.2833 42.2501 34.0769 40.759 34.3751C39.1073 34.7192 38.6256 34.5127 37.3868 32.8611C36.171 31.1864 35.1387 30.6588 33.097 30.6588C30.4359 30.6588 29.1283 29.42 29.1283 26.8966C29.1283 24.9696 29.633 24.2814 31.8582 23.1115C34.4275 21.7809 34.9322 21.0927 35.1387 18.6152C35.2075 17.9958 35.2993 17.904 36.1251 17.7893C37.6621 17.5599 40.8508 17.5829 42.4337 17.8123ZM33.6017 19.1199C33.3723 20.4504 33.0052 20.8404 30.9406 21.9415C28.7154 23.1573 27.8666 24.2355 27.6372 26.1855C27.2014 29.6494 29.8624 32.5399 33.097 32.127C34.3587 31.9664 35.2304 32.4711 36.4692 34.0769C37.1115 34.8798 37.7997 35.4533 38.4879 35.7515C39.4285 36.1644 39.6579 36.1874 40.782 35.935C41.9519 35.6827 42.0896 35.6827 42.3878 36.0727C42.7548 36.6003 42.686 39.9037 42.2731 40.3166C42.0896 40.5001 41.6537 40.5231 40.5526 40.3166C38.2127 39.9266 34.0605 39.9955 33.097 40.4543C32.0417 40.9589 31.4224 41.9913 31.4224 43.2759C31.4224 45.3176 32.9823 46.6711 36.0333 47.3134C37.6392 47.6345 37.7997 47.7263 38.9926 49.011C40.4149 50.525 40.9425 50.7315 42.9613 50.5709C45.8059 50.3415 51.0133 47.451 52.8256 45.1341C53.2614 44.5606 53.445 44.0788 53.445 43.4135C53.445 42.3124 53.055 41.7848 51.5639 40.7754C50.2333 39.8808 49.5451 38.9402 49.5451 38.0226C49.5451 37.0591 50.0269 37.105 50.8068 38.1373C51.6556 39.2614 52.6879 39.8349 53.812 39.8349C55.0737 39.8349 55.4866 39.4678 57.8036 36.3021C59.0882 34.5357 59.7994 33.7328 59.8912 33.9392C60.4876 34.9945 60.6941 40.936 60.1894 42.7712C60.0059 43.4365 57.0925 45.3635 53.6744 47.061C50.2792 48.7586 48.9946 49.5845 47.6411 50.9609C46.7005 51.9244 45.5535 53.8513 45.0947 55.2736C44.98 55.6407 44.7965 55.526 44.0624 54.5625C42.4795 52.5896 39.9791 51.0526 37.0427 50.2727C35.2763 49.8139 31.0783 49.5156 29.0136 49.6762C27.4996 49.8139 27.4078 49.8368 27.339 50.4103C27.2931 50.8691 27.4537 51.1215 28.2107 51.6491C29.4724 52.5208 31.0094 54.6313 32.3858 57.3382C33.6705 59.9076 33.7623 59.8158 30.8259 58.6229C26.0773 56.65 21.604 52.2455 19.6082 47.5428L18.9429 45.9828L19.6311 45.5011C21.191 44.377 23.2556 42.1748 23.7603 41.0966C24.3797 39.789 24.4715 38.3438 23.9897 37.2197C23.8062 36.7838 23.0721 35.7974 22.361 35.0174C20.7322 33.2281 20.2046 32.104 20.1817 30.3376C20.1817 29.0759 20.2734 28.8695 21.4204 27.126C22.9574 24.809 25.7561 22.1021 27.9813 20.7716C29.4724 19.8998 33.0511 18.294 33.5787 18.2711C33.6705 18.2711 33.6934 18.6611 33.6017 19.1199ZM52.9403 22.6297C54.2708 23.7309 56.886 26.6672 56.863 26.9884C56.8401 27.2636 53.8349 29.6724 53.055 30.0165C51.5409 30.7047 49.4763 30.4294 48.6505 29.42C48.3752 29.0759 48.3752 28.9153 48.6963 28.2271C49.201 27.1948 49.1781 25.589 48.6734 24.0979L48.2605 22.905L49.0175 22.3086C49.4304 21.9645 49.8433 21.4368 49.9122 21.1386C50.0498 20.5651 50.0498 20.5651 50.738 20.978C51.128 21.1845 52.1144 21.9415 52.9403 22.6297ZM21.3287 36.0956C23.5998 38.5273 23.4392 40.0643 20.5946 42.7024C19.6999 43.5282 18.8511 44.1935 18.6905 44.1935C17.9106 44.1935 17.6124 37.7014 18.2547 34.6045C18.4611 33.641 18.6676 32.7693 18.7364 32.6546C18.7823 32.5628 19.1035 32.9758 19.4246 33.5722C19.7229 34.1686 20.5946 35.3157 21.3287 36.0956ZM62.621 49.011C62.254 51.8326 61.7264 53.7366 60.9005 55.4342C58.8588 59.5405 55.6931 62.1098 51.7244 62.9586C50.0039 63.3256 48.1687 63.5092 48.1687 63.3027C48.1687 63.2109 48.5587 62.8668 49.0175 62.5457C51.4262 60.894 54.7755 56.8565 56.106 53.966C56.7713 52.4979 56.7483 51.9014 56.0372 51.8097C55.6243 51.7408 55.3949 52.0161 54.6837 53.4155C53.5597 55.6866 52.1832 57.5447 50.3022 59.357C48.6275 61.0087 46.6776 62.5457 46.2876 62.5457C46.127 62.5457 46.0812 61.5134 46.15 59.4946C46.2876 56.0077 46.7005 54.5625 48.1687 52.7273C49.3845 51.1673 50.7151 50.2497 55.0278 48.0016C58.9965 45.914 60.35 45.0194 61.8181 43.5053L62.7357 42.5648L62.8046 44.8129C62.8504 46.0517 62.7587 47.9328 62.621 49.011ZM36.8133 51.7638C41.2637 52.9108 44.4983 56.2371 44.4983 59.6552V61.0546L42.4795 59.1046C41.3784 58.0265 39.8873 56.7418 39.1761 56.2601C38.075 55.503 37.7997 55.4113 37.5015 55.6636C36.8821 56.1683 37.1345 56.673 38.3503 57.4988C39.7267 58.4164 43.5807 62.1557 44.0395 62.9815L44.3148 63.5321L42.1584 63.4174C38.0521 63.2109 36.538 62.018 33.8999 56.9941C32.9823 55.2507 31.7206 53.1861 31.1012 52.4061L29.9542 51.0068L32.5005 51.1444C33.8999 51.2362 35.8269 51.5114 36.8133 51.7638Z" fill="#05771D"/>
</svg>