<svg width="105" height="112" viewBox="0 0 105 112" fill="none" xmlns="http://www.w3.org/2000/svg">
<path opacity="0.2" d="M47.3452 8.47753C34.9654 9.71911 23.0157 16.1658 15.3202 25.7642C-3.84708 49.7362 3.7051 84.5482 31.0937 98.3488C32.9579 99.2561 36.3516 100.593 38.6937 101.357C42.2786 102.456 43.2346 102.981 44.8119 104.7C45.8635 105.846 47.871 107.326 49.305 107.995C51.8861 109.237 58.2911 110.335 60.2031 109.905C60.7289 109.762 64.9829 109.571 69.5716 109.475C78.8923 109.284 81.0911 108.807 86.6835 106.037C89.169 104.843 91.1766 103.315 93.6143 100.88C101.692 92.7617 104.56 84.0229 104.656 67.5003C104.704 59.2391 104.608 58.4273 103.843 57.8542C102.696 57.0424 102.075 57.2812 100.832 59.0958L99.8281 60.5284L99.5413 53.6997C99.2545 45.9637 98.3942 42.1912 95.3829 35.7923C88.1175 20.2725 73.8735 10.1966 56.6182 8.42978C53.9414 8.19101 51.6471 8 51.4559 8C51.3125 8.04775 49.4484 8.23876 47.3452 8.47753ZM59.0559 11.7725C64.1704 12.5843 70.0018 14.6377 70.8622 15.8793C71.8659 17.4551 71.2446 18.7444 69.0936 19.604C68.042 20.0338 67.1817 20.6546 67.1817 21.0366C67.1817 21.4186 67.7552 22.8512 68.4244 24.2361C70.0974 27.531 70.2408 31.017 68.759 33.1181C67.3251 35.0282 67.3729 35.267 69.1892 37.3681C73.6823 42.4777 81.2823 42.0957 87.6873 36.4131C89.0256 35.2193 90.4596 34.2164 90.7942 34.2164C91.6068 34.2164 94.0923 39.7558 93.8055 40.8541C93.7099 41.2839 91.4156 44.5789 88.7388 48.2081C82.9074 56.0874 82.8596 56.0874 78.7011 51.8851C77.1238 50.3092 75.5464 49.0199 75.164 49.0199C72.3439 49.0199 70.1452 51.8851 70.7188 54.798C71.1489 57.2334 72.5829 59.2391 75.403 61.3879C79.1313 64.2531 79.1313 64.2531 79.1313 65.0649C79.1313 66.3543 75.4508 69.7925 71.5313 72.0846C66.1779 75.2841 62.2106 76.8122 59.1515 76.9077C56.666 76.9554 56.6182 76.9077 53.8459 73.9948C51.3125 71.3683 50.7389 71.0341 48.2534 70.5088C43.8081 69.6492 42.3742 69.0762 40.6056 67.5481C38.7415 65.8767 38.4547 64.0621 39.8887 62.343C40.6534 61.3879 41.3226 61.1969 44.2861 61.0537C46.2459 60.9104 50.2132 61.1014 53.1767 61.4357C56.1402 61.77 59.1037 61.8655 59.7729 61.7222C61.5892 61.2447 62.4018 58.857 62.5452 53.7952C62.6408 50.166 62.4974 49.3542 61.637 48.2081C60.0119 46.0592 58.6735 45.6294 55.5666 46.2502C52.1251 46.9665 51.1213 46.5367 48.5402 43.0985C46.0069 39.6125 43.8559 38.5142 39.6019 38.5142C34.0572 38.5142 31.3327 35.9356 31.3327 30.6827C31.3327 26.6715 32.3843 25.2389 37.0207 22.8035C42.3742 20.0338 43.4258 18.6012 43.8559 13.4439C43.9993 12.1545 44.1905 11.9635 45.9113 11.7247C49.1138 11.2472 55.7578 11.295 59.0559 11.7725ZM40.6534 14.4944C40.1754 17.2641 39.4107 18.0759 35.1088 20.368C30.4723 22.899 28.7038 25.1434 28.2258 29.2024C27.3176 36.4131 32.8623 42.43 39.6019 41.5704C42.2308 41.2361 44.0471 42.2867 46.6283 45.6294C47.9666 47.3008 49.4006 48.4946 50.8345 49.1154C52.7943 49.975 53.2723 50.0227 55.6144 49.4974C58.0521 48.9721 58.3389 48.9721 58.9603 49.7839C59.7251 50.8823 59.5817 57.7587 58.7213 58.6183C58.3389 59.0003 57.4307 59.048 55.1364 58.6183C50.261 57.8065 41.6094 57.9497 39.6019 58.9048C37.4031 59.9554 36.1126 62.1042 36.1126 64.7784C36.1126 69.0284 39.3629 71.8459 45.7201 73.183C49.066 73.8515 49.4006 74.0425 51.8861 76.7167C54.8496 79.8684 55.949 80.2982 60.1553 79.9639C66.0823 79.4864 76.9326 73.4695 80.7087 68.6464C81.6169 67.4526 81.9992 66.4498 81.9992 65.0649C81.9992 62.7728 81.1867 61.6745 78.0798 59.5733C75.3074 57.711 73.8735 55.7531 73.8735 53.843C73.8735 51.8373 74.8772 51.9328 76.5024 54.0817C78.2709 56.4216 80.4219 57.6155 82.764 57.6155C85.3929 57.6155 86.2533 56.8514 91.081 50.2615C93.7577 46.5845 95.2395 44.9131 95.4306 45.3429C96.6734 47.5396 97.1036 59.9076 96.052 63.7278C95.6696 65.1127 89.5992 69.1239 82.4772 72.6577C75.403 76.1914 72.7263 77.9105 69.9062 80.7757C67.9464 82.7813 65.5565 86.7926 64.6005 89.7533C64.3615 90.5173 63.9792 90.2786 62.4496 88.2729C59.1515 84.1662 53.9414 80.9667 47.8232 79.3431C44.1427 78.388 35.3956 77.7672 31.0937 78.1015C27.939 78.388 27.7478 78.4358 27.6044 79.6296C27.5088 80.5847 27.8434 81.11 29.4208 82.2083C32.0497 84.0229 35.2522 88.4162 38.1201 94.051C40.7968 99.3994 40.988 99.2084 34.8698 96.7252C24.9755 92.6185 15.6548 83.4499 11.4963 73.6605L10.1101 70.4133L11.5441 69.4105C14.7944 67.0706 19.0963 62.4863 20.1478 60.2419C21.4384 57.5199 21.6296 54.5115 20.6258 52.1716C20.2434 51.2643 18.7139 49.2109 17.2321 47.5873C13.8384 43.8626 12.739 41.5227 12.6912 37.8457C12.6912 35.2193 12.8824 34.7895 15.2724 31.1602C18.4749 26.3372 24.3063 20.7023 28.9428 17.9326C32.0497 16.118 39.5063 12.7753 40.6056 12.7276C40.7968 12.7276 40.8446 13.5394 40.6534 14.4944ZM80.9477 21.8006C83.72 24.0928 89.169 30.2052 89.1212 30.8737C89.0734 31.4468 82.8118 36.4608 81.1867 37.1771C78.032 38.6097 73.7301 38.0367 72.0093 35.9356C71.4357 35.2193 71.4357 34.885 72.1049 33.4524C73.1565 31.3035 73.1087 27.9608 72.0571 24.8568L71.1968 22.3737L72.7741 21.1321C73.6345 20.4158 74.4949 19.3175 74.6383 18.6967C74.925 17.5029 74.925 17.5029 76.359 18.3624C77.1716 18.7922 79.2269 20.368 80.9477 21.8006ZM15.0812 49.8317C19.8132 54.8935 19.4786 58.093 13.5516 63.5846C11.6875 65.3037 9.91892 66.6885 9.58433 66.6885C7.95918 66.6885 7.33779 53.1744 8.67616 46.7277C9.10634 44.7221 9.53653 42.9075 9.67993 42.6687C9.77552 42.4777 10.4447 43.3373 11.1139 44.5789C11.7353 45.8204 13.5516 48.2081 15.0812 49.8317ZM101.119 76.7167C100.354 82.5903 99.2545 86.5538 97.5338 90.0875C93.2797 98.6353 86.6835 103.984 78.4143 105.751C74.8294 106.515 71.0056 106.897 71.0056 106.467C71.0056 106.276 71.8181 105.56 72.7741 104.891C77.793 101.453 84.7716 93.0482 87.5439 87.0313C88.93 83.9751 88.8822 82.7336 87.4005 82.5426C86.5401 82.3993 86.0621 82.9723 84.5804 85.8853C82.2382 90.6128 79.3703 94.4808 75.4508 98.2533C71.9615 101.692 67.8986 104.891 67.0861 104.891C66.7515 104.891 66.6559 102.742 66.7993 98.5398C67.0861 91.2814 67.9464 88.2729 71.0056 84.4527C73.5389 81.2055 76.3112 79.2953 85.2973 74.6155C93.5665 70.27 96.3866 68.4076 99.4457 65.2559L101.358 63.2981L101.501 67.9779C101.597 70.5565 101.405 74.4723 101.119 76.7167ZM47.3452 82.447C56.6182 84.8347 63.3578 91.7589 63.3578 98.8741V101.787L59.1515 97.728C56.8572 95.4836 53.7503 92.8095 52.2685 91.8067C49.9742 90.2308 49.4006 90.0398 48.7792 90.5651C47.4886 91.6156 48.0144 92.6662 50.5477 94.3853C53.4157 96.2954 61.4458 104.079 62.4018 105.798L62.9754 106.944L58.4823 106.706C49.9264 106.276 46.7717 103.793 41.2748 93.3348C39.3629 89.7055 36.7339 85.4077 35.4434 83.7841L33.0534 80.8712L38.3591 81.1577C41.2748 81.3487 45.2899 81.9218 47.3452 82.447Z" fill="#EBFCE3"/>
</svg>
