<svg xmlns="http://www.w3.org/2000/svg" width="81" height="80" viewBox="0 0 81 80" fill="none">
  <rect x="0.666016" width="80" height="80" rx="40" fill="#EBFCE3"/>
  <path d="M52.5776 16.2572C51.4743 16.6467 50.1978 17.7068 49.5488 18.7236C49.1377 19.3943 48.8132 19.6755 48.5968 19.589C48.4021 19.5241 47.4286 19.1779 46.4334 18.8101C37.0439 15.3702 26.0968 18.9399 20.4285 27.2693C19.1737 29.1299 17.7674 32.202 17.1617 34.3871C16.729 35.9881 16.6641 36.7236 16.6641 40.0121C16.6641 43.3006 16.729 44.0362 17.1617 45.6371C19.217 53.166 24.6905 58.9641 32.0896 61.4304C34.729 62.2958 37.1088 62.5987 40.2675 62.4473C43.08 62.3175 43.8156 62.1011 43.8156 61.4304C43.8156 60.803 43.2098 60.5867 41.9766 60.803C39.2507 61.2357 35.0103 60.8679 32.3059 59.9377C28.217 58.5314 24.4742 55.7622 21.9213 52.2141C21.0992 51.1107 19.3684 47.7141 19.3684 47.2381C19.3684 46.7405 20.4285 46.6972 21.4237 47.1299C22.2025 47.4761 22.592 47.8655 23.4141 49.1419C24.7554 51.2405 25.2963 51.6948 26.3131 51.6948C26.9405 51.6948 27.2434 51.565 27.6761 51.0242C27.979 50.6564 28.2386 50.2669 28.2386 50.1588C28.2386 49.8559 29.6881 49.2069 31.8083 48.5578C34.7507 47.6708 35.5944 46.5241 35.5944 43.4088C35.5944 41.3102 35.2915 41.0289 32.8468 40.8559C31.0728 40.7261 30.8131 40.6612 29.2122 39.7092C28.2602 39.1684 27.092 38.6059 26.616 38.4761C25.2747 38.1083 24.4525 37.5025 24.0199 36.5722C23.5655 35.5337 23.6521 34.6251 24.4309 32.4616C24.9069 31.2068 25.0367 30.4496 25.0583 28.7837C25.08 27.6371 25.015 26.2525 24.9285 25.7116L24.7554 24.7164L26.3348 23.5265C29.2338 21.3414 32.3059 20 35.6377 19.4592C37.4766 19.1563 42.842 19.2645 43.1665 19.589C43.2963 19.7188 43.1449 20.0649 42.8204 20.4976C42.0848 21.4279 40.3757 21.9255 38.4285 21.7741C34.8156 21.4712 33.193 22.8342 34.3829 25.1707C35.0103 26.3823 34.9454 26.9664 33.9502 30.2765C32.955 33.5217 33.5607 35.3607 36.2434 37.2212C38.2555 38.6275 39.6617 38.3462 40.6786 36.3342C41.306 35.101 42.1281 34.4087 44.0752 33.5433C44.854 33.1756 46.1521 32.3967 46.9526 31.7909C47.7315 31.2068 48.4238 30.7092 48.4887 30.7092C48.5319 30.7092 48.5752 33.2837 48.5752 36.4208C48.5752 42.5217 48.6401 42.8246 49.6353 42.5001C50.068 42.3703 50.068 42.1756 50.1329 31.6179C50.1978 21.0818 50.1978 20.8438 50.6738 20C51.2579 18.9183 51.9286 18.2693 52.9454 17.8366C55.1521 16.9279 57.7267 17.988 58.7651 20.2164C59.1329 21.0169 59.1762 21.8823 59.1762 33.1972C59.1762 46.9136 59.0897 46.1347 60.9935 48.2549C65.2555 52.9929 63.0921 60.4136 56.9262 62.1877C55.3036 62.6636 53.0536 62.5338 51.3444 61.8848C49.8949 61.3223 48.0127 59.6997 47.1906 58.2934C45.4598 55.3511 45.7194 51.3054 47.818 48.6876C48.705 47.5842 48.7483 47.2597 48.0992 46.9136C47.6666 46.6756 47.5367 46.7405 46.8877 47.4977C42.6906 52.3655 44.3781 60.1973 50.2627 63.0963C51.6906 63.8103 52.08 63.9184 53.919 63.9833C56.4502 64.0915 58.2243 63.6804 59.9983 62.5338C63.2002 60.4352 64.7147 57.4497 64.5416 53.4472C64.4767 51.5867 64.3685 51.1756 63.6978 49.7477C63.2652 48.8607 62.5296 47.6924 62.0536 47.1516C60.7123 45.6371 60.6906 45.5506 60.6906 41.8727V38.5193L61.7075 38.4544C62.5296 38.4111 62.7676 38.303 62.8108 37.9785C62.919 37.416 62.2916 36.9833 61.4046 36.9833H60.6906V35.577V34.1707H61.8805C62.7892 34.1707 63.0921 34.0842 63.2652 33.7813C63.6546 33.0457 63.157 32.6563 61.8805 32.6563H60.6906V31.2501V29.8654L62.1185 29.8005C63.1786 29.7573 63.6329 29.6491 63.7844 29.3679C64.2171 28.6972 63.6113 28.3294 62.0752 28.3294H60.6906V26.9231V25.5169H62.27C64.0656 25.5169 64.4334 25.3438 64.3253 24.6299C64.2603 24.1323 64.1738 24.1106 62.5079 24.0457L60.7555 23.9808L60.6257 22.2933C60.431 19.4159 59.2844 17.5337 57.1209 16.5169C55.931 15.9544 53.7892 15.8245 52.5776 16.2572ZM46.9742 20.5625L48.5752 21.2332V24.9976V28.7621L47.6666 29.3246C47.1473 29.6491 46.4117 30.19 46.0223 30.5361C45.6329 30.8606 44.3564 31.6179 43.2098 32.202C40.8516 33.3919 39.8348 34.2789 39.229 35.6203C38.9694 36.226 38.6882 36.5506 38.4285 36.5506C37.8228 36.5506 36.1353 35.3174 35.5079 34.4304C34.7939 33.3919 34.7939 32.5481 35.5079 30.1251C35.8108 29.065 36.1136 27.6154 36.1785 26.8582C36.2867 25.69 36.2434 25.3654 35.8324 24.6299C35.0968 23.3318 35.3781 23.1371 37.9526 23.1371C39.0992 23.1371 40.3973 23.0722 40.8516 23.0073C42.0848 22.7909 43.8156 21.6443 44.3132 20.6923C44.5295 20.2597 44.8757 19.8919 45.0488 19.8919C45.2218 19.8919 46.0872 20.1947 46.9742 20.5625ZM23.6304 28.5457C23.5439 30.3414 23.3924 31.1635 22.9381 32.2453C21.8348 34.9712 22.0078 36.7885 23.5655 38.3895C24.2362 39.0818 24.8203 39.428 25.967 39.7958C26.8107 40.077 28.1088 40.6612 28.8877 41.1371C30.5752 42.1539 31.7218 42.4785 32.9333 42.3054C33.6906 42.1972 33.8853 42.2621 34.08 42.6083C34.3829 43.1708 34.3612 43.6251 33.9718 44.9448C33.5607 46.2862 33.193 46.5674 31.0511 47.1732C28.8228 47.779 27.4381 48.5578 26.8973 49.4232C26.6593 49.8343 26.3348 50.1804 26.1617 50.1804C25.9886 50.1804 25.4261 49.5097 24.9069 48.7093C23.241 46.1131 21.8348 45.2261 19.6929 45.4641L18.741 45.5722L18.503 44.4689C18.027 42.4568 17.9838 38.5842 18.3732 36.464C18.8059 34.2357 19.7146 31.5962 20.6881 29.8654C21.6184 28.1996 23.3275 25.9712 23.5655 26.101C23.6737 26.1659 23.6953 27.2693 23.6304 28.5457Z" fill="#05771D"/>
  <path d="M54.0271 23.6132C53.8324 23.8079 53.7675 26.9666 53.7675 36.4858C53.7675 47.6926 53.7242 49.0988 53.4429 49.0988C52.7939 49.0988 51.4309 49.9642 50.6737 50.8296C48.4886 53.4041 49.4622 57.4282 52.6208 58.7695C53.0103 58.921 53.9405 59.0508 54.6761 59.0508C55.8011 59.0508 56.2555 58.921 57.1641 58.4017C60.8853 56.2815 60.3011 50.6133 56.2338 49.207L55.3901 48.9258L55.3252 36.3127C55.2819 23.4834 55.2603 23.3752 54.5247 23.3536C54.3949 23.3536 54.1785 23.4617 54.0271 23.6132ZM56.5151 50.9594C57.6617 51.8248 57.9862 52.4955 57.9862 53.945C57.9862 55.0916 57.8997 55.4162 57.4021 56.0652C56.6016 57.1253 55.4766 57.6013 54.1569 57.4931C50.6953 57.1469 49.7434 52.8633 52.6857 50.8729C53.3131 50.4402 53.6377 50.3753 54.6978 50.4402C55.4982 50.5051 56.1473 50.6782 56.5151 50.9594Z" fill="#05771D"/>
  <path d="M36.4601 49.2728C36.0923 49.6622 35.811 50.2247 35.7029 50.8305C35.5947 51.4146 35.2485 52.1502 34.7293 52.7993C33.8206 53.9675 33.5177 55.1791 33.8639 56.4339C34.2101 57.732 34.7509 58.0781 36.3952 58.0781C37.6716 58.0781 37.8447 58.0132 38.3206 57.4724C38.6452 57.1046 38.8399 56.5853 38.8399 56.1526C38.8399 55.5901 39.0779 55.244 40.1163 54.2488C41.4577 52.9723 41.7173 52.3666 41.436 51.1118C41.2197 50.1598 40.6788 49.5757 39.5971 49.0781C38.299 48.4723 37.1956 48.5372 36.4601 49.2728ZM39.2509 50.4627C39.5538 50.5925 39.8567 51.0036 39.9432 51.3497C40.0947 51.9122 39.9865 52.107 38.8182 53.3185C37.8447 54.357 37.4985 54.8762 37.3904 55.5036C37.2389 56.4555 37.0226 56.6719 36.2004 56.6719C35.0971 56.6719 34.8158 55.2656 35.7029 54.0541C36.8495 52.4747 37.0658 52.0421 37.2173 51.1334C37.3471 50.2464 37.3904 50.1815 38.0394 50.1815C38.4288 50.1815 38.9697 50.3113 39.2509 50.4627Z" fill="#05771D"/>
</svg>