<svg width="24" height="25" viewBox="0 0 24 25" fill="none" xmlns="http://www.w3.org/2000/svg">
<rect y="0.733398" width="24" height="24" rx="12" fill="#F2F3FA"/>
<path d="M6.23605 15.9118C6.73593 16.6479 7.2303 17.3756 7.72643 18.1061C7.80212 18.071 7.86875 18.0379 7.93735 18.0087C8.2957 17.8568 8.66251 17.8203 9.03781 17.937C9.92206 18.212 10.8057 18.4893 11.69 18.7643C11.8128 18.8025 11.9383 18.8315 12.0621 18.8664C12.2967 18.9326 12.5062 18.8749 12.7035 18.744C13.3625 18.3064 14.022 17.8698 14.6812 17.4326C15.4418 16.9284 16.2025 16.424 16.9636 15.9201C17.0113 15.8886 17.0613 15.8606 17.1106 15.8314C17.2456 15.7514 17.3611 15.6497 17.4339 15.5099C17.4713 15.4382 17.5021 15.3585 17.5141 15.2791C17.5519 15.0272 17.4165 14.8242 17.1695 14.7623C16.9722 14.7128 16.7863 14.7288 16.6068 14.849C15.9226 15.3067 15.2331 15.7563 14.5452 16.2085C14.5034 16.2359 14.4612 16.2643 14.4155 16.2836C14.3122 16.3272 14.1998 16.2917 14.1409 16.2024C14.0814 16.1121 14.0934 15.9976 14.1736 15.9175C14.1986 15.8925 14.2286 15.8718 14.2584 15.8521C14.8322 15.4739 15.4044 15.0934 15.9811 14.7199C16.152 14.6091 16.3326 14.5125 16.5133 14.4187C16.7727 14.2843 17.0538 14.2583 17.3288 14.3367C17.7993 14.4711 18.0232 14.9014 17.9757 15.3152C17.9475 15.5604 17.835 15.763 17.6641 15.9365C17.5253 16.0772 17.3714 16.1979 17.2062 16.3071C15.8656 17.1933 14.5266 18.0819 13.1873 18.9699C13.0978 19.0292 13.0057 19.0852 12.9192 19.1484C12.6468 19.3481 12.3409 19.3976 12.0219 19.3215C11.6991 19.2444 11.3813 19.1439 11.0642 19.045C10.4907 18.866 9.91971 18.6793 9.3469 18.4986C9.17994 18.4459 9.01122 18.3968 8.84091 18.3568C8.59886 18.2999 8.35581 18.305 8.12341 18.4006C7.98819 18.4562 7.85612 18.5224 7.73096 18.5981C7.62668 18.661 7.55592 18.6304 7.48535 18.5559C7.46347 18.5327 7.44554 18.5053 7.42761 18.4787C6.87332 17.661 6.31904 16.8432 5.76516 16.025C5.74722 15.9984 5.73027 15.9706 5.71667 15.9416C5.68276 15.8699 5.68612 15.8024 5.74939 15.7467C5.89683 15.6166 6.03874 15.4792 6.19328 15.3581C6.61924 15.0244 7.07419 14.7333 7.53504 14.4498C7.94681 14.1968 8.38578 14.1274 8.85491 14.2096C9.41964 14.3085 9.97037 14.4634 10.518 14.6306C11.2429 14.852 11.9687 15.071 12.6927 15.2955C12.8666 15.3493 13.0357 15.4185 13.2056 15.4841C13.8182 15.7214 13.9282 16.6254 13.3647 17.0275C13.1699 17.1665 12.9551 17.2412 12.7203 17.2731C12.3665 17.3212 12.0194 17.2745 11.6764 17.1972C11.2754 17.1068 10.8777 17.0019 10.4787 16.9023C10.448 16.8946 10.4174 16.8818 10.3898 16.8659C10.2919 16.8091 10.2514 16.7013 10.2869 16.599C10.3248 16.4902 10.4115 16.4377 10.5325 16.4645C10.7769 16.5187 11.02 16.5791 11.2634 16.637C11.6044 16.718 11.9451 16.8022 12.2961 16.83C12.4615 16.8432 12.6253 16.8312 12.7873 16.7981C12.9125 16.7724 13.0211 16.7135 13.122 16.6355C13.3631 16.4492 13.3051 16.008 13.0345 15.9079C12.8971 15.8571 12.7635 15.7946 12.6237 15.7516C11.7385 15.4798 10.8532 15.2078 9.96525 14.9444C9.57812 14.8297 9.18624 14.7299 8.78728 14.661C8.42361 14.5981 8.08694 14.6468 7.76722 14.8437C7.26379 15.1537 6.76984 15.476 6.30958 15.848C6.28751 15.8659 6.26642 15.885 6.23567 15.9113L6.23605 15.9118Z" fill="#3F49A7"/>
<path d="M15.9782 9.04195C15.6805 9.05161 15.3991 9.06067 15.103 9.07033C15.103 9.12158 15.103 9.16672 15.103 9.21206C15.1101 10.952 15.1174 12.6919 15.1243 14.432C15.1245 14.4856 15.1278 14.54 15.1211 14.5928C15.0998 14.7584 14.9372 14.8499 14.7967 14.7774C14.7287 14.7423 14.6869 14.6857 14.6758 14.61C14.6701 14.5714 14.6703 14.5316 14.6703 14.4921C14.6628 12.7343 14.6557 10.9764 14.6486 9.21857C14.6481 9.08985 14.6486 8.96093 14.6514 8.83221C14.654 8.70626 14.7017 8.65029 14.8245 8.62565C14.8558 8.61934 14.8883 8.61795 14.9205 8.61697C15.3391 8.60278 15.7576 8.58919 16.1763 8.57539C16.306 8.57105 16.3968 8.63964 16.4221 8.76638C16.4303 8.80817 16.4319 8.85174 16.4323 8.89431C16.4414 10.4373 16.4501 11.9805 16.4585 13.5235C16.4585 13.5556 16.4599 13.5882 16.4569 13.6201C16.4451 13.7478 16.3531 13.8365 16.2338 13.8371C16.1134 13.8379 16.0204 13.7516 16.0073 13.6239C16.003 13.5813 16.0044 13.5381 16.004 13.4951C15.9953 12.0596 15.9868 10.6238 15.9784 9.18821C15.9782 9.14288 15.9784 9.09734 15.9784 9.04215L15.9782 9.04195Z" fill="#3F49A7"/>
<path d="M15.5574 7.00433C15.3785 7.21839 15.1995 7.43226 15.0207 7.64652C14.5687 8.1876 14.1171 8.72886 13.6649 9.26994C13.6328 9.30837 13.5999 9.34623 13.5652 9.3821C13.4791 9.47139 13.3791 9.49405 13.2619 9.44753C13.0724 9.37243 12.8818 9.30049 12.6916 9.22716C12.2613 9.06139 11.8302 8.89759 11.4011 8.72847C11.329 8.70009 11.2793 8.70817 11.2174 8.75469C10.5399 9.26482 9.86028 9.77218 9.18083 10.2795C9.14377 10.3073 9.10554 10.3351 9.06414 10.355C8.96224 10.4037 8.84908 10.3748 8.7856 10.2886C8.72253 10.2029 8.72806 10.0846 8.80297 10.0022C8.83155 9.97068 8.86644 9.94467 8.90073 9.91904C9.61389 9.38506 10.3288 8.85325 11.0398 8.31611C11.1691 8.21834 11.2984 8.20494 11.4419 8.25935C11.6859 8.35179 11.9292 8.44639 12.1728 8.54002C12.5499 8.6849 12.9268 8.82998 13.3157 8.97939C13.938 8.2343 14.5608 7.48843 15.1983 6.72521C15.153 6.72876 15.1271 6.72778 15.1029 6.7333C14.8867 6.78159 14.6708 6.83243 14.4542 6.87915C14.41 6.88861 14.361 6.89236 14.3174 6.8831C14.22 6.8626 14.1623 6.79537 14.1477 6.6978C14.1337 6.60378 14.1731 6.52809 14.2526 6.47901C14.2912 6.45516 14.3373 6.43998 14.3818 6.42973C14.7826 6.33749 15.1835 6.24702 15.5846 6.15674C15.63 6.14649 15.6761 6.1384 15.7222 6.13426C15.8606 6.12223 15.9637 6.18532 15.9958 6.32113C16.0236 6.43841 16.0427 6.56101 16.0429 6.68125C16.0433 7.00333 16.0317 7.32523 16.0236 7.64731C16.0226 7.69009 16.0175 7.73324 16.0086 7.77503C15.9862 7.88088 15.9006 7.95125 15.7963 7.95421C15.6899 7.95716 15.6024 7.89428 15.5756 7.78745C15.5645 7.7433 15.5635 7.69559 15.5645 7.64947C15.5687 7.46694 15.5756 7.28462 15.5809 7.10209C15.5819 7.07135 15.5809 7.04039 15.5809 7.00964C15.573 7.00787 15.5651 7.0061 15.557 7.00452L15.5574 7.00433Z" fill="#3F49A7"/>
<path d="M11.6436 10.9067H10.7716C10.7704 10.9546 10.7684 10.996 10.7684 11.0374C10.7698 12.0038 10.7714 12.9703 10.7728 13.9367C10.7728 13.9689 10.7742 14.0014 10.7712 14.0333C10.7604 14.1506 10.6766 14.2354 10.565 14.244C10.4487 14.2531 10.3478 14.1778 10.3236 14.0601C10.3165 14.0256 10.3176 13.989 10.3174 13.9533C10.3157 12.9117 10.3141 11.87 10.3127 10.8285C10.3127 10.789 10.3115 10.7496 10.3147 10.7104C10.3251 10.5766 10.4261 10.4689 10.5585 10.4498C10.5832 10.4463 10.6084 10.4465 10.6334 10.4465C11.02 10.4449 11.4065 10.4437 11.7932 10.4425C11.8254 10.4425 11.8581 10.4413 11.8896 10.4459C12.0006 10.4622 12.0773 10.5401 12.0932 10.6511C12.0968 10.6757 12.0962 10.7011 12.0964 10.726C12.1047 11.95 12.1128 13.1743 12.1208 14.3984C12.121 14.4378 12.1226 14.4774 12.1177 14.5163C12.1023 14.6385 12.011 14.7209 11.8945 14.7209C11.7782 14.7209 11.6862 14.6385 11.6708 14.5166C11.6655 14.4743 11.6673 14.4309 11.6671 14.3879C11.6592 13.2676 11.6515 12.1473 11.6438 11.027C11.6436 10.9915 11.6438 10.9558 11.6438 10.9069L11.6436 10.9067Z" fill="#3F49A7"/>
<path d="M13.806 11.7295C13.4979 11.7391 13.2087 11.7484 12.9105 11.7577C12.9071 11.7862 12.901 11.8132 12.9016 11.8402C12.9117 12.5096 12.9225 13.179 12.933 13.8482C12.9373 14.1273 12.9412 14.4067 12.9452 14.6858C12.9454 14.7037 12.9452 14.7216 12.9432 14.7394C12.9298 14.8592 12.837 14.9479 12.7236 14.9501C12.6146 14.9523 12.5188 14.8724 12.497 14.7589C12.4916 14.7311 12.4918 14.7019 12.4914 14.6734C12.4763 13.6819 12.4611 12.6904 12.4461 11.6987C12.4457 11.6737 12.4453 11.6487 12.4453 11.6236C12.4451 11.4155 12.5464 11.3108 12.7615 11.3029C13.0227 11.2934 13.2838 11.2873 13.5452 11.2797C13.6812 11.2757 13.817 11.2704 13.953 11.2678C13.9994 11.2668 14.0461 11.2688 14.092 11.2749C14.1675 11.2852 14.2177 11.3277 14.227 11.4056C14.2402 11.5156 14.2584 11.626 14.2584 11.7362C14.2595 12.7888 14.2578 13.8413 14.2558 14.8937C14.2558 14.9363 14.253 14.9805 14.2416 15.0209C14.2134 15.1202 14.1231 15.1853 14.0262 15.1835C13.9284 15.1817 13.8401 15.1149 13.8147 15.0153C13.8034 14.971 13.8022 14.9233 13.8022 14.8772C13.803 13.8711 13.8048 12.8652 13.8062 11.8592C13.8062 11.8207 13.8062 11.7821 13.8062 11.7291L13.806 11.7295Z" fill="#3F49A7"/>
<path d="M9.46139 12.5132H8.7025C8.69698 12.5505 8.69049 12.5773 8.6897 12.6043C8.68103 12.8868 8.67393 13.1693 8.66447 13.4515C8.66289 13.4974 8.65757 13.5449 8.64318 13.5883C8.61124 13.6855 8.51702 13.747 8.42083 13.7415C8.32247 13.7358 8.23792 13.6666 8.21426 13.5674C8.20539 13.5298 8.20204 13.4895 8.20342 13.4505C8.21565 13.0788 8.22925 12.707 8.24265 12.3355C8.24364 12.3069 8.245 12.2781 8.24914 12.2499C8.26432 12.15 8.32071 12.0912 8.42104 12.0711C8.44548 12.0662 8.4707 12.0632 8.49553 12.0627C8.86394 12.0544 9.23216 12.0473 9.60056 12.0382C9.7137 12.0355 9.80102 12.078 9.86587 12.1709C9.90234 12.2229 9.91811 12.2797 9.91771 12.3422C9.91456 12.8286 9.91219 13.3151 9.90805 13.8016C9.90766 13.8402 9.90056 13.8806 9.88815 13.9171C9.85602 14.0117 9.75864 14.0742 9.66324 14.0665C9.56429 14.0586 9.47972 13.9869 9.46139 13.8875C9.45232 13.8388 9.45252 13.7878 9.45292 13.7379C9.45509 13.366 9.45844 12.994 9.4612 12.6219C9.46139 12.5868 9.4612 12.5515 9.4612 12.5131L9.46139 12.5132Z" fill="#3F49A7"/>
</svg>
