<svg width="18" height="18" viewBox="0 0 18 18" fill="none" xmlns="http://www.w3.org/2000/svg">
<g id="Layer 13">
<g id="Vector">
<mask id="path-1-outside-1_4018_87927" maskUnits="userSpaceOnUse" x="-0.15625" y="0" width="18" height="18" fill="black">
<rect fill="white" x="-0.15625" width="18" height="18"/>
<path d="M16.0312 3.25H11.8125V2.42313C11.8118 2.04592 11.6616 1.68437 11.3949 1.41764C11.1281 1.15092 10.7666 1.00074 10.3894 1H7.61062C7.23342 1.00074 6.87187 1.15092 6.60514 1.41764C6.33842 1.68437 6.18824 2.04592 6.1875 2.42313V3.25H1.96875C1.67038 3.25 1.38423 3.36853 1.17325 3.5795C0.962276 3.79048 0.84375 4.07663 0.84375 4.375V8.59375C0.84375 8.81206 0.894579 9.02738 0.992212 9.22264C1.08984 9.41791 1.2316 9.58776 1.40625 9.71875V15.625C1.40625 16.0726 1.58404 16.5018 1.90051 16.8182C2.21697 17.1347 2.6462 17.3125 3.09375 17.3125H14.9062C15.3538 17.3125 15.783 17.1347 16.0995 16.8182C16.416 16.5018 16.5938 16.0726 16.5938 15.625V9.71875C16.7684 9.58776 16.9102 9.41791 17.0078 9.22264C17.1054 9.02738 17.1562 8.81206 17.1562 8.59375V4.375C17.1562 4.07663 17.0377 3.79048 16.8267 3.5795C16.6158 3.36853 16.3296 3.25 16.0312 3.25ZM6.75 2.42313C6.75 2.19487 6.84067 1.97597 7.00207 1.81457C7.16347 1.65317 7.38237 1.5625 7.61062 1.5625H10.3894C10.6176 1.5625 10.8365 1.65317 10.9979 1.81457C11.1593 1.97597 11.25 2.19487 11.25 2.42313V3.25H6.75V2.42313ZM16.0312 10V15.625C16.0312 15.9234 15.9127 16.2095 15.7017 16.4205C15.4908 16.6315 15.2046 16.75 14.9062 16.75H3.09375C2.79538 16.75 2.50923 16.6315 2.29825 16.4205C2.08728 16.2095 1.96875 15.9234 1.96875 15.625V10H3.09375V11.4062C3.09375 11.63 3.18264 11.8446 3.34088 12.0029C3.49911 12.1611 3.71372 12.25 3.9375 12.25C4.16128 12.25 4.37589 12.1611 4.53412 12.0029C4.69236 11.8446 4.78125 11.63 4.78125 11.4062V10H8.15625V10.5625C8.15625 10.7863 8.24514 11.0009 8.40338 11.1591C8.56161 11.3174 8.77622 11.4062 9 11.4062C9.22378 11.4062 9.43839 11.3174 9.59662 11.1591C9.75486 11.0009 9.84375 10.7863 9.84375 10.5625V10H13.2188V11.4062C13.2188 11.63 13.3076 11.8446 13.4659 12.0029C13.6241 12.1611 13.8387 12.25 14.0625 12.25C14.2863 12.25 14.5009 12.1611 14.6591 12.0029C14.8174 11.8446 14.9062 11.63 14.9062 11.4062V10H16.0312ZM3.65625 11.4062V8.59375C3.65625 8.51916 3.68588 8.44762 3.73863 8.39488C3.79137 8.34213 3.86291 8.3125 3.9375 8.3125C4.01209 8.3125 4.08363 8.34213 4.13637 8.39488C4.18912 8.44762 4.21875 8.51916 4.21875 8.59375V11.4062C4.21875 11.4808 4.18912 11.5524 4.13637 11.6051C4.08363 11.6579 4.01209 11.6875 3.9375 11.6875C3.86291 11.6875 3.79137 11.6579 3.73863 11.6051C3.68588 11.5524 3.65625 11.4808 3.65625 11.4062ZM8.71875 10.5625V9.4375C8.71875 9.36291 8.74838 9.29137 8.80113 9.23863C8.85387 9.18588 8.92541 9.15625 9 9.15625C9.07459 9.15625 9.14613 9.18588 9.19887 9.23863C9.25162 9.29137 9.28125 9.36291 9.28125 9.4375V10.5625C9.28125 10.6371 9.25162 10.7086 9.19887 10.7614C9.14613 10.8141 9.07459 10.8438 9 10.8438C8.92541 10.8438 8.85387 10.8141 8.80113 10.7614C8.74838 10.7086 8.71875 10.6371 8.71875 10.5625ZM13.7812 11.4062V8.59375C13.7812 8.51916 13.8109 8.44762 13.8636 8.39488C13.9164 8.34213 13.9879 8.3125 14.0625 8.3125C14.1371 8.3125 14.2086 8.34213 14.2614 8.39488C14.3141 8.44762 14.3438 8.51916 14.3438 8.59375V11.4062C14.3438 11.4808 14.3141 11.5524 14.2614 11.6051C14.2086 11.6579 14.1371 11.6875 14.0625 11.6875C13.9879 11.6875 13.9164 11.6579 13.8636 11.6051C13.8109 11.5524 13.7812 11.4808 13.7812 11.4062ZM16.5938 8.59375C16.5938 8.81753 16.5049 9.03214 16.3466 9.19037C16.1884 9.34861 15.9738 9.4375 15.75 9.4375H14.9062V8.59375C14.9062 8.36997 14.8174 8.15536 14.6591 7.99713C14.5009 7.83889 14.2863 7.75 14.0625 7.75C13.8387 7.75 13.6241 7.83889 13.4659 7.99713C13.3076 8.15536 13.2188 8.36997 13.2188 8.59375V9.4375H9.84375C9.84375 9.21372 9.75486 8.99911 9.59662 8.84088C9.43839 8.68264 9.22378 8.59375 9 8.59375C8.77622 8.59375 8.56161 8.68264 8.40338 8.84088C8.24514 8.99911 8.15625 9.21372 8.15625 9.4375H4.78125V8.59375C4.78125 8.36997 4.69236 8.15536 4.53412 7.99713C4.37589 7.83889 4.16128 7.75 3.9375 7.75C3.71372 7.75 3.49911 7.83889 3.34088 7.99713C3.18264 8.15536 3.09375 8.36997 3.09375 8.59375V9.4375H2.25C2.02622 9.4375 1.81161 9.34861 1.65338 9.19037C1.49514 9.03214 1.40625 8.81753 1.40625 8.59375V4.375C1.40625 4.22582 1.46551 4.08274 1.571 3.97725C1.67649 3.87176 1.81957 3.8125 1.96875 3.8125H16.0312C16.1804 3.8125 16.3235 3.87176 16.429 3.97725C16.5345 4.08274 16.5938 4.22582 16.5938 4.375V8.59375Z"/>
</mask>
<path d="M16.0312 3.25H11.8125V2.42313C11.8118 2.04592 11.6616 1.68437 11.3949 1.41764C11.1281 1.15092 10.7666 1.00074 10.3894 1H7.61062C7.23342 1.00074 6.87187 1.15092 6.60514 1.41764C6.33842 1.68437 6.18824 2.04592 6.1875 2.42313V3.25H1.96875C1.67038 3.25 1.38423 3.36853 1.17325 3.5795C0.962276 3.79048 0.84375 4.07663 0.84375 4.375V8.59375C0.84375 8.81206 0.894579 9.02738 0.992212 9.22264C1.08984 9.41791 1.2316 9.58776 1.40625 9.71875V15.625C1.40625 16.0726 1.58404 16.5018 1.90051 16.8182C2.21697 17.1347 2.6462 17.3125 3.09375 17.3125H14.9062C15.3538 17.3125 15.783 17.1347 16.0995 16.8182C16.416 16.5018 16.5938 16.0726 16.5938 15.625V9.71875C16.7684 9.58776 16.9102 9.41791 17.0078 9.22264C17.1054 9.02738 17.1562 8.81206 17.1562 8.59375V4.375C17.1562 4.07663 17.0377 3.79048 16.8267 3.5795C16.6158 3.36853 16.3296 3.25 16.0312 3.25ZM6.75 2.42313C6.75 2.19487 6.84067 1.97597 7.00207 1.81457C7.16347 1.65317 7.38237 1.5625 7.61062 1.5625H10.3894C10.6176 1.5625 10.8365 1.65317 10.9979 1.81457C11.1593 1.97597 11.25 2.19487 11.25 2.42313V3.25H6.75V2.42313ZM16.0312 10V15.625C16.0312 15.9234 15.9127 16.2095 15.7017 16.4205C15.4908 16.6315 15.2046 16.75 14.9062 16.75H3.09375C2.79538 16.75 2.50923 16.6315 2.29825 16.4205C2.08728 16.2095 1.96875 15.9234 1.96875 15.625V10H3.09375V11.4062C3.09375 11.63 3.18264 11.8446 3.34088 12.0029C3.49911 12.1611 3.71372 12.25 3.9375 12.25C4.16128 12.25 4.37589 12.1611 4.53412 12.0029C4.69236 11.8446 4.78125 11.63 4.78125 11.4062V10H8.15625V10.5625C8.15625 10.7863 8.24514 11.0009 8.40338 11.1591C8.56161 11.3174 8.77622 11.4062 9 11.4062C9.22378 11.4062 9.43839 11.3174 9.59662 11.1591C9.75486 11.0009 9.84375 10.7863 9.84375 10.5625V10H13.2188V11.4062C13.2188 11.63 13.3076 11.8446 13.4659 12.0029C13.6241 12.1611 13.8387 12.25 14.0625 12.25C14.2863 12.25 14.5009 12.1611 14.6591 12.0029C14.8174 11.8446 14.9062 11.63 14.9062 11.4062V10H16.0312ZM3.65625 11.4062V8.59375C3.65625 8.51916 3.68588 8.44762 3.73863 8.39488C3.79137 8.34213 3.86291 8.3125 3.9375 8.3125C4.01209 8.3125 4.08363 8.34213 4.13637 8.39488C4.18912 8.44762 4.21875 8.51916 4.21875 8.59375V11.4062C4.21875 11.4808 4.18912 11.5524 4.13637 11.6051C4.08363 11.6579 4.01209 11.6875 3.9375 11.6875C3.86291 11.6875 3.79137 11.6579 3.73863 11.6051C3.68588 11.5524 3.65625 11.4808 3.65625 11.4062ZM8.71875 10.5625V9.4375C8.71875 9.36291 8.74838 9.29137 8.80113 9.23863C8.85387 9.18588 8.92541 9.15625 9 9.15625C9.07459 9.15625 9.14613 9.18588 9.19887 9.23863C9.25162 9.29137 9.28125 9.36291 9.28125 9.4375V10.5625C9.28125 10.6371 9.25162 10.7086 9.19887 10.7614C9.14613 10.8141 9.07459 10.8438 9 10.8438C8.92541 10.8438 8.85387 10.8141 8.80113 10.7614C8.74838 10.7086 8.71875 10.6371 8.71875 10.5625ZM13.7812 11.4062V8.59375C13.7812 8.51916 13.8109 8.44762 13.8636 8.39488C13.9164 8.34213 13.9879 8.3125 14.0625 8.3125C14.1371 8.3125 14.2086 8.34213 14.2614 8.39488C14.3141 8.44762 14.3438 8.51916 14.3438 8.59375V11.4062C14.3438 11.4808 14.3141 11.5524 14.2614 11.6051C14.2086 11.6579 14.1371 11.6875 14.0625 11.6875C13.9879 11.6875 13.9164 11.6579 13.8636 11.6051C13.8109 11.5524 13.7812 11.4808 13.7812 11.4062ZM16.5938 8.59375C16.5938 8.81753 16.5049 9.03214 16.3466 9.19037C16.1884 9.34861 15.9738 9.4375 15.75 9.4375H14.9062V8.59375C14.9062 8.36997 14.8174 8.15536 14.6591 7.99713C14.5009 7.83889 14.2863 7.75 14.0625 7.75C13.8387 7.75 13.6241 7.83889 13.4659 7.99713C13.3076 8.15536 13.2188 8.36997 13.2188 8.59375V9.4375H9.84375C9.84375 9.21372 9.75486 8.99911 9.59662 8.84088C9.43839 8.68264 9.22378 8.59375 9 8.59375C8.77622 8.59375 8.56161 8.68264 8.40338 8.84088C8.24514 8.99911 8.15625 9.21372 8.15625 9.4375H4.78125V8.59375C4.78125 8.36997 4.69236 8.15536 4.53412 7.99713C4.37589 7.83889 4.16128 7.75 3.9375 7.75C3.71372 7.75 3.49911 7.83889 3.34088 7.99713C3.18264 8.15536 3.09375 8.36997 3.09375 8.59375V9.4375H2.25C2.02622 9.4375 1.81161 9.34861 1.65338 9.19037C1.49514 9.03214 1.40625 8.81753 1.40625 8.59375V4.375C1.40625 4.22582 1.46551 4.08274 1.571 3.97725C1.67649 3.87176 1.81957 3.8125 1.96875 3.8125H16.0312C16.1804 3.8125 16.3235 3.87176 16.429 3.97725C16.5345 4.08274 16.5938 4.22582 16.5938 4.375V8.59375Z" fill="#3F49A7"/>
<path d="M16.0312 3.25H11.8125V2.42313C11.8118 2.04592 11.6616 1.68437 11.3949 1.41764C11.1281 1.15092 10.7666 1.00074 10.3894 1H7.61062C7.23342 1.00074 6.87187 1.15092 6.60514 1.41764C6.33842 1.68437 6.18824 2.04592 6.1875 2.42313V3.25H1.96875C1.67038 3.25 1.38423 3.36853 1.17325 3.5795C0.962276 3.79048 0.84375 4.07663 0.84375 4.375V8.59375C0.84375 8.81206 0.894579 9.02738 0.992212 9.22264C1.08984 9.41791 1.2316 9.58776 1.40625 9.71875V15.625C1.40625 16.0726 1.58404 16.5018 1.90051 16.8182C2.21697 17.1347 2.6462 17.3125 3.09375 17.3125H14.9062C15.3538 17.3125 15.783 17.1347 16.0995 16.8182C16.416 16.5018 16.5938 16.0726 16.5938 15.625V9.71875C16.7684 9.58776 16.9102 9.41791 17.0078 9.22264C17.1054 9.02738 17.1562 8.81206 17.1562 8.59375V4.375C17.1562 4.07663 17.0377 3.79048 16.8267 3.5795C16.6158 3.36853 16.3296 3.25 16.0312 3.25ZM6.75 2.42313C6.75 2.19487 6.84067 1.97597 7.00207 1.81457C7.16347 1.65317 7.38237 1.5625 7.61062 1.5625H10.3894C10.6176 1.5625 10.8365 1.65317 10.9979 1.81457C11.1593 1.97597 11.25 2.19487 11.25 2.42313V3.25H6.75V2.42313ZM16.0312 10V15.625C16.0312 15.9234 15.9127 16.2095 15.7017 16.4205C15.4908 16.6315 15.2046 16.75 14.9062 16.75H3.09375C2.79538 16.75 2.50923 16.6315 2.29825 16.4205C2.08728 16.2095 1.96875 15.9234 1.96875 15.625V10H3.09375V11.4062C3.09375 11.63 3.18264 11.8446 3.34088 12.0029C3.49911 12.1611 3.71372 12.25 3.9375 12.25C4.16128 12.25 4.37589 12.1611 4.53412 12.0029C4.69236 11.8446 4.78125 11.63 4.78125 11.4062V10H8.15625V10.5625C8.15625 10.7863 8.24514 11.0009 8.40338 11.1591C8.56161 11.3174 8.77622 11.4062 9 11.4062C9.22378 11.4062 9.43839 11.3174 9.59662 11.1591C9.75486 11.0009 9.84375 10.7863 9.84375 10.5625V10H13.2188V11.4062C13.2188 11.63 13.3076 11.8446 13.4659 12.0029C13.6241 12.1611 13.8387 12.25 14.0625 12.25C14.2863 12.25 14.5009 12.1611 14.6591 12.0029C14.8174 11.8446 14.9062 11.63 14.9062 11.4062V10H16.0312ZM3.65625 11.4062V8.59375C3.65625 8.51916 3.68588 8.44762 3.73863 8.39488C3.79137 8.34213 3.86291 8.3125 3.9375 8.3125C4.01209 8.3125 4.08363 8.34213 4.13637 8.39488C4.18912 8.44762 4.21875 8.51916 4.21875 8.59375V11.4062C4.21875 11.4808 4.18912 11.5524 4.13637 11.6051C4.08363 11.6579 4.01209 11.6875 3.9375 11.6875C3.86291 11.6875 3.79137 11.6579 3.73863 11.6051C3.68588 11.5524 3.65625 11.4808 3.65625 11.4062ZM8.71875 10.5625V9.4375C8.71875 9.36291 8.74838 9.29137 8.80113 9.23863C8.85387 9.18588 8.92541 9.15625 9 9.15625C9.07459 9.15625 9.14613 9.18588 9.19887 9.23863C9.25162 9.29137 9.28125 9.36291 9.28125 9.4375V10.5625C9.28125 10.6371 9.25162 10.7086 9.19887 10.7614C9.14613 10.8141 9.07459 10.8438 9 10.8438C8.92541 10.8438 8.85387 10.8141 8.80113 10.7614C8.74838 10.7086 8.71875 10.6371 8.71875 10.5625ZM13.7812 11.4062V8.59375C13.7812 8.51916 13.8109 8.44762 13.8636 8.39488C13.9164 8.34213 13.9879 8.3125 14.0625 8.3125C14.1371 8.3125 14.2086 8.34213 14.2614 8.39488C14.3141 8.44762 14.3438 8.51916 14.3438 8.59375V11.4062C14.3438 11.4808 14.3141 11.5524 14.2614 11.6051C14.2086 11.6579 14.1371 11.6875 14.0625 11.6875C13.9879 11.6875 13.9164 11.6579 13.8636 11.6051C13.8109 11.5524 13.7812 11.4808 13.7812 11.4062ZM16.5938 8.59375C16.5938 8.81753 16.5049 9.03214 16.3466 9.19037C16.1884 9.34861 15.9738 9.4375 15.75 9.4375H14.9062V8.59375C14.9062 8.36997 14.8174 8.15536 14.6591 7.99713C14.5009 7.83889 14.2863 7.75 14.0625 7.75C13.8387 7.75 13.6241 7.83889 13.4659 7.99713C13.3076 8.15536 13.2188 8.36997 13.2188 8.59375V9.4375H9.84375C9.84375 9.21372 9.75486 8.99911 9.59662 8.84088C9.43839 8.68264 9.22378 8.59375 9 8.59375C8.77622 8.59375 8.56161 8.68264 8.40338 8.84088C8.24514 8.99911 8.15625 9.21372 8.15625 9.4375H4.78125V8.59375C4.78125 8.36997 4.69236 8.15536 4.53412 7.99713C4.37589 7.83889 4.16128 7.75 3.9375 7.75C3.71372 7.75 3.49911 7.83889 3.34088 7.99713C3.18264 8.15536 3.09375 8.36997 3.09375 8.59375V9.4375H2.25C2.02622 9.4375 1.81161 9.34861 1.65338 9.19037C1.49514 9.03214 1.40625 8.81753 1.40625 8.59375V4.375C1.40625 4.22582 1.46551 4.08274 1.571 3.97725C1.67649 3.87176 1.81957 3.8125 1.96875 3.8125H16.0312C16.1804 3.8125 16.3235 3.87176 16.429 3.97725C16.5345 4.08274 16.5938 4.22582 16.5938 4.375V8.59375Z" stroke="#3F49A7" stroke-width="0.4" mask="url(#path-1-outside-1_4018_87927)"/>
</g>
</g>
</svg>
