<svg width="16" height="12" viewBox="0 0 16 12" fill="none" xmlns="http://www.w3.org/2000/svg">
<path id="&#226;&#128;&#156;" opacity="0.2" d="M0 12V8.56662C0 7.57924 0.188841 6.5526 0.566524 5.48668C0.955651 4.40954 1.48212 3.39411 2.14592 2.44039C2.82117 1.47546 3.57654 0.661993 4.41202 0L7.29614 1.8345C6.62089 2.8331 6.05436 3.87658 5.59657 4.96494C5.15021 6.04208 4.93276 7.23142 4.94421 8.53296V12H0ZM8.70386 12V8.56662C8.70386 7.57924 8.8927 6.5526 9.27039 5.48668C9.65951 4.40954 10.186 3.39411 10.8498 2.44039C11.525 1.47546 12.2804 0.661993 13.1159 0L16 1.8345C15.3248 2.8331 14.7582 3.87658 14.3004 4.96494C13.8541 6.04208 13.6366 7.23142 13.6481 8.53296V12H8.70386Z" fill="#5F80F6"/>
</svg>
