<svg width="20" height="20" viewBox="0 0 20 20" fill="none" xmlns="http://www.w3.org/2000/svg">
<g id="Group 1000001875">
<g id="Group 1339">
<g id="Group 9">
<g id="Group 8">
<circle id="Ellipse 1" cx="10" cy="10" r="10" fill="white"/>
<g id="Group 1338">
<path id="Vector" d="M6.08165 2.52829C6.08165 2.52829 4.6369 3.32372 4.34375 5.12463C9.90083 7.32737 15.1169 6.73751 15.663 1.76764C13.9425 0.58682 12.6871 0.359336 12.1757 0.246094L12.1337 2.11002C11.8871 3.94564 8.88439 3.14107 6.08165 2.5292V2.52829Z" fill="black" stroke="black" stroke-width="0.0242111" stroke-miterlimit="10"/>
<path id="Vector_2" d="M13.9184 17.4668C13.9184 17.4668 15.3631 16.6714 15.6562 14.8705C10.0992 12.6677 4.87964 13.2625 4.33352 18.2324C6.05407 19.4132 7.31287 19.6358 7.82428 19.749L7.86629 17.8851C8.11287 16.0495 11.1156 16.854 13.9184 17.4659V17.4668Z" fill="black" stroke="black" stroke-width="0.0242111" stroke-miterlimit="10"/>
</g>
<g id="Group 1337">
<g id="Vector_3">
<path d="M3.83594 6.8252C3.85877 6.83067 3.8816 6.83615 3.90534 6.84255C7.92909 7.83889 10.9592 8.44072 12.9821 9.05716C15.1254 9.71013 16.014 11.3585 16.1492 13.1914" fill="black"/>
<path d="M16.1492 13.1914C16.1264 13.1859 16.1035 13.1804 16.0798 13.1741C12.056 12.1777 9.02589 11.5759 7.00306 10.9594C4.85968 10.3065 3.9711 8.65807 3.83594 6.8252" fill="black"/>
<path d="M3.83594 6.8252C3.85877 6.83067 3.8816 6.83615 3.90534 6.84255C7.92909 7.83889 10.9592 8.44072 12.9821 9.05716C15.1254 9.71013 16.014 11.3585 16.1492 13.1914C16.1264 13.1859 16.1035 13.1804 16.0798 13.1741C12.056 12.1777 9.02589 11.5759 7.00306 10.9594C4.85968 10.3065 3.9711 8.65807 3.83594 6.8252Z" stroke="black" stroke-width="0.0242111" stroke-miterlimit="10"/>
</g>
</g>
</g>
</g>
</g>
</g>
</svg>
