<svg width="24" height="25" viewBox="0 0 24 25" fill="none" xmlns="http://www.w3.org/2000/svg">
<rect y="0.367188" width="24" height="24" rx="12" fill="#F2F3FA"/>
<path d="M18.6007 16.0706C18.669 16.0755 18.726 16.0822 18.7831 16.0831C18.8718 16.0844 18.9369 16.1264 18.9938 16.1902C19.1037 16.3133 19.1707 16.4566 19.1884 16.6196C19.2126 16.8397 19.1866 17.0547 19.0898 17.256C18.9483 17.5502 18.7202 17.7244 18.39 17.7639C18.1261 17.7953 17.8619 17.8062 17.5971 17.8062C13.8825 17.8067 10.1677 17.8064 6.45305 17.8062C6.26985 17.8062 6.08628 17.8131 5.90365 17.803C5.77921 17.7961 5.6544 17.7719 5.53295 17.7427C5.30803 17.6887 5.13419 17.556 5.00975 17.3629C4.83385 17.0897 4.76686 16.7888 4.80915 16.4673C4.83947 16.2358 5.01125 16.0932 5.24328 16.0923C5.31383 16.0919 5.38438 16.0923 5.46727 16.0923C5.46727 16.0455 5.46727 16.0092 5.46727 15.9729C5.47513 13.492 5.48262 11.0109 5.49122 8.52999C5.49178 8.34324 5.49141 8.15556 5.50863 7.96975C5.52135 7.8324 5.5468 7.69224 5.59321 7.56275C5.69182 7.28711 5.89504 7.1069 6.16918 7.01203C6.24759 6.98489 6.33609 6.98004 6.4203 6.97816C6.73954 6.97124 7.05896 6.96582 7.3782 6.96694C10.77 6.97873 14.1619 6.99107 17.5537 7.0066C17.7088 7.00735 17.8662 7.02645 18.0183 7.05751C18.3703 7.12899 18.5735 7.35411 18.6218 7.71152C18.6321 7.78805 18.6269 7.86663 18.628 7.94447C18.6284 7.97498 18.6263 8.00567 18.6263 8.03617C18.6179 10.6701 18.6095 13.3039 18.601 15.9379C18.601 15.9811 18.601 16.0246 18.601 16.0708L18.6007 16.0706ZM7.62389 15.5481C7.59863 15.5378 7.57692 15.5285 7.55466 15.5203C7.36566 15.4506 7.2066 15.3397 7.07655 15.1851C6.93209 15.0133 6.86023 14.8112 6.8142 14.5958C6.74684 14.2811 6.74702 13.9609 6.73673 13.6423C6.72307 13.2177 6.71764 12.7929 6.71166 12.3681C6.70979 12.2358 6.70623 12.102 6.72213 11.9711C6.77453 11.5392 6.97569 11.1793 7.28014 10.8749C7.45361 10.7014 7.66375 10.5938 7.90795 10.564C8.07281 10.544 8.23916 10.5309 8.40533 10.5255C8.68358 10.5165 8.96203 10.5139 9.24047 10.5132C9.49197 10.5126 9.74327 10.5255 9.99159 10.568C10.3439 10.628 10.6422 10.7802 10.846 11.0861C10.9512 11.2439 11.0146 11.4194 11.0522 11.6037C11.1033 11.8541 11.1248 12.1078 11.1282 12.3633C11.1288 12.4067 11.1346 12.4499 11.1383 12.4963C11.1896 12.4963 11.2335 12.495 11.2773 12.4965C11.4978 12.5042 11.7188 12.5057 11.9384 12.5229C12.1737 12.5412 12.3879 12.6226 12.5685 12.7807C12.5758 12.7871 12.5865 12.7893 12.6057 12.7981C12.8395 12.5702 13.0829 12.3479 13.3129 12.1069C13.2753 12.097 13.2425 12.097 13.2096 12.097C12.9173 12.0974 12.625 12.0987 12.3327 12.0975C12.1422 12.0968 12.0425 12.0014 12.0309 11.8137C12.0266 11.7459 12.0212 11.6782 12.0206 11.6103C12.011 10.628 12.0017 9.64583 11.9935 8.66361C11.9916 8.42952 12.1173 8.30357 12.3494 8.30244C13.8245 8.29552 15.2996 8.28899 16.7747 8.28225C16.8088 8.28225 16.8428 8.28075 16.8765 8.28411C17.0283 8.29946 17.1518 8.43213 17.1568 8.5837C17.1577 8.61083 17.1572 8.63816 17.1572 8.66529C17.157 9.6782 17.1566 10.6911 17.1564 11.704C17.1564 11.7345 17.1581 11.7654 17.1553 11.7957C17.1437 11.9187 17.0979 12.0218 16.9717 12.0635C16.9152 12.0822 16.8533 12.0934 16.7936 12.0934C15.8894 12.0959 14.9854 12.096 14.0812 12.0959C14.0223 12.0959 13.9719 12.1017 13.9244 12.1473C13.5685 12.4883 13.2101 12.8264 12.8516 13.1647C12.8108 13.2033 12.782 13.2433 12.7751 13.3023C12.7564 13.4585 12.6759 13.582 12.5561 13.6806C12.447 13.7706 12.3222 13.8309 12.186 13.8674C11.9712 13.925 11.7509 13.9477 11.5299 13.9445C11.1428 13.9389 10.7556 13.9233 10.3686 13.9121C10.3361 13.9112 10.3037 13.9121 10.2657 13.9121V16.0775H18.1708C18.1708 16.0193 18.1708 15.9727 18.1708 15.9261C18.1793 13.292 18.1875 10.6578 18.1959 8.02364C18.1961 7.95234 18.2013 7.88068 18.1959 7.80976C18.1798 7.60373 18.1039 7.51839 17.9046 7.47441C17.8814 7.46936 17.8578 7.46469 17.8342 7.46338C17.6851 7.45477 17.5359 7.44093 17.3868 7.44019C13.8112 7.42522 10.2354 7.41174 6.65982 7.39808C6.60892 7.3979 6.55784 7.39489 6.50694 7.39602C6.33928 7.39995 6.18452 7.43345 6.06626 7.56893C5.98598 7.6608 5.948 7.76764 5.9392 7.88441C5.92872 8.02307 5.92461 8.16249 5.92423 8.30171C5.91937 9.82435 5.91637 11.3472 5.9117 12.8698C5.90851 13.9031 5.90346 14.9364 5.89953 15.9695C5.89953 16.0086 5.9014 16.0478 5.90234 16.0841H7.62445V15.5483L7.62389 15.5481ZM10.2635 13.4615C10.3048 13.4686 10.3344 13.4774 10.3642 13.4783C10.7751 13.4892 11.186 13.5019 11.5971 13.5073C11.7637 13.5096 11.9313 13.4956 12.0896 13.4396C12.1647 13.413 12.2371 13.3709 12.3003 13.3221C12.3589 13.2768 12.36 13.219 12.3155 13.1593C12.2513 13.0732 12.1738 13.0021 12.0614 12.9862C11.9203 12.9664 11.7792 12.9405 11.6374 12.9323C11.3967 12.9183 11.1553 12.9166 10.9141 12.9087C10.7551 12.9035 10.6869 12.8328 10.6866 12.6752C10.6862 12.4918 10.6933 12.3079 10.6825 12.125C10.6688 11.8945 10.6437 11.6643 10.5488 11.4488C10.4716 11.2734 10.349 11.1443 10.1705 11.0691C10.0187 11.0051 9.85985 10.9701 9.69743 10.9525C9.23092 10.902 8.76367 10.861 8.29492 10.9149C8.16076 10.9303 8.0249 10.9544 7.89784 10.9982C7.79418 11.0337 7.68658 11.0876 7.60855 11.1625C7.31551 11.4435 7.13755 11.7832 7.14298 12.2006C7.14522 12.3807 7.1544 12.5607 7.15832 12.7407C7.16806 13.1756 7.1746 13.6106 7.18621 14.0453C7.19182 14.2564 7.21802 14.4652 7.28052 14.6683C7.32505 14.8127 7.40888 14.9297 7.52883 15.0202C7.55671 15.0414 7.58946 15.056 7.63287 15.0809C7.63287 15.0341 7.6325 15.0072 7.63287 14.9802C7.64429 14.1374 7.65589 13.2946 7.66749 12.4518C7.66805 12.4143 7.66712 12.3767 7.67236 12.3399C7.68864 12.2254 7.77771 12.1484 7.88868 12.1501C7.99889 12.1518 8.08478 12.2317 8.09751 12.3477C8.10181 12.3882 8.10031 12.4291 8.09975 12.4699C8.09245 13.0919 8.08459 13.7138 8.07711 14.3358C8.07655 14.3754 8.07711 14.4149 8.07711 14.4641C8.66618 14.4585 9.24215 14.4529 9.82935 14.4473C9.82935 14.3938 9.82935 14.3539 9.82935 14.3138C9.83029 13.6817 9.83085 13.0494 9.83291 12.4173C9.83291 12.367 9.83665 12.3146 9.85143 12.2671C9.88081 12.1729 9.97082 12.1157 10.0619 12.1228C10.1611 12.1307 10.242 12.201 10.259 12.3C10.2659 12.3399 10.2648 12.3812 10.2648 12.422C10.2648 12.728 10.2639 13.0337 10.2635 13.3397C10.2635 13.3767 10.2635 13.4138 10.2635 13.4621V13.4615ZM12.4545 11.6587C12.4884 11.6617 12.5116 11.6655 12.5348 11.6655C12.9356 11.6655 13.3366 11.6645 13.7375 11.6662C13.7891 11.6664 13.8271 11.6507 13.8645 11.6163C14.0324 11.4626 14.2014 11.3099 14.3726 11.1601C14.4233 11.1157 14.4789 11.0734 14.5389 11.0442C14.6649 10.9834 14.8061 11.0459 14.8423 11.1743C14.8625 11.2461 14.8585 11.3124 14.7899 11.3659C14.7176 11.422 14.6529 11.4877 14.585 11.5493C14.5487 11.582 14.5124 11.6149 14.4684 11.6546C14.6127 11.676 16.6525 11.666 16.7195 11.6464V8.71825C15.2876 8.72367 13.8627 8.72929 12.4255 8.73471C12.4353 9.71637 12.445 10.6859 12.4545 11.6587ZM10.6931 16.5287H5.22626C5.227 16.7693 5.25882 16.9899 5.41132 17.1771C5.47813 17.2588 5.56589 17.3133 5.66862 17.3312C5.79194 17.3529 5.91731 17.3749 6.04175 17.3752C7.08853 17.378 8.13549 17.3756 9.18227 17.3756C12.0238 17.3754 14.8651 17.3756 17.7066 17.3756C17.8765 17.3756 18.0466 17.3797 18.2163 17.3732C18.3858 17.3666 18.537 17.3103 18.64 17.1655C18.7545 17.0043 18.7859 16.824 18.7476 16.6322C18.7255 16.5212 18.7111 16.5126 18.5971 16.5126C16.8331 16.5143 15.0691 16.5161 13.3052 16.5182C13.2803 16.5182 13.2554 16.5223 13.2203 16.5255C13.2416 16.5519 13.2552 16.5663 13.2661 16.5826C13.3565 16.7167 13.293 16.8805 13.1349 16.916C13.0958 16.9248 13.0539 16.9246 13.0135 16.9241C12.3168 16.9169 11.6201 16.9095 10.9233 16.9011C10.8829 16.9005 10.8413 16.8977 10.8024 16.8876C10.6718 16.8539 10.608 16.7248 10.6581 16.6002C10.6679 16.5758 10.681 16.553 10.6931 16.5285V16.5287ZM8.06476 14.8971V16.0827H8.75488C8.74833 15.6834 8.74178 15.2918 8.73523 14.8971H8.06476ZM9.1819 14.8883C9.16019 15.0846 9.18096 16.0135 9.20679 16.0837H9.82112V14.8883H9.1819Z" fill="#3F49A7"/>
<path d="M8.94143 10.2899C8.25 10.34 7.77189 9.7725 7.71763 9.2435C7.65251 8.60914 8.06942 8.03334 8.68076 7.91227C9.48409 7.75322 10.1998 8.3872 10.1402 9.20494C10.1024 9.72309 9.70303 10.1855 9.19554 10.2871C9.10441 10.3054 9.00655 10.2897 8.94143 10.2897V10.2899ZM8.93001 8.32115C8.49457 8.32059 8.1439 8.66958 8.1439 9.10315C8.1439 9.53522 8.49944 9.89038 8.92945 9.88795C9.35797 9.88551 9.7092 9.5354 9.71089 9.10894C9.71257 8.675 9.36227 8.32153 8.93001 8.32115Z" fill="#3F49A7"/>
<path d="M13.915 10.3079C13.599 10.3079 13.2829 10.3081 12.9669 10.3075C12.9227 10.3075 12.8782 10.3071 12.8347 10.3006C12.7296 10.2849 12.6542 10.2021 12.6487 10.1015C12.6433 10.0019 12.7109 9.91171 12.8147 9.88552C12.8505 9.87654 12.8886 9.87355 12.9257 9.87337C13.5851 9.87187 14.2444 9.87093 14.9038 9.87112C14.9438 9.87112 14.9857 9.87578 15.0237 9.88795C15.1199 9.91882 15.18 10.0128 15.1701 10.1075C15.1598 10.2044 15.0847 10.2837 14.9858 10.2978C14.9489 10.303 14.9111 10.3021 14.8738 10.3021C14.5544 10.3024 14.2348 10.3021 13.9154 10.3021V10.3073L13.915 10.3079Z" fill="#3F49A7"/>
<path d="M13.4655 9.46244C13.3096 9.46244 13.1535 9.46337 12.9977 9.46169C12.9576 9.46132 12.9159 9.45796 12.8777 9.44654C12.7791 9.4166 12.7203 9.32864 12.7271 9.23096C12.734 9.13085 12.8117 9.04947 12.9157 9.03468C12.9425 9.03094 12.9698 9.03074 12.9969 9.03037C13.3156 9.02607 13.6343 9.02158 13.9529 9.01858C13.9932 9.01821 14.0347 9.02138 14.0735 9.0313C14.1734 9.05713 14.2363 9.14172 14.234 9.23977C14.2316 9.34101 14.1588 9.42576 14.0547 9.44373C14.0149 9.45065 13.9737 9.45271 13.9333 9.45308C13.7774 9.45402 13.6214 9.45347 13.4655 9.45347C13.4655 9.45646 13.4655 9.45945 13.4655 9.46244Z" fill="#3F49A7"/>
</svg>
