<svg width="24" height="25" viewBox="0 0 24 25" fill="none" xmlns="http://www.w3.org/2000/svg">
<circle cx="12" cy="12.7998" r="12" fill="#F2F3FA"/>
<path d="M10.7424 14.451C10.5561 14.225 10.3716 14.0016 10.1792 13.7685C9.83963 13.9591 9.47781 14.0545 9.09044 14.0291C8.7062 14.004 8.35997 13.8702 8.04533 13.6345C8.0038 13.669 7.96618 13.7 7.92914 13.7316C6.62532 14.8438 5.3215 15.9562 4.01769 17.0684C3.97733 17.1029 3.93756 17.1385 3.89389 17.1684C3.76444 17.2565 3.60459 17.2397 3.5079 17.1311C3.4112 17.0225 3.41393 16.8613 3.51725 16.7442C3.54747 16.7099 3.58295 16.6798 3.61804 16.65C4.91367 15.5444 6.2093 14.4391 7.50512 13.3335C7.55055 13.2947 7.59558 13.2557 7.64451 13.2134C7.62365 13.177 7.60669 13.1466 7.58895 13.1167C7.18501 12.4379 7.23746 11.5913 7.72191 10.9733C8.20265 10.3598 9.01188 10.0995 9.76184 10.336C11.0622 10.7458 11.485 12.2596 10.7177 13.2817C10.6902 13.3183 10.6621 13.3542 10.6261 13.4012C10.8058 13.6189 10.9851 13.8363 11.1686 14.0586C11.6737 13.7889 12.1691 13.7993 12.6672 14.1026C14.171 12.7945 15.6766 11.485 17.1752 10.1816C17.1391 10.0465 17.0952 9.92251 17.0734 9.79463C16.9915 9.31427 17.2305 8.81522 17.6598 8.55438C18.0809 8.29861 18.6369 8.31614 19.0221 8.60837C19.5765 9.02907 19.6937 9.70925 19.3555 10.2709C19.3446 10.289 19.3346 10.3077 19.3192 10.335C19.3404 10.3633 19.3619 10.3949 19.3861 10.4241C19.7303 10.8425 20.075 11.2605 20.4191 11.6788C20.455 11.7225 20.4922 11.7661 20.5209 11.8145C20.5988 11.9459 20.5725 12.0976 20.4606 12.1882C20.3493 12.2785 20.1951 12.2719 20.0826 12.1691C20.0462 12.1358 20.0148 12.097 19.9832 12.0588C19.6383 11.641 19.2941 11.2226 18.9494 10.8047C18.9272 10.7778 18.9036 10.7518 18.8769 10.7214C18.4195 10.9343 17.9819 10.901 17.5563 10.6154C16.0612 11.9159 14.5664 13.2162 13.0658 14.5216C13.2774 14.8925 13.3275 15.2793 13.2029 15.6823C13.1095 15.9843 12.9226 16.2201 12.6623 16.3972C12.1404 16.7522 11.4409 16.7063 10.9678 16.2913C10.5489 15.9236 10.2816 15.1941 10.7426 14.4518L10.7424 14.451ZM10.5204 12.1436C10.5288 11.4622 9.97103 10.8304 9.21541 10.8279C8.49293 10.8253 7.90048 11.4112 7.89736 12.1327C7.89405 12.8616 8.4824 13.455 9.20858 13.455C9.93028 13.455 10.5181 12.8672 10.5204 12.1434V12.1436ZM11.8794 16.0558C12.3303 16.0568 12.6906 15.6981 12.6898 15.2485C12.689 14.8062 12.3291 14.4442 11.888 14.442C11.4441 14.4399 11.0762 14.8068 11.0762 15.2516C11.0762 15.6944 11.4363 16.0546 11.8794 16.0556V16.0558ZM18.2975 10.2781C18.6663 10.2795 18.9619 9.99232 18.963 9.62426C18.9644 9.24625 18.6889 8.95811 18.3055 8.95421C17.9343 8.95051 17.637 9.24703 17.6372 9.61763C17.6376 9.98335 17.9308 10.2767 18.2975 10.2781Z" fill="#3F49A7"/>
</svg>
