<svg width="44" height="44" viewBox="0 0 44 44" fill="none" xmlns="http://www.w3.org/2000/svg">
<g id="17">
<rect width="44" height="44" rx="22" fill="#F2F3FA"/>
<path id="Vector" d="M34.3939 14.7027H31.5401C31.3873 14.7027 31.2648 14.8266 31.2648 14.9781V15.7256H30.8903V15.5948C30.8903 15.442 30.7664 15.3195 30.615 15.3195H28.0076C27.8548 15.3195 27.7323 15.4434 27.7323 15.5948V15.7256H27.1032L26.6021 15.2245C26.2689 14.8913 25.7265 14.8913 25.3933 15.2245L24.8097 15.8082C24.3664 15.5425 23.8914 15.3456 23.3917 15.2203V14.3943C23.3917 13.9235 23.0077 13.5394 22.5368 13.5394H21.6847C21.2139 13.5394 20.8298 13.9235 20.8298 14.3943V15.2203C20.33 15.3456 19.8551 15.5425 19.4118 15.8082L18.8281 15.2245C18.495 14.8913 17.9526 14.8913 17.6194 15.2245L17.1183 15.7256H12.7035C12.1391 15.7256 11.6793 16.1854 11.6793 16.7498V29.1547C11.6793 29.3254 11.7261 29.4851 11.8005 29.6269H10.4913C10.4527 29.6269 10.4169 29.6352 10.3839 29.6489C10.3178 29.6765 10.2655 29.7301 10.2366 29.7962C10.2228 29.8293 10.2146 29.8651 10.2146 29.9036C10.2146 30.0275 10.2118 30.15 10.2091 30.2698C10.1926 30.9182 10.1788 31.5294 10.6317 31.9947C11.0915 32.4655 11.9368 32.6748 13.3712 32.6748H30.8478C32.2603 32.6748 33.129 32.416 33.5832 31.8598C34.0059 31.3436 34.0059 30.6731 34.0045 29.9628V29.9022C34.0045 29.7494 33.8806 29.6269 33.7292 29.6269H32.42C32.4943 29.4851 32.5411 29.3268 32.5411 29.1547V18.2353H34.3941C34.5469 18.2353 34.6694 18.1114 34.6694 17.9599V14.9795C34.6694 14.8267 34.5455 14.7042 34.3941 14.7042L34.3939 14.7027ZM17.011 19.0393H16.185C15.7142 19.0393 15.3301 19.4234 15.3301 19.8942V20.7464C15.3301 21.2172 15.7142 21.6013 16.185 21.6013H17.011C17.1363 22.101 17.3332 22.5759 17.5989 23.0192L17.0152 23.6029C16.8541 23.7639 16.766 23.9787 16.766 24.2072C16.766 24.4357 16.8541 24.6505 17.0152 24.8116L17.6182 25.4145C17.7847 25.5811 18.0036 25.6651 18.2225 25.6651C18.4413 25.6651 18.6603 25.5811 18.8268 25.4145L19.4119 24.8294C19.6115 24.9492 19.8194 25.0566 20.0328 25.1474V25.2025C20.0328 25.4283 20.1484 25.6279 20.3219 25.7463C20.3095 25.7945 20.3012 25.8426 20.3012 25.895V26.1207C20.3012 26.3961 20.4912 26.6246 20.7472 26.6893C21.0212 27.3033 21.5471 27.6929 22.1308 27.6929C22.7145 27.6929 23.2404 27.3033 23.5143 26.6907C23.7718 26.6273 23.9631 26.3974 23.9631 26.1207V25.895C23.9631 25.844 23.9548 25.7945 23.9425 25.7463C24.1173 25.6279 24.2315 25.4283 24.2315 25.2025V25.1281C24.4298 25.04 24.6212 24.9409 24.807 24.8294L25.3921 25.4145C25.5586 25.5811 25.7776 25.6651 25.9964 25.6651C26.2153 25.6651 26.4342 25.5811 26.6007 25.4145L27.2037 24.8115C27.3648 24.6505 27.4529 24.4357 27.4529 24.2072C27.4529 23.9787 27.3648 23.7639 27.2037 23.6029L26.62 23.0192C26.8857 22.5759 27.0826 22.101 27.2079 21.6013H28.0339C28.5047 21.6013 28.8888 21.2172 28.8888 20.7464V19.8942C28.8888 19.4234 28.5047 19.0393 28.0339 19.0393H27.2079C27.0853 18.5478 26.8926 18.0811 26.6352 17.6461H27.731V18.3179C27.731 18.4707 27.8549 18.5932 28.0063 18.5932H30.3039V28.3138H13.9149V17.6459H17.585C17.3262 18.0823 17.1349 18.549 17.0123 19.0391L17.011 19.0393ZM20.2228 22.6777C20.2186 22.6722 20.2131 22.6708 20.2076 22.6667C20.2035 22.6626 20.2007 22.6557 20.1966 22.6515C19.5895 22.1078 19.2412 21.3286 19.2412 20.515C19.2412 18.9332 20.5284 17.6474 22.1088 17.6474C23.6906 17.6474 24.9763 18.9346 24.9763 20.515C24.9763 21.2804 24.679 21.999 24.138 22.5414C24.1352 22.5442 24.1352 22.5469 24.1325 22.5497C24.1297 22.5524 24.1269 22.5524 24.1242 22.5552C23.5212 23.2504 23.4538 23.8685 23.4386 24.2746H22.6759V21.4002C23.1688 21.3286 23.5956 21.1386 23.6451 20.7655C23.7002 20.3402 23.4937 20.1254 23.3657 20.0359C23.1013 19.8487 22.7351 19.868 22.5107 19.9822C22.3373 20.0703 22.2368 20.2163 22.2354 20.3828V20.9913H22.1652C22.1542 20.9913 22.1432 20.99 22.1322 20.99V20.3801C22.1308 20.2176 22.0344 20.0731 21.8692 19.9836C21.6242 19.8514 21.2897 19.8638 21.0529 20.0153C20.918 20.102 20.6936 20.3126 20.7197 20.7504C20.7197 20.7531 20.7211 20.7545 20.7211 20.7559C20.7211 20.7586 20.7197 20.76 20.7211 20.7614C20.7239 20.7821 20.7335 20.7986 20.7376 20.8178C20.7404 20.8234 20.7404 20.8302 20.7431 20.8357C20.834 21.1565 21.2305 21.3299 21.6889 21.3974V24.2746H20.8436C20.8395 23.8961 20.7776 23.3344 20.22 22.6791L20.2228 22.6777ZM22.2354 24.2732H22.1322V21.4304C22.1418 21.4304 22.1528 21.4318 22.1625 21.4318H22.2354L22.2354 24.2732ZM23.5763 24.8253C23.6327 24.8253 23.6795 24.8721 23.6795 24.9285V25.2025C23.6795 25.2589 23.6327 25.3057 23.5763 25.3057H20.6867C20.6303 25.3057 20.5834 25.2589 20.5834 25.2025V24.9271C20.5834 24.8707 20.6303 24.8239 20.6867 24.8239H23.5763V24.8253ZM20.8877 26.1578C20.8684 26.1578 20.8519 26.1413 20.8519 26.122V25.8963C20.8519 25.877 20.8684 25.8605 20.8877 25.8605H23.3753C23.3946 25.8605 23.4111 25.877 23.4111 25.8963V26.122C23.4111 26.1413 23.3946 26.1578 23.3753 26.1578H20.8877ZM22.8742 26.7099C22.6828 26.9797 22.4157 27.1422 22.1294 27.1422C21.8444 27.1422 21.5774 26.9797 21.386 26.7099H22.8742ZM22.6773 20.9513V20.3979C22.7172 20.3552 22.8935 20.3043 23.0463 20.3621C23.0958 20.38 23.2445 20.4364 23.2087 20.709C23.1991 20.7806 23.0146 20.8935 22.6773 20.9527L22.6773 20.9513ZM21.6916 20.9485C21.3599 20.8893 21.1754 20.782 21.163 20.7131C21.1534 20.5204 21.2222 20.3979 21.3667 20.3525C21.514 20.3057 21.66 20.3566 21.6916 20.3938V20.9485ZM30.3369 15.8701V18.0411H28.2816V15.8715H30.3369V15.8701ZM27.7295 17.094H27.1459L27.2023 17.0375C27.3634 16.8765 27.4515 16.6617 27.4515 16.4332C27.4515 16.3809 27.446 16.3286 27.4363 16.2776H27.7282V17.094L27.7295 17.094ZM18.0062 15.6155C18.1246 15.4971 18.3173 15.4971 18.4343 15.6155L19.1694 16.3506C19.1832 16.3644 19.1997 16.3712 19.2163 16.3809C19.2273 16.3878 19.2369 16.396 19.2479 16.4015C19.2851 16.4194 19.325 16.4304 19.3649 16.4304C19.3966 16.4304 19.4269 16.4236 19.4572 16.4125C19.4668 16.4098 19.4751 16.4043 19.4833 16.4001C19.4943 16.3946 19.5054 16.3919 19.5164 16.385C20.0175 16.0546 20.5695 15.8247 21.1573 15.7049C21.1669 15.7036 21.1738 15.6967 21.1821 15.6939C21.2 15.6884 21.2165 15.6815 21.233 15.6719C21.2482 15.6636 21.2619 15.654 21.2757 15.643C21.2895 15.632 21.3005 15.6196 21.3129 15.6058C21.3239 15.592 21.3335 15.5783 21.3418 15.5631C21.35 15.548 21.3555 15.5329 21.3611 15.515C21.3666 15.4971 21.3707 15.4792 21.3721 15.4613C21.3734 15.4516 21.3776 15.4447 21.3776 15.4351V14.3944C21.3776 14.2278 21.5139 14.0915 21.6804 14.0915H22.5326C22.6992 14.0915 22.8355 14.2278 22.8355 14.3944V15.4351C22.8355 15.4447 22.8396 15.453 22.841 15.4613C22.8423 15.4805 22.8465 15.4971 22.852 15.515C22.8575 15.5315 22.863 15.548 22.8713 15.5631C22.8795 15.5783 22.8892 15.5921 22.9002 15.6058C22.9112 15.6196 22.9236 15.632 22.9373 15.643C22.9511 15.654 22.9649 15.6636 22.98 15.6719C22.9965 15.6815 23.013 15.6884 23.0309 15.6939C23.0392 15.6967 23.0461 15.7022 23.0557 15.7049C23.6422 15.8247 24.1942 16.0546 24.6967 16.385C24.7077 16.3919 24.7187 16.3946 24.7297 16.4001C24.738 16.4043 24.7462 16.4084 24.7559 16.4125C24.7862 16.4236 24.8164 16.4304 24.8481 16.4304C24.888 16.4304 24.928 16.4194 24.9651 16.4015C24.9775 16.396 24.9858 16.3878 24.9968 16.3795C25.0119 16.3699 25.0298 16.363 25.0422 16.3492L25.7773 15.6141C25.8957 15.4957 26.0885 15.4957 26.2055 15.6141L26.8084 16.2171C26.8649 16.2735 26.8965 16.3492 26.8965 16.4318C26.8965 16.513 26.8649 16.5887 26.8084 16.6466L26.0733 17.3817C26.0664 17.3886 26.0637 17.3968 26.0582 17.4037C26.0458 17.4189 26.0361 17.434 26.0279 17.4505C26.0196 17.4657 26.0127 17.4808 26.0086 17.4987C26.0031 17.5152 26.0003 17.5317 25.999 17.5496C25.9976 17.5675 25.9962 17.5841 25.999 17.602C26.0003 17.6198 26.0045 17.635 26.0086 17.6529C26.0141 17.6708 26.021 17.6873 26.0292 17.7038C26.0334 17.7121 26.0347 17.7217 26.0389 17.7286C26.3707 18.2297 26.5992 18.7817 26.719 19.3696C26.7217 19.3806 26.7272 19.3888 26.73 19.3985C26.7341 19.4122 26.7396 19.4246 26.7451 19.437C26.7547 19.4549 26.7658 19.4714 26.7795 19.4879C26.7878 19.4976 26.7947 19.5072 26.8043 19.5169C26.8208 19.532 26.8387 19.543 26.8594 19.554C26.869 19.5595 26.8786 19.5664 26.8883 19.5705C26.9199 19.5829 26.953 19.5912 26.9888 19.5912H28.0281C28.1947 19.5912 28.331 19.7275 28.331 19.8941V20.7462C28.331 20.9128 28.1947 21.0491 28.0281 21.0491H26.9874C26.9778 21.0491 26.9709 21.0532 26.9612 21.0546C26.942 21.056 26.9241 21.0601 26.9062 21.0656C26.8897 21.0711 26.8745 21.0766 26.8594 21.0849C26.8429 21.0931 26.8291 21.1028 26.8153 21.1152C26.8016 21.1262 26.7892 21.1372 26.7782 21.1509C26.7671 21.1647 26.7575 21.1785 26.7492 21.1936C26.7396 21.2101 26.7327 21.2267 26.7272 21.2446C26.7245 21.2528 26.719 21.2611 26.7162 21.2693C26.5964 21.8558 26.3679 22.4078 26.0361 22.9103C26.0306 22.9185 26.0306 22.9268 26.0265 22.9351C26.0182 22.9516 26.0114 22.9681 26.0058 22.986C26.0003 23.0025 25.9976 23.019 25.9962 23.0369C25.9948 23.0548 25.9948 23.0714 25.9962 23.0893C25.9976 23.1072 26.0017 23.1237 26.0058 23.1402C26.0114 23.1567 26.0169 23.1719 26.0251 23.1884C26.0334 23.2049 26.043 23.22 26.0554 23.2338C26.0609 23.2407 26.0637 23.2503 26.0705 23.2558L26.8057 23.9923C26.8621 24.0488 26.8938 24.1245 26.8938 24.2071C26.8938 24.2883 26.8621 24.364 26.8057 24.4218L26.2027 25.0248C26.0843 25.1432 25.8916 25.1432 25.7746 25.0248L25.0395 24.2897C25.0326 24.2828 25.0243 24.28 25.0174 24.2745C25.0023 24.2621 24.9872 24.2525 24.9706 24.2443C24.9555 24.236 24.9403 24.2291 24.9238 24.225C24.9073 24.2195 24.8908 24.2167 24.8729 24.2153C24.855 24.214 24.8385 24.2126 24.8206 24.2153C24.8027 24.2167 24.7875 24.2208 24.7696 24.225C24.7517 24.2305 24.7352 24.2374 24.7187 24.2456C24.7104 24.2498 24.7008 24.2511 24.6939 24.2553C24.5108 24.3764 24.3167 24.4783 24.1185 24.5733C24.0813 24.5155 24.0331 24.4659 23.9808 24.4232C23.9808 24.415 23.9822 24.4081 23.9822 24.3998C23.9932 24.0322 24.0084 23.527 24.537 22.9172V22.9158C25.1716 22.2715 25.5227 21.4207 25.5227 20.5149C25.5227 18.6289 23.9891 17.0953 22.1031 17.0953C20.2171 17.0953 18.6835 18.6289 18.6835 20.5149C18.6835 21.4745 19.091 22.3927 19.7986 23.0397C20.2942 23.6234 20.2914 24.0777 20.2873 24.4095C20.2226 24.459 20.1675 24.5196 20.1249 24.5898C19.9142 24.4921 19.7077 24.3833 19.5136 24.2553C19.5054 24.2498 19.4971 24.2498 19.4888 24.2456C19.4723 24.2374 19.4558 24.2305 19.4379 24.225C19.4214 24.2195 19.4049 24.2167 19.387 24.2154C19.3691 24.214 19.3525 24.214 19.3347 24.2154C19.3168 24.2167 19.3002 24.2209 19.2823 24.225C19.2658 24.2305 19.2507 24.236 19.2355 24.2443C19.219 24.2525 19.2039 24.2635 19.1887 24.2746C19.1818 24.2801 19.1722 24.2828 19.1667 24.2897L18.4316 25.0248C18.3132 25.1432 18.1205 25.1432 18.0035 25.0248L17.4005 24.4219C17.3441 24.3654 17.3124 24.2883 17.3124 24.2071C17.3124 24.1259 17.3441 24.0502 17.4005 23.9923L18.1356 23.2572C18.1425 23.2503 18.1453 23.2421 18.1508 23.2352C18.1632 23.2201 18.1728 23.2049 18.181 23.1884C18.1893 23.1732 18.1962 23.1581 18.2003 23.1402C18.2058 23.1237 18.2086 23.1072 18.21 23.0893C18.2113 23.0714 18.2127 23.0549 18.21 23.037C18.2086 23.0191 18.2045 23.0039 18.2003 22.986C18.1948 22.9681 18.1879 22.9516 18.1797 22.9351C18.1755 22.9268 18.1742 22.9172 18.17 22.9103C17.8396 22.4092 17.6098 21.8572 17.49 21.2694C17.4886 21.2597 17.4817 21.2528 17.479 21.2446C17.4734 21.2267 17.4666 21.2102 17.4569 21.1936C17.4487 21.1785 17.439 21.1647 17.428 21.151C17.417 21.1372 17.4046 21.1262 17.3908 21.1152C17.3771 21.1042 17.3633 21.0945 17.3468 21.0863C17.3317 21.078 17.3165 21.0725 17.3 21.067C17.2821 21.0615 17.2642 21.0574 17.2449 21.056C17.2353 21.0546 17.2284 21.0505 17.2188 21.0505H16.178C16.0115 21.0505 15.8752 20.9142 15.8752 20.7476V19.8955C15.8752 19.7289 16.0115 19.5926 16.178 19.5926H17.2174C17.2518 19.5926 17.2862 19.5843 17.3179 19.5719C17.3289 19.5678 17.3372 19.5609 17.3482 19.5554C17.3674 19.5444 17.3853 19.5334 17.4019 19.5196C17.4115 19.5114 17.4198 19.5004 17.428 19.4907C17.4404 19.4756 17.4528 19.4591 17.4611 19.4412C17.4679 19.4288 17.4721 19.415 17.4762 19.4012C17.479 19.3916 17.4858 19.3833 17.4872 19.3723C17.607 18.7859 17.8355 18.2338 18.1673 17.7314C18.1728 17.7231 18.1728 17.7149 18.1769 17.7066C18.1866 17.6901 18.1934 17.6722 18.1976 17.6543C18.2031 17.6378 18.2058 17.6212 18.2072 17.6047C18.2086 17.5868 18.2086 17.5703 18.2072 17.5524C18.2058 17.5345 18.2017 17.518 18.1976 17.5015C18.1921 17.485 18.1866 17.4698 18.1783 17.4533C18.17 17.4368 18.159 17.4216 18.148 17.4065C18.1425 17.3996 18.1398 17.39 18.1329 17.3845L17.3978 16.6493C17.3413 16.5929 17.3096 16.5158 17.3096 16.4346C17.3096 16.3534 17.3413 16.2776 17.3978 16.2198L18.0007 15.6169L18.0062 15.6155ZM33.1547 31.5104C32.8188 31.9221 32.063 32.1217 30.8461 32.1217H13.3709C12.1305 32.1217 11.3637 31.9537 11.0251 31.6082C10.7332 31.3095 10.7442 30.8565 10.758 30.2825C10.7594 30.2494 10.7594 30.2123 10.7594 30.1779H19.6443C19.6622 30.1999 19.6815 30.2219 19.698 30.2426C19.9472 30.5495 20.2294 30.8979 20.8723 30.8979H23.3406C24.0014 30.8979 24.2726 30.5537 24.5369 30.2219C24.5479 30.2081 24.5603 30.193 24.5727 30.1779H33.4506C33.4478 30.7203 33.4175 31.1883 33.1532 31.5104L33.1547 31.5104ZM31.9873 29.155C31.9873 29.4152 31.7753 29.6272 31.5152 29.6272H24.4406C24.4365 29.6272 24.4324 29.6299 24.4282 29.6299C24.409 29.6313 24.3911 29.6368 24.3718 29.6409C24.3553 29.645 24.3388 29.6478 24.3236 29.6547C24.3085 29.6616 24.2961 29.6726 24.2823 29.6822C24.2658 29.6932 24.2507 29.7042 24.2369 29.7194C24.2341 29.7221 24.23 29.7235 24.2272 29.7276C24.1846 29.78 24.1433 29.8309 24.1047 29.8805C23.8583 30.1916 23.7344 30.3471 23.342 30.3471H20.8737C20.4938 30.3471 20.3644 30.1874 20.1276 29.8956C20.0821 29.8392 20.034 29.78 19.983 29.7222C19.9803 29.7194 19.9775 29.718 19.9748 29.7166C19.961 29.7015 19.9445 29.6919 19.928 29.6795C19.9142 29.6698 19.9032 29.6602 19.888 29.6533C19.8729 29.6464 19.8564 29.6451 19.8412 29.6409C19.822 29.6354 19.8041 29.6299 19.7848 29.6299C19.7807 29.6299 19.7779 29.6285 19.7751 29.6285H12.7006C12.4404 29.6285 12.2284 29.4165 12.2284 29.1564V16.7514C12.2284 16.4913 12.4404 16.2793 12.7006 16.2793H16.7781C16.7685 16.3302 16.763 16.3811 16.763 16.4348C16.763 16.6634 16.8511 16.8781 17.0122 17.0392L17.0686 17.0956H13.6352C13.4824 17.0956 13.3599 17.2195 13.3599 17.3709V28.5907C13.3599 28.7435 13.4838 28.866 13.6352 28.866H30.5776C30.7304 28.866 30.8529 28.7421 30.8529 28.5907V18.442C30.8722 18.4048 30.886 18.3635 30.886 18.3181V16.2778H31.2604V17.9587C31.2604 18.1115 31.3843 18.2341 31.5358 18.2341H31.9832V29.1535L31.9873 29.155ZM34.117 17.6833H31.8153V15.2549H34.117V17.6833ZM36.6817 11.0891V9.59955C36.6817 9.44674 36.5578 9.32422 36.4064 9.32422H34.9802C34.8274 9.32422 34.7048 9.44812 34.7048 9.59955V11.0891C34.7048 11.2419 34.8287 11.3644 34.9802 11.3644H36.4064C36.5592 11.3644 36.6817 11.2405 36.6817 11.0891ZM36.1297 10.8138H35.2541V9.87488H36.1297V10.8138ZM29.1982 14.6284H30.6244C30.7773 14.6284 30.8998 14.5045 30.8998 14.3531V12.8635C30.8998 12.7107 30.7759 12.5882 30.6244 12.5882H29.1982C29.0454 12.5882 28.9229 12.7121 28.9229 12.8635V14.3531C28.9229 14.5059 29.0468 14.6284 29.1982 14.6284ZM29.4736 13.1388H30.3491V14.0777H29.4736V13.1388ZM37.0341 16.4621H35.6079C35.4551 16.4621 35.3325 16.586 35.3325 16.7374V18.227C35.3325 18.3798 35.4564 18.5023 35.6079 18.5023H37.0341C37.1869 18.5023 37.3094 18.3784 37.3094 18.227V16.7374C37.3094 16.5846 37.1855 16.4621 37.0341 16.4621ZM36.7587 17.9516H35.8832V17.0127H36.7587V17.9516ZM36.4958 15.9761C36.6486 15.9761 36.7711 15.8522 36.7711 15.7008V14.5334C36.7711 14.3806 36.6472 14.2581 36.4958 14.2581H35.3793C35.2265 14.2581 35.104 14.382 35.104 14.5334V15.7008C35.104 15.8536 35.2279 15.9761 35.3793 15.9761H36.4958ZM35.6547 14.8087H36.2205V15.4241H35.6547V14.8087ZM31.7449 14.1617H34.1362C34.289 14.1617 34.4115 14.0378 34.4115 13.8864V11.3892C34.4115 11.2363 34.2876 11.1138 34.1362 11.1138H31.7449C31.5921 11.1138 31.4696 11.2377 31.4696 11.3892V13.8864C31.4696 14.0392 31.5935 14.1617 31.7449 14.1617ZM32.0202 11.6645H33.8595V13.6097H32.0202V11.6645ZM37.5173 11.5475H36.0911C35.9383 11.5475 35.8158 11.6714 35.8158 11.8228V13.3123C35.8158 13.4652 35.9397 13.5877 36.0911 13.5877H37.5173C37.6701 13.5877 37.7927 13.4638 37.7927 13.3123V11.8228C37.7927 11.67 37.6688 11.5475 37.5173 11.5475ZM37.242 13.037H36.3664V12.0981H37.242V13.037Z" fill="#3F49A7"/>
</g>
</svg>
