<svg width="73" height="73" viewBox="0 0 73 73" fill="none" xmlns="http://www.w3.org/2000/svg">
<g id="Frame 1707481361" filter="url(#filter0_d_8635_54662)">
<rect x="14.5" y="10" width="44" height="44" rx="22" fill="white"/>
<g id="Group 13">
<path id="Vector" d="M33.9445 41.1869C33.9174 41.1783 33.8987 41.1713 33.8794 41.1663C33.2068 40.9862 32.7983 40.5464 32.6422 39.878C32.5839 39.6281 32.5532 39.3679 32.5428 39.1113C32.5317 38.8288 32.5621 38.5446 32.5677 38.2609C32.5794 37.6567 32.5836 37.0533 32.3345 36.4821C32.169 36.1023 31.9528 35.7561 31.6739 35.4487C31.4626 35.2159 31.2478 34.9855 31.0454 34.7449C30.2837 33.8388 29.8339 32.7971 29.7047 31.6194C29.4852 29.6214 30.0112 27.8401 31.2992 26.2989C32.0737 25.3722 33.0524 24.7245 34.2024 24.3417C34.6308 24.199 35.0599 24.0633 35.5075 23.9877C36.0251 23.9 36.5464 23.8511 37.0683 23.891C37.9143 23.9558 38.7321 24.1493 39.4949 24.5332C41.3729 25.478 42.531 26.9846 42.9948 29.029C43.0981 29.4846 43.1777 29.9442 43.1721 30.4136C43.1598 31.41 43.0073 32.3808 42.6299 33.31C42.4475 33.7587 42.2169 34.1809 41.9335 34.572C41.6898 34.9085 41.4306 35.2343 41.1763 35.5632C41.0367 35.7436 40.8901 35.9189 40.7505 36.0996C40.5199 36.3975 40.3836 36.7375 40.2943 37.1019C40.2002 37.4872 40.1918 37.8717 40.242 38.2634C40.3068 38.7699 40.2811 39.278 40.1915 39.7778C40.0832 40.382 39.733 40.8301 39.2067 41.1375C39.0864 41.2079 38.9468 41.254 38.81 41.2855C38.6779 41.3159 38.607 41.3676 38.5735 41.5094C38.5001 41.8179 38.354 42.0972 38.1619 42.3507C37.235 43.5758 35.498 43.6046 34.5177 42.4113C34.2524 42.0882 34.0757 41.7213 33.978 41.3159C33.9673 41.2724 33.9553 41.2291 33.9442 41.1869H33.9445ZM36.7167 30.7366C36.7946 30.7366 36.8541 30.7369 36.9136 30.7366C37.4566 30.7332 37.9994 30.7291 38.5425 30.7271C38.712 30.7265 38.8759 30.7592 39.0275 30.8374C39.2039 30.9287 39.2994 31.0758 39.3145 31.2735C39.3287 31.4603 39.293 31.637 39.1978 31.7995C39.1542 31.8738 39.1085 31.9469 39.0616 32.0193C38.9538 32.1857 38.9778 32.3484 39.0822 32.5028C39.24 32.7357 39.5775 32.8658 39.8486 32.7929C40.1401 32.7145 40.4188 32.4788 40.251 32.0371C40.2191 31.9531 40.1625 31.8785 40.1186 31.799C40.0379 31.6529 39.9419 31.5128 39.8816 31.3589C39.7799 31.0984 39.8794 30.8446 40.1228 30.7089C40.2057 30.6629 40.299 30.6216 40.3917 30.6101C40.6075 30.5833 40.8256 30.5671 41.0431 30.5621C41.4896 30.5518 41.936 30.5515 42.3827 30.5467C42.4171 30.5465 42.4514 30.542 42.4939 30.5389C42.4972 30.5026 42.5006 30.4736 42.5025 30.4443C42.5338 29.9936 42.4534 29.5553 42.3518 29.1203C41.9394 27.3568 40.9487 26.032 39.3408 25.1804C38.5562 24.765 37.7118 24.5715 36.8304 24.5243C36.7776 24.5215 36.724 24.5279 36.679 24.5296C36.6609 24.9032 36.6419 25.2569 36.6265 25.611C36.6137 25.9047 36.6042 26.1984 36.5956 26.4921C36.5939 26.5499 36.6028 26.6083 36.6081 26.6825C36.6888 26.6513 36.7488 26.627 36.8097 26.6046C36.9758 26.5432 37.14 26.4742 37.3095 26.4234C37.5393 26.3545 37.7747 26.3204 38.0156 26.3606C38.9591 26.5175 39.3536 27.681 38.7983 28.3907C38.361 28.9494 37.5882 29.1929 36.8873 28.7406C36.8379 28.7087 36.7874 28.6783 36.7106 28.6308C36.779 29.3439 36.7525 30.026 36.7165 30.7363L36.7167 30.7366ZM36.0008 24.5787C35.866 24.596 35.7403 24.6106 35.6153 24.6284C35.1861 24.6901 34.7779 24.8286 34.3705 24.9702C32.8835 25.4873 31.7775 26.45 31.0343 27.8315C30.64 28.5641 30.4205 29.3515 30.3284 30.1757C30.3077 30.3599 30.3024 30.5459 30.2904 30.7271C30.5596 30.7857 31.8202 30.7651 31.9883 30.7025C31.9646 30.6687 31.942 30.6358 31.9188 30.6034C31.7982 30.4367 31.7189 30.2522 31.675 30.0511C31.5343 29.4067 31.8518 28.8737 32.4856 28.6897C32.7084 28.625 32.9354 28.6082 33.1641 28.6314C33.7942 28.6959 34.2457 29.3009 34.1349 29.9233C34.0986 30.1268 34.0134 30.3088 33.907 30.4831C33.8797 30.528 33.8545 30.5741 33.818 30.638C34.5783 30.7514 35.3171 30.7221 36.0508 30.7388C36.0617 30.7039 36.0695 30.69 36.0704 30.6754C36.0969 30.098 36.1304 29.5209 36.0846 28.9427C36.0715 28.7763 36.0679 28.6082 36.0771 28.4415C36.0821 28.348 36.1092 28.25 36.1491 28.1648C36.2731 27.9002 36.5299 27.8055 36.7969 27.9258C36.9024 27.9733 36.9959 28.0465 37.0976 28.1029C37.221 28.1715 37.3411 28.2542 37.4737 28.2963C37.7523 28.3851 37.9913 28.2866 38.1963 28.0928C38.3928 27.9071 38.4453 27.6849 38.3688 27.4263C38.2792 27.1237 38.0179 26.9536 37.7065 27.0003C37.4941 27.0321 37.295 27.1039 37.0967 27.1843C36.9423 27.2468 36.7837 27.3066 36.6215 27.3403C36.3328 27.4007 36.1081 27.2669 36.0159 26.9866C35.9785 26.8727 35.9539 26.7484 35.9559 26.6295C35.964 26.1632 35.9869 25.6975 36 25.2315C36.0059 25.0202 36.0011 24.8085 36.0011 24.5782L36.0008 24.5787ZM36.6268 37.4322H39.5825C39.5926 37.3722 39.6029 37.318 39.6105 37.2633C39.6892 36.6959 39.8793 36.1727 40.2295 35.714C40.3373 35.573 40.4484 35.4345 40.5578 35.2949C40.8083 34.9758 41.0638 34.6605 41.3086 34.3372C41.9251 33.5225 42.2686 32.5939 42.4361 31.5943C42.4573 31.467 42.4646 31.3374 42.4799 31.195C42.3967 31.195 42.3367 31.1942 42.2769 31.195C41.9318 31.2001 41.5867 31.2057 41.2416 31.2107C41.054 31.2135 40.8661 31.2143 40.6784 31.2191C40.6371 31.2202 40.5958 31.2336 40.5344 31.2453C40.5972 31.3427 40.6444 31.4201 40.6955 31.4946C40.7938 31.6384 40.8658 31.7937 40.9082 31.9626C41.0322 32.4568 40.8725 32.9088 40.4743 33.2011C39.7819 33.7098 38.8935 33.4122 38.5316 32.8451C38.2954 32.4746 38.2638 32.0868 38.4984 31.6971C38.5296 31.6448 38.5648 31.5951 38.5955 31.5427C38.6201 31.5005 38.6408 31.4558 38.6639 31.4111C38.5319 31.3595 36.8452 31.3668 36.6835 31.4165C36.6771 31.4949 36.6645 31.5756 36.6645 31.6563C36.6654 32.1175 36.6698 32.5788 36.6718 33.04C36.6723 33.1919 36.6729 33.3438 36.6676 33.4957C36.6553 33.8466 36.3155 34.0834 35.9389 33.8816C35.8408 33.8291 35.749 33.7643 35.6588 33.699C35.4402 33.5406 35.1939 33.5043 34.9348 33.5348C34.8726 33.542 34.8036 33.5697 34.7558 33.6096C34.5358 33.7939 34.4222 34.1108 34.6054 34.4159C34.6874 34.5528 34.8044 34.6586 34.9499 34.7292C35.1716 34.8367 35.2905 34.8149 35.4734 34.6508C35.5594 34.5737 35.6507 34.4955 35.7529 34.4441C36.1578 34.2409 36.576 34.4483 36.6514 34.8931C36.6799 35.0615 36.6885 35.2371 36.6765 35.4074C36.6338 35.9996 36.6199 36.5921 36.6263 37.1857C36.6271 37.2605 36.6263 37.3353 36.6263 37.4328L36.6268 37.4322ZM36.0115 31.3888C35.9548 31.3888 35.9095 31.3899 35.8643 31.3888C35.3168 31.3723 34.769 31.3598 34.2214 31.3372C33.9473 31.326 33.6742 31.2936 33.4248 31.1641C33.1219 31.0066 33.0314 30.7243 33.1889 30.4216C33.2473 30.3094 33.3232 30.2064 33.381 30.0939C33.4268 30.0048 33.4695 29.9104 33.4919 29.8135C33.5363 29.6212 33.4293 29.4285 33.2576 29.3308C33.0462 29.2107 32.5897 29.2764 32.4113 29.4495C32.3421 29.5165 32.3052 29.5949 32.2977 29.6904C32.2801 29.9143 32.3454 30.1103 32.4887 30.282C32.5601 30.3678 32.6369 30.4498 32.6997 30.5414C32.908 30.846 32.7991 31.1744 32.4515 31.2992C32.3993 31.3179 32.3446 31.3346 32.2896 31.3397C32.0475 31.3623 31.8052 31.391 31.5625 31.3975C31.2076 31.407 30.8522 31.3991 30.497 31.3991C30.4443 31.3991 30.3915 31.4028 30.3331 31.405C30.3739 31.8347 30.4521 32.2362 30.5811 32.6271C30.8285 33.3768 31.247 34.0228 31.7786 34.6008C31.957 34.7948 32.1396 34.9864 32.3047 35.1913C32.8017 35.8092 33.1314 36.4994 33.1912 37.3021C33.1939 37.3401 33.2071 37.3772 33.2143 37.4107C33.5787 37.4411 35.8632 37.433 35.976 37.4015C35.9782 37.3878 35.9827 37.373 35.9824 37.3585C35.9698 36.6638 35.9824 35.97 36.0343 35.2767C36.0396 35.205 36.0254 35.1316 36.0182 35.0327C35.9391 35.1031 35.8847 35.1542 35.8272 35.2022C35.5831 35.406 35.307 35.4895 34.9912 35.4205C34.5408 35.3225 34.2086 35.0615 34.0006 34.6583C33.6773 34.0315 33.9623 33.417 34.3524 33.0967C34.4845 32.9884 34.6377 32.9175 34.8058 32.8948C35.1981 32.8421 35.5748 32.8879 35.921 33.0967C35.9478 33.1129 35.9791 33.1213 36.0106 33.1344V31.3883L36.0115 31.3888ZM39.6049 39.0856C39.635 38.7408 39.6121 38.4206 39.5982 38.092C37.4709 38.0816 35.362 38.071 33.2579 38.0607C33.1925 38.2684 33.1629 38.8924 33.2107 39.058C35.3352 39.0672 37.4631 39.0762 39.6049 39.0854V39.0856ZM39.5323 39.7354C37.4377 39.7242 35.3606 39.7133 33.2805 39.7021C33.3464 40.2013 33.7736 40.5596 34.2806 40.5732C34.8488 40.5883 35.4167 40.614 35.9846 40.6341C36.7352 40.6609 37.4857 40.6888 38.2365 40.7131C38.6525 40.7265 38.9984 40.5766 39.2704 40.2583C39.3977 40.1092 39.4804 39.9411 39.5323 39.7351V39.7354ZM34.6475 41.2333C34.7195 41.955 35.5499 42.6424 36.3295 42.641C37.0677 42.6396 37.8607 42.0058 37.926 41.3561C36.8368 41.3154 35.7482 41.2746 34.6475 41.2336V41.2333Z" fill="#3F49A7"/>
<path id="Vector_2" d="M45.94 30.2675C46.3253 30.2675 46.7106 30.2669 47.0957 30.2681C47.1509 30.2681 47.2082 30.2703 47.2612 30.2843C47.4008 30.3211 47.4961 30.4462 47.498 30.585C47.5 30.7173 47.4154 30.8404 47.2827 30.8848C47.2311 30.9021 47.1738 30.9108 47.1191 30.9102C46.3231 30.9027 45.5273 30.8943 44.7316 30.8823C44.475 30.8784 44.3195 30.6791 44.3935 30.4616C44.4387 30.3292 44.5512 30.2463 44.7081 30.2421C44.8651 30.2379 45.0225 30.2421 45.1794 30.2421C45.433 30.2421 45.6865 30.2421 45.9397 30.2421C45.9397 30.2505 45.9397 30.2586 45.9397 30.2669L45.94 30.2675Z" fill="#3F49A7"/>
<path id="Vector_3" d="M40.4562 23.7356C40.2136 23.7364 40.0667 23.52 40.1471 23.2992C40.1658 23.2472 40.1954 23.1989 40.2234 23.1509C40.59 22.5213 40.9568 21.892 41.3246 21.2629C41.355 21.2107 41.3863 21.1574 41.4262 21.1124C41.5331 20.9918 41.6925 20.967 41.8257 21.044C41.957 21.12 42.0145 21.2733 41.9639 21.4246C41.948 21.4721 41.9243 21.5176 41.8989 21.5611C41.5225 22.2083 41.1453 22.8552 40.7678 23.5019C40.7424 23.5454 40.715 23.589 40.6818 23.6264C40.6187 23.6973 40.5391 23.7386 40.4565 23.7356H40.4562Z" fill="#3F49A7"/>
<path id="Vector_4" d="M30.8108 21.1758C30.8893 21.1783 30.9736 21.2213 31.037 21.3C31.0719 21.343 31.0998 21.3922 31.1271 21.4405C31.4762 22.0583 31.8246 22.6765 32.1722 23.2955C32.2043 23.3525 32.2351 23.4125 32.2532 23.4748C32.2959 23.6216 32.2325 23.7682 32.1038 23.8383C31.9723 23.91 31.8207 23.8857 31.7154 23.7715C31.6816 23.7347 31.654 23.6909 31.6292 23.647C31.2676 23.0071 30.9052 22.3677 30.5483 21.725C30.5059 21.6485 30.478 21.5541 30.4766 21.4673C30.4744 21.3034 30.6223 21.1755 30.8108 21.1761V21.1758Z" fill="#3F49A7"/>
<path id="Vector_5" d="M26.8239 30.6016C27.1587 30.6116 27.4935 30.62 27.828 30.6328C28.0086 30.6395 28.1323 30.7381 28.1614 30.888C28.1968 31.0712 28.0756 31.2376 27.8794 31.2708C27.8299 31.2792 27.7783 31.2775 27.7275 31.2767C27.1339 31.2675 26.5403 31.2583 25.9467 31.2465C25.8713 31.2451 25.7934 31.2387 25.7219 31.2178C25.5736 31.1742 25.4882 31.0408 25.5013 30.8933C25.5144 30.7465 25.6225 30.6309 25.7738 30.6088C25.8336 30.6002 25.8953 30.6021 25.9562 30.6018C26.2454 30.6013 26.5347 30.6018 26.8239 30.6016Z" fill="#3F49A7"/>
<path id="Vector_6" d="M27.6973 36.1538C27.5239 36.1521 27.4242 36.0938 27.3662 35.9723C27.3103 35.8559 27.3324 35.7135 27.4279 35.6219C27.4745 35.5773 27.5317 35.5404 27.5898 35.5119C28.0441 35.2894 28.4989 35.0686 28.9554 34.8505C29.0132 34.8229 29.0797 34.8041 29.1433 34.7997C29.2802 34.7899 29.3927 34.8647 29.4452 34.9862C29.4996 35.1118 29.4723 35.2537 29.3659 35.3458C29.317 35.3882 29.2578 35.4209 29.1992 35.4494C28.7631 35.6624 28.3261 35.8746 27.8883 36.0843C27.8165 36.1186 27.7381 36.1393 27.6973 36.1541V36.1538Z" fill="#3F49A7"/>
<path id="Vector_7" d="M28.9729 27.0505C28.9316 27.032 28.8495 27.0055 28.7781 26.9614C28.4329 26.7495 28.0906 26.5325 27.7472 26.3175C27.7344 26.3094 27.7218 26.3011 27.7095 26.2918C27.6933 26.2796 27.6768 26.2676 27.6623 26.2539C27.5467 26.1439 27.5216 25.9817 27.5998 25.8521C27.6766 25.7245 27.8357 25.6678 27.9848 25.7212C28.0415 25.7415 28.0954 25.7723 28.1468 25.8041C28.4821 26.0129 28.8169 26.2223 29.1505 26.434C29.1969 26.4633 29.2421 26.4999 29.2753 26.5429C29.3521 26.6428 29.3686 26.7559 29.3108 26.8712C29.251 26.9904 29.1511 27.0502 28.9732 27.0505H28.9729Z" fill="#3F49A7"/>
<path id="Vector_8" d="M45.2514 35.4908C45.2545 35.7072 45.0694 35.8641 44.8739 35.8247C44.8203 35.8138 44.7675 35.7909 44.7187 35.7653C44.3736 35.5827 44.0293 35.3984 43.6856 35.2133C43.6367 35.187 43.5873 35.1588 43.5454 35.1231C43.4237 35.0181 43.396 34.8564 43.4717 34.7238C43.5471 34.592 43.7029 34.532 43.8526 34.5798C43.8911 34.592 43.9282 34.6091 43.964 34.6281C44.3222 34.8182 44.6799 35.0097 45.0384 35.1999C45.1637 35.2663 45.2433 35.3629 45.2514 35.4908Z" fill="#3F49A7"/>
<path id="Vector_9" d="M43.5588 26.8249C43.4226 26.8079 43.3245 26.7534 43.2656 26.6401C43.2039 26.5211 43.2157 26.4022 43.2983 26.2981C43.3352 26.2517 43.386 26.2135 43.4371 26.1822C43.7174 26.0091 43.9994 25.839 44.2817 25.6693C44.3205 25.6461 44.3624 25.626 44.4051 25.6118C44.5497 25.5643 44.6986 25.6185 44.7759 25.7427C44.8516 25.8647 44.8407 26.0138 44.7399 26.1219C44.6991 26.1654 44.6475 26.2009 44.5964 26.2324C44.3289 26.3972 44.0608 26.5614 43.7903 26.7211C43.718 26.7638 43.6364 26.7909 43.5591 26.8249H43.5588Z" fill="#3F49A7"/>
<path id="Vector_10" d="M36.5501 21.8831C36.5501 22.0247 36.5507 22.1663 36.5499 22.3078C36.5496 22.3583 36.5504 22.4097 36.5415 22.4589C36.5164 22.5985 36.4005 22.7034 36.2609 22.7185C36.1327 22.7325 35.9948 22.6546 35.9423 22.5303C35.9211 22.4801 35.9082 22.4234 35.906 22.369C35.8932 22.0507 35.8839 21.7321 35.8753 21.4138C35.8742 21.3686 35.8761 21.3222 35.8859 21.2784C35.9227 21.1142 36.0531 21.0131 36.2131 21.0198C36.3703 21.0263 36.4988 21.141 36.5141 21.3074C36.5317 21.4987 36.5353 21.6911 36.5451 21.8829C36.5468 21.8829 36.5485 21.8829 36.5501 21.8829V21.8831Z" fill="#3F49A7"/>
</g>
</g>
<defs>
<filter id="filter0_d_8635_54662" x="0.5" y="0.5" width="72" height="72" filterUnits="userSpaceOnUse" color-interpolation-filters="sRGB">
<feFlood flood-opacity="0" result="BackgroundImageFix"/>
<feColorMatrix in="SourceAlpha" type="matrix" values="0 0 0 0 0 0 0 0 0 0 0 0 0 0 0 0 0 0 127 0" result="hardAlpha"/>
<feOffset dy="4.5"/>
<feGaussianBlur stdDeviation="7"/>
<feComposite in2="hardAlpha" operator="out"/>
<feColorMatrix type="matrix" values="0 0 0 0 0.245422 0 0 0 0 0.258826 0 0 0 0 0.384821 0 0 0 0.11 0"/>
<feBlend mode="normal" in2="BackgroundImageFix" result="effect1_dropShadow_8635_54662"/>
<feBlend mode="normal" in="SourceGraphic" in2="effect1_dropShadow_8635_54662" result="shape"/>
</filter>
</defs>
</svg>
