<svg width="73" height="73" viewBox="0 0 73 73" fill="none" xmlns="http://www.w3.org/2000/svg">
<g id="Frame 1707481361" filter="url(#filter0_d_8635_54676)">
<rect x="14.5" y="10" width="44" height="44" rx="22" fill="white"/>
<g id="Group 51">
<path id="Vector" d="M43.8192 28.3885C43.9404 28.6332 44.0629 28.8712 44.1777 29.1134C44.3882 29.5578 44.602 30.0014 44.7977 30.4525C44.8576 30.5905 44.94 30.6482 45.0787 30.6669C45.4396 30.7151 45.7994 30.7739 46.1607 30.8211C46.7554 30.8986 47.1392 31.2204 47.3216 31.7915C47.4216 32.1049 47.4642 32.4263 47.4849 32.7527C47.511 33.1622 47.5089 33.5707 47.4328 33.9759C47.3659 34.3326 47.1631 34.6072 46.8934 34.8354C46.7142 34.9872 46.4896 35.0319 46.2642 35.0326C45.9449 35.0333 45.6255 35.0107 45.3065 34.9945C45.2565 34.9921 45.2051 34.9769 45.1576 34.9593C44.9555 34.8843 44.8439 34.6889 44.8854 34.4879C44.927 34.2861 45.1044 34.158 45.3252 34.1713C45.6188 34.1889 45.9121 34.2083 46.2058 34.2256C46.4501 34.24 46.6325 34.1122 46.6484 33.8749C46.6857 33.3136 46.7114 32.7506 46.5857 32.1947C46.5772 32.1573 46.5642 32.1211 46.5554 32.0837C46.4882 31.7996 46.3114 31.6577 46.0185 31.6235C45.6125 31.5764 45.2097 31.5042 44.8055 31.4429C44.4668 31.3915 44.2301 31.2063 44.1023 30.8901C43.7657 30.0595 43.3429 29.2705 42.9383 28.4726C42.8228 28.2448 42.8566 28.1293 43.0605 27.961C43.3612 27.7128 43.6636 27.4663 43.9506 27.2029C44.0699 27.0934 44.159 26.9473 44.2485 26.809C44.346 26.6586 44.3196 26.5023 44.2249 26.3583C44.1724 26.2783 44.1136 26.2016 44.0506 26.1298C43.7619 25.8016 43.4228 25.5291 43.0763 25.2661C43.046 25.2432 43.0112 25.2259 42.9781 25.2062C42.8182 25.1115 42.6711 25.1171 42.5175 25.2344C42.2429 25.4435 41.9598 25.641 41.6788 25.8417C41.5697 25.9195 41.4581 25.9946 41.3451 26.0671C41.0947 26.2283 40.8218 26.2692 40.5363 26.1935C40.3331 26.1396 40.1303 26.0791 39.9338 26.0041C39.4504 25.8196 38.9702 25.6269 38.4906 25.4326C38.3726 25.3847 38.2582 25.3256 38.1491 25.2604C37.9103 25.1175 37.7797 24.9006 37.7945 24.6235C37.8096 24.3372 37.8589 24.0527 37.8853 23.7668C37.897 23.6404 37.8998 23.5112 37.8871 23.3852C37.8639 23.1549 37.7279 23.0133 37.5033 22.964C37.3663 22.9341 37.2269 22.9126 37.0875 22.8957C36.6621 22.8436 36.2358 22.7982 35.8065 22.8415C35.7178 22.8503 35.6287 22.8644 35.5418 22.8838C35.3347 22.9302 35.196 23.0489 35.1738 23.27C35.1513 23.4922 35.1221 23.7154 35.1228 23.9383C35.1238 24.2827 35.1393 24.6277 35.1643 24.9717C35.1851 25.2572 35.0914 25.4231 34.8073 25.4949C34.2418 25.6379 33.694 25.8284 33.1662 26.0762C33.0391 26.1357 32.9155 26.203 32.7894 26.265C32.6866 26.3157 32.5852 26.3724 32.4782 26.4118C32.1437 26.5347 31.8609 26.4646 31.6352 26.1878C31.4655 25.9801 31.3247 25.7492 31.1536 25.5428C31.0198 25.3816 30.8606 25.2411 30.711 25.0932C30.5951 24.9787 30.4659 24.9664 30.329 25.0548C30.168 25.1587 29.9994 25.2523 29.8487 25.3696C29.53 25.6181 29.2459 25.9044 28.9952 26.2216C28.9125 26.3266 28.8354 26.4378 28.7699 26.5544C28.6417 26.7822 28.6632 26.9554 28.8413 27.1487C28.9322 27.2473 29.0332 27.3364 29.1339 27.4248C29.2878 27.5596 29.4529 27.6825 29.5994 27.8248C29.7079 27.9304 29.8121 28.0487 29.8867 28.1793C30.0163 28.4061 29.9973 28.6487 29.8874 28.88C29.7533 29.1627 29.605 29.4391 29.4712 29.7219C29.2913 30.1032 29.1195 30.488 28.9438 30.8715C28.9146 30.9352 28.8868 31.0003 28.8526 31.0612C28.7297 31.2795 28.5438 31.3971 28.291 31.4003C28.1121 31.4024 27.9329 31.3982 27.7537 31.4003C27.4076 31.4045 27.0875 31.5038 26.7837 31.6658C26.5668 31.7816 26.4344 31.9538 26.383 32.1968C26.3002 32.5897 26.308 32.9848 26.3414 33.3805C26.3534 33.52 26.3798 33.659 26.4105 33.7956C26.4633 34.0298 26.6154 34.1727 26.8439 34.2365C27.1291 34.316 27.4192 34.3523 27.716 34.3361C27.8298 34.3298 27.9477 34.3284 28.0586 34.3502C28.2734 34.3925 28.4065 34.5773 28.3882 34.7801C28.3702 34.978 28.2213 35.1287 28.0062 35.1435C27.5967 35.1717 27.1893 35.1576 26.7858 35.0674C26.1076 34.9157 25.6936 34.5097 25.5784 33.8192C25.4792 33.2224 25.4661 32.6235 25.5858 32.027C25.6841 31.5383 25.9584 31.1788 26.3967 30.9457C26.8147 30.7236 27.2572 30.5884 27.735 30.588C27.8752 30.588 28.0157 30.588 28.1526 30.588C28.4843 29.8983 28.8125 29.2156 29.147 28.5195C29.0853 28.4631 29.0255 28.4071 28.9642 28.3529C28.7396 28.1536 28.504 27.9649 28.2914 27.7537C27.8079 27.2727 27.7305 26.6977 28.0847 26.1132C28.2392 25.8583 28.4311 25.6224 28.6301 25.3988C28.9797 25.0058 29.3688 24.6541 29.8314 24.3946C29.9314 24.3386 30.035 24.2858 30.142 24.2464C30.4765 24.1232 30.7958 24.1559 31.0909 24.3615C31.355 24.5453 31.5881 24.7636 31.7842 25.0189C31.9352 25.2157 32.081 25.4168 32.238 25.628C32.9 25.2678 33.5883 24.9854 34.3151 24.7774C34.3151 24.7284 34.3179 24.6854 34.3147 24.6428C34.2774 24.1242 34.2918 23.6063 34.3756 23.0943C34.4591 22.5848 34.7724 22.2613 35.2626 22.1144C35.5647 22.024 35.8787 21.9838 36.1921 22.006C36.6632 22.0398 37.1361 22.0789 37.6019 22.1535C38.2765 22.2616 38.7022 22.7612 38.7078 23.445C38.7103 23.7559 38.654 24.0672 38.624 24.3784C38.6181 24.4411 38.6096 24.5038 38.6008 24.576C38.6571 24.6055 38.7047 24.6365 38.7564 24.6569C39.3089 24.8756 39.8596 25.0981 40.4152 25.3076C40.8173 25.4594 40.8208 25.452 41.1662 25.2044C41.4521 24.9995 41.7422 24.8006 42.0207 24.5861C42.4795 24.233 42.957 24.221 43.4277 24.5277C43.9654 24.8781 44.4527 25.2946 44.84 25.8122C45.1886 26.2783 45.2217 26.7709 44.9273 27.2829C44.7879 27.5255 44.6065 27.7283 44.3949 27.9068C44.2052 28.067 44.0136 28.2251 43.8178 28.3885H43.8192Z" fill="#3F49A7"/>
<path id="Vector_2" d="M27.2381 41.8373C27.3888 41.8528 27.5271 41.8778 27.6659 41.8799C28.3563 41.8901 29.0468 41.9021 29.7372 41.8993C30.8752 41.8951 32.0136 41.8901 33.1512 41.8651C33.8153 41.8507 34.4786 41.7975 35.1423 41.7609C35.1983 41.7577 35.2536 41.7458 35.3201 41.7363C35.3346 41.6145 35.3553 41.5018 35.3599 41.3888C35.3909 40.6353 35.4328 39.8818 35.4409 39.1279C35.4444 38.8051 35.3983 38.4772 35.336 38.1589C35.2331 37.6347 34.937 37.2248 34.5075 36.9107C34.274 36.74 34.0223 36.602 33.7491 36.5062C33.6001 36.4541 33.4913 36.3646 33.4554 36.2062C33.3959 35.9428 33.597 35.7041 33.8719 35.7129C33.935 35.715 34.0008 35.7263 34.0593 35.7492C34.9117 36.084 35.5944 36.6094 35.974 37.4702C36.1599 37.8917 36.2338 38.3396 36.2511 38.7948C36.2898 39.8187 36.2412 40.8412 36.1303 41.8584C36.081 42.3112 35.9032 42.4809 35.5212 42.5309C35.1476 42.5799 34.7719 42.6215 34.3959 42.6384C32.7347 42.7127 31.0724 42.732 29.4098 42.7172C28.8535 42.7123 28.2968 42.72 27.7412 42.7028C27.4944 42.695 27.2483 42.6429 27.0032 42.6031C26.9356 42.5922 26.8719 42.5556 26.8074 42.5281C26.5881 42.4338 26.4719 42.263 26.437 42.0299C26.3888 41.7078 26.3303 41.3866 26.2895 41.0638C26.2177 40.499 26.1698 39.9321 26.1937 39.3617C26.218 38.7723 26.2899 38.1903 26.4677 37.6252C26.5564 37.3431 26.6824 37.078 26.8451 36.8312C27.1194 36.4153 27.4757 36.0932 27.9422 35.9062C28.1672 35.8161 28.3993 35.7432 28.6285 35.6636C28.6584 35.6534 28.6908 35.6488 28.7221 35.6439C28.9313 35.6105 29.1186 35.7143 29.1841 35.8995C29.2531 36.0946 29.1676 36.2981 28.9725 36.3995C28.9387 36.4171 28.9024 36.4305 28.8665 36.4432C28.8183 36.4604 28.7704 36.4791 28.7207 36.4904C27.8493 36.6932 27.3736 37.2741 27.1775 38.1153C27.0095 38.8367 26.9588 39.5684 27.0349 40.3057C27.0807 40.7504 27.1437 41.1933 27.2 41.637C27.2071 41.6933 27.2215 41.7489 27.2388 41.837L27.2381 41.8373Z" fill="#3F49A7"/>
<path id="Vector_3" d="M37.8767 41.6272H45.8992C45.9052 41.5466 45.9172 41.4642 45.9165 41.3821C45.9105 40.5956 45.9137 39.809 45.8901 39.0231C45.876 38.5502 45.8197 38.0791 45.6169 37.6401C45.3412 37.0426 44.881 36.6552 44.263 36.4464C44.2268 36.4341 44.1884 36.4274 44.1528 36.414C43.9479 36.3362 43.8381 36.1422 43.8838 35.9426C43.9321 35.7342 44.124 35.5965 44.3465 35.6341C44.4898 35.6584 44.6349 35.6993 44.7673 35.7592C45.8144 36.2331 46.432 37.0397 46.6196 38.1745C46.7119 38.7316 46.7379 39.2932 46.7376 39.8565C46.7376 40.3875 46.7362 40.9181 46.7295 41.4491C46.727 41.6279 46.7122 41.8068 46.6925 41.9846C46.6587 42.2916 46.502 42.4321 46.1869 42.442C45.9313 42.4501 45.6757 42.4557 45.42 42.4554C42.868 42.4504 40.3157 42.4437 37.7637 42.4377C37.2813 42.4367 37.1538 42.3353 37.0767 41.8571C37.026 41.542 36.982 41.2241 36.9619 40.9058C36.9302 40.3956 36.9049 39.884 36.9063 39.3731C36.9081 38.7435 37.0038 38.1242 37.2154 37.5281C37.4806 36.7813 37.9707 36.2299 38.6833 35.8845C38.8425 35.8074 39.0171 35.7567 39.19 35.7162C39.2851 35.694 39.3953 35.7025 39.4911 35.7271C39.6706 35.7732 39.7826 35.9363 39.7798 36.1116C39.777 36.2929 39.6484 36.4598 39.4618 36.4957C38.6499 36.6521 38.1904 37.1802 37.9432 37.9295C37.7939 38.3819 37.7366 38.852 37.7186 39.3263C37.6918 40.0375 37.7584 40.7445 37.838 41.4501C37.8436 41.5001 37.8587 41.5494 37.876 41.6283L37.8767 41.6272Z" fill="#3F49A7"/>
<path id="Vector_4" d="M41.7396 36.4832C40.227 36.4825 38.9908 35.247 38.9922 33.7369C38.9936 32.2249 40.2288 30.9912 41.741 30.9912C43.2575 30.9912 44.4828 32.219 44.4821 33.7376C44.4814 35.2565 43.2557 36.4836 41.74 36.4832H41.7396ZM39.8129 33.7291C39.8094 34.797 40.6615 35.6579 41.7283 35.6639C42.7966 35.6699 43.6631 34.8171 43.6684 33.7545C43.6737 32.676 42.8181 31.8116 41.7438 31.8098C40.6756 31.8084 39.8168 32.6623 39.8133 33.7291H39.8129Z" fill="#3F49A7"/>
<path id="Vector_5" d="M31.2045 36.4832C29.6884 36.4829 28.4599 35.253 28.4609 33.7369C28.462 32.22 29.6905 30.9905 31.2052 30.9912C32.7199 30.9916 33.9509 32.2228 33.9505 33.7372C33.9505 35.2512 32.7178 36.4836 31.2045 36.4832ZM31.2055 35.6639C32.2706 35.6639 33.1354 34.8037 33.1375 33.7418C33.1396 32.6798 32.278 31.8144 31.2143 31.8102C30.1401 31.806 29.2715 32.6711 29.2743 33.7422C29.2775 34.8062 30.1394 35.6639 31.2055 35.6639Z" fill="#3F49A7"/>
<path id="Vector_6" d="M36.1957 28.0147C37.6421 28.0182 38.6956 28.3813 39.6642 29.0158C40.0934 29.2971 40.486 29.6234 40.848 29.9865C40.893 30.0315 40.9381 30.078 40.9747 30.1298C41.0969 30.3037 41.0811 30.5157 40.9399 30.6554C40.792 30.8019 40.574 30.8136 40.399 30.6794C40.3385 30.6329 40.286 30.5762 40.2311 30.5227C39.6265 29.9305 38.948 29.4464 38.1509 29.1495C36.5517 28.5538 35.0644 28.8034 33.6789 29.7678C33.2835 30.0432 32.9349 30.371 32.6134 30.7287C32.5624 30.7857 32.5117 30.8445 32.4525 30.8928C32.299 31.0181 32.0864 31.0171 31.9402 30.897C31.7892 30.7727 31.7522 30.5541 31.8547 30.3759C31.8769 30.3375 31.904 30.3009 31.9332 30.2675C32.7303 29.3552 33.6722 28.6538 34.8359 28.276C35.3683 28.1031 35.9144 28.0119 36.1957 28.0147Z" fill="#3F49A7"/>
</g>
</g>
<defs>
<filter id="filter0_d_8635_54676" x="0.5" y="0.5" width="72" height="72" filterUnits="userSpaceOnUse" color-interpolation-filters="sRGB">
<feFlood flood-opacity="0" result="BackgroundImageFix"/>
<feColorMatrix in="SourceAlpha" type="matrix" values="0 0 0 0 0 0 0 0 0 0 0 0 0 0 0 0 0 0 127 0" result="hardAlpha"/>
<feOffset dy="4.5"/>
<feGaussianBlur stdDeviation="7"/>
<feComposite in2="hardAlpha" operator="out"/>
<feColorMatrix type="matrix" values="0 0 0 0 0.245422 0 0 0 0 0.258826 0 0 0 0 0.384821 0 0 0 0.11 0"/>
<feBlend mode="normal" in2="BackgroundImageFix" result="effect1_dropShadow_8635_54676"/>
<feBlend mode="normal" in="SourceGraphic" in2="effect1_dropShadow_8635_54676" result="shape"/>
</filter>
</defs>
</svg>
