<svg width="73" height="73" viewBox="0 0 73 73" fill="none" xmlns="http://www.w3.org/2000/svg">
<g id="Frame 1707481361" filter="url(#filter0_d_8635_54643)">
<rect x="14.5" y="10" width="44" height="44" rx="22" fill="white"/>
<g id="Group 2">
<path id="Vector" d="M40.3777 42.4354C39.4601 41.5546 39.0714 40.4893 39.0513 39.252C38.9909 39.252 38.9322 39.252 38.8735 39.252C35.9923 39.2603 33.1111 39.2687 30.2297 39.277C30.169 39.277 30.1084 39.2792 30.0477 39.2759C29.849 39.265 29.7118 39.1326 29.7126 38.955C29.7135 38.7769 29.8509 38.6417 30.0505 38.6389C30.4548 38.6336 30.8592 38.6353 31.2636 38.6341C31.3181 38.6341 31.3726 38.6341 31.4386 38.6341C31.4433 38.5771 31.4497 38.5334 31.45 38.4897C31.4589 36.9583 31.467 35.4265 31.4773 33.8951C31.4778 33.8124 31.4598 33.7509 31.391 33.7C31.3429 33.6646 31.3047 33.6151 31.2644 33.5697C29.4288 31.5087 27.5937 29.4477 25.7583 27.3863C25.728 27.3524 25.7005 27.3154 25.6665 27.2853C25.487 27.1272 25.475 26.9294 25.5265 26.7154C25.5619 26.569 25.6398 26.4446 25.74 26.336C26.0467 26.0038 26.3903 25.7155 26.7736 25.4753C26.8033 25.4566 26.8353 25.4408 26.8671 25.4255C27.1559 25.2852 27.3416 25.3203 27.5561 25.5579C28.8226 26.9614 30.0886 28.3648 31.3548 29.7682C31.3913 29.8086 31.4297 29.8473 31.4918 29.913C31.4954 29.8317 31.4998 29.7799 31.4998 29.7282C31.4973 28.8184 31.494 27.9084 31.4912 26.9987C31.4862 25.2396 31.4817 23.4805 31.4773 21.7214C31.4773 21.6507 31.4792 21.58 31.484 21.5093C31.4976 21.2931 31.6148 21.1498 31.8135 21.0813C31.917 21.0457 32.03 21.0337 32.1399 21.0215C32.2298 21.0114 32.3216 21.0162 32.4126 21.0162C36.2948 21.0106 40.1768 21.0048 44.059 21C44.2357 21 44.4132 20.9986 44.5891 21.0126C44.7138 21.0223 44.8393 21.0471 44.9592 21.083C45.1502 21.14 45.279 21.2758 45.3491 21.4589C45.4398 21.6961 45.4966 21.9426 45.4969 22.1981C45.4977 23.4215 45.4966 24.6446 45.4947 25.868C45.4947 25.9331 45.4899 26.0001 45.4735 26.0628C45.4329 26.2186 45.3029 26.3082 45.1462 26.2976C45.0001 26.2879 44.8833 26.1822 44.861 26.0296C44.8501 25.9551 44.8507 25.8785 44.8507 25.8028C44.8518 24.4834 44.8535 23.1643 44.8552 21.8449C44.8552 21.7854 44.8552 21.7256 44.8552 21.6576H32.1293C32.1257 21.718 32.1204 21.7667 32.1204 21.8154C32.1296 24.7169 32.1396 27.6184 32.1471 30.5199C32.1471 30.6131 32.1755 30.6813 32.237 30.7492C32.5496 31.0935 32.854 31.445 33.1693 31.7867C33.3051 31.9339 33.3783 32.0967 33.4142 32.294C33.5047 32.7908 33.6143 33.2839 33.7162 33.7787C33.7265 33.8283 33.7368 33.8778 33.7434 33.9276C33.7743 34.1569 33.6346 34.3261 33.4031 34.3292C33.3293 34.3303 33.2531 34.3103 33.1813 34.2891C32.8571 34.1931 32.5337 34.0932 32.21 33.9953C32.1864 33.988 32.1619 33.9841 32.1176 33.9741C32.1085 35.5273 32.0993 37.071 32.0901 38.6314C32.1747 38.6314 32.239 38.6314 32.3035 38.6314C34.366 38.625 36.4281 38.6174 38.4906 38.613C38.753 38.6124 39.0154 38.6236 39.2779 38.6341C39.4941 38.6428 39.665 38.8111 39.6817 39.0324C39.6931 39.1835 39.6922 39.3354 39.6992 39.4868C39.7206 39.951 39.8205 40.4024 39.9973 40.8279C40.3916 41.7783 41.0968 42.3569 42.1348 42.4537C43.2168 42.5545 44.2234 41.9219 44.65 40.9136C44.7689 40.6329 44.8404 40.3431 44.8399 40.032C44.8343 37.1305 44.8346 34.229 44.8332 31.3275C44.8332 31.2568 44.8304 31.1859 44.8357 31.1152C44.8496 30.9254 44.9815 30.7927 45.1529 30.7915C45.3244 30.7907 45.4582 30.9234 45.473 31.1113C45.4769 31.1617 45.4758 31.2123 45.4758 31.263C45.4777 33.8055 45.4813 36.3482 45.4796 38.8907C45.4794 39.3302 45.4582 39.7696 45.4432 40.209C45.4098 41.1925 44.937 41.9403 44.1686 42.5111C43.5068 43.0028 42.7515 43.1762 41.9334 43.0877C41.844 43.0779 41.7525 43.0891 41.6617 43.0888C37.5318 43.0752 33.4022 43.0626 29.2724 43.0451C28.9395 43.0437 28.605 43.0251 28.2747 42.9842C27.6967 42.9126 27.2135 42.6405 26.8106 42.2244C26.3684 41.768 26.1087 41.2192 25.9874 40.5986C25.8844 40.0718 25.8738 39.5453 25.9682 39.0168C25.9751 38.977 25.9846 38.9378 25.9955 38.8988C26.0544 38.6881 26.1068 38.6422 26.3222 38.6405C27.1306 38.6344 27.9391 38.6311 28.7475 38.6277C28.7979 38.6277 28.8491 38.6305 28.8983 38.6403C29.0383 38.6684 29.1407 38.7866 29.1513 38.9255C29.1619 39.0652 29.0803 39.1996 28.9429 39.243C28.8725 39.2653 28.794 39.2709 28.7194 39.2706C28.0674 39.2689 27.4153 39.2642 26.7633 39.2606C26.7084 39.2603 26.6536 39.2606 26.586 39.2606C26.5754 39.3446 26.5618 39.4178 26.5573 39.4916C26.5237 40.0284 26.5829 40.5535 26.7955 41.0506C27.0154 41.5646 27.3633 41.9684 27.8803 42.2058C28.1834 42.3449 28.5082 42.3986 28.8385 42.4003C30.9666 42.4109 33.0947 42.4181 35.2228 42.4245C36.8809 42.4295 38.5387 42.4317 40.1968 42.4354C40.2466 42.4354 40.2967 42.4354 40.3785 42.4354H40.3777ZM32.6929 32.2119C31.1016 30.4487 29.5281 28.7046 27.9452 26.9505C27.6168 27.2263 27.2973 27.4951 26.9661 27.7734C28.5374 29.5381 30.1017 31.295 31.6724 33.0585C32.0191 32.7708 32.3489 32.4975 32.6931 32.2119H32.6929ZM26.1583 26.8659C26.2843 27.0073 26.4068 27.1448 26.5365 27.2903C26.869 27.0104 27.1874 26.7424 27.5108 26.4702C27.3922 26.3386 27.2842 26.2194 27.1776 26.0987C27.1576 26.0761 27.1445 26.0477 27.1331 26.0302C26.8701 26.1474 26.2974 26.6397 26.1583 26.8659ZM33.0124 33.5511C32.9659 33.326 32.9247 33.1256 32.8782 32.901C32.6898 33.056 32.5175 33.1977 32.3278 33.3538C32.5351 33.4175 32.7174 33.474 32.8999 33.5294C32.928 33.5377 32.9575 33.5408 33.0124 33.5514V33.5511Z" fill="#3F49A7"/>
<path id="Vector_2" d="M38.4188 23.1115C39.8534 23.1115 41.288 23.1142 42.7227 23.1084C42.9497 23.1076 43.1426 23.2061 43.1504 23.5231C43.1574 23.7958 43.1523 24.0685 43.1523 24.3412C43.1523 24.518 43.1473 24.695 43.154 24.8717C43.1587 24.9969 43.1284 25.1113 43.0828 25.2246C43.0282 25.3601 42.9247 25.4297 42.7819 25.4433C42.7419 25.4472 42.7012 25.4452 42.6609 25.4455C39.8624 25.4681 37.0638 25.4906 34.2653 25.5129C34.1946 25.5134 34.1234 25.5156 34.0535 25.5067C33.9174 25.4892 33.8303 25.4135 33.8072 25.278C33.7733 25.0793 33.7346 24.8789 33.7282 24.6785C33.7154 24.2853 33.7171 23.891 33.7246 23.4975C33.7299 23.2231 33.8203 23.144 34.0997 23.1437C35.5393 23.1429 36.9792 23.1435 38.4188 23.1435C38.4188 23.1326 38.4188 23.122 38.4188 23.1112V23.1115ZM34.3368 24.8711C37.0613 24.8483 39.7797 24.8252 42.5 24.8024V23.7582C39.7758 23.7674 37.0616 23.7766 34.3368 23.786V24.8711Z" fill="#3F49A7"/>
<path id="Vector_3" d="M39.2759 36.6824C38.2504 36.6949 37.2246 36.7077 36.199 36.7189C36.1342 36.7197 36.0666 36.7141 36.0045 36.6969C35.8665 36.6582 35.7783 36.5305 35.7813 36.3891C35.7841 36.2547 35.8718 36.1317 36.0042 36.0966C36.0763 36.0774 36.154 36.0732 36.2291 36.0721C37.3203 36.0582 38.4118 36.046 39.503 36.0334C40.4377 36.0229 41.3723 36.0123 42.307 36.002C42.3574 36.0014 42.4083 35.9992 42.4584 36.0039C42.6324 36.0209 42.7646 36.1603 42.7648 36.3234C42.7648 36.489 42.6363 36.6231 42.4587 36.6407C42.4136 36.6451 42.368 36.6443 42.3223 36.6448C41.3069 36.6576 40.2914 36.6702 39.2759 36.6827V36.6824Z" fill="#3F49A7"/>
<path id="Vector_4" d="M39.3164 29.7518C38.3159 29.7596 37.3154 29.7679 36.315 29.7743C36.2398 29.7749 36.1625 29.7721 36.0898 29.7551C35.9395 29.7201 35.8494 29.5965 35.8516 29.4459C35.8538 29.2979 35.9523 29.1765 36.1021 29.1457C36.1608 29.1334 36.2223 29.1304 36.2827 29.1301C38.314 29.1167 40.3452 29.1039 42.3762 29.0928C42.4408 29.0925 42.5087 29.1003 42.5691 29.1214C42.7035 29.1685 42.7828 29.304 42.77 29.4443C42.7572 29.5842 42.6545 29.7 42.514 29.7256C42.4597 29.7356 42.4035 29.7373 42.3481 29.7373C41.3376 29.7379 40.3271 29.7379 39.3164 29.7379C39.3164 29.7426 39.3164 29.7473 39.3164 29.7523V29.7518Z" fill="#3F49A7"/>
<path id="Vector_5" d="M39.2171 33.2233C38.2069 33.2377 37.1967 33.2528 36.1865 33.2656C36.1219 33.2664 36.054 33.2597 35.993 33.2402C35.8483 33.1943 35.7685 33.0621 35.7829 32.911C35.7963 32.7719 35.9004 32.6583 36.0437 32.6349C36.108 32.6244 36.1745 32.6244 36.2402 32.6235C37.3667 32.6063 38.493 32.5893 39.6195 32.5734C40.4883 32.5612 41.3572 32.5509 42.226 32.54C42.2816 32.5395 42.3376 32.537 42.3924 32.5431C42.5483 32.5609 42.6649 32.6814 42.676 32.8314C42.6877 32.9853 42.5967 33.1203 42.4428 33.1606C42.3757 33.1782 42.3031 33.179 42.2329 33.1798C41.2277 33.1946 40.2226 33.2082 39.2174 33.2221C39.2174 33.2224 39.2174 33.223 39.2174 33.2233H39.2171Z" fill="#3F49A7"/>
<path id="Vector_6" d="M34.72 27.3184C35.3606 27.3217 35.8646 27.8277 35.8644 28.4669C35.8644 29.1073 35.3437 29.6265 34.7061 29.6221C34.0655 29.6176 33.5551 29.0964 33.5626 28.4541C33.5701 27.8165 34.0813 27.315 34.72 27.3184ZM34.7323 27.961C34.4456 27.9521 34.2135 28.1688 34.2068 28.4513C34.2002 28.7391 34.4147 28.9675 34.6991 28.9751C34.9772 28.9823 35.2079 28.7677 35.2176 28.4931C35.2276 28.2092 35.0089 27.9696 34.7323 27.961Z" fill="#3F49A7"/>
<path id="Vector_7" d="M35.8544 31.9205C35.8532 32.5411 35.3473 33.049 34.7281 33.0515C34.1019 33.054 33.5896 32.54 33.5938 31.9141C33.5982 31.2826 34.1047 30.7809 34.7348 30.7842C35.352 30.7875 35.8555 31.2985 35.8544 31.9205ZM34.2391 31.9124C34.2361 32.1868 34.4501 32.4014 34.727 32.4016C34.9922 32.4019 35.2082 32.1874 35.2104 31.921C35.2126 31.6508 34.9911 31.4282 34.7206 31.429C34.4568 31.4296 34.2419 31.645 34.2391 31.9124Z" fill="#3F49A7"/>
<path id="Vector_8" d="M35.8827 35.3395C35.879 35.9528 35.3795 36.449 34.7698 36.4457C34.1597 36.4424 33.6596 35.9381 33.6641 35.3311C33.6688 34.7186 34.1686 34.2235 34.7789 34.2266C35.3926 34.2299 35.8863 34.7278 35.8827 35.3395ZM35.2348 35.3392C35.2356 35.0795 35.035 34.8756 34.7778 34.8739C34.5185 34.8722 34.3161 35.0726 34.3147 35.332C34.3136 35.5922 34.5123 35.7948 34.7711 35.797C35.03 35.7992 35.234 35.5977 35.2348 35.3395V35.3392Z" fill="#3F49A7"/>
<path id="Vector_9" d="M44.8374 28.536C44.8455 28.1118 44.8535 27.688 44.8622 27.2639C44.863 27.2185 44.8638 27.1723 44.8722 27.1281C44.9014 26.9781 45.0202 26.874 45.1652 26.8676C45.3172 26.8606 45.4396 26.9438 45.4833 27.0941C45.4997 27.1509 45.5036 27.2135 45.5028 27.2731C45.4919 28.111 45.4797 28.9492 45.4663 29.7872C45.4655 29.8473 45.4591 29.9088 45.4449 29.967C45.409 30.1147 45.2835 30.2102 45.1363 30.2088C44.9966 30.2074 44.8739 30.1147 44.8385 29.9731C44.8229 29.9105 44.8215 29.8431 44.8213 29.778C44.8199 29.3642 44.8204 28.9501 44.8204 28.5362C44.8263 28.5362 44.8318 28.5362 44.8377 28.5362L44.8374 28.536Z" fill="#3F49A7"/>
<path id="Vector_10" d="M37.5293 28.8993C37.2566 28.9101 36.9841 28.9216 36.7114 28.9321C36.656 28.9344 36.6001 28.9371 36.5447 28.9344C36.363 28.9249 36.2341 28.8011 36.2269 28.6319C36.2196 28.4635 36.3379 28.3221 36.5155 28.2998C36.6307 28.2854 36.7473 28.2804 36.8633 28.2773C37.3938 28.2631 37.9242 28.2509 38.4546 28.2395C38.5044 28.2383 38.5562 28.2417 38.6046 28.2537C38.7763 28.2968 38.8782 28.4462 38.8565 28.6157C38.8353 28.7793 38.7073 28.8907 38.53 28.8918C38.1966 28.894 37.8632 28.8923 37.5298 28.8923C37.5298 28.8946 37.5298 28.8971 37.5298 28.8993H37.5293Z" fill="#3F49A7"/>
<path id="Vector_11" d="M37.4842 35.7314C37.2015 35.7314 36.9184 35.7331 36.6357 35.73C36.5714 35.7292 36.5035 35.7217 36.444 35.6991C36.3196 35.6521 36.2427 35.5294 36.2505 35.4019C36.2586 35.2695 36.324 35.1707 36.449 35.1228C36.5041 35.1017 36.5667 35.0919 36.626 35.0914C37.2068 35.0866 37.7876 35.085 38.3684 35.083C38.4087 35.083 38.4496 35.0847 38.4891 35.0916C38.6355 35.1175 38.7432 35.2377 38.7538 35.3833C38.7638 35.5194 38.6781 35.6535 38.5409 35.6983C38.48 35.7184 38.4123 35.725 38.3478 35.7256C38.06 35.7284 37.772 35.7267 37.4842 35.7267V35.7314Z" fill="#3F49A7"/>
<path id="Vector_12" d="M37.6687 32.2664C37.416 32.2664 37.1634 32.2675 36.9109 32.2656C36.8508 32.265 36.7888 32.2625 36.7317 32.2467C36.5842 32.2055 36.4927 32.0747 36.5005 31.93C36.5083 31.7858 36.614 31.6622 36.7601 31.633C36.8094 31.6233 36.8606 31.6222 36.9109 31.6208C37.4263 31.6088 37.9417 31.5971 38.4571 31.5871C38.5122 31.586 38.569 31.5899 38.6225 31.6021C38.7661 31.6347 38.861 31.7507 38.8671 31.8924C38.8732 32.0351 38.7903 32.162 38.6514 32.2055C38.5899 32.2247 38.5223 32.2316 38.4574 32.2322C38.1947 32.235 37.9317 32.2333 37.669 32.2333V32.2661L37.6687 32.2664Z" fill="#3F49A7"/>
<path id="Vector_13" d="M36.8254 28.0605C36.6489 28.0605 36.5064 27.9197 36.5078 27.7469C36.5095 27.5669 36.6656 27.4157 36.8496 27.416C37.0274 27.4163 37.1671 27.5546 37.1663 27.7294C37.1654 27.9092 37.0093 28.0608 36.8254 28.0608V28.0605Z" fill="#3F49A7"/>
<path id="Vector_14" d="M37.1365 31.1611C37.1334 31.337 36.987 31.4784 36.8145 31.4714C36.6419 31.4647 36.5011 31.3189 36.5 31.1466C36.4989 30.9721 36.6417 30.8288 36.8164 30.8291C36.9943 30.8291 37.1398 30.9799 37.1365 31.1611Z" fill="#3F49A7"/>
<path id="Vector_15" d="M36.8133 34.8587C36.6322 34.8626 36.4861 34.7201 36.4844 34.5381C36.4827 34.3619 36.623 34.2183 36.7966 34.2178C36.9667 34.2175 37.1122 34.36 37.1195 34.5339C37.1267 34.7092 36.9895 34.8548 36.8136 34.8587H36.8133Z" fill="#3F49A7"/>
</g>
</g>
<defs>
<filter id="filter0_d_8635_54643" x="0.5" y="0.5" width="72" height="72" filterUnits="userSpaceOnUse" color-interpolation-filters="sRGB">
<feFlood flood-opacity="0" result="BackgroundImageFix"/>
<feColorMatrix in="SourceAlpha" type="matrix" values="0 0 0 0 0 0 0 0 0 0 0 0 0 0 0 0 0 0 127 0" result="hardAlpha"/>
<feOffset dy="4.5"/>
<feGaussianBlur stdDeviation="7"/>
<feComposite in2="hardAlpha" operator="out"/>
<feColorMatrix type="matrix" values="0 0 0 0 0.245422 0 0 0 0 0.258826 0 0 0 0 0.384821 0 0 0 0.11 0"/>
<feBlend mode="normal" in2="BackgroundImageFix" result="effect1_dropShadow_8635_54643"/>
<feBlend mode="normal" in="SourceGraphic" in2="effect1_dropShadow_8635_54643" result="shape"/>
</filter>
</defs>
</svg>
