<svg width="96" height="96" viewBox="0 0 96 96" fill="none" xmlns="http://www.w3.org/2000/svg">
<g filter="url(#filter0_d_8248_108357)">
<rect x="20" y="14" width="56" height="56" rx="28" fill="#F2F3FA"/>
<g clip-path="url(#clip0_8248_108357)">
<path fill-rule="evenodd" clip-rule="evenodd" d="M54.5322 38.1423C54.5322 42.5743 51.7602 41.9972 51.7602 46.3475C51.758 46.7536 51.5965 47.1424 51.3109 47.4289C51.0254 47.7154 50.6389 47.8764 50.236 47.8767V47.8788H50.1991V48.1392C50.1984 48.4775 50.0648 48.8016 49.8276 49.0408C49.5903 49.28 49.2687 49.4146 48.9332 49.4153H48.202C47.8664 49.4147 47.5447 49.2801 47.3073 49.041C47.07 48.8018 46.9364 48.4775 46.9357 48.1392V47.8771C46.7293 47.8817 46.5241 47.8441 46.3326 47.7664C46.141 47.6888 45.9671 47.5728 45.8213 47.4254C45.6756 47.2781 45.561 47.1024 45.4844 46.9091C45.4079 46.7159 45.3711 46.5089 45.3762 46.3009C45.3771 46.0013 45.3622 45.7018 45.3317 45.4037C45.0188 42.1801 42.6017 42.2042 42.6017 38.1406C42.6017 36.5461 43.2301 35.0169 44.3485 33.8894C45.467 32.7619 46.984 32.1285 48.5657 32.1285C50.1475 32.1285 51.6644 32.7619 52.7829 33.8894C53.9014 35.0169 54.5297 36.5461 54.5297 38.1406L54.5322 38.1423ZM40.0334 31.6696C40.1486 31.7369 40.2325 31.8477 40.2667 31.9774C40.3009 32.1071 40.2825 32.2453 40.2157 32.3614C40.1826 32.4189 40.1386 32.4692 40.0862 32.5096C40.0338 32.5499 39.974 32.5795 39.9103 32.5965C39.7816 32.631 39.6446 32.6125 39.5294 32.5451L36.9317 31.0332C36.8747 30.9999 36.8247 30.9555 36.7847 30.9027C36.7447 30.8499 36.7154 30.7896 36.6984 30.7254C36.6815 30.6611 36.6773 30.5941 36.686 30.5283C36.6948 30.4624 36.7163 30.3989 36.7494 30.3414C36.7825 30.2839 36.8265 30.2336 36.8789 30.1932C36.9313 30.1529 36.9911 30.1233 37.0548 30.1062C37.1185 30.0892 37.185 30.0849 37.2503 30.0938C37.3157 30.1026 37.3787 30.1243 37.4357 30.1577L40.0334 31.6696ZM44.1792 27.8591C44.212 27.9166 44.2332 27.98 44.2416 28.0458C44.2501 28.1115 44.2456 28.1783 44.2284 28.2423C44.2113 28.3063 44.1818 28.3663 44.1416 28.4188C44.1015 28.4713 44.0515 28.5153 43.9944 28.5484C43.9374 28.5814 43.8745 28.6028 43.8092 28.6113C43.744 28.6198 43.6778 28.6153 43.6143 28.598C43.5508 28.5807 43.4913 28.5509 43.4392 28.5105C43.3871 28.47 43.3434 28.4196 43.3107 28.3621L41.8108 25.7422C41.7447 25.6261 41.727 25.4882 41.7616 25.359C41.7963 25.2297 41.8805 25.1196 41.9956 25.0529C42.1108 24.9862 42.2476 24.9684 42.3758 25.0033C42.504 25.0382 42.6132 25.1231 42.6794 25.2392L44.1792 27.8591ZM58.7868 32.5434C58.7298 32.5768 58.6668 32.5985 58.6015 32.6073C58.5361 32.6161 58.4697 32.6119 58.4059 32.5948C58.3422 32.5778 58.2824 32.5482 58.23 32.5079C58.1776 32.4675 58.1336 32.4172 58.1005 32.3597C58.0675 32.3022 58.0459 32.2387 58.0372 32.1728C58.0284 32.1069 58.0326 32.04 58.0496 31.9757C58.0665 31.9115 58.0958 31.8512 58.1358 31.7984C58.1758 31.7456 58.2258 31.7012 58.2828 31.6679L60.8805 30.156C60.9376 30.1226 61.0005 30.1009 61.0659 30.0921C61.1313 30.0832 61.1977 30.0875 61.2614 30.1046C61.3251 30.1216 61.3849 30.1512 61.4373 30.1915C61.4897 30.2319 61.5337 30.2822 61.5668 30.3397C61.5999 30.3972 61.6214 30.4607 61.6302 30.5266C61.6389 30.5925 61.6347 30.6594 61.6178 30.7237C61.6009 30.7879 61.5716 30.8482 61.5315 30.901C61.4915 30.9538 61.4416 30.9982 61.3845 31.0315L58.7868 32.5434ZM55.0068 28.3621C54.9741 28.4196 54.9304 28.47 54.8783 28.5105C54.8262 28.551 54.7667 28.5808 54.7032 28.5981C54.6396 28.6154 54.5734 28.62 54.5081 28.6115C54.4429 28.603 54.3799 28.5816 54.3229 28.5486C54.2658 28.5156 54.2158 28.4715 54.1756 28.419C54.1354 28.3665 54.1059 28.3065 54.0887 28.2425C54.0715 28.1784 54.067 28.1116 54.0754 28.0459C54.0839 27.9801 54.1051 27.9166 54.1378 27.8591L55.6377 25.2405C55.6696 25.1815 55.7128 25.1295 55.7649 25.0876C55.817 25.0456 55.8768 25.0146 55.941 24.9963C56.0051 24.978 56.0722 24.9728 56.1383 24.981C56.2045 24.9892 56.2684 25.0107 56.3262 25.0441C56.384 25.0775 56.4346 25.1222 56.4751 25.1756C56.5156 25.2289 56.545 25.2899 56.5618 25.355C56.5786 25.42 56.5823 25.4877 56.5728 25.5542C56.5632 25.6207 56.5406 25.6846 56.5062 25.7422L55.0068 28.3621ZM49.6615 26.6482C49.6615 26.7149 49.6484 26.781 49.6231 26.8426C49.5978 26.9043 49.5607 26.9603 49.5139 27.0075C49.4671 27.0546 49.4115 27.0921 49.3504 27.1176C49.2892 27.1431 49.2237 27.1563 49.1575 27.1563C49.0913 27.1563 49.0258 27.1431 48.9646 27.1176C48.9035 27.0921 48.8479 27.0546 48.8011 27.0075C48.7543 26.9603 48.7172 26.9043 48.6919 26.8426C48.6665 26.781 48.6535 26.7149 48.6535 26.6482V23.6252C48.6535 23.4905 48.7066 23.3613 48.8011 23.266C48.8956 23.1707 49.0238 23.1172 49.1575 23.1172C49.2912 23.1172 49.4193 23.1707 49.5139 23.266C49.6084 23.3613 49.6615 23.4905 49.6615 23.6252V26.6482ZM38.4895 42.8778L35.4428 47.0168C35.3874 47.0942 35.3628 47.1898 35.374 47.2846C35.3851 47.3793 35.4311 47.4665 35.5029 47.5287L36.8725 48.679C36.929 48.7264 36.9745 48.7858 37.0057 48.8529C37.0369 48.92 37.0531 48.9932 37.0531 49.0673V50.3125C37.0504 50.3853 37.0698 50.4572 37.1087 50.5185C37.1477 50.5799 37.2043 50.6278 37.2711 50.6558L38.5588 51.2299C38.6405 51.2675 38.7107 51.3264 38.7623 51.4005C38.8138 51.4746 38.8448 51.5612 38.852 51.6515C38.8592 51.7417 38.8424 51.8322 38.8032 51.9137C38.7641 51.9951 38.704 52.0646 38.6293 52.1148L37.6213 52.777C37.5542 52.8185 37.5026 52.8813 37.4745 52.9555C37.4464 53.0297 37.4434 53.1111 37.4659 53.1872L37.9943 55.2021C38.0357 55.371 38.1307 55.5215 38.2648 55.631C38.399 55.7404 38.5648 55.8027 38.7373 55.8084L42.7063 55.9922C43.0674 56.0057 43.4159 56.1289 43.7063 56.3457C43.9967 56.5625 44.2152 56.8626 44.3334 57.2068L45.2288 59.7531C45.2738 59.8875 45.3603 60.004 45.4756 60.0854C45.5909 60.1668 45.729 60.209 45.8697 60.2057H55.7947C55.9943 60.2073 56.1912 60.1603 56.3688 60.0686C56.5465 59.977 56.6995 59.8435 56.815 59.6795C56.9304 59.5155 57.0049 59.3258 57.032 59.1265C57.0591 58.9272 57.0381 58.7243 56.9707 58.535L55.2907 53.6983C55.1856 53.4059 55.1428 53.0944 55.1653 52.7843C55.1878 52.4741 55.2751 52.1723 55.4214 51.8985C55.6843 51.3684 55.9182 50.9094 56.1627 50.4293C57.7587 47.3026 59.7835 43.327 59.7835 40.6216C59.7745 39.3032 59.4927 38.0012 58.956 36.7988C58.4193 35.5965 57.6395 34.5203 56.6667 33.6391C55.3454 32.4423 53.7629 31.5762 52.0476 31.1111C50.3322 30.646 48.5323 30.5949 46.7937 30.9621C41.4769 32.0671 37.4344 36.8497 38.5789 42.4743C38.5931 42.5438 38.5926 42.6155 38.5774 42.6847C38.5622 42.7539 38.5326 42.8192 38.4907 42.8761L38.4895 42.8778ZM34.6389 46.4144C34.4288 46.6985 34.3351 47.0532 34.377 47.4051C34.4189 47.757 34.5932 48.0792 34.864 48.3052L36.0505 49.3018V50.3125C36.0496 50.5811 36.1264 50.8441 36.2715 51.0695C36.5344 51.411 36.8988 51.6587 37.3114 51.7765L37.0762 51.9315C36.8329 52.0897 36.6458 52.3217 36.5416 52.594C36.4375 52.8663 36.4217 53.1649 36.4966 53.4468L37.0241 55.4638C37.1202 55.8415 37.3347 56.1779 37.6358 56.4228C37.9368 56.6676 38.3083 56.808 38.6949 56.8228L42.6639 57.0066C42.825 57.0112 42.9807 57.0656 43.1101 57.1625C43.2395 57.2594 43.3362 57.394 43.3871 57.5481L44.2825 60.0922C44.397 60.424 44.6116 60.7113 44.8962 60.9139C45.1809 61.1165 45.5213 61.2241 45.8697 61.2218H55.7947C56.1543 61.2225 56.5088 61.1362 56.8284 60.9701C57.148 60.804 57.4234 60.563 57.6314 60.2673C57.8394 59.9716 57.974 59.6299 58.0237 59.271C58.0735 58.912 58.037 58.5462 57.9174 58.2043L56.2374 53.3676C56.179 53.2094 56.1543 53.0405 56.1651 52.8721C56.1759 52.7036 56.2219 52.5393 56.3 52.39C58.0388 48.8717 60.7877 44.0324 60.7877 40.6233C60.7787 39.1646 60.4678 37.7239 59.8747 36.3933C59.2817 35.0627 58.4196 33.8716 57.3437 32.8961C55.0844 30.8288 52.1368 29.6933 49.0857 29.7148C42.3064 29.7148 36.2542 35.3975 37.5504 42.4549L34.6372 46.4144H34.6389ZM46.7895 40.5242C46.6559 40.5242 46.5277 40.4707 46.4331 40.3754C46.3386 40.2801 46.2855 40.1509 46.2855 40.0162C46.2855 39.8814 46.3386 39.7522 46.4331 39.6569C46.5277 39.5616 46.6559 39.5081 46.7895 39.5081H50.3461C50.4798 39.5081 50.608 39.5616 50.7025 39.6569C50.797 39.7522 50.8501 39.8814 50.8501 40.0162C50.8501 40.1509 50.797 40.2801 50.7025 40.3754C50.608 40.4707 50.4798 40.5242 50.3461 40.5242H50.0038V44.8643H50.861C51.3709 41.6627 53.5263 41.6593 53.5263 38.1423C53.5263 36.8166 53.0039 35.5452 52.074 34.6078C51.1441 33.6704 49.8829 33.1438 48.5678 33.1438C47.2527 33.1438 45.9915 33.6704 45.0616 34.6078C44.1317 35.5452 43.6093 36.8166 43.6093 38.1423C43.6093 41.6593 45.7647 41.6627 46.2746 44.8643H47.1322V40.5242H46.7895ZM48.9975 40.5242H48.1381V44.8643H48.9975V40.5242ZM49.5015 45.8783H46.3708L46.3804 46.3475C46.3807 46.4157 46.3944 46.4833 46.4206 46.5462C46.4468 46.6092 46.485 46.6663 46.5332 46.7143C46.5813 46.7623 46.6384 46.8003 46.7011 46.8261C46.7639 46.8518 46.831 46.8649 46.8987 46.8644H50.2369V46.8665C50.3737 46.8663 50.5049 46.8117 50.6019 46.7145C50.699 46.6173 50.7541 46.4854 50.7552 46.3475H50.7573L50.7648 45.8783H49.5015ZM49.1928 47.8788H47.942C47.942 48.0596 47.9134 48.2175 48.0184 48.3255C48.0425 48.35 48.0711 48.3694 48.1026 48.3827C48.1341 48.396 48.1678 48.4029 48.202 48.403H48.934C49.0028 48.4024 49.0686 48.3746 49.1171 48.3256C49.1657 48.2765 49.1932 48.2102 49.1936 48.1409L49.1928 47.8788Z" fill="#3F49A7"/>
</g>
</g>
<defs>
<filter id="filter0_d_8248_108357" x="0.4" y="0.699999" width="95.2" height="95.2" filterUnits="userSpaceOnUse" color-interpolation-filters="sRGB">
<feFlood flood-opacity="0" result="BackgroundImageFix"/>
<feColorMatrix in="SourceAlpha" type="matrix" values="0 0 0 0 0 0 0 0 0 0 0 0 0 0 0 0 0 0 127 0" result="hardAlpha"/>
<feOffset dy="6.3"/>
<feGaussianBlur stdDeviation="9.8"/>
<feComposite in2="hardAlpha" operator="out"/>
<feColorMatrix type="matrix" values="0 0 0 0 0.245422 0 0 0 0 0.258826 0 0 0 0 0.384821 0 0 0 0.11 0"/>
<feBlend mode="normal" in2="BackgroundImageFix" result="effect1_dropShadow_8248_108357"/>
<feBlend mode="normal" in="SourceGraphic" in2="effect1_dropShadow_8248_108357" result="shape"/>
</filter>
<clipPath id="clip0_8248_108357">
<rect width="42" height="43" fill="white" transform="translate(27 21)"/>
</clipPath>
</defs>
</svg>
