<svg width="96" height="96" viewBox="0 0 96 96" fill="none" xmlns="http://www.w3.org/2000/svg">
<g filter="url(#filter0_d_8248_108591)">
<rect x="20" y="14" width="56" height="56" rx="28" fill="#12163E"/>
<path d="M58.5373 44.4963C57.7538 43.4229 56.9799 42.3617 56.194 41.2847C54.8273 42.7338 53.2212 43.387 51.3445 43.059C49.4737 42.732 48.1306 41.5735 47.2327 39.7223C46.0578 40.4041 44.8882 41.0832 43.7058 41.7695C44.8754 44.1252 45.067 46.5463 44.1382 49.0266C43.4286 50.9215 42.209 52.3187 40.5314 53.2034C37.1742 54.9741 33.0942 53.7288 31.0726 50.1041C29.2104 46.7646 29.7778 42.2321 32.7374 39.6004C34.3237 38.1895 36.1525 37.605 38.1803 37.8529C40.2093 38.1008 41.8514 39.1492 43.1581 40.8962C44.3988 40.1762 45.6365 39.4576 46.8916 38.7289C46.4836 36.9468 46.6934 35.2671 47.6086 33.7229C48.233 32.6699 49.0883 31.9121 50.1485 31.44C52.2552 30.5021 54.6617 31.0961 56.2262 32.9114C57.6597 34.5753 58.4274 37.6177 56.8122 40.4459C57.6237 41.558 58.4394 42.676 59.2621 43.8036C60.4652 42.9298 61.7558 42.6647 63.136 43.0786C64.2594 43.4152 65.1411 44.142 65.7734 45.2195C67.0335 47.3664 66.6163 50.246 64.819 51.8616C62.9964 53.5 60.3665 53.3681 58.6864 51.5551C57.003 49.7384 56.7775 46.6664 58.5373 44.4963ZM34.9775 46.489C34.5327 45.7217 34.3324 44.893 34.4587 43.9874C34.5847 43.0827 34.9709 42.3381 35.6164 41.7627C36.7063 40.7912 38.2538 40.7293 39.411 41.6076C39.9851 42.0433 40.3915 42.626 40.6169 43.3515C40.9296 44.359 40.8238 45.3319 40.3654 46.2679C40.9416 46.6664 41.4058 47.1658 41.8068 47.7398C42.2111 48.3188 42.5147 48.9574 42.7282 49.6656C44.1604 47.4528 44.3269 43.4465 41.7432 40.7634C39.1091 38.028 34.9378 38.2477 32.5635 41.2333C30.2057 44.1979 30.6939 48.2265 32.4681 50.3888C32.8819 48.7614 33.7323 47.4806 34.9775 46.4885V46.489ZM35.6519 47.2882C35.5515 47.3578 35.4516 47.4155 35.3632 47.4901C34.4071 48.2988 33.7331 49.3231 33.4139 50.6135C33.3726 50.7795 33.361 50.9542 33.3313 51.1243C33.3007 51.2999 33.3651 51.4122 33.4944 51.5178C34.5471 52.3751 35.7217 52.8659 37.0317 52.9296C38.8613 53.0187 40.4423 52.357 41.7861 50.9901C41.9167 50.8573 41.972 50.7241 41.9266 50.538C41.9187 50.5062 41.9171 50.473 41.9109 50.4407C41.6532 49.1112 40.994 48.0741 40.0082 47.2768C39.926 47.2104 39.8294 47.1663 39.7468 47.1167C38.6089 48.1778 37.0111 48.347 35.6515 47.2891L35.6519 47.2882ZM55.5208 40.4878C57.0972 38.7139 57.2967 35.5309 55.3791 33.4713C53.4921 31.445 50.4149 31.6106 48.7307 33.8298C47.8626 34.9737 47.5223 36.2968 47.6932 37.7783C47.7886 38.6061 48.2537 39.7891 48.596 40.0625C48.9501 39.1725 49.4925 38.3583 50.2233 37.62C50.0498 37.1015 50.0172 36.5661 50.1708 36.0271C50.3269 35.4786 50.6255 35.0451 51.0625 34.7308C51.8026 34.1982 52.7822 34.2241 53.4967 34.7931C53.8655 35.087 54.1315 35.469 54.281 35.9439C54.4998 36.6384 54.4177 37.3075 54.1125 37.9502C54.8162 38.6402 55.2837 39.4703 55.5208 40.4878ZM60.3566 48.3025C60.1571 47.3759 60.3557 46.6209 61.0624 46.0801C61.624 45.6503 62.412 45.6421 62.951 46.061C63.7448 46.6773 63.9327 47.5097 63.6093 48.5017C64.2044 48.9283 64.622 49.5005 64.8661 50.2342C65.8114 48.8947 65.868 46.5277 64.3659 45.0012C62.8994 43.5111 60.6035 43.6107 59.2452 45.2254C57.8459 46.8888 58.1239 49.1981 59.0317 50.3465C59.1114 49.909 59.2386 49.5073 59.4843 49.1639C59.7276 48.8242 60.0138 48.5363 60.3566 48.3029V48.3025ZM39.8335 44.4972C39.8289 43.1286 38.8369 42.0424 37.5967 42.0484C36.3705 42.0543 35.3777 43.1504 35.3785 44.4968C35.3793 45.854 36.3862 46.9557 37.619 46.9484C38.846 46.9407 39.838 45.8431 39.8335 44.4972ZM53.4459 38.7243C53.3955 38.7544 53.369 38.7698 53.343 38.7853C52.5113 39.2806 51.7076 39.2297 50.9324 38.6338C50.7825 38.5188 50.7655 38.511 50.6197 38.6347C50.3327 38.8781 50.087 39.1674 49.8854 39.4985C49.5988 39.9693 49.4724 40.496 49.4369 41.0495C49.4906 41.0955 49.5302 41.1341 49.5736 41.166C51.1215 42.2935 52.7256 42.3995 54.3826 41.4784C54.6572 41.3256 54.6555 41.3129 54.6233 40.9754C54.6196 40.9344 54.6142 40.8935 54.6068 40.853C54.4651 40.0857 54.131 39.4353 53.6226 38.8908C53.5698 38.8344 53.5107 38.7848 53.4463 38.7243H53.4459ZM61.9003 51.9512C62.6235 51.9508 63.2868 51.7306 63.8959 51.3026C63.9959 51.2321 64.0405 51.1584 64.0277 51.0229C63.9608 50.3165 63.6424 49.7894 63.1067 49.4086C62.9952 49.3295 62.8973 49.3345 62.7746 49.3991C62.2043 49.6988 61.6393 49.6638 61.1041 49.3004C60.9558 49.1999 60.8443 49.2044 60.7167 49.3054C60.1302 49.7693 59.8626 50.3852 59.9663 51.1862C59.9832 51.3181 60.0365 51.3881 60.1364 51.4482C60.6865 51.7793 61.2726 51.9499 61.8999 51.9512H61.9003ZM52.2379 38.0625C52.904 38.0616 53.4438 37.4753 53.4488 36.7458C53.4541 36.0039 52.9135 35.4049 52.2387 35.4049C51.5626 35.4049 51.022 36.0035 51.0274 36.7449C51.0327 37.4753 51.5725 38.063 52.2379 38.0621V38.0625ZM61.2367 47.6802C61.2395 48.1596 61.5918 48.5454 62.023 48.5413C62.455 48.5372 62.8122 48.141 62.8056 47.673C62.799 47.1917 62.4504 46.8138 62.0164 46.8169C61.5761 46.8201 61.2338 47.199 61.2367 47.6802Z" fill="white"/>
</g>
<defs>
<filter id="filter0_d_8248_108591" x="0.4" y="0.699999" width="95.2" height="95.2" filterUnits="userSpaceOnUse" color-interpolation-filters="sRGB">
<feFlood flood-opacity="0" result="BackgroundImageFix"/>
<feColorMatrix in="SourceAlpha" type="matrix" values="0 0 0 0 0 0 0 0 0 0 0 0 0 0 0 0 0 0 127 0" result="hardAlpha"/>
<feOffset dy="6.3"/>
<feGaussianBlur stdDeviation="9.8"/>
<feComposite in2="hardAlpha" operator="out"/>
<feColorMatrix type="matrix" values="0 0 0 0 0.245422 0 0 0 0 0.258826 0 0 0 0 0.384821 0 0 0 0.11 0"/>
<feBlend mode="normal" in2="BackgroundImageFix" result="effect1_dropShadow_8248_108591"/>
<feBlend mode="normal" in="SourceGraphic" in2="effect1_dropShadow_8248_108591" result="shape"/>
</filter>
</defs>
</svg>
