<svg width="45" height="45" viewBox="0 0 45 45" fill="none" xmlns="http://www.w3.org/2000/svg">
<rect x="0.3125" y="0.5" width="44" height="44" rx="22" fill="#F2F3FA"/>
<path d="M27.3082 16.3139C28.5722 16.3139 29.8362 16.3139 31.1003 16.3141C31.1654 16.3141 31.2322 16.3125 31.2957 16.3244C31.4654 16.3568 31.576 16.4977 31.5647 16.6566C31.5533 16.8176 31.4283 16.9377 31.255 16.9507C31.1998 16.9549 31.1443 16.9541 31.0889 16.9541C28.5658 16.9524 26.0431 16.9507 23.52 16.9485C23.4596 16.9485 23.3983 16.951 23.3392 16.9421C23.1698 16.9166 23.0514 16.7805 23.0548 16.6219C23.0581 16.4553 23.1867 16.3255 23.3653 16.3119C23.4255 16.3072 23.4862 16.3089 23.5466 16.3089C24.8007 16.3089 26.0544 16.3089 27.3085 16.3089V16.3136L27.3082 16.3139Z" fill="#3F49A7"/>
<path d="M27.2625 18.5096C25.9987 18.5162 24.735 18.5226 23.4712 18.529C23.436 18.529 23.4005 18.529 23.3656 18.5254C23.2103 18.5079 23.0947 18.3923 23.0797 18.2409C23.0653 18.0962 23.1496 17.9609 23.2941 17.9146C23.3548 17.8952 23.4224 17.8899 23.4868 17.8894C24.7605 17.8788 26.0345 17.87 27.3082 17.8611C28.5367 17.8525 29.7653 17.8439 30.9938 17.837C31.0737 17.8364 31.156 17.8397 31.2328 17.8586C31.3731 17.8932 31.4632 18.0188 31.4635 18.1589C31.4638 18.2969 31.3714 18.4253 31.2322 18.4594C31.1552 18.4783 31.0728 18.4819 30.993 18.4824C29.7495 18.4905 28.5057 18.4971 27.2619 18.5038C27.2619 18.5057 27.2619 18.5079 27.2619 18.5099L27.2625 18.5096Z" fill="#3F49A7"/>
<path d="M25.2542 29.4137C25.245 30.2996 25.2359 31.1588 25.2267 32.0336C25.2974 32.0363 25.3562 32.0405 25.415 32.0405C25.9839 32.0422 26.5531 32.0427 27.1221 32.0446C27.1875 32.0446 27.2538 32.0446 27.3178 32.0552C27.4678 32.0799 27.5718 32.198 27.5795 32.3447C27.5876 32.4938 27.5016 32.6236 27.3533 32.661C27.2718 32.6815 27.1842 32.6837 27.0993 32.6835C24.5208 32.6799 21.9426 32.6749 19.3641 32.6704C18.7095 32.6693 18.0549 32.6685 17.4 32.6671C17.3598 32.6671 17.319 32.6677 17.2794 32.6621C17.1405 32.6427 17.0321 32.5335 17.0096 32.394C16.988 32.2609 17.0634 32.1131 17.1945 32.0632C17.2627 32.0372 17.3415 32.0294 17.4152 32.0291C17.9944 32.0275 18.5736 32.0294 19.1525 32.0302C19.2022 32.0302 19.2515 32.0302 19.3228 32.0302C19.3131 31.1591 19.3034 30.3007 19.2937 29.4201C19.2268 29.4201 19.1683 29.4201 19.1098 29.4201C17.4882 29.4215 15.8667 29.4232 14.2451 29.4246C13.7665 29.4248 13.289 29.4068 12.8133 29.3475C12.3988 29.2959 12.0935 29.0783 11.8628 28.7447C11.6302 28.4084 11.531 28.0258 11.4993 27.6235C11.4899 27.5031 11.4924 27.382 11.4927 27.2611C11.4971 23.8516 11.5005 20.4425 11.5096 17.033C11.5107 16.6157 11.5182 16.1951 11.5689 15.782C11.6427 15.1801 11.913 14.681 12.4606 14.3683C12.6891 14.2377 12.9433 14.1939 13.1995 14.1723C13.4651 14.1498 13.7321 14.1359 13.9986 14.1368C19.6691 14.1545 25.3396 14.1745 31.0101 14.1955C31.2563 14.1964 31.505 14.1955 31.7481 14.2271C32.3312 14.3026 32.7388 14.6175 32.9531 15.1707C33.0807 15.4992 33.1278 15.8441 33.1283 16.1924C33.13 17.3657 33.12 18.5391 33.1181 19.7124C33.1142 22.0339 33.1139 24.3554 33.1086 26.6769C33.1078 27.0035 33.0956 27.3307 33.0751 27.6568C33.0485 28.0771 32.8763 28.4433 32.624 28.7747C32.4765 28.9685 32.2794 29.0957 32.0545 29.1831C31.6017 29.3588 31.1309 29.4215 30.648 29.4093C30.5676 29.4074 30.4869 29.4046 30.4065 29.4049C28.7546 29.4076 27.1029 29.411 25.451 29.414C25.3914 29.414 25.3315 29.414 25.2539 29.414L25.2542 29.4137ZM32.4718 26.1138C32.4718 26.0453 32.4718 25.9807 32.4718 25.9164C32.4748 22.7393 32.4782 19.5622 32.4807 16.3853C32.4807 16.2495 32.4776 16.1133 32.4718 15.9778C32.4632 15.7751 32.4205 15.5785 32.3484 15.3891C32.2272 15.0709 31.9885 14.8984 31.6558 14.8629C31.4562 14.8416 31.2543 14.8368 31.0533 14.8346C30.6455 14.8299 30.2376 14.8321 29.8298 14.8307C24.3367 14.8113 18.8437 14.7919 13.3506 14.7728C12.8718 14.7711 12.536 14.9993 12.3353 15.4246C12.1714 15.772 12.109 16.1425 12.1246 16.5262C12.1348 16.7777 12.1509 17.0291 12.1506 17.2806C12.1468 20.1658 12.1404 23.0506 12.1348 25.9358C12.1348 25.9896 12.1348 26.0437 12.1348 26.1141H32.472L32.4718 26.1138ZM32.4504 26.7817C32.1552 26.7501 12.2474 26.7562 12.1426 26.7867C12.1426 27.0728 12.126 27.3604 12.1476 27.6451C12.1673 27.9063 12.2408 28.1597 12.393 28.3823C12.5091 28.5523 12.6597 28.669 12.8671 28.7006C13.0259 28.725 13.1851 28.7589 13.3448 28.7658C13.6561 28.7794 13.9683 28.7808 14.28 28.7805C19.6682 28.7752 25.0565 28.7688 30.4447 28.7622C30.6211 28.7622 30.7971 28.7611 30.9735 28.7569C31.2735 28.75 31.5618 28.684 31.8407 28.5753C31.9553 28.5307 32.0553 28.4641 32.1294 28.3638C32.2497 28.2002 32.3548 28.0255 32.3955 27.8262C32.4648 27.4854 32.4945 27.1402 32.4507 26.7814L32.4504 26.7817ZM19.9654 32.013C20.1787 32.0496 24.4712 32.0449 24.5818 32.0083C24.5912 31.1522 24.6007 30.2935 24.6101 29.4284H19.9372C19.9466 30.296 19.9557 31.1502 19.9652 32.013H19.9654Z" fill="#3F49A7"/>
<path d="M16.6813 24.6116C15.4874 24.5409 14.4338 24.0233 13.7069 22.9361C12.7043 21.4364 12.9899 19.5075 14.2481 18.2843C14.4397 18.0979 14.6113 18.109 14.7943 18.2992C15.0177 18.531 15.2481 18.7564 15.4763 18.9838C15.9751 19.4815 16.4764 19.9767 16.9718 20.4777C17.0595 20.5664 17.1454 20.606 17.2732 20.6049C18.2697 20.5958 19.2662 20.595 20.2629 20.5916C20.3234 20.5916 20.3841 20.5902 20.444 20.5961C20.6272 20.6143 20.7351 20.7266 20.7484 20.9099C20.77 21.2052 20.7218 21.4938 20.6378 21.7738C20.2047 23.2175 19.2387 24.1106 17.7942 24.4993C17.462 24.5886 17.1208 24.6155 16.6813 24.6113V24.6116ZM15.0319 23.3942C15.0948 23.4358 15.1397 23.4679 15.1869 23.4962C15.9238 23.939 16.7207 24.0815 17.5536 23.8905C18.8331 23.5974 19.6749 22.8163 20.035 21.5404C20.0616 21.4464 20.0719 21.3477 20.0913 21.2423C20.0359 21.239 20.0015 21.2351 19.9671 21.2351C19.056 21.2371 18.1452 21.2407 17.2341 21.2396C17.1435 21.2396 17.0852 21.2745 17.0262 21.3355C16.399 21.9821 15.7699 22.627 15.1417 23.2727C15.107 23.3082 15.0751 23.3462 15.0316 23.3942H15.0319ZM14.5483 22.9605C15.2035 22.2876 15.8584 21.6153 16.5233 20.9326C15.8503 20.2622 15.1863 19.6004 14.5214 18.938C13.4637 20.1217 13.5222 21.9047 14.5483 22.9605Z" fill="#3F49A7"/>
<path d="M20.2264 20.3255C19.7082 20.3119 19.1898 20.2981 18.6716 20.2853C18.6214 20.2842 18.5712 20.2898 18.521 20.2923C18.3402 20.3011 18.2085 20.2033 18.1711 20.0272C18.1597 19.9737 18.1573 19.9174 18.157 19.8622C18.1509 18.7648 18.1459 17.6675 18.1406 16.5701C18.1406 16.5601 18.1406 16.5498 18.1406 16.5398C18.1464 16.2712 18.292 16.135 18.5637 16.1484C18.8418 16.1619 19.1124 16.2152 19.3761 16.3047C20.0592 16.5371 20.6304 16.9388 21.1145 17.4667C21.6876 18.0917 22.0827 18.8114 22.2416 19.651C22.264 19.7693 22.2815 19.8897 22.2868 20.0097C22.2967 20.2254 22.1656 20.3621 21.9474 20.3638C21.7159 20.3655 21.4844 20.358 21.2529 20.3524C20.9107 20.3438 20.5686 20.3333 20.2264 20.3236C20.2264 20.3241 20.2264 20.3247 20.2264 20.3253V20.3255ZM18.7969 16.8063V19.6462C19.7346 19.6695 20.6576 19.6923 21.5773 19.7153C21.5836 19.6884 21.5886 19.6784 21.5875 19.6693C21.5853 19.6496 21.58 19.6299 21.5753 19.6105C21.4688 19.1591 21.2759 18.7463 21.0119 18.367C20.5772 17.7417 20.0265 17.2532 19.3126 16.9679C19.1509 16.9033 18.9796 16.8628 18.7969 16.8063Z" fill="#3F49A7"/>
<path d="M29.2295 22.0889C29.2295 21.3896 29.2293 20.6904 29.2295 19.9908C29.2295 19.7291 29.3443 19.6093 29.603 19.6077C30.0657 19.6046 30.5288 19.6035 30.9915 19.6055C31.3012 19.6066 31.4146 19.725 31.4127 20.041C31.4038 21.3691 31.3933 22.6974 31.3844 24.0255C31.3838 24.1007 31.3872 24.1764 31.3958 24.2509C31.4213 24.4705 31.2954 24.6277 31.0722 24.6286C30.7905 24.6294 30.5091 24.6164 30.2274 24.6097C30.0111 24.6044 29.7949 24.597 29.5789 24.5961C29.354 24.595 29.2232 24.475 29.2129 24.2471C29.209 24.1567 29.2121 24.066 29.2121 23.9753C29.2121 23.3465 29.2121 22.7177 29.2121 22.0886C29.2176 22.0886 29.2234 22.0886 29.229 22.0886L29.2295 22.0889ZM30.7423 23.9809C30.75 22.723 30.7578 21.4883 30.7653 20.2537H29.8894C29.8595 20.4128 29.8528 23.8578 29.8825 23.9548C30.1608 23.9631 30.4412 23.9717 30.742 23.9809H30.7423Z" fill="#3F49A7"/>
<path d="M28.2681 22.6223C28.2681 23.1458 28.2689 23.6689 28.2672 24.1924C28.2672 24.257 28.2622 24.3241 28.2448 24.3857C28.204 24.5282 28.0892 24.6119 27.9434 24.6152C27.4657 24.6266 26.9882 24.6377 26.5105 24.6485C26.3222 24.6527 26.193 24.5775 26.1412 24.4228C26.1193 24.3571 26.1126 24.2853 26.1074 24.2154C26.1007 24.1253 26.1018 24.0344 26.1007 23.9437C26.0891 22.9777 26.0835 22.0115 26.0627 21.0455C26.0561 20.7289 26.1906 20.557 26.5283 20.5606C26.981 20.5653 27.434 20.5667 27.8865 20.5797C28.1754 20.588 28.2949 20.7184 28.2963 21.0073C28.2988 21.5457 28.2972 22.0841 28.2972 22.6226C28.2875 22.6226 28.2778 22.6226 28.2681 22.6226V22.6223ZM27.6351 23.9748V21.2166H26.7079C26.7365 22.1454 26.7212 23.0631 26.7506 23.9748H27.6351Z" fill="#3F49A7"/>
<path d="M17.9132 18.2894C17.9251 18.8129 17.937 19.3361 17.9487 19.8595C17.9495 19.8947 17.9495 19.93 17.9503 19.9652C17.9542 20.1124 17.9104 20.2402 17.7671 20.2995C17.616 20.3619 17.4621 20.3658 17.3282 20.2483C17.283 20.2086 17.2408 20.1648 17.1984 20.1218C16.5419 19.4545 15.8856 18.7865 15.2285 18.1197C15.1367 18.0266 15.0413 17.9373 14.9451 17.8486C14.7754 17.6919 14.7818 17.4646 14.9457 17.306C15.193 17.0667 15.4547 16.8504 15.7605 16.6888C16.3079 16.3996 16.8879 16.2358 17.5078 16.218C17.7099 16.2122 17.8308 16.3103 17.8644 16.5089C17.8719 16.5532 17.8738 16.599 17.8749 16.6442C17.8877 17.1926 17.8996 17.7413 17.9118 18.2897C17.9121 18.2897 17.9126 18.2897 17.9129 18.2897L17.9132 18.2894ZM15.6008 17.5699C15.9399 17.9614 17.1768 19.1983 17.2938 19.2601C17.2744 18.4677 17.2555 17.6819 17.2358 16.8782C16.6225 16.9713 16.08 17.1779 15.6008 17.5697V17.5699Z" fill="#3F49A7"/>
<path d="M25.1942 23.1482C25.1942 23.4754 25.1942 23.8025 25.1942 24.13C25.1942 24.1802 25.1936 24.2309 25.1883 24.2808C25.1639 24.5051 25.0361 24.626 24.8096 24.6263C24.5429 24.6263 24.2762 24.6188 24.0095 24.6124C23.8132 24.6077 23.6171 24.5985 23.4211 24.5936C23.1571 24.5869 23.0002 24.4364 22.9941 24.1705C22.9794 23.5161 22.9686 22.8618 22.9556 22.2077C22.9542 22.1323 22.9459 22.0569 22.9453 21.9815C22.9434 21.7794 23.0795 21.6288 23.2797 21.6319C23.7929 21.6402 24.3064 21.6518 24.8193 21.6729C25.0924 21.6843 25.2019 21.8129 25.2036 22.091C25.2055 22.4434 25.2042 22.7958 25.2042 23.1482H25.1947H25.1942ZM24.5457 22.3048C24.2293 22.2948 23.9249 22.2854 23.6033 22.2751C23.6105 22.8424 23.6096 23.3928 23.6324 23.9506C23.9454 23.9625 24.2396 23.9739 24.5457 23.9858V22.3048Z" fill="#3F49A7"/>
</svg>
