<svg width="96" height="96" viewBox="0 0 96 96" fill="none" xmlns="http://www.w3.org/2000/svg">
<g filter="url(#filter0_d_8248_108536)">
<rect x="20" y="13.5" width="56" height="56" rx="28" fill="#12163E"/>
<g clip-path="url(#clip0_8248_108536)">
<mask id="path-2-outside-1_8248_108536" maskUnits="userSpaceOnUse" x="30.9609" y="23.5527" width="35" height="35" fill="black">
<rect fill="white" x="30.9609" y="23.5527" width="35" height="35"/>
<path d="M62.2379 42.0839C61.0644 42.0839 60.0612 42.7873 59.6477 43.784L56.2044 42.91C56.331 42.3432 56.4024 41.7554 56.4024 41.152C56.4024 38.1465 54.7295 35.5117 52.2383 34.071L54.6348 29.7772C54.9478 29.8956 55.2871 29.9618 55.6409 29.9618C57.1798 29.9618 58.4363 28.7495 58.4363 27.2552C58.4363 25.7623 57.1798 24.5527 55.6409 24.5527C54.1019 24.5527 52.8454 25.7651 52.8454 27.2594C52.8454 28.1658 53.3069 28.9666 54.016 29.4571L51.6195 33.751C50.4896 33.2167 49.2258 32.9136 47.8877 32.9136C45.1563 32.9136 42.7247 34.1655 41.1671 36.1081L37.2199 33.3873C37.4325 33.0053 37.5518 32.5711 37.5518 32.1058C37.5518 30.6158 36.2997 29.3992 34.7564 29.3992C33.2131 29.3992 31.9609 30.6116 31.9609 32.1058C31.9609 33.6001 33.2131 34.8125 34.7564 34.8125C35.5688 34.8125 36.2953 34.4728 36.8108 33.9357L40.7624 36.6564C39.8903 37.952 39.3793 39.4928 39.3793 41.1535C39.3793 43.3879 40.3038 45.4123 41.7947 46.8996L37.284 51.515C36.8224 51.1865 36.2517 50.9877 35.6358 50.9877C34.0969 50.9877 32.8404 52.2001 32.8404 53.6944C32.8404 55.1887 34.0925 56.4011 35.6358 56.4011C37.1791 56.4011 38.4313 55.1887 38.4313 53.6944C38.4313 53.0445 38.1925 52.4454 37.7936 51.9802L42.2998 47.3648C43.7951 48.6279 45.7476 49.3962 47.8863 49.3962C48.7846 49.3962 49.6495 49.2594 50.4619 49.0099L51.8261 52.647C50.9234 53.0981 50.3061 54.0045 50.3061 55.0506C50.3061 56.5406 51.5583 57.7572 53.1016 57.7572C54.6405 57.7572 55.897 56.5448 55.897 55.0506C55.897 53.5605 54.6449 52.3439 53.1016 52.3439C52.889 52.3439 52.6837 52.3693 52.4828 52.413L51.1185 48.7759C53.4553 47.8413 55.2737 45.9283 56.0236 43.5643L59.467 44.4384C59.4524 44.554 59.4408 44.6696 59.4408 44.788C59.4408 46.278 60.6929 47.4946 62.2362 47.4946C63.7795 47.4946 65.0317 46.2823 65.0317 44.788C65.0331 43.2937 63.7812 42.0839 62.2379 42.0839ZM53.5459 27.2593C53.5459 26.14 54.485 25.2307 55.641 25.2307C56.7971 25.2307 57.7362 26.14 57.7362 27.2593C57.7362 28.3786 56.7971 29.2879 55.641 29.2879C54.485 29.2879 53.5459 28.3786 53.5459 27.2593ZM34.7612 34.1346C33.6051 34.1346 32.666 33.2253 32.666 32.106C32.666 30.9867 33.6051 30.0774 34.7612 30.0774C35.9172 30.0774 36.8563 30.9867 36.8563 32.106C36.8563 33.2253 35.9129 34.1346 34.7612 34.1346ZM55.1971 55.0477C55.1971 56.1671 54.258 57.0763 53.1019 57.0763C51.9459 57.0763 51.0068 56.1671 51.0068 55.0477C51.0068 53.9284 51.9459 53.0191 53.1019 53.0191C54.258 53.0191 55.1971 53.9284 55.1971 55.0477ZM35.6363 55.723C34.4803 55.723 33.5412 54.8137 33.5412 53.6944C33.5412 52.5751 34.4803 51.6658 35.6363 51.6658C36.7924 51.6658 37.7315 52.5751 37.7315 53.6944C37.7315 54.8137 36.7924 55.723 35.6363 55.723ZM47.8883 48.7181C43.5799 48.7181 40.0755 45.3264 40.0755 41.1535C40.0755 36.982 43.5786 33.589 47.8883 33.589C52.1966 33.589 55.701 36.9807 55.701 41.1535C55.701 45.3251 52.198 48.7181 47.8883 48.7181ZM62.2383 46.8164C61.0822 46.8164 60.1431 45.9072 60.1431 44.7878C60.1431 43.6685 61.0822 42.7592 62.2383 42.7592C63.3943 42.7592 64.3334 43.6685 64.3334 44.7878C64.3334 45.9072 63.3943 46.8164 62.2383 46.8164ZM53.0278 38.0862L48.0631 35.3104C47.9553 35.2484 47.8214 35.2484 47.7122 35.3104L42.7515 38.0862C42.6438 38.1482 42.5768 38.2596 42.5768 38.378V43.9281C42.5768 44.0507 42.6438 44.1621 42.7515 44.2199L47.7163 46.9956C47.7716 47.0238 47.8313 47.0422 47.891 47.0422C47.9507 47.0422 48.0104 47.0281 48.0657 46.9956L53.0304 44.2199C53.1382 44.1579 53.2052 44.0465 53.2052 43.9281L53.2066 38.378C53.2037 38.2596 53.137 38.1482 53.0278 38.0862ZM47.8883 40.7646L46.7439 40.1261L51.0082 37.7436L52.1526 38.3822L47.8883 40.7646ZM45.1234 39.9992L45.697 40.3206V41.2552L45.1234 40.9338V39.9992ZM45.4699 39.4113L49.7343 37.0289L50.3079 37.3503L46.0436 39.7327L45.4699 39.4113ZM47.8883 35.997L49.0326 36.6356L44.7724 39.0208L43.628 38.3822L47.8883 35.997ZM43.2772 38.9673L44.4216 39.6059V40.9916C44.4216 41.1974 44.5337 41.3807 44.7157 41.4864L45.6927 42.032C45.764 42.0715 45.8456 42.094 45.9271 42.094C46.0086 42.094 46.0916 42.0729 46.1615 42.032C46.3071 41.953 46.3959 41.8008 46.3959 41.6387V40.7111L47.5403 41.3497V46.1174L43.2759 43.7349L43.2772 38.9673ZM48.239 46.1161V41.3484L52.5034 38.966V43.7337L48.239 46.1161Z"/>
</mask>
<path d="M62.2379 42.0839C61.0644 42.0839 60.0612 42.7873 59.6477 43.784L56.2044 42.91C56.331 42.3432 56.4024 41.7554 56.4024 41.152C56.4024 38.1465 54.7295 35.5117 52.2383 34.071L54.6348 29.7772C54.9478 29.8956 55.2871 29.9618 55.6409 29.9618C57.1798 29.9618 58.4363 28.7495 58.4363 27.2552C58.4363 25.7623 57.1798 24.5527 55.6409 24.5527C54.1019 24.5527 52.8454 25.7651 52.8454 27.2594C52.8454 28.1658 53.3069 28.9666 54.016 29.4571L51.6195 33.751C50.4896 33.2167 49.2258 32.9136 47.8877 32.9136C45.1563 32.9136 42.7247 34.1655 41.1671 36.1081L37.2199 33.3873C37.4325 33.0053 37.5518 32.5711 37.5518 32.1058C37.5518 30.6158 36.2997 29.3992 34.7564 29.3992C33.2131 29.3992 31.9609 30.6116 31.9609 32.1058C31.9609 33.6001 33.2131 34.8125 34.7564 34.8125C35.5688 34.8125 36.2953 34.4728 36.8108 33.9357L40.7624 36.6564C39.8903 37.952 39.3793 39.4928 39.3793 41.1535C39.3793 43.3879 40.3038 45.4123 41.7947 46.8996L37.284 51.515C36.8224 51.1865 36.2517 50.9877 35.6358 50.9877C34.0969 50.9877 32.8404 52.2001 32.8404 53.6944C32.8404 55.1887 34.0925 56.4011 35.6358 56.4011C37.1791 56.4011 38.4313 55.1887 38.4313 53.6944C38.4313 53.0445 38.1925 52.4454 37.7936 51.9802L42.2998 47.3648C43.7951 48.6279 45.7476 49.3962 47.8863 49.3962C48.7846 49.3962 49.6495 49.2594 50.4619 49.0099L51.8261 52.647C50.9234 53.0981 50.3061 54.0045 50.3061 55.0506C50.3061 56.5406 51.5583 57.7572 53.1016 57.7572C54.6405 57.7572 55.897 56.5448 55.897 55.0506C55.897 53.5605 54.6449 52.3439 53.1016 52.3439C52.889 52.3439 52.6837 52.3693 52.4828 52.413L51.1185 48.7759C53.4553 47.8413 55.2737 45.9283 56.0236 43.5643L59.467 44.4384C59.4524 44.554 59.4408 44.6696 59.4408 44.788C59.4408 46.278 60.6929 47.4946 62.2362 47.4946C63.7795 47.4946 65.0317 46.2823 65.0317 44.788C65.0331 43.2937 63.7812 42.0839 62.2379 42.0839ZM53.5459 27.2593C53.5459 26.14 54.485 25.2307 55.641 25.2307C56.7971 25.2307 57.7362 26.14 57.7362 27.2593C57.7362 28.3786 56.7971 29.2879 55.641 29.2879C54.485 29.2879 53.5459 28.3786 53.5459 27.2593ZM34.7612 34.1346C33.6051 34.1346 32.666 33.2253 32.666 32.106C32.666 30.9867 33.6051 30.0774 34.7612 30.0774C35.9172 30.0774 36.8563 30.9867 36.8563 32.106C36.8563 33.2253 35.9129 34.1346 34.7612 34.1346ZM55.1971 55.0477C55.1971 56.1671 54.258 57.0763 53.1019 57.0763C51.9459 57.0763 51.0068 56.1671 51.0068 55.0477C51.0068 53.9284 51.9459 53.0191 53.1019 53.0191C54.258 53.0191 55.1971 53.9284 55.1971 55.0477ZM35.6363 55.723C34.4803 55.723 33.5412 54.8137 33.5412 53.6944C33.5412 52.5751 34.4803 51.6658 35.6363 51.6658C36.7924 51.6658 37.7315 52.5751 37.7315 53.6944C37.7315 54.8137 36.7924 55.723 35.6363 55.723ZM47.8883 48.7181C43.5799 48.7181 40.0755 45.3264 40.0755 41.1535C40.0755 36.982 43.5786 33.589 47.8883 33.589C52.1966 33.589 55.701 36.9807 55.701 41.1535C55.701 45.3251 52.198 48.7181 47.8883 48.7181ZM62.2383 46.8164C61.0822 46.8164 60.1431 45.9072 60.1431 44.7878C60.1431 43.6685 61.0822 42.7592 62.2383 42.7592C63.3943 42.7592 64.3334 43.6685 64.3334 44.7878C64.3334 45.9072 63.3943 46.8164 62.2383 46.8164ZM53.0278 38.0862L48.0631 35.3104C47.9553 35.2484 47.8214 35.2484 47.7122 35.3104L42.7515 38.0862C42.6438 38.1482 42.5768 38.2596 42.5768 38.378V43.9281C42.5768 44.0507 42.6438 44.1621 42.7515 44.2199L47.7163 46.9956C47.7716 47.0238 47.8313 47.0422 47.891 47.0422C47.9507 47.0422 48.0104 47.0281 48.0657 46.9956L53.0304 44.2199C53.1382 44.1579 53.2052 44.0465 53.2052 43.9281L53.2066 38.378C53.2037 38.2596 53.137 38.1482 53.0278 38.0862ZM47.8883 40.7646L46.7439 40.1261L51.0082 37.7436L52.1526 38.3822L47.8883 40.7646ZM45.1234 39.9992L45.697 40.3206V41.2552L45.1234 40.9338V39.9992ZM45.4699 39.4113L49.7343 37.0289L50.3079 37.3503L46.0436 39.7327L45.4699 39.4113ZM47.8883 35.997L49.0326 36.6356L44.7724 39.0208L43.628 38.3822L47.8883 35.997ZM43.2772 38.9673L44.4216 39.6059V40.9916C44.4216 41.1974 44.5337 41.3807 44.7157 41.4864L45.6927 42.032C45.764 42.0715 45.8456 42.094 45.9271 42.094C46.0086 42.094 46.0916 42.0729 46.1615 42.032C46.3071 41.953 46.3959 41.8008 46.3959 41.6387V40.7111L47.5403 41.3497V46.1174L43.2759 43.7349L43.2772 38.9673ZM48.239 46.1161V41.3484L52.5034 38.966V43.7337L48.239 46.1161Z" fill="white"/>
<path d="M62.2379 42.0839C61.0644 42.0839 60.0612 42.7873 59.6477 43.784L56.2044 42.91C56.331 42.3432 56.4024 41.7554 56.4024 41.152C56.4024 38.1465 54.7295 35.5117 52.2383 34.071L54.6348 29.7772C54.9478 29.8956 55.2871 29.9618 55.6409 29.9618C57.1798 29.9618 58.4363 28.7495 58.4363 27.2552C58.4363 25.7623 57.1798 24.5527 55.6409 24.5527C54.1019 24.5527 52.8454 25.7651 52.8454 27.2594C52.8454 28.1658 53.3069 28.9666 54.016 29.4571L51.6195 33.751C50.4896 33.2167 49.2258 32.9136 47.8877 32.9136C45.1563 32.9136 42.7247 34.1655 41.1671 36.1081L37.2199 33.3873C37.4325 33.0053 37.5518 32.5711 37.5518 32.1058C37.5518 30.6158 36.2997 29.3992 34.7564 29.3992C33.2131 29.3992 31.9609 30.6116 31.9609 32.1058C31.9609 33.6001 33.2131 34.8125 34.7564 34.8125C35.5688 34.8125 36.2953 34.4728 36.8108 33.9357L40.7624 36.6564C39.8903 37.952 39.3793 39.4928 39.3793 41.1535C39.3793 43.3879 40.3038 45.4123 41.7947 46.8996L37.284 51.515C36.8224 51.1865 36.2517 50.9877 35.6358 50.9877C34.0969 50.9877 32.8404 52.2001 32.8404 53.6944C32.8404 55.1887 34.0925 56.4011 35.6358 56.4011C37.1791 56.4011 38.4313 55.1887 38.4313 53.6944C38.4313 53.0445 38.1925 52.4454 37.7936 51.9802L42.2998 47.3648C43.7951 48.6279 45.7476 49.3962 47.8863 49.3962C48.7846 49.3962 49.6495 49.2594 50.4619 49.0099L51.8261 52.647C50.9234 53.0981 50.3061 54.0045 50.3061 55.0506C50.3061 56.5406 51.5583 57.7572 53.1016 57.7572C54.6405 57.7572 55.897 56.5448 55.897 55.0506C55.897 53.5605 54.6449 52.3439 53.1016 52.3439C52.889 52.3439 52.6837 52.3693 52.4828 52.413L51.1185 48.7759C53.4553 47.8413 55.2737 45.9283 56.0236 43.5643L59.467 44.4384C59.4524 44.554 59.4408 44.6696 59.4408 44.788C59.4408 46.278 60.6929 47.4946 62.2362 47.4946C63.7795 47.4946 65.0317 46.2823 65.0317 44.788C65.0331 43.2937 63.7812 42.0839 62.2379 42.0839ZM53.5459 27.2593C53.5459 26.14 54.485 25.2307 55.641 25.2307C56.7971 25.2307 57.7362 26.14 57.7362 27.2593C57.7362 28.3786 56.7971 29.2879 55.641 29.2879C54.485 29.2879 53.5459 28.3786 53.5459 27.2593ZM34.7612 34.1346C33.6051 34.1346 32.666 33.2253 32.666 32.106C32.666 30.9867 33.6051 30.0774 34.7612 30.0774C35.9172 30.0774 36.8563 30.9867 36.8563 32.106C36.8563 33.2253 35.9129 34.1346 34.7612 34.1346ZM55.1971 55.0477C55.1971 56.1671 54.258 57.0763 53.1019 57.0763C51.9459 57.0763 51.0068 56.1671 51.0068 55.0477C51.0068 53.9284 51.9459 53.0191 53.1019 53.0191C54.258 53.0191 55.1971 53.9284 55.1971 55.0477ZM35.6363 55.723C34.4803 55.723 33.5412 54.8137 33.5412 53.6944C33.5412 52.5751 34.4803 51.6658 35.6363 51.6658C36.7924 51.6658 37.7315 52.5751 37.7315 53.6944C37.7315 54.8137 36.7924 55.723 35.6363 55.723ZM47.8883 48.7181C43.5799 48.7181 40.0755 45.3264 40.0755 41.1535C40.0755 36.982 43.5786 33.589 47.8883 33.589C52.1966 33.589 55.701 36.9807 55.701 41.1535C55.701 45.3251 52.198 48.7181 47.8883 48.7181ZM62.2383 46.8164C61.0822 46.8164 60.1431 45.9072 60.1431 44.7878C60.1431 43.6685 61.0822 42.7592 62.2383 42.7592C63.3943 42.7592 64.3334 43.6685 64.3334 44.7878C64.3334 45.9072 63.3943 46.8164 62.2383 46.8164ZM53.0278 38.0862L48.0631 35.3104C47.9553 35.2484 47.8214 35.2484 47.7122 35.3104L42.7515 38.0862C42.6438 38.1482 42.5768 38.2596 42.5768 38.378V43.9281C42.5768 44.0507 42.6438 44.1621 42.7515 44.2199L47.7163 46.9956C47.7716 47.0238 47.8313 47.0422 47.891 47.0422C47.9507 47.0422 48.0104 47.0281 48.0657 46.9956L53.0304 44.2199C53.1382 44.1579 53.2052 44.0465 53.2052 43.9281L53.2066 38.378C53.2037 38.2596 53.137 38.1482 53.0278 38.0862ZM47.8883 40.7646L46.7439 40.1261L51.0082 37.7436L52.1526 38.3822L47.8883 40.7646ZM45.1234 39.9992L45.697 40.3206V41.2552L45.1234 40.9338V39.9992ZM45.4699 39.4113L49.7343 37.0289L50.3079 37.3503L46.0436 39.7327L45.4699 39.4113ZM47.8883 35.997L49.0326 36.6356L44.7724 39.0208L43.628 38.3822L47.8883 35.997ZM43.2772 38.9673L44.4216 39.6059V40.9916C44.4216 41.1974 44.5337 41.3807 44.7157 41.4864L45.6927 42.032C45.764 42.0715 45.8456 42.094 45.9271 42.094C46.0086 42.094 46.0916 42.0729 46.1615 42.032C46.3071 41.953 46.3959 41.8008 46.3959 41.6387V40.7111L47.5403 41.3497V46.1174L43.2759 43.7349L43.2772 38.9673ZM48.239 46.1161V41.3484L52.5034 38.966V43.7337L48.239 46.1161Z" stroke="white" stroke-width="0.4" mask="url(#path-2-outside-1_8248_108536)"/>
</g>
</g>
<defs>
<filter id="filter0_d_8248_108536" x="0.4" y="0.199999" width="95.2" height="95.2" filterUnits="userSpaceOnUse" color-interpolation-filters="sRGB">
<feFlood flood-opacity="0" result="BackgroundImageFix"/>
<feColorMatrix in="SourceAlpha" type="matrix" values="0 0 0 0 0 0 0 0 0 0 0 0 0 0 0 0 0 0 127 0" result="hardAlpha"/>
<feOffset dy="6.3"/>
<feGaussianBlur stdDeviation="9.8"/>
<feComposite in2="hardAlpha" operator="out"/>
<feColorMatrix type="matrix" values="0 0 0 0 0.245422 0 0 0 0 0.258826 0 0 0 0 0.384821 0 0 0 0.11 0"/>
<feBlend mode="normal" in2="BackgroundImageFix" result="effect1_dropShadow_8248_108536"/>
<feBlend mode="normal" in="SourceGraphic" in2="effect1_dropShadow_8248_108536" result="shape"/>
</filter>
<clipPath id="clip0_8248_108536">
<rect width="41" height="42" fill="white" transform="translate(28 19.5)"/>
</clipPath>
</defs>
</svg>
