<svg width="96" height="96" viewBox="0 0 96 96" fill="none" xmlns="http://www.w3.org/2000/svg">
<g filter="url(#filter0_d_8248_108477)">
<rect x="20" y="14" width="56" height="56" rx="28" fill="#848BCD"/>
<g clip-path="url(#clip0_8248_108477)">
<path d="M42.1814 44.7323C42.1814 43.9945 41.581 43.3955 40.8446 43.3955C40.1082 43.3955 39.5078 43.9959 39.5078 44.7323C39.5078 45.4702 40.1082 46.0691 40.8446 46.0691C41.5825 46.0691 42.1814 45.4687 42.1814 44.7323ZM40.8446 45.1953C40.59 45.1953 40.3817 44.987 40.3817 44.7309C40.3817 44.4748 40.59 44.2665 40.8446 44.2665C41.1007 44.2665 41.309 44.4748 41.309 44.7309C41.309 44.9884 41.1007 45.1953 40.8446 45.1953Z" fill="#F2F3FA"/>
<path d="M58.044 51.4395H52.2729C52.0313 51.4395 51.8359 51.6348 51.8359 51.8764C51.8359 52.118 52.0312 52.3133 52.2729 52.3133H58.044C58.2856 52.3133 58.4809 52.118 58.4809 51.8764C58.4809 51.6348 58.2856 51.4395 58.044 51.4395Z" fill="#F2F3FA"/>
<path d="M59.0513 32.5808L58.7027 31.0704C58.6766 30.9575 58.6072 30.8591 58.5088 30.7984C58.4104 30.7376 58.2918 30.7174 58.1789 30.7434L57.3413 30.9373L56.3011 27.8267C56.2244 27.5982 55.9755 27.4752 55.7484 27.5504L41.7828 32.2178C40.7498 31.2094 39.3392 30.5859 37.7854 30.5859C34.6257 30.5859 32.0547 33.1568 32.0547 36.3166C32.0547 38.5273 33.3148 40.4455 35.1537 41.4018V53.8178C35.1537 54.4239 35.647 54.9158 36.2517 54.9158H59.6632C60.2679 54.9158 60.7613 54.4239 60.7613 53.8178V34.7885C60.7613 33.741 60.0496 32.8426 59.0513 32.5808ZM59.8876 34.7885V35.1806C59.8876 35.3745 59.8485 35.5582 59.7776 35.7275L59.2958 33.6413C59.6561 33.9017 59.8876 34.3197 59.8876 34.7885ZM59.0542 36.4697C58.8763 36.5507 58.6795 36.5984 58.4712 36.5984H44.646L44.2438 34.8609L57.949 31.6925L59.0542 36.4697ZM56.4862 31.1356L43.6218 34.1087C43.3874 34.1636 43.2399 34.398 43.2948 34.6324L43.7491 36.5986H43.5017C43.5061 36.5045 43.5162 36.4119 43.5162 36.3164C43.5162 35.0505 43.0981 33.8815 42.4007 32.9325L55.6126 28.5169L56.4862 31.1356ZM32.9288 36.3163C32.9288 33.6384 35.1076 31.4582 37.787 31.4582C40.4649 31.4582 42.6436 33.637 42.6436 36.3163C42.6436 38.9943 40.4648 41.173 37.787 41.173C35.1076 41.1744 32.9288 38.9942 32.9288 36.3163ZM36.0263 43.083H41.2504C42.159 43.083 42.8983 43.8223 42.8983 44.7323C42.8983 45.6409 42.159 46.3816 41.2504 46.3816H36.0263V43.083ZM59.6634 54.0423H36.2519C36.1275 54.0423 36.0262 53.941 36.0262 53.8166V47.2525H41.2503C42.6406 47.2525 43.772 46.1211 43.772 44.7308C43.772 43.3404 42.6406 42.2091 41.2503 42.2091H36.0262V41.7678C36.5803 41.9472 37.1706 42.047 37.7855 42.047C40.5502 42.047 42.8621 40.0795 43.3988 37.4722H58.4695C59.0077 37.4722 59.4953 37.2784 59.8874 36.9673V53.8177C59.8874 53.9421 59.7861 54.0419 59.6631 54.0419L59.6634 54.0423Z" fill="#F2F3FA"/>
<path d="M38.0422 40.0569V39.2742C38.4777 39.1989 38.8235 38.9921 39.0796 38.655C39.3356 38.3179 39.4644 37.8867 39.4644 37.363C39.4644 36.8914 39.3516 36.5022 39.1259 36.1955C38.9363 35.9394 38.5746 35.7224 38.0422 35.5473V33.9125C38.265 34.0268 38.4025 34.2496 38.456 34.5823L39.3212 34.4434C39.2618 34.0137 39.123 33.6767 38.903 33.4336C38.6831 33.1891 38.3952 33.0415 38.0408 32.988V32.5742H37.5475V32.988C37.1684 33.0328 36.8559 33.205 36.6129 33.5059C36.3684 33.8068 36.2468 34.1975 36.2468 34.6778C36.2468 35.6168 36.6809 36.2374 37.5475 36.5398V38.2933C37.4216 38.2209 37.3087 38.1023 37.2089 37.9402C37.1091 37.7768 37.0411 37.5858 37.0049 37.3659L36.1094 37.4831C36.2468 38.5739 36.7257 39.1787 37.5489 39.2987V40.0597L38.0422 40.0569ZM38.0422 36.7192C38.43 36.8552 38.6238 37.1228 38.6238 37.5178C38.6238 37.7319 38.5688 37.9157 38.4589 38.0676C38.3489 38.2195 38.21 38.3135 38.0422 38.3497L38.0422 36.7192ZM37.1047 34.6113C37.1047 34.4521 37.1467 34.3075 37.2306 34.1758C37.3145 34.0442 37.4201 33.953 37.5489 33.8995V35.3462C37.2523 35.1914 37.1047 34.9455 37.1047 34.6113Z" fill="#F2F3FA"/>
</g>
</g>
<defs>
<filter id="filter0_d_8248_108477" x="0.4" y="0.699999" width="95.2" height="95.2" filterUnits="userSpaceOnUse" color-interpolation-filters="sRGB">
<feFlood flood-opacity="0" result="BackgroundImageFix"/>
<feColorMatrix in="SourceAlpha" type="matrix" values="0 0 0 0 0 0 0 0 0 0 0 0 0 0 0 0 0 0 127 0" result="hardAlpha"/>
<feOffset dy="6.3"/>
<feGaussianBlur stdDeviation="9.8"/>
<feComposite in2="hardAlpha" operator="out"/>
<feColorMatrix type="matrix" values="0 0 0 0 0.245422 0 0 0 0 0.258826 0 0 0 0 0.384821 0 0 0 0.11 0"/>
<feBlend mode="normal" in2="BackgroundImageFix" result="effect1_dropShadow_8248_108477"/>
<feBlend mode="normal" in="SourceGraphic" in2="effect1_dropShadow_8248_108477" result="shape"/>
</filter>
<clipPath id="clip0_8248_108477">
<rect width="41" height="42" fill="white" transform="translate(26 19)"/>
</clipPath>
</defs>
</svg>
