<svg width="44" height="44" viewBox="0 0 44 44" fill="none" xmlns="http://www.w3.org/2000/svg">
<rect width="44" height="44" rx="22" fill="#F2F3FA"/>
<path d="M23.3225 16.4928C23.7052 16.3489 24.0751 16.2077 24.447 16.0713C24.5253 16.0426 24.5518 15.9835 24.5782 15.9163C24.693 15.6243 24.8082 15.3323 24.9256 15.0416C24.9521 14.9761 24.985 14.9124 25.0203 14.8508C25.111 14.6926 25.2444 14.5888 25.4287 14.5709C25.6349 14.551 25.8417 14.536 26.0489 14.5301C26.4988 14.517 26.949 14.5099 27.3993 14.503C27.4697 14.502 27.5412 14.5115 27.611 14.5232C27.8831 14.5699 28.0615 14.7284 28.133 14.9937C28.2158 15.302 28.2948 15.6123 28.3607 15.9245C28.3891 16.0595 28.4403 16.1411 28.578 16.1897C28.7894 16.2644 28.9959 16.3577 29.1959 16.4598C29.3479 16.5372 29.4859 16.5372 29.6347 16.4618C29.8722 16.3411 30.1123 16.2262 30.3511 16.1088C30.436 16.067 30.5179 16.0174 30.6056 15.9832C30.8063 15.9049 30.9893 15.932 31.142 16.0941C31.2679 16.2275 31.402 16.3548 31.5182 16.4964C31.815 16.8579 32.1021 17.2278 32.3971 17.5909C32.6072 17.8496 32.5683 18.0813 32.387 18.3185C32.2395 18.5113 32.0819 18.6969 31.9181 18.8757C31.832 18.9697 31.8056 19.0489 31.8578 19.1739C31.9622 19.4251 32.0522 19.6828 32.137 19.9416C32.1723 20.0486 32.2303 20.1105 32.336 20.1438C32.6349 20.2388 32.9321 20.3392 33.23 20.4374C33.275 20.4521 33.3207 20.4652 33.365 20.4812C33.6619 20.5869 33.7735 20.7324 33.7761 21.0501C33.7817 21.6723 33.7797 22.2941 33.78 22.9163C33.78 22.9636 33.7771 23.0112 33.7738 23.0582C33.7516 23.3822 33.5875 23.5991 33.2815 23.7084C32.9951 23.8109 32.6969 23.8559 32.3967 23.8924C32.3615 23.8967 32.3259 23.9016 32.2907 23.9022C32.1915 23.9042 32.1344 23.9476 32.094 24.0441C31.9935 24.2839 31.8783 24.5175 31.7605 24.7713C31.8741 24.9211 31.999 25.0849 32.123 25.2493C32.2013 25.3534 32.2786 25.4584 32.3563 25.5631C32.492 25.7462 32.4926 25.9347 32.3781 26.1275C32.3631 26.153 32.3475 26.1781 32.3308 26.2026C31.9061 26.8218 31.4125 27.3787 30.8343 27.8593C30.7844 27.9007 30.7322 27.9408 30.6768 27.9748C30.4898 28.0896 30.2934 28.1 30.1029 27.9943C29.9848 27.9288 29.8778 27.842 29.7691 27.7604C29.5851 27.6218 29.4037 27.4795 29.222 27.3392C28.9698 27.4453 28.7313 27.5474 28.4912 27.6456C28.4247 27.6727 28.4155 27.7281 28.3992 27.7855C28.3062 28.1098 28.2107 28.4335 28.117 28.7578C28.0211 29.0892 27.858 29.2214 27.5144 29.2194C26.8805 29.2158 26.2466 29.2063 25.6127 29.1933C25.2865 29.1868 25.1031 29.0488 25.0274 28.729C24.9733 28.4997 24.9563 28.2615 24.9237 28.0273C24.9178 27.9862 24.9142 27.9447 24.9136 27.9033C24.9119 27.7833 24.863 27.7131 24.74 27.6726C24.4591 27.5803 24.1821 27.4746 23.9068 27.3666C23.8154 27.3307 23.74 27.3353 23.6539 27.379C23.3583 27.5291 23.0563 27.6665 22.7639 27.8227C22.4873 27.9705 22.2403 27.9457 22.0145 27.733C21.6048 27.3474 21.1898 26.9667 20.7924 26.5686C20.5219 26.2978 20.4939 26.03 20.6838 25.6943C20.8029 25.4839 20.9523 25.2904 21.0899 25.0904C21.1366 25.0225 21.1888 24.9583 21.2443 24.8845C21.1725 24.726 21.1023 24.5707 21.0315 24.4154C20.9405 24.2161 20.8469 24.018 20.7591 23.8174C20.7301 23.7515 20.6932 23.7133 20.6175 23.7058C20.3412 23.6774 20.0655 23.6233 19.7889 23.6187C19.5357 23.6148 19.2894 23.4986 19.2698 23.1352C19.231 22.4139 19.197 21.6922 19.1651 20.9705C19.1599 20.8528 19.1762 20.734 19.184 20.6159C19.1984 20.3996 19.3138 20.2486 19.5047 20.1611C19.6332 20.1021 19.769 20.0567 19.9053 20.0185C20.1389 19.9533 20.3748 19.8952 20.611 19.8404C20.7004 19.8199 20.7555 19.7771 20.7888 19.6903C20.8436 19.5465 20.9043 19.4045 20.9702 19.2656C21.0126 19.1758 21.0107 19.1005 20.9503 19.0189C20.7918 18.8049 20.643 18.5834 20.4812 18.3716C20.2789 18.1067 20.2623 17.9159 20.4473 17.6431C20.8407 17.0627 21.2965 16.5326 21.7747 16.0223C22.0517 15.7268 22.3267 15.6984 22.6641 15.9287C22.8533 16.0582 23.0171 16.2249 23.192 16.3753C23.2321 16.4099 23.2709 16.4461 23.3228 16.4928H23.3225ZM30.7528 16.7574C30.6591 16.8057 30.5975 16.8402 30.5335 16.8699C30.2758 16.989 30.0207 17.1146 29.7584 17.2223C29.5182 17.3205 29.2709 17.31 29.0315 17.2079C28.7046 17.0689 28.3793 16.9264 28.0534 16.7858C27.8671 16.7055 27.7441 16.5691 27.6961 16.3714C27.6443 16.1587 27.6002 15.944 27.5487 15.7313C27.5099 15.5721 27.4642 15.4149 27.4205 15.2524C27.3232 15.2524 27.2466 15.2504 27.1699 15.2524C26.7318 15.2648 26.2936 15.2863 25.8551 15.2863C25.6845 15.2863 25.6006 15.3483 25.5458 15.5052C25.446 15.7901 25.3279 16.0683 25.218 16.3492C25.1472 16.5303 25.0222 16.6595 24.8412 16.7283C24.3988 16.8964 23.9551 17.0611 23.5114 17.2265C23.2572 17.3211 23.0347 17.265 22.84 17.0823C22.7059 16.9567 22.5728 16.8301 22.4377 16.7058C22.3914 16.6634 22.3398 16.6265 22.2814 16.5796C21.8762 17.0402 21.4801 17.4849 21.1425 17.9658C21.3301 18.2451 21.503 18.5064 21.6801 18.7651C21.8126 18.9582 21.8282 19.1582 21.7382 19.3716C21.6204 19.6496 21.5144 19.9331 21.3852 20.2055C21.2991 20.3869 21.1575 20.5096 20.9418 20.55C20.6459 20.6055 20.3549 20.6883 20.0619 20.7614C20.0176 20.7725 19.9761 20.7944 19.9223 20.8156C19.9167 21.5017 19.9464 22.1786 20.0117 22.8592C20.1226 22.8722 20.2169 22.8804 20.3099 22.8948C20.5379 22.93 20.7663 22.9649 20.9934 23.006C21.1611 23.0364 21.2857 23.1287 21.3578 23.2872C21.5832 23.7831 21.8064 24.28 22.037 24.7733C22.1003 24.9084 22.086 25.0154 21.9959 25.1328C21.8191 25.3628 21.6524 25.6007 21.4834 25.8365C21.4358 25.9028 21.3947 25.9735 21.3444 26.0515C21.7027 26.4352 22.0808 26.7807 22.4599 27.1216C22.5313 27.088 22.5848 27.0639 22.6374 27.0381C22.9081 26.9047 23.1802 26.7735 23.4494 26.6365C23.6409 26.5389 23.8327 26.5249 24.0321 26.6068C24.0924 26.6316 24.1537 26.6531 24.2151 26.675C24.555 26.7954 24.8953 26.9154 25.2353 27.0352C25.3521 27.0763 25.4372 27.149 25.4982 27.2596C25.6003 27.4456 25.649 27.6436 25.6672 27.8527C25.6842 28.0462 25.7087 28.239 25.7312 28.4439H27.4201C27.5144 28.1137 27.6146 27.7921 27.6965 27.4655C27.7565 27.2264 27.8893 27.0694 28.1177 26.9787C28.3871 26.8717 28.6547 26.7588 28.9166 26.6349C29.1555 26.5217 29.3773 26.5393 29.5881 26.6874C29.806 26.8404 30.0177 27.0022 30.2321 27.1604C30.2738 27.1914 30.3146 27.2237 30.3678 27.2642C30.8549 26.8518 31.2725 26.3889 31.6359 25.8796C31.6225 25.8535 31.617 25.8359 31.6062 25.8225C31.4176 25.5869 31.2327 25.3481 31.0379 25.1175C30.8754 24.925 30.8454 24.771 30.9762 24.5707C31.1919 24.2415 31.3508 23.8852 31.493 23.5208C31.5703 23.3228 31.7106 23.2168 31.9142 23.1864C32.0255 23.1698 32.138 23.1619 32.2493 23.146C32.506 23.1088 32.768 23.0977 33.0238 22.9858C33.0375 22.3796 33.0362 21.7725 33.0254 21.1669C32.9194 21.1327 32.8345 21.1069 32.7507 21.0779C32.4767 20.9839 32.2016 20.8916 31.9289 20.7937C31.7093 20.7151 31.5616 20.5608 31.4813 20.3422C31.3338 19.9422 31.1873 19.5422 31.0396 19.1423C30.9789 18.9785 31.0027 18.8255 31.1071 18.6891C31.2115 18.5527 31.3237 18.4229 31.4333 18.2907C31.5273 18.1775 31.6226 18.0653 31.7276 17.94C31.4004 17.543 31.0813 17.1557 30.7531 16.7577L30.7528 16.7574Z" fill="#3F49A7"/>
<path d="M16.866 30.778C16.8814 30.6583 16.8964 30.536 16.9127 30.4139C16.9274 30.3024 16.9381 30.1901 16.9603 30.0802C17.0047 29.8603 17.1319 29.6975 17.3443 29.6277C17.6588 29.5243 17.9779 29.4339 18.2983 29.3491C18.4797 29.3011 18.6526 29.3553 18.8066 29.4541C18.9057 29.5177 18.9954 29.5964 19.0887 29.6694C19.2189 29.7712 19.3481 29.8743 19.4855 29.9833C19.9246 29.691 20.3249 29.3745 20.6636 28.9814C20.5614 28.8042 20.4633 28.6362 20.368 28.4672C20.339 28.416 20.3112 28.3628 20.2929 28.307C20.2375 28.1387 20.3024 27.9645 20.4486 27.8751C20.597 27.7841 20.7804 27.8017 20.904 27.9319C20.964 27.9951 21.0061 28.0761 21.0547 28.1501C21.1588 28.308 21.2541 28.4724 21.3676 28.6232C21.5503 28.8659 21.5751 29.0643 21.3764 29.2995C21.1519 29.5654 20.906 29.8163 20.6486 30.0512C20.4394 30.242 20.2016 30.4022 19.9729 30.5709C19.6705 30.794 19.3573 30.7999 19.049 30.5878C18.8738 30.4671 18.7067 30.3334 18.5449 30.195C18.4532 30.1167 18.3668 30.0955 18.2532 30.1337C18.0686 30.1957 17.8803 30.2472 17.6866 30.3056C17.6706 30.4528 17.6611 30.594 17.6383 30.7333C17.6184 30.8557 17.5913 30.978 17.5534 31.0958C17.466 31.3659 17.2752 31.5271 16.992 31.5379C16.667 31.5503 16.3408 31.5454 16.0162 31.5274C15.733 31.5118 15.4501 31.4746 15.1689 31.4338C14.8567 31.3888 14.6766 31.2214 14.6166 30.9144C14.5758 30.7059 14.5539 30.4926 14.5386 30.2805C14.5278 30.1272 14.4789 30.0149 14.3415 29.9308C14.1908 29.8381 14.0544 29.7229 13.8985 29.6078C13.8313 29.6489 13.7611 29.69 13.6926 29.734C13.5132 29.8492 13.3383 29.9716 13.155 30.0805C12.8578 30.257 12.5971 30.2469 12.3345 30.0205C11.8748 29.6241 11.4761 29.1709 11.1495 28.6574C11.1179 28.6078 11.0921 28.5537 11.0693 28.4992C10.9658 28.2538 10.9828 28.0163 11.1645 27.8186C11.3443 27.6229 11.5377 27.4379 11.7403 27.2663C11.8536 27.1704 11.8966 27.0754 11.8735 26.9312C11.7916 26.422 11.8663 26.528 11.4037 26.4197C11.2138 26.3753 11.0193 26.3502 10.8278 26.3127C10.5231 26.2526 10.3551 26.0595 10.3068 25.759C10.2898 25.654 10.2823 25.5473 10.2775 25.4409C10.2549 24.9496 10.2383 24.4583 10.2135 23.9673C10.1871 23.4499 10.3616 23.2143 10.8712 23.134C11.0745 23.1021 11.2846 23.1073 11.4914 23.1076C11.5919 23.1076 11.6552 23.0812 11.7058 22.9899C11.8004 22.8195 11.908 22.6564 12.0177 22.478C11.9247 22.3517 11.834 22.2284 11.7426 22.1054C11.6859 22.0294 11.6236 21.9576 11.5714 21.8786C11.4311 21.6669 11.4337 21.4379 11.5831 21.232C11.6454 21.1462 11.7188 21.0669 11.7955 20.9935C12.1974 20.6082 12.602 20.2252 13.0065 19.8422C13.0493 19.8018 13.0959 19.7642 13.1445 19.7306C13.3096 19.6171 13.4887 19.5943 13.6642 19.6921C13.7761 19.7544 13.8792 19.8376 13.9745 19.9247C14.0835 20.0246 14.183 20.1355 14.2789 20.2481C14.3435 20.3241 14.4107 20.3345 14.4978 20.2986C14.733 20.2017 14.9647 20.0924 15.2067 20.0161C15.4397 19.943 15.5783 19.8145 15.611 19.5672C15.6247 19.4631 15.6703 19.363 15.7039 19.2618C15.8181 18.9183 16.0181 18.7617 16.3819 18.7375C16.804 18.7095 17.2223 18.7411 17.637 18.8253C17.7645 18.8511 17.8927 18.8749 18.0193 18.9049C18.2229 18.9532 18.3616 19.084 18.4004 19.2846C18.4562 19.5747 18.5012 19.8686 18.5214 20.1632C18.5397 20.4295 18.3214 20.6043 18.0735 20.5537C17.9097 20.5201 17.7988 20.3805 17.7737 20.1792C17.7505 19.9923 17.7254 19.8053 17.7009 19.6158C17.2761 19.5101 16.8618 19.4651 16.4246 19.4915C16.3763 19.6507 16.3179 19.806 16.2824 19.9662C16.2077 20.3035 16.007 20.5162 15.6857 20.635C15.3917 20.7436 15.1046 20.8712 14.813 20.987C14.7252 21.0219 14.6342 21.0519 14.5422 21.0715C14.2828 21.1266 14.0486 21.079 13.8531 20.8872C13.7181 20.7547 13.5801 20.6252 13.429 20.481C13.0571 20.8337 12.6757 21.1948 12.2891 21.5612C12.403 21.7204 12.5103 21.8682 12.615 22.0176C12.6594 22.0806 12.7018 22.1452 12.7403 22.2117C12.8405 22.385 12.8447 22.5618 12.7429 22.735C12.5687 23.031 12.3922 23.3259 12.2141 23.6195C12.139 23.7432 12.0297 23.8175 11.881 23.826C11.6865 23.8368 11.4918 23.8485 11.2973 23.8593C11.1981 23.8648 11.0986 23.8688 10.9799 23.8743C11.0014 24.4518 11.0226 25.011 11.0441 25.5851C11.2099 25.6148 11.3658 25.6396 11.5205 25.6719C11.6767 25.7046 11.8327 25.7404 11.987 25.7815C12.2473 25.8514 12.4206 26.0204 12.508 26.2722C12.6082 26.5603 12.6411 26.8614 12.6431 27.1642C12.6444 27.3749 12.5566 27.555 12.3945 27.6947C12.2689 27.803 12.1416 27.9097 12.0173 28.0193C11.9381 28.0891 11.8627 28.1635 11.7785 28.2424C12.0656 28.6923 12.414 29.059 12.7856 29.4231C12.9005 29.3501 13.0046 29.2838 13.1086 29.2179C13.2636 29.1194 13.4153 29.016 13.5739 28.9236C13.8179 28.7814 14.0632 28.7915 14.2923 28.9556C14.533 29.1279 14.7673 29.3096 15.0022 29.4897C15.1454 29.5996 15.227 29.7494 15.2508 29.9265C15.2798 30.1435 15.3026 30.3617 15.3222 30.5797C15.3301 30.6642 15.363 30.7112 15.4504 30.716C15.8997 30.7418 16.3486 30.7686 16.7978 30.7947C16.8089 30.7953 16.8207 30.7898 16.8667 30.779L16.866 30.778Z" fill="#3F49A7"/>
<path d="M15.3801 16.6852C15.5778 16.7481 15.7413 16.7997 15.9041 16.8525C15.9546 16.8688 16.0049 16.8871 16.0532 16.9093C16.2571 17.0039 16.3464 17.1957 16.2792 17.3895C16.2143 17.5771 16.014 17.6734 15.8 17.6133C15.6747 17.5784 15.5534 17.5295 15.4284 17.4936C15.3093 17.459 15.1886 17.4293 15.0669 17.4042C14.8356 17.3562 14.7051 17.2124 14.6656 16.9853C14.6053 16.6391 14.5945 16.2907 14.6284 15.941C14.632 15.9057 14.6395 15.8705 14.6418 15.8353C14.662 15.5485 14.8124 15.3479 15.061 15.2196C15.1922 15.1521 15.3312 15.0996 15.4666 15.0405C15.5152 15.0193 15.5674 15.004 15.6127 14.9769C15.7497 14.896 15.7742 14.7636 15.6819 14.6379C15.5873 14.5091 15.4871 14.3835 15.4033 14.2481C15.2411 13.9861 15.2542 13.7672 15.4499 13.5274C15.5393 13.4181 15.6457 13.3212 15.7527 13.2286C15.9318 13.0736 16.1145 12.9225 16.3017 12.7777C16.6211 12.5307 16.8926 12.5216 17.2342 12.7392C17.2991 12.7806 17.3565 12.8341 17.4234 12.871C17.4665 12.8948 17.5219 12.9127 17.5699 12.9092C17.8123 12.8896 17.8312 12.8667 17.8485 12.6168C17.886 12.0687 18.0935 11.8567 18.6449 11.8195C18.9343 11.7999 19.2249 11.7957 19.515 11.7865C19.574 11.7846 19.6334 11.7901 19.6921 11.7973C19.9401 11.8276 20.1078 11.9702 20.1583 12.2162C20.189 12.3656 20.1919 12.5209 20.2092 12.6929C20.3163 12.7454 20.4347 12.811 20.5596 12.8609C20.6001 12.8769 20.6647 12.8648 20.7048 12.8423C20.7867 12.7956 20.8581 12.7317 20.9358 12.6775C21.0232 12.6168 21.1077 12.5493 21.202 12.502C21.4294 12.3878 21.6636 12.392 21.8441 12.5764C22.1041 12.8423 22.3485 13.1251 22.5811 13.4158C22.7171 13.5858 22.7106 13.7946 22.6202 13.9897C22.5308 14.1825 22.4336 14.373 22.3279 14.5574C22.2277 14.7316 22.0421 14.7916 21.8695 14.7237C21.6897 14.653 21.5961 14.4755 21.6506 14.2742C21.6813 14.1613 21.7377 14.0549 21.787 13.9479C21.8163 13.884 21.8542 13.8236 21.8972 13.7453C21.8248 13.6634 21.7521 13.5799 21.6777 13.4977C21.603 13.4152 21.5266 13.3343 21.4454 13.2468C21.3889 13.287 21.342 13.3215 21.294 13.3538C21.186 13.4263 21.0803 13.5029 20.9681 13.5685C20.7769 13.6801 20.5733 13.6922 20.3701 13.6077C20.1955 13.5349 20.0259 13.4501 19.8546 13.3695C19.5809 13.2406 19.4419 13.0256 19.4399 12.7219C19.4399 12.6749 19.4337 12.6279 19.4295 12.5809C19.4292 12.5761 19.4223 12.5718 19.4008 12.5451C19.1545 12.5548 18.8909 12.565 18.6191 12.5757C18.5989 12.7189 18.579 12.8462 18.5636 12.9738C18.5251 13.2938 18.3428 13.4889 18.039 13.574C17.8912 13.6155 17.7405 13.6494 17.5898 13.6784C17.3934 13.7163 17.2143 13.6726 17.0557 13.547C16.9732 13.4814 16.8864 13.421 16.7892 13.3496C16.5549 13.5437 16.3288 13.731 16.0903 13.9284C16.183 14.0497 16.2597 14.1616 16.3481 14.2631C16.5628 14.5097 16.5853 14.7671 16.4557 15.0689C16.3128 15.4017 16.0959 15.6336 15.7497 15.7423C15.7217 15.7511 15.694 15.7622 15.6669 15.7743C15.3752 15.9031 15.3873 15.8137 15.3671 16.2091C15.3589 16.3671 15.3742 16.5263 15.3788 16.6855L15.3801 16.6852Z" fill="#3F49A7"/>
<path d="M16.1815 27.1116C15.0661 27.0908 14.1979 26.1952 14.2191 25.0817C14.2403 23.963 15.1789 23.1079 16.2686 23.1406C17.3403 23.1725 18.2153 24.0828 18.1876 25.1591C18.1592 26.2624 17.266 27.1322 16.1818 27.1116H16.1815ZM17.4301 25.1343C17.4333 24.4508 16.8862 23.8961 16.2073 23.8942C15.5267 23.8926 14.9728 24.4442 14.9721 25.1238C14.9715 25.7969 15.515 26.3456 16.189 26.3521C16.8758 26.359 17.4268 25.8181 17.4301 25.1339V25.1343Z" fill="#3F49A7"/>
<path d="M17.9158 16.6831C17.9158 16.7484 17.9168 16.8133 17.9158 16.8785C17.9119 17.103 17.7716 17.2665 17.5713 17.2805C17.3625 17.2952 17.1942 17.1477 17.1671 16.918C17.1142 16.4678 17.1729 16.0303 17.3537 15.615C17.6463 14.9426 18.1357 14.494 18.8678 14.3488C19.3112 14.2607 19.7389 14.3322 20.1467 14.5266C20.4556 14.6741 20.7203 14.8799 20.9463 15.1357C21.0315 15.232 21.0886 15.3413 21.0719 15.4747C21.0364 15.7598 20.7111 15.8972 20.4775 15.7233C20.4071 15.6708 20.35 15.6003 20.286 15.539C19.994 15.2587 19.6563 15.0803 19.2427 15.0741C18.842 15.0682 18.521 15.2343 18.2701 15.5399C18.0228 15.8414 17.905 16.2244 17.9158 16.6838V16.6831Z" fill="#3F49A7"/>
<path d="M26.7788 17.9033C28.994 17.9076 30.7711 19.6967 30.7642 21.9165C30.7577 24.1206 28.9705 25.8918 26.7576 25.8886C24.5538 25.885 22.776 24.0958 22.7813 21.8868C22.7865 19.6801 24.5736 17.8994 26.7788 17.9037V17.9033ZM26.7719 18.6596C24.9841 18.6602 23.5372 20.1039 23.5349 21.8888C23.5326 23.6851 24.9802 25.1369 26.7726 25.1369C28.5643 25.1369 30.0142 23.6822 30.0112 21.8885C30.008 20.1052 28.5571 18.6589 26.7719 18.6596Z" fill="#3F49A7"/>
</svg>
