<svg width="44" height="44" viewBox="0 0 44 44" fill="none" xmlns="http://www.w3.org/2000/svg">
<rect width="44" height="44" rx="22" fill="#F2F3FA"/>
<g clip-path="url(#clip0_8248_108712)">
<path d="M23.6285 37.7674C22.2064 37.8062 20.7946 37.5158 19.5033 36.9189C16.0568 35.1977 14.2952 35.1613 14.279 35.1613C14.1719 35.1613 14.0691 35.1188 13.9933 35.043C13.9176 34.9672 13.875 34.8644 13.875 34.7573C13.875 34.6501 13.9176 34.5474 13.9933 34.4716C14.0691 34.3958 14.1719 34.3532 14.279 34.3532C14.3558 34.3532 16.2144 34.3775 19.8588 36.1957C23.1154 37.8118 28.0407 36.3371 28.5174 36.1957L36.2629 31.7068C36.4221 31.615 36.5616 31.4927 36.6735 31.347C36.7855 31.2013 36.8676 31.035 36.9152 30.8575C36.9629 30.68 36.9751 30.4949 36.9512 30.3127C36.9273 30.1305 36.8678 29.9548 36.776 29.7957C36.6842 29.6365 36.562 29.497 36.4163 29.385C36.2705 29.2731 36.1042 29.1909 35.9267 29.1433C35.7493 29.0957 35.5642 29.0834 35.382 29.1073C35.1998 29.1312 35.0241 29.1907 34.8649 29.2825L28.8043 32.7694C28.7583 32.7986 28.7069 32.8183 28.6531 32.8271C28.5993 32.836 28.5443 32.8338 28.4914 32.8209C28.4385 32.8079 28.3887 32.7844 28.3451 32.7517C28.3015 32.719 28.265 32.6778 28.2377 32.6306C28.2105 32.5835 28.193 32.5312 28.1864 32.4772C28.1799 32.4231 28.1843 32.3682 28.1995 32.3159C28.2147 32.2635 28.2403 32.2148 28.2748 32.1726C28.3093 32.1304 28.352 32.0957 28.4003 32.0704L34.4609 28.5795C34.9668 28.302 35.5614 28.2337 36.1171 28.3894C36.6727 28.5451 37.1453 28.9124 37.4334 29.4124C37.7214 29.9125 37.8021 30.5055 37.6581 31.0643C37.514 31.6231 37.1568 32.1032 36.6629 32.4017L28.8811 36.9149L28.8083 36.9472C27.1302 37.4683 25.3856 37.7446 23.6285 37.7674Z" fill="#3F49A7"/>
<path d="M26.8652 34.0864H21.4712C21.3641 34.0864 21.2613 34.0438 21.1855 33.968C21.1098 33.8923 21.0672 33.7895 21.0672 33.6823C21.0672 33.5752 21.1098 33.4724 21.1855 33.3966C21.2613 33.3209 21.3641 33.2783 21.4712 33.2783H26.8652C27.2119 33.2459 27.5341 33.0853 27.7686 32.8278C28.0031 32.5704 28.1331 32.2346 28.1331 31.8864C28.1331 31.5381 28.0031 31.2024 27.7686 30.945C27.5341 30.6875 27.2119 30.5269 26.8652 30.4945C26.8328 30.4945 24.9015 30.4379 23.6328 30.4945C22.5743 30.5429 21.6369 30.0177 20.7278 29.5126C19.9722 29.1086 19.2571 28.7046 18.5743 28.7046H14.2712C14.1641 28.7046 14.0613 28.662 13.9855 28.5862C13.9098 28.5105 13.8672 28.4077 13.8672 28.3005C13.8672 28.1934 13.9098 28.0906 13.9855 28.0148C14.0613 27.9391 14.1641 27.8965 14.2712 27.8965H18.5904C19.4833 27.8965 20.3238 28.3652 21.1399 28.8177C21.9561 29.2702 22.7884 29.7106 23.6328 29.6864C24.9258 29.6298 26.8248 29.6864 26.9056 29.6864C27.4738 29.7107 28.0107 29.9536 28.4041 30.3642C28.7976 30.7749 29.0172 31.3217 29.0172 31.8904C29.0172 32.4592 28.7976 33.0059 28.4041 33.4166C28.0107 33.8273 27.4738 34.0701 26.9056 34.0945L26.8652 34.0864Z" fill="#3F49A7"/>
<path d="M12.6482 37.327H8.67645C8.14066 37.327 7.62681 37.1141 7.24795 36.7353C6.86909 36.3564 6.65625 35.8426 6.65625 35.3068V27.735C6.65625 27.1993 6.86909 26.6854 7.24795 26.3065C7.62681 25.9277 8.14066 25.7148 8.67645 25.7148H12.6482C13.184 25.7148 13.6978 25.9277 14.0767 26.3065C14.4555 26.6854 14.6684 27.1993 14.6684 27.735V35.3068C14.6684 35.8426 14.4555 36.3564 14.0767 36.7353C13.6978 37.1141 13.184 37.327 12.6482 37.327ZM8.67645 26.5229C8.35498 26.5229 8.04667 26.6506 7.81935 26.8779C7.59204 27.1053 7.46433 27.4136 7.46433 27.735V35.3068C7.46433 35.6282 7.59204 35.9365 7.81935 36.1639C8.04667 36.3912 8.35498 36.5189 8.67645 36.5189H12.6482C12.9696 36.5189 13.278 36.3912 13.5053 36.1639C13.7326 35.9365 13.8603 35.6282 13.8603 35.3068V27.735C13.8603 27.4136 13.7326 27.1053 13.5053 26.8779C13.278 26.6506 12.9696 26.5229 12.6482 26.5229H8.67645Z" fill="#3F49A7"/>
<path d="M23.228 22.6161C22.1492 22.6161 21.0946 22.2962 20.1976 21.6969C19.3006 21.0975 18.6015 20.2456 18.1886 19.2489C17.7758 18.2523 17.6678 17.1555 17.8782 16.0974C18.0887 15.0394 18.6082 14.0675 19.371 13.3046C20.1339 12.5418 21.1058 12.0223 22.1639 11.8118C23.2219 11.6014 24.3187 11.7094 25.3153 12.1222C26.312 12.5351 27.1639 13.2342 27.7633 14.1312C28.3626 15.0282 28.6825 16.0828 28.6825 17.1616C28.6804 18.6076 28.105 19.9937 27.0826 21.0162C26.0601 22.0386 24.674 22.614 23.228 22.6161ZM23.228 12.5151C22.309 12.5151 21.4107 12.7876 20.6465 13.2982C19.8824 13.8087 19.2869 14.5344 18.9352 15.3835C18.5835 16.2325 18.4915 17.1667 18.6708 18.0681C18.8501 18.9694 19.2926 19.7973 19.9424 20.4471C20.5923 21.0969 21.4202 21.5395 22.3215 21.7188C23.2228 21.898 24.1571 21.806 25.0061 21.4544C25.8551 21.1027 26.5808 20.5071 27.0914 19.743C27.6019 18.9789 27.8745 18.0806 27.8745 17.1616C27.8734 15.9296 27.3835 14.7484 26.5124 13.8772C25.6412 13.0061 24.46 12.5162 23.228 12.5151Z" fill="#3F49A7"/>
<path d="M24.2339 27.6664H22.2137C21.9279 27.6653 21.6541 27.5513 21.4521 27.3492C21.25 27.1471 21.136 26.8733 21.1349 26.5876V25.735C20.2276 25.5147 19.3614 25.1505 18.5693 24.6562L18.0723 25.1532C17.8701 25.3548 17.5962 25.468 17.3107 25.468C17.0251 25.468 16.7513 25.3548 16.5491 25.1532L15.143 23.727C14.9412 23.5241 14.8279 23.2495 14.8279 22.9633C14.8279 22.6771 14.9412 22.4026 15.143 22.1997L15.6682 21.6744C15.2141 20.9219 14.8775 20.1044 14.6703 19.2502H13.7975C13.5118 19.2491 13.238 19.1351 13.0359 18.933C12.8338 18.731 12.7198 18.4572 12.7188 18.1714V16.1512C12.7198 15.8654 12.8338 15.5916 13.0359 15.3896C13.238 15.1875 13.5118 15.0735 13.7975 15.0724H14.6501C14.8744 14.1523 15.247 13.2749 15.7531 12.4744L15.143 11.8401C15.0405 11.7453 14.9577 11.6312 14.8994 11.5043C14.8412 11.3774 14.8086 11.2402 14.8036 11.1007C14.8036 10.9538 14.8337 10.8084 14.8921 10.6736C14.9505 10.5388 15.0359 10.4174 15.143 10.3169L16.5693 8.89059C16.7715 8.68902 17.0453 8.57582 17.3309 8.57582C17.6164 8.57582 17.8903 8.68902 18.0925 8.89059L18.7672 9.5613C19.5108 9.12075 20.3155 8.79262 21.1551 8.58756V7.73504C21.1561 7.45271 21.2673 7.18192 21.4651 6.9804C21.6628 6.77888 21.9314 6.66257 22.2137 6.65625H24.2339C24.5197 6.65731 24.7935 6.77131 24.9955 6.9734C25.1976 7.17548 25.3116 7.44925 25.3127 7.73504V8.58756C26.1669 8.79483 26.9844 9.13137 27.7369 9.58554L28.4319 8.89059C28.6341 8.68902 28.908 8.57582 29.1935 8.57582C29.479 8.57582 29.7529 8.68902 29.9551 8.89059L31.3854 10.3169C31.587 10.5191 31.7002 10.7929 31.7002 11.0785C31.7002 11.364 31.587 11.6379 31.3854 11.8401L30.7188 12.5068C31.213 13.2989 31.5772 14.1651 31.7975 15.0724H32.6501C32.9358 15.0735 33.2096 15.1875 33.4117 15.3896C33.6138 15.5916 33.7278 15.8654 33.7289 16.1512V18.1714C33.7278 18.4572 33.6138 18.731 33.4117 18.933C33.2096 19.1351 32.9358 19.2491 32.6501 19.2502H31.7975C31.5925 20.0898 31.2644 20.8945 30.8238 21.6381L31.3854 22.1997C31.5872 22.4026 31.7005 22.6771 31.7005 22.9633C31.7005 23.2495 31.5872 23.5241 31.3854 23.727L29.9551 25.1532C29.7529 25.3548 29.479 25.468 29.1935 25.468C28.908 25.468 28.6341 25.3548 28.4319 25.1532L27.9107 24.636C27.11 25.1409 26.2326 25.5121 25.3127 25.735V26.5876C25.3116 26.8733 25.1976 27.1471 24.9955 27.3492C24.7935 27.5513 24.5197 27.6653 24.2339 27.6664ZM18.5167 23.735C18.5973 23.7349 18.6761 23.7588 18.743 23.8037C19.6115 24.3956 20.5896 24.8077 21.6198 25.0158C21.7124 25.0347 21.7955 25.0855 21.8545 25.1593C21.9136 25.2332 21.9449 25.3254 21.943 25.4199V26.5956C21.943 26.6674 21.9715 26.7363 22.0223 26.7871C22.073 26.8378 22.1419 26.8664 22.2137 26.8664H24.2339C24.3057 26.8664 24.3746 26.8378 24.4253 26.7871C24.4761 26.7363 24.5046 26.6674 24.5046 26.5956V25.4118C24.5027 25.3173 24.534 25.2251 24.5931 25.1513C24.6521 25.0774 24.7352 25.0267 24.8278 25.0078C25.8683 24.8007 26.8572 24.3887 27.7369 23.7956C27.8147 23.7427 27.9086 23.7186 28.0022 23.7274C28.0959 23.7363 28.1836 23.7776 28.2501 23.8441L29.0056 24.5956C29.0304 24.6208 29.06 24.6408 29.0926 24.6544C29.1252 24.6681 29.1602 24.6751 29.1955 24.6751C29.2309 24.6751 29.2658 24.6681 29.2984 24.6544C29.331 24.6408 29.3606 24.6208 29.3854 24.5956L30.8117 23.1653C30.8368 23.1405 30.8568 23.111 30.8705 23.0784C30.8841 23.0458 30.8911 23.0108 30.8911 22.9754C30.8911 22.9401 30.8841 22.9051 30.8705 22.8725C30.8568 22.8399 30.8368 22.8104 30.8117 22.7855L30.0036 21.9775C29.9384 21.912 29.8976 21.8261 29.8881 21.7342C29.8785 21.6423 29.9008 21.5499 29.9511 21.4724C30.4899 20.6513 30.8721 19.7376 31.0783 18.7775C31.0972 18.6848 31.148 18.6017 31.2218 18.5427C31.2957 18.4836 31.3879 18.4523 31.4824 18.4542H32.6581C32.694 18.4532 32.7294 18.445 32.7621 18.4302C32.7948 18.4154 32.8243 18.3942 32.8487 18.3678C32.8732 18.3415 32.8921 18.3106 32.9045 18.2769C32.9169 18.2431 32.9224 18.2073 32.9208 18.1714V16.1512C32.9208 16.0794 32.8923 16.0105 32.8415 15.9598C32.7907 15.909 32.7219 15.8805 32.6501 15.8805H31.4743C31.3798 15.8824 31.2876 15.8511 31.2138 15.792C31.1399 15.733 31.0892 15.6499 31.0703 15.5573C30.8621 14.5271 30.45 13.549 29.8581 12.6805C29.8052 12.6027 29.7811 12.5089 29.7899 12.4152C29.7988 12.3215 29.8401 12.2339 29.9066 12.1674L30.8036 11.2704C30.8288 11.2456 30.8487 11.216 30.8624 11.1834C30.876 11.1508 30.883 11.1158 30.883 11.0805C30.883 11.0452 30.876 11.0102 30.8624 10.9776C30.8487 10.945 30.8288 10.9154 30.8036 10.8906L29.3773 9.46029C29.3525 9.43513 29.323 9.41514 29.2904 9.4015C29.2578 9.38786 29.2228 9.38084 29.1874 9.38084C29.1521 9.38084 29.1171 9.38786 29.0845 9.4015C29.0519 9.41514 29.0223 9.43513 28.9975 9.46029L28.0723 10.3815C28.0068 10.4467 27.9209 10.4875 27.829 10.497C27.7371 10.5066 27.6447 10.4843 27.5672 10.434C26.7357 9.8929 25.8109 9.51068 24.84 9.30675C24.7473 9.28787 24.6642 9.23709 24.6052 9.16326C24.5461 9.08944 24.5148 8.99724 24.5167 8.90271V7.73504C24.5168 7.69844 24.5094 7.66222 24.495 7.62856C24.4807 7.59491 24.4596 7.56451 24.4332 7.5392C24.4068 7.5139 24.3755 7.49422 24.3412 7.48135C24.307 7.46848 24.2705 7.46269 24.2339 7.46433H22.2137C22.1781 7.46433 22.1429 7.47133 22.1101 7.48494C22.0773 7.49854 22.0474 7.51848 22.0223 7.54362C21.9971 7.56876 21.9772 7.5986 21.9636 7.63144C21.95 7.66429 21.943 7.69949 21.943 7.73504V8.9108C21.9449 9.00532 21.9136 9.09752 21.8545 9.17134C21.7955 9.24517 21.7124 9.29595 21.6198 9.31484C20.654 9.51253 19.7333 9.88793 18.9046 10.4219C18.8271 10.4722 18.7347 10.4945 18.6428 10.4849C18.5509 10.4753 18.465 10.4346 18.3996 10.3694L17.5026 9.46837C17.4769 9.44046 17.4456 9.41818 17.4109 9.40294C17.3761 9.3877 17.3385 9.37983 17.3006 9.37983C17.2626 9.37983 17.2251 9.3877 17.1903 9.40294C17.1555 9.41818 17.1243 9.44046 17.0985 9.46837L15.6723 10.8987C15.6463 10.9229 15.6257 10.9524 15.6118 10.9851C15.5979 11.0178 15.5909 11.053 15.5915 11.0886C15.5914 11.124 15.5986 11.1592 15.6124 11.1918C15.6263 11.2244 15.6467 11.2539 15.6723 11.2785L16.5369 12.1431C16.6029 12.2101 16.6434 12.298 16.6515 12.3917C16.6596 12.4853 16.6348 12.5789 16.5814 12.6562C15.9883 13.5359 15.5763 14.5248 15.3693 15.5653C15.3504 15.658 15.2996 15.7411 15.2258 15.8001C15.1519 15.8592 15.0597 15.8905 14.9652 15.8886H13.7975C13.7257 15.8886 13.6569 15.9171 13.6061 15.9679C13.5554 16.0186 13.5268 16.0875 13.5268 16.1593V18.1795C13.5268 18.2513 13.5554 18.3201 13.6061 18.3709C13.6569 18.4217 13.7257 18.4502 13.7975 18.4502H14.9733C15.0678 18.4483 15.16 18.4796 15.2338 18.5386C15.3077 18.5977 15.3584 18.6808 15.3773 18.7734C15.5784 19.7528 15.9607 20.686 16.5046 21.5249C16.5488 21.6013 16.5668 21.69 16.5559 21.7776C16.545 21.8651 16.5057 21.9467 16.444 22.0098L15.6925 22.7613C15.6668 22.7858 15.6464 22.8153 15.6324 22.8479C15.6185 22.8806 15.6113 22.9157 15.6113 22.9512C15.6113 22.9867 15.6185 23.0218 15.6324 23.0545C15.6464 23.0871 15.6668 23.1166 15.6925 23.1411L17.1187 24.5714C17.1445 24.5993 17.1757 24.6216 17.2105 24.6368C17.2453 24.6521 17.2828 24.6599 17.3208 24.6599C17.3587 24.6599 17.3963 24.6521 17.4311 24.6368C17.4658 24.6216 17.4971 24.5993 17.5228 24.5714L18.2501 23.8401C18.3231 23.7737 18.418 23.7363 18.5167 23.735Z" fill="#3F49A7"/>
</g>
<defs>
<clipPath id="clip0_8248_108712">
<rect width="40.404" height="40" fill="white" transform="translate(1 1)"/>
</clipPath>
</defs>
</svg>
