<svg width="45" height="45" viewBox="0 0 45 45" fill="none" xmlns="http://www.w3.org/2000/svg">
<rect x="0.3125" y="0.5" width="44" height="44" rx="22" fill="#F2F3FA"/>
<path d="M19.2988 33.1791C19.2668 33.1689 19.2447 33.1606 19.222 33.1547C18.4276 32.942 17.9452 32.4226 17.7608 31.6332C17.6919 31.3381 17.6557 31.0308 17.6435 30.7277C17.6303 30.394 17.6662 30.0583 17.6728 29.7233C17.6867 29.0097 17.6916 28.2971 17.3975 27.6224C17.2019 27.174 16.9467 26.7651 16.6173 26.402C16.3676 26.127 16.1141 25.855 15.875 25.5707C14.9754 24.5007 14.4442 23.2704 14.2915 21.8795C14.0324 19.5198 14.6536 17.416 16.1747 15.5958C17.0895 14.5013 18.2452 13.7363 19.6035 13.2842C20.1093 13.1157 20.6162 12.9555 21.1448 12.8661C21.7561 12.7626 22.3718 12.7048 22.9881 12.752C23.9872 12.8285 24.9531 13.057 25.8539 13.5104C28.0718 14.6263 29.4396 16.4056 29.9873 18.8201C30.1094 19.3582 30.2033 19.901 30.1967 20.4553C30.1822 21.6322 30.0022 22.7787 29.5564 23.8762C29.341 24.4061 29.0687 24.9046 28.734 25.3666C28.4461 25.764 28.1401 26.1488 27.8397 26.5372C27.6748 26.7503 27.5017 26.9573 27.3368 27.1707C27.0644 27.5225 26.9035 27.9242 26.798 28.3545C26.6869 28.8096 26.677 29.2636 26.7363 29.7263C26.8128 30.3244 26.7825 30.9246 26.6767 31.5148C26.5487 32.2284 26.1352 32.7577 25.5136 33.1207C25.3715 33.2038 25.2066 33.2582 25.045 33.2955C24.8891 33.3314 24.8053 33.3924 24.7658 33.5599C24.679 33.9243 24.5066 34.2541 24.2797 34.5535C23.1849 36.0004 21.1335 36.0344 19.9758 34.625C19.6625 34.2435 19.4538 33.8102 19.3384 33.3314C19.3258 33.28 19.3117 33.2289 19.2985 33.1791H19.2988ZM22.5729 20.8368C22.6649 20.8368 22.7351 20.8372 22.8054 20.8368C23.4467 20.8329 24.0878 20.8279 24.7291 20.8256C24.9293 20.825 25.1229 20.8635 25.3019 20.9559C25.5103 21.0637 25.6231 21.2375 25.6409 21.4709C25.6577 21.6916 25.6155 21.9003 25.5031 22.0922C25.4516 22.1799 25.3976 22.2663 25.3422 22.3517C25.2149 22.5482 25.2432 22.7405 25.3666 22.9228C25.5529 23.1978 25.9515 23.3515 26.2717 23.2655C26.616 23.1728 26.9451 22.8945 26.7469 22.3728C26.7093 22.2736 26.6424 22.1855 26.5906 22.0915C26.4953 21.9191 26.3819 21.7535 26.3106 21.5718C26.1906 21.2642 26.308 20.9644 26.5955 20.8042C26.6935 20.7498 26.8036 20.701 26.9131 20.6875C27.168 20.6558 27.4255 20.6367 27.6824 20.6307C28.2097 20.6185 28.7369 20.6182 29.2645 20.6126C29.3051 20.6123 29.3457 20.607 29.3958 20.6034C29.3997 20.5605 29.4037 20.5262 29.406 20.4916C29.4429 19.9594 29.348 19.4417 29.2279 18.9279C28.7409 16.8452 27.5709 15.2805 25.6719 14.2748C24.7453 13.7841 23.7481 13.5556 22.7071 13.4999C22.6448 13.4966 22.5815 13.5042 22.5284 13.5061C22.507 13.9474 22.4845 14.3651 22.4664 14.7833C22.4512 15.1302 22.44 15.4771 22.4298 15.824C22.4278 15.8922 22.4384 15.9611 22.4446 16.0488C22.5399 16.0119 22.6108 15.9832 22.6827 15.9568C22.8789 15.8843 23.0728 15.8029 23.273 15.7428C23.5444 15.6614 23.8223 15.6212 24.1069 15.6686C25.2211 15.854 25.6871 17.228 25.0312 18.0663C24.5148 18.7261 23.6021 19.0136 22.7744 18.4794C22.716 18.4419 22.6563 18.4059 22.5656 18.3499C22.6464 19.192 22.6151 19.9976 22.5726 20.8365L22.5729 20.8368ZM21.7274 13.5642C21.5682 13.5846 21.4198 13.6018 21.272 13.6229C20.7652 13.6958 20.2831 13.8593 19.802 14.0265C18.0457 14.6372 16.7396 15.7742 15.8618 17.4058C15.3962 18.271 15.137 19.2009 15.0282 20.1744C15.0038 20.392 14.9975 20.6116 14.9834 20.8256C15.3012 20.8949 16.7901 20.8705 16.9886 20.7966C16.9605 20.7567 16.9338 20.7178 16.9065 20.6795C16.764 20.4827 16.6704 20.2647 16.6186 20.0273C16.4524 19.2662 16.8273 18.6367 17.5759 18.4194C17.839 18.3429 18.1071 18.3231 18.3771 18.3505C19.1214 18.4267 19.6546 19.1413 19.5237 19.8763C19.4808 20.1167 19.3802 20.3317 19.2546 20.5374C19.2223 20.5905 19.1926 20.6449 19.1494 20.7204C20.0473 20.8543 20.9199 20.8197 21.7864 20.8395C21.7993 20.7983 21.8085 20.7818 21.8095 20.7646C21.8408 20.0827 21.8804 19.4011 21.8263 18.7182C21.8109 18.5217 21.8066 18.3231 21.8174 18.1263C21.8234 18.0158 21.8554 17.9001 21.9025 17.7995C22.0489 17.4869 22.3523 17.3751 22.6675 17.5172C22.7922 17.5733 22.9026 17.6597 23.0227 17.7263C23.1684 17.8074 23.3102 17.905 23.4669 17.9548C23.796 18.0597 24.0782 17.9433 24.3203 17.7144C24.5524 17.4951 24.6144 17.2327 24.524 16.9273C24.4182 16.5699 24.1095 16.369 23.7419 16.4241C23.4909 16.4617 23.2558 16.5464 23.0217 16.6414C22.8393 16.7153 22.652 16.7858 22.4605 16.8257C22.1195 16.897 21.854 16.739 21.7452 16.408C21.701 16.2734 21.672 16.1267 21.6743 15.9862C21.6839 15.4355 21.7109 14.8855 21.7264 14.3351C21.7333 14.0855 21.7277 13.8356 21.7277 13.5635L21.7274 13.5642ZM22.4667 28.7446H25.9575C25.9693 28.6737 25.9815 28.6097 25.9904 28.5451C26.0834 27.875 26.308 27.2571 26.7215 26.7153C26.8488 26.5488 26.98 26.3852 27.1093 26.2203C27.4051 25.8434 27.7068 25.4712 27.996 25.0893C28.7241 24.1271 29.1297 23.0303 29.3275 21.8498C29.3526 21.6995 29.3612 21.5465 29.3793 21.3783C29.281 21.3783 29.2101 21.3773 29.1396 21.3783C28.732 21.3842 28.3244 21.3908 27.9168 21.3968C27.6952 21.4001 27.4733 21.401 27.2517 21.4066C27.2029 21.408 27.1541 21.4238 27.0816 21.4376C27.1558 21.5527 27.2115 21.6441 27.2719 21.7321C27.3879 21.9019 27.473 22.0853 27.5231 22.2848C27.6695 22.8684 27.4809 23.4023 27.0107 23.7475C26.1929 24.3483 25.1436 23.9968 24.7163 23.3271C24.4373 22.8895 24.4 22.4315 24.677 21.9712C24.714 21.9095 24.7555 21.8508 24.7918 21.7888C24.8208 21.739 24.8452 21.6863 24.8726 21.6335C24.7166 21.5725 22.7246 21.5811 22.5337 21.6398C22.5261 21.7324 22.5112 21.8277 22.5112 21.923C22.5122 22.4678 22.5175 23.0125 22.5198 23.5573C22.5205 23.7367 22.5211 23.916 22.5149 24.0954C22.5004 24.5099 22.099 24.7896 21.6542 24.5512C21.5385 24.4892 21.43 24.4127 21.3235 24.3355C21.0653 24.1485 20.7744 24.1057 20.4684 24.1416C20.3949 24.1502 20.3134 24.1828 20.2571 24.23C19.9972 24.4476 19.863 24.8219 20.0793 25.1823C20.1763 25.3439 20.3144 25.4689 20.4862 25.5523C20.7481 25.6792 20.8885 25.6535 21.1045 25.4596C21.2061 25.3686 21.3139 25.2763 21.4346 25.2156C21.9127 24.9755 22.4067 25.2205 22.4957 25.7458C22.5294 25.9447 22.5396 26.1521 22.5254 26.3532C22.475 27.0526 22.4585 27.7524 22.4661 28.4534C22.4671 28.5418 22.4661 28.6302 22.4661 28.7453L22.4667 28.7446ZM21.7399 21.6071C21.673 21.6071 21.6196 21.6085 21.5662 21.6071C20.9195 21.5877 20.2726 21.5728 19.6259 21.5461C19.3021 21.5329 18.9796 21.4947 18.6851 21.3417C18.3274 21.1557 18.2205 20.8223 18.4065 20.4649C18.4754 20.3323 18.5651 20.2106 18.6334 20.0778C18.6874 19.9726 18.7379 19.8611 18.7643 19.7467C18.8167 19.5195 18.6904 19.292 18.4876 19.1765C18.238 19.0347 17.6989 19.1122 17.4881 19.3167C17.4064 19.3958 17.3628 19.4885 17.3539 19.6013C17.3332 19.8657 17.4103 20.0972 17.5795 20.3C17.6639 20.4012 17.7546 20.4982 17.8288 20.6063C18.0748 20.9661 17.9462 21.3539 17.5356 21.5013C17.474 21.5234 17.4093 21.5432 17.3444 21.5491C17.0585 21.5758 16.7723 21.6098 16.4857 21.6174C16.0666 21.6286 15.6468 21.6193 15.2274 21.6193C15.165 21.6193 15.1027 21.6236 15.0338 21.6263C15.0819 22.1337 15.1743 22.6079 15.3266 23.0696C15.6188 23.955 16.1131 24.718 16.7409 25.4006C16.9516 25.6298 17.1673 25.856 17.3622 26.098C17.9491 26.8277 18.3386 27.6429 18.4091 28.5909C18.4124 28.6358 18.4279 28.6796 18.4365 28.7192C18.8668 28.7551 21.5649 28.7456 21.6981 28.7083C21.7007 28.6922 21.706 28.6747 21.7057 28.6575C21.6908 27.8371 21.7056 27.0177 21.767 26.1989C21.7732 26.1142 21.7564 26.0274 21.7479 25.9107C21.6546 25.9938 21.5902 26.0542 21.5223 26.1109C21.2341 26.3516 20.908 26.4502 20.535 26.3687C20.0031 26.253 19.6107 25.9447 19.3651 25.4685C18.9832 24.7282 19.3199 24.0024 19.7806 23.6242C19.9365 23.4963 20.1176 23.4125 20.3161 23.3858C20.7794 23.3235 21.2242 23.3776 21.6331 23.6242C21.6648 23.6433 21.7017 23.6532 21.739 23.6687V21.6065L21.7399 21.6071ZM25.9839 30.6974C26.0195 30.2901 25.9924 29.9119 25.9759 29.5238C23.4636 29.5116 20.9729 29.4991 18.4879 29.4869C18.4108 29.7322 18.3758 30.4692 18.4322 30.6647C20.9413 30.6756 23.4543 30.6862 25.9839 30.697V30.6974ZM25.8981 31.4647C23.4243 31.4515 20.9713 31.4387 18.5147 31.4255C18.5925 32.0151 19.097 32.4381 19.6958 32.4543C20.3669 32.4721 21.0376 32.5024 21.7083 32.5262C22.5947 32.5578 23.481 32.5908 24.3677 32.6195C24.8591 32.6353 25.2676 32.4582 25.5888 32.0823C25.7392 31.9062 25.8368 31.7077 25.8981 31.4644V31.4647ZM20.1291 33.2338C20.2142 34.0862 21.1949 34.8981 22.1155 34.8964C22.9874 34.8948 23.9239 34.1462 24.001 33.3789C22.7147 33.3308 21.429 33.2826 20.1291 33.2342V33.2338Z" fill="#3F49A7"/>
<path d="M33.4733 20.2842C33.9284 20.2842 34.3834 20.2835 34.8381 20.2848C34.9034 20.2848 34.971 20.2875 35.0337 20.3039C35.1986 20.3475 35.311 20.4952 35.3133 20.6591C35.3156 20.8154 35.2157 20.9608 35.0591 21.0132C34.9981 21.0337 34.9305 21.0439 34.8658 21.0433C33.9257 21.0343 32.9859 21.0245 32.0461 21.0103C31.7431 21.0057 31.5594 20.7702 31.6468 20.5133C31.7002 20.357 31.8331 20.2591 32.0184 20.2542C32.2038 20.2492 32.3897 20.2542 32.5751 20.2542C32.8745 20.2542 33.1739 20.2542 33.473 20.2542C33.473 20.264 33.473 20.2736 33.473 20.2835L33.4733 20.2842Z" fill="#3F49A7"/>
<path d="M26.9849 12.5697C26.6984 12.5707 26.5249 12.3151 26.6199 12.0543C26.642 11.9929 26.6769 11.9359 26.7099 11.8792C27.1429 11.1356 27.5762 10.3923 28.0104 9.64941C28.0464 9.58775 28.0833 9.52476 28.1305 9.47167C28.2568 9.32922 28.445 9.29987 28.6023 9.39088C28.7573 9.48057 28.8253 9.66161 28.7656 9.84034C28.7468 9.89639 28.7187 9.95014 28.6887 10.0016C28.2442 10.7659 27.7987 11.53 27.3529 12.2937C27.3229 12.3451 27.2906 12.3966 27.2514 12.4407C27.1768 12.5245 27.0828 12.5733 26.9852 12.5697H26.9849Z" fill="#3F49A7"/>
<path d="M15.59 9.5498C15.6827 9.55277 15.7823 9.60355 15.8571 9.69654C15.8984 9.74732 15.9313 9.80536 15.9637 9.86241C16.3758 10.5921 16.7874 11.3222 17.1979 12.0533C17.2358 12.1205 17.2721 12.1914 17.2935 12.265C17.344 12.4384 17.2691 12.6115 17.1171 12.6943C16.9618 12.7791 16.7828 12.7504 16.6584 12.6155C16.6185 12.572 16.5859 12.5202 16.5565 12.4684C16.1295 11.7126 15.7015 10.9575 15.2801 10.1984C15.23 10.1081 15.197 9.99662 15.1953 9.89406C15.1927 9.7005 15.3675 9.54948 15.59 9.55013V9.5498Z" fill="#3F49A7"/>
<path d="M10.8839 20.6807C11.2793 20.6925 11.6746 20.7024 12.0697 20.7176C12.283 20.7255 12.4291 20.8419 12.4634 21.019C12.5053 21.2353 12.3622 21.4318 12.1304 21.4711C12.072 21.481 12.011 21.479 11.951 21.478C11.2499 21.4671 10.5489 21.4562 9.84783 21.4424C9.7588 21.4407 9.66679 21.4332 9.58237 21.4084C9.40728 21.357 9.30637 21.1994 9.32187 21.0253C9.33737 20.8518 9.46499 20.7153 9.64372 20.6892C9.71428 20.679 9.78715 20.6813 9.85904 20.681C10.2007 20.6803 10.5423 20.681 10.8839 20.6807Z" fill="#3F49A7"/>
<path d="M11.919 27.236C11.7142 27.2341 11.5965 27.1651 11.5279 27.0217C11.4619 26.8842 11.488 26.716 11.6008 26.6079C11.6558 26.5551 11.7234 26.5116 11.792 26.4779C12.3285 26.2151 12.8657 25.9543 13.4048 25.6968C13.4731 25.6641 13.5516 25.642 13.6268 25.6368C13.7883 25.6252 13.9212 25.7136 13.9832 25.857C14.0475 26.0054 14.0152 26.1729 13.8896 26.2817C13.8319 26.3319 13.762 26.3704 13.6927 26.4041C13.1776 26.6557 12.6616 26.9063 12.1445 27.1539C12.0598 27.1945 11.9671 27.2189 11.919 27.2364V27.236Z" fill="#3F49A7"/>
<path d="M13.425 16.4861C13.3762 16.4644 13.2792 16.433 13.1948 16.3809C12.7872 16.1307 12.383 15.8744 11.9774 15.6205C11.9622 15.611 11.9474 15.6011 11.9329 15.5902C11.9137 15.5757 11.8943 15.5615 11.8771 15.5453C11.7406 15.4154 11.7109 15.2238 11.8033 15.0708C11.8939 14.9201 12.0819 14.8532 12.258 14.9162C12.3249 14.9403 12.3886 14.9765 12.4492 15.0141C12.8453 15.2608 13.2406 15.5081 13.6347 15.758C13.6894 15.7927 13.7429 15.8359 13.7821 15.8866C13.8728 16.0047 13.8922 16.1382 13.824 16.2744C13.7534 16.4152 13.6354 16.4858 13.4253 16.4861H13.425Z" fill="#3F49A7"/>
<path d="M32.6515 26.4556C32.6551 26.7111 32.4365 26.8964 32.2057 26.8499C32.1423 26.8371 32.08 26.81 32.0223 26.7797C31.6147 26.564 31.2082 26.3464 30.8022 26.1278C30.7445 26.0968 30.6862 26.0635 30.6367 26.0213C30.4929 25.8973 30.4603 25.7064 30.5496 25.5497C30.6387 25.3941 30.8227 25.3232 30.9994 25.3796C31.0449 25.3941 31.0888 25.4142 31.131 25.4366C31.5541 25.6612 31.9765 25.8874 32.3999 26.112C32.5479 26.1904 32.6419 26.3045 32.6515 26.4556Z" fill="#3F49A7"/>
<path d="M30.6502 16.2156C30.4893 16.1955 30.3735 16.1312 30.304 15.9973C30.2311 15.8568 30.2449 15.7164 30.3426 15.5934C30.3861 15.5386 30.4461 15.4934 30.5064 15.4565C30.8375 15.2521 31.1705 15.0512 31.5039 14.8508C31.5498 14.8234 31.5992 14.7997 31.6497 14.7828C31.8205 14.7268 31.9963 14.7907 32.0876 14.9375C32.177 15.0816 32.1641 15.2577 32.0451 15.3853C31.9969 15.4367 31.9359 15.4786 31.8756 15.5159C31.5597 15.7104 31.2431 15.9043 30.9236 16.0929C30.8382 16.1434 30.7419 16.1754 30.6505 16.2156H30.6502Z" fill="#3F49A7"/>
<path d="M22.3677 10.3793C22.3677 10.5465 22.3683 10.7137 22.3673 10.8809C22.367 10.9406 22.368 11.0012 22.3574 11.0593C22.3278 11.2242 22.1909 11.3481 22.026 11.3659C21.8747 11.3824 21.7118 11.2904 21.6498 11.1437C21.6247 11.0843 21.6096 11.0174 21.6069 10.9531C21.5918 10.5772 21.5809 10.2009 21.5706 9.82502C21.5693 9.7716 21.5716 9.71687 21.5832 9.6651C21.6267 9.4712 21.7807 9.35183 21.9696 9.35975C22.1553 9.36733 22.307 9.50285 22.3251 9.69938C22.3459 9.92526 22.3502 10.1525 22.3617 10.379C22.3637 10.379 22.3657 10.379 22.3677 10.379V10.3793Z" fill="#3F49A7"/>
</svg>
