<svg width="96" height="96" viewBox="0 0 96 96" fill="none" xmlns="http://www.w3.org/2000/svg">
<g filter="url(#filter0_d_8248_108385)">
<rect x="20" y="14" width="56" height="56" rx="28" fill="#848BCD"/>
<mask id="path-2-outside-1_8248_108385" maskUnits="userSpaceOnUse" x="30" y="27" width="36" height="30" fill="black">
<rect fill="white" x="30" y="27" width="36" height="30"/>
<path d="M48.1553 55.9078C45.7219 55.9253 43.2887 55.9436 40.8553 55.9599C38.7412 55.974 36.6271 55.9832 34.5129 55.9997C34.0511 56.0033 33.5934 55.9715 33.1374 55.9005C32.6757 55.8289 32.2867 55.6149 31.957 55.293C31.5604 54.9058 31.2778 54.447 31.1237 53.9108C31.0391 53.6167 30.9929 53.3189 31.0009 53.0127C31.0054 52.8388 31.0353 52.6703 31.0846 52.5035C31.1517 52.2763 31.2483 52.0651 31.3662 51.8592C32.3616 50.1198 33.3523 48.3778 34.3447 46.6367C34.381 46.5731 34.4137 46.5066 34.4564 46.4477C34.5024 46.3843 34.5141 46.3172 34.5129 46.2415C34.5063 45.802 34.5019 45.3623 34.4974 44.9228C34.4818 43.3945 34.467 41.8665 34.4515 40.3382C34.4293 38.1402 34.4069 35.9422 34.3848 33.744C34.3767 32.9484 34.3683 32.153 34.3602 31.3575C34.3574 31.0747 34.3628 30.7926 34.3923 30.5107C34.4314 30.1377 34.5285 29.7818 34.6906 29.4437C34.7453 29.3298 34.812 29.224 34.8928 29.1272C35.3618 28.5656 35.9573 28.2267 36.6796 28.1098C37.0265 28.0537 37.3767 28.0394 37.7266 28.0205C37.8676 28.013 38.0087 28.0028 38.1499 28.0016C38.3172 28.0002 38.4845 28.0101 38.6518 28.0099C45.4078 28.0064 52.1639 28.0016 58.9198 28C59.2434 28 59.5684 28.0087 59.8881 28.0728C60.1886 28.1331 60.4707 28.2444 60.7311 28.4039C61.0118 28.576 61.234 28.8133 61.4232 29.0793C61.4826 29.163 61.5243 29.2638 61.554 29.3628C61.6318 29.6232 61.7117 29.8843 61.7656 30.1504C61.8184 30.4113 61.8493 30.6773 61.8743 30.9427C61.9619 31.8768 61.9568 32.8141 61.9527 33.7508C61.9487 34.693 61.9363 35.6349 61.9292 36.5771C61.9231 37.3779 61.9419 38.1784 61.9565 38.9792C61.9728 39.8634 61.9799 40.748 61.982 41.6325C61.9843 42.6635 61.9589 43.6945 61.9247 44.725C61.9167 44.9654 61.8952 45.2056 61.882 45.4457C61.8646 45.7645 61.8493 46.0834 61.8328 46.4022C61.8295 46.4663 61.8392 46.5245 61.8745 46.5816C62.3223 47.3022 62.7095 48.0568 63.1089 48.8041C63.5529 49.6346 63.9889 50.4695 64.4286 51.3023C64.6046 51.636 64.7543 51.9801 64.8797 52.3369C65.1049 52.9781 65.0852 53.6068 64.8332 54.2361C64.5785 54.8726 64.1215 55.3095 63.5149 55.6034C63.4497 55.6349 63.3783 55.6568 63.3073 55.6733C62.9449 55.7572 62.5789 55.8209 62.2059 55.8256C61.8974 55.8296 61.5887 55.8244 61.2799 55.8263C59.8566 55.8348 58.4332 55.8442 57.0098 55.8536C54.0584 55.8732 51.107 55.8927 48.1556 55.9123C48.1556 55.9111 48.1556 55.9097 48.1556 55.9085L48.1553 55.9078ZM35.1028 46.204C35.1825 46.205 35.2444 46.2066 35.3066 46.2064C37.1903 46.1993 39.0742 46.1925 40.9578 46.185C43.7101 46.1736 46.4626 46.1626 49.2149 46.1501C51.9358 46.1378 54.6567 46.1232 57.3776 46.1107C58.597 46.1051 59.816 46.1027 61.0353 46.098C61.1023 46.0978 61.1708 46.1081 61.2439 46.0806C61.2502 46.0471 61.2606 46.0125 61.2628 45.9771C61.2858 45.58 61.3167 45.1834 61.3282 44.7858C61.3542 43.8861 61.382 42.9861 61.3876 42.0861C61.3938 41.1025 61.3839 40.1184 61.3664 39.1347C61.3455 37.9574 61.3287 36.7802 61.3445 35.6024C61.3591 34.5193 61.3615 33.4357 61.353 32.3526C61.348 31.7147 61.3186 31.0765 61.2144 30.4445C61.1675 30.1598 61.1065 29.8796 61.0122 29.607C60.9599 29.4559 60.8767 29.3242 60.7707 29.2066C60.4777 28.8818 60.1054 28.7025 59.6793 28.6393C59.4475 28.6049 59.2111 28.5957 58.9764 28.5856C58.7831 28.5774 58.5892 28.5854 58.3957 28.5854C56.5118 28.5861 54.6282 28.5863 52.7443 28.5873C48.7466 28.5889 44.7488 28.5896 40.7511 28.5936C39.7517 28.5946 38.7522 28.5793 37.753 28.6127C37.4029 28.6245 37.0527 28.6415 36.7067 28.7049C36.1774 28.802 35.737 29.0555 35.3854 29.4618C35.3276 29.5285 35.2753 29.6027 35.2353 29.681C35.1297 29.8867 35.0474 30.1035 35.0137 30.3321C34.9727 30.6106 34.9378 30.8897 34.943 31.1746C34.9614 32.1582 34.969 33.1421 34.9791 34.126C35.0012 36.2611 35.0231 38.3959 35.0444 40.531C35.0625 42.3468 35.0795 44.1628 35.0971 45.9788C35.0979 46.0462 35.1007 46.1136 35.103 46.204H35.1028ZM64.0947 51.9824C64.0824 51.9457 64.0772 51.9212 64.0664 51.8992C64.0299 51.8238 63.9926 51.7489 63.9537 51.6749C63.5475 50.9012 63.1443 50.1261 62.733 49.3551C62.3786 48.6903 62.0176 48.0288 61.6544 47.3687C61.541 47.1627 61.41 46.9662 61.2891 46.7642C61.2559 46.7088 61.2125 46.6846 61.1477 46.6867C61.0221 46.6904 60.8965 46.69 60.7709 46.6904C58.4579 46.7015 56.1447 46.7138 53.8317 46.7234C49.1008 46.7435 44.3699 46.7623 39.639 46.7814C38.1266 46.7875 36.6141 46.7934 35.1016 46.7993C35.0496 46.7993 34.9975 46.7993 34.9525 46.7993C34.8768 46.8931 32.1227 51.6973 31.9959 51.9546C31.9874 51.9716 31.9857 51.9921 31.9787 52.0197C32.0527 52.0409 32.1201 52.0324 32.1863 52.0322C38.0476 52.0244 43.9089 52.015 49.7703 52.0081C54.25 52.0029 58.7299 52.0006 63.2095 51.997C63.4556 51.997 63.7014 51.9956 63.9474 51.9937C63.9926 51.9933 64.0379 51.9869 64.0947 51.9822V51.9824ZM64.3108 52.5947C64.171 52.5749 35.1669 52.5987 31.8521 52.6204C31.7951 52.6208 31.7383 52.6237 31.6794 52.6253C31.6624 52.6661 31.6443 52.6984 31.6355 52.7328C31.6205 52.7936 31.6058 52.8553 31.6004 52.9173C31.586 53.0898 31.5886 53.2625 31.619 53.4336C31.7131 53.9632 31.9412 54.4246 32.3147 54.8141C32.5261 55.0345 32.7759 55.1912 33.0636 55.2864C33.3186 55.3708 33.5818 55.4122 33.8503 55.4103C37.0529 55.3894 40.2555 55.3668 43.4579 55.346C46.8333 55.3243 50.2084 55.3038 53.5837 55.2831C56.0537 55.268 58.5237 55.2522 60.9936 55.2393C61.3756 55.2371 61.7574 55.247 62.1394 55.2527C62.2073 55.2536 62.2749 55.2657 62.3428 55.2642C62.4733 55.2616 62.6041 55.255 62.7347 55.2468C62.7811 55.244 62.8287 55.2369 62.8728 55.2225C63.1688 55.1271 63.4438 54.9897 63.6919 54.8007C63.9167 54.6296 64.0942 54.4187 64.2125 54.1623C64.2714 54.0346 64.323 53.9019 64.3643 53.7673C64.4321 53.5456 64.4592 53.3172 64.4416 53.0849C64.4284 52.9112 64.3798 52.7476 64.3103 52.5942L64.3108 52.5947Z"/>
</mask>
<path d="M48.1553 55.9078C45.7219 55.9253 43.2887 55.9436 40.8553 55.9599C38.7412 55.974 36.6271 55.9832 34.5129 55.9997C34.0511 56.0033 33.5934 55.9715 33.1374 55.9005C32.6757 55.8289 32.2867 55.6149 31.957 55.293C31.5604 54.9058 31.2778 54.447 31.1237 53.9108C31.0391 53.6167 30.9929 53.3189 31.0009 53.0127C31.0054 52.8388 31.0353 52.6703 31.0846 52.5035C31.1517 52.2763 31.2483 52.0651 31.3662 51.8592C32.3616 50.1198 33.3523 48.3778 34.3447 46.6367C34.381 46.5731 34.4137 46.5066 34.4564 46.4477C34.5024 46.3843 34.5141 46.3172 34.5129 46.2415C34.5063 45.802 34.5019 45.3623 34.4974 44.9228C34.4818 43.3945 34.467 41.8665 34.4515 40.3382C34.4293 38.1402 34.4069 35.9422 34.3848 33.744C34.3767 32.9484 34.3683 32.153 34.3602 31.3575C34.3574 31.0747 34.3628 30.7926 34.3923 30.5107C34.4314 30.1377 34.5285 29.7818 34.6906 29.4437C34.7453 29.3298 34.812 29.224 34.8928 29.1272C35.3618 28.5656 35.9573 28.2267 36.6796 28.1098C37.0265 28.0537 37.3767 28.0394 37.7266 28.0205C37.8676 28.013 38.0087 28.0028 38.1499 28.0016C38.3172 28.0002 38.4845 28.0101 38.6518 28.0099C45.4078 28.0064 52.1639 28.0016 58.9198 28C59.2434 28 59.5684 28.0087 59.8881 28.0728C60.1886 28.1331 60.4707 28.2444 60.7311 28.4039C61.0118 28.576 61.234 28.8133 61.4232 29.0793C61.4826 29.163 61.5243 29.2638 61.554 29.3628C61.6318 29.6232 61.7117 29.8843 61.7656 30.1504C61.8184 30.4113 61.8493 30.6773 61.8743 30.9427C61.9619 31.8768 61.9568 32.8141 61.9527 33.7508C61.9487 34.693 61.9363 35.6349 61.9292 36.5771C61.9231 37.3779 61.9419 38.1784 61.9565 38.9792C61.9728 39.8634 61.9799 40.748 61.982 41.6325C61.9843 42.6635 61.9589 43.6945 61.9247 44.725C61.9167 44.9654 61.8952 45.2056 61.882 45.4457C61.8646 45.7645 61.8493 46.0834 61.8328 46.4022C61.8295 46.4663 61.8392 46.5245 61.8745 46.5816C62.3223 47.3022 62.7095 48.0568 63.1089 48.8041C63.5529 49.6346 63.9889 50.4695 64.4286 51.3023C64.6046 51.636 64.7543 51.9801 64.8797 52.3369C65.1049 52.9781 65.0852 53.6068 64.8332 54.2361C64.5785 54.8726 64.1215 55.3095 63.5149 55.6034C63.4497 55.6349 63.3783 55.6568 63.3073 55.6733C62.9449 55.7572 62.5789 55.8209 62.2059 55.8256C61.8974 55.8296 61.5887 55.8244 61.2799 55.8263C59.8566 55.8348 58.4332 55.8442 57.0098 55.8536C54.0584 55.8732 51.107 55.8927 48.1556 55.9123C48.1556 55.9111 48.1556 55.9097 48.1556 55.9085L48.1553 55.9078ZM35.1028 46.204C35.1825 46.205 35.2444 46.2066 35.3066 46.2064C37.1903 46.1993 39.0742 46.1925 40.9578 46.185C43.7101 46.1736 46.4626 46.1626 49.2149 46.1501C51.9358 46.1378 54.6567 46.1232 57.3776 46.1107C58.597 46.1051 59.816 46.1027 61.0353 46.098C61.1023 46.0978 61.1708 46.1081 61.2439 46.0806C61.2502 46.0471 61.2606 46.0125 61.2628 45.9771C61.2858 45.58 61.3167 45.1834 61.3282 44.7858C61.3542 43.8861 61.382 42.9861 61.3876 42.0861C61.3938 41.1025 61.3839 40.1184 61.3664 39.1347C61.3455 37.9574 61.3287 36.7802 61.3445 35.6024C61.3591 34.5193 61.3615 33.4357 61.353 32.3526C61.348 31.7147 61.3186 31.0765 61.2144 30.4445C61.1675 30.1598 61.1065 29.8796 61.0122 29.607C60.9599 29.4559 60.8767 29.3242 60.7707 29.2066C60.4777 28.8818 60.1054 28.7025 59.6793 28.6393C59.4475 28.6049 59.2111 28.5957 58.9764 28.5856C58.7831 28.5774 58.5892 28.5854 58.3957 28.5854C56.5118 28.5861 54.6282 28.5863 52.7443 28.5873C48.7466 28.5889 44.7488 28.5896 40.7511 28.5936C39.7517 28.5946 38.7522 28.5793 37.753 28.6127C37.4029 28.6245 37.0527 28.6415 36.7067 28.7049C36.1774 28.802 35.737 29.0555 35.3854 29.4618C35.3276 29.5285 35.2753 29.6027 35.2353 29.681C35.1297 29.8867 35.0474 30.1035 35.0137 30.3321C34.9727 30.6106 34.9378 30.8897 34.943 31.1746C34.9614 32.1582 34.969 33.1421 34.9791 34.126C35.0012 36.2611 35.0231 38.3959 35.0444 40.531C35.0625 42.3468 35.0795 44.1628 35.0971 45.9788C35.0979 46.0462 35.1007 46.1136 35.103 46.204H35.1028ZM64.0947 51.9824C64.0824 51.9457 64.0772 51.9212 64.0664 51.8992C64.0299 51.8238 63.9926 51.7489 63.9537 51.6749C63.5475 50.9012 63.1443 50.1261 62.733 49.3551C62.3786 48.6903 62.0176 48.0288 61.6544 47.3687C61.541 47.1627 61.41 46.9662 61.2891 46.7642C61.2559 46.7088 61.2125 46.6846 61.1477 46.6867C61.0221 46.6904 60.8965 46.69 60.7709 46.6904C58.4579 46.7015 56.1447 46.7138 53.8317 46.7234C49.1008 46.7435 44.3699 46.7623 39.639 46.7814C38.1266 46.7875 36.6141 46.7934 35.1016 46.7993C35.0496 46.7993 34.9975 46.7993 34.9525 46.7993C34.8768 46.8931 32.1227 51.6973 31.9959 51.9546C31.9874 51.9716 31.9857 51.9921 31.9787 52.0197C32.0527 52.0409 32.1201 52.0324 32.1863 52.0322C38.0476 52.0244 43.9089 52.015 49.7703 52.0081C54.25 52.0029 58.7299 52.0006 63.2095 51.997C63.4556 51.997 63.7014 51.9956 63.9474 51.9937C63.9926 51.9933 64.0379 51.9869 64.0947 51.9822V51.9824ZM64.3108 52.5947C64.171 52.5749 35.1669 52.5987 31.8521 52.6204C31.7951 52.6208 31.7383 52.6237 31.6794 52.6253C31.6624 52.6661 31.6443 52.6984 31.6355 52.7328C31.6205 52.7936 31.6058 52.8553 31.6004 52.9173C31.586 53.0898 31.5886 53.2625 31.619 53.4336C31.7131 53.9632 31.9412 54.4246 32.3147 54.8141C32.5261 55.0345 32.7759 55.1912 33.0636 55.2864C33.3186 55.3708 33.5818 55.4122 33.8503 55.4103C37.0529 55.3894 40.2555 55.3668 43.4579 55.346C46.8333 55.3243 50.2084 55.3038 53.5837 55.2831C56.0537 55.268 58.5237 55.2522 60.9936 55.2393C61.3756 55.2371 61.7574 55.247 62.1394 55.2527C62.2073 55.2536 62.2749 55.2657 62.3428 55.2642C62.4733 55.2616 62.6041 55.255 62.7347 55.2468C62.7811 55.244 62.8287 55.2369 62.8728 55.2225C63.1688 55.1271 63.4438 54.9897 63.6919 54.8007C63.9167 54.6296 64.0942 54.4187 64.2125 54.1623C64.2714 54.0346 64.323 53.9019 64.3643 53.7673C64.4321 53.5456 64.4592 53.3172 64.4416 53.0849C64.4284 52.9112 64.3798 52.7476 64.3103 52.5942L64.3108 52.5947Z" fill="#F2F3FA"/>
<path d="M48.1553 55.9078C45.7219 55.9253 43.2887 55.9436 40.8553 55.9599C38.7412 55.974 36.6271 55.9832 34.5129 55.9997C34.0511 56.0033 33.5934 55.9715 33.1374 55.9005C32.6757 55.8289 32.2867 55.6149 31.957 55.293C31.5604 54.9058 31.2778 54.447 31.1237 53.9108C31.0391 53.6167 30.9929 53.3189 31.0009 53.0127C31.0054 52.8388 31.0353 52.6703 31.0846 52.5035C31.1517 52.2763 31.2483 52.0651 31.3662 51.8592C32.3616 50.1198 33.3523 48.3778 34.3447 46.6367C34.381 46.5731 34.4137 46.5066 34.4564 46.4477C34.5024 46.3843 34.5141 46.3172 34.5129 46.2415C34.5063 45.802 34.5019 45.3623 34.4974 44.9228C34.4818 43.3945 34.467 41.8665 34.4515 40.3382C34.4293 38.1402 34.4069 35.9422 34.3848 33.744C34.3767 32.9484 34.3683 32.153 34.3602 31.3575C34.3574 31.0747 34.3628 30.7926 34.3923 30.5107C34.4314 30.1377 34.5285 29.7818 34.6906 29.4437C34.7453 29.3298 34.812 29.224 34.8928 29.1272C35.3618 28.5656 35.9573 28.2267 36.6796 28.1098C37.0265 28.0537 37.3767 28.0394 37.7266 28.0205C37.8676 28.013 38.0087 28.0028 38.1499 28.0016C38.3172 28.0002 38.4845 28.0101 38.6518 28.0099C45.4078 28.0064 52.1639 28.0016 58.9198 28C59.2434 28 59.5684 28.0087 59.8881 28.0728C60.1886 28.1331 60.4707 28.2444 60.7311 28.4039C61.0118 28.576 61.234 28.8133 61.4232 29.0793C61.4826 29.163 61.5243 29.2638 61.554 29.3628C61.6318 29.6232 61.7117 29.8843 61.7656 30.1504C61.8184 30.4113 61.8493 30.6773 61.8743 30.9427C61.9619 31.8768 61.9568 32.8141 61.9527 33.7508C61.9487 34.693 61.9363 35.6349 61.9292 36.5771C61.9231 37.3779 61.9419 38.1784 61.9565 38.9792C61.9728 39.8634 61.9799 40.748 61.982 41.6325C61.9843 42.6635 61.9589 43.6945 61.9247 44.725C61.9167 44.9654 61.8952 45.2056 61.882 45.4457C61.8646 45.7645 61.8493 46.0834 61.8328 46.4022C61.8295 46.4663 61.8392 46.5245 61.8745 46.5816C62.3223 47.3022 62.7095 48.0568 63.1089 48.8041C63.5529 49.6346 63.9889 50.4695 64.4286 51.3023C64.6046 51.636 64.7543 51.9801 64.8797 52.3369C65.1049 52.9781 65.0852 53.6068 64.8332 54.2361C64.5785 54.8726 64.1215 55.3095 63.5149 55.6034C63.4497 55.6349 63.3783 55.6568 63.3073 55.6733C62.9449 55.7572 62.5789 55.8209 62.2059 55.8256C61.8974 55.8296 61.5887 55.8244 61.2799 55.8263C59.8566 55.8348 58.4332 55.8442 57.0098 55.8536C54.0584 55.8732 51.107 55.8927 48.1556 55.9123C48.1556 55.9111 48.1556 55.9097 48.1556 55.9085L48.1553 55.9078ZM35.1028 46.204C35.1825 46.205 35.2444 46.2066 35.3066 46.2064C37.1903 46.1993 39.0742 46.1925 40.9578 46.185C43.7101 46.1736 46.4626 46.1626 49.2149 46.1501C51.9358 46.1378 54.6567 46.1232 57.3776 46.1107C58.597 46.1051 59.816 46.1027 61.0353 46.098C61.1023 46.0978 61.1708 46.1081 61.2439 46.0806C61.2502 46.0471 61.2606 46.0125 61.2628 45.9771C61.2858 45.58 61.3167 45.1834 61.3282 44.7858C61.3542 43.8861 61.382 42.9861 61.3876 42.0861C61.3938 41.1025 61.3839 40.1184 61.3664 39.1347C61.3455 37.9574 61.3287 36.7802 61.3445 35.6024C61.3591 34.5193 61.3615 33.4357 61.353 32.3526C61.348 31.7147 61.3186 31.0765 61.2144 30.4445C61.1675 30.1598 61.1065 29.8796 61.0122 29.607C60.9599 29.4559 60.8767 29.3242 60.7707 29.2066C60.4777 28.8818 60.1054 28.7025 59.6793 28.6393C59.4475 28.6049 59.2111 28.5957 58.9764 28.5856C58.7831 28.5774 58.5892 28.5854 58.3957 28.5854C56.5118 28.5861 54.6282 28.5863 52.7443 28.5873C48.7466 28.5889 44.7488 28.5896 40.7511 28.5936C39.7517 28.5946 38.7522 28.5793 37.753 28.6127C37.4029 28.6245 37.0527 28.6415 36.7067 28.7049C36.1774 28.802 35.737 29.0555 35.3854 29.4618C35.3276 29.5285 35.2753 29.6027 35.2353 29.681C35.1297 29.8867 35.0474 30.1035 35.0137 30.3321C34.9727 30.6106 34.9378 30.8897 34.943 31.1746C34.9614 32.1582 34.969 33.1421 34.9791 34.126C35.0012 36.2611 35.0231 38.3959 35.0444 40.531C35.0625 42.3468 35.0795 44.1628 35.0971 45.9788C35.0979 46.0462 35.1007 46.1136 35.103 46.204H35.1028ZM64.0947 51.9824C64.0824 51.9457 64.0772 51.9212 64.0664 51.8992C64.0299 51.8238 63.9926 51.7489 63.9537 51.6749C63.5475 50.9012 63.1443 50.1261 62.733 49.3551C62.3786 48.6903 62.0176 48.0288 61.6544 47.3687C61.541 47.1627 61.41 46.9662 61.2891 46.7642C61.2559 46.7088 61.2125 46.6846 61.1477 46.6867C61.0221 46.6904 60.8965 46.69 60.7709 46.6904C58.4579 46.7015 56.1447 46.7138 53.8317 46.7234C49.1008 46.7435 44.3699 46.7623 39.639 46.7814C38.1266 46.7875 36.6141 46.7934 35.1016 46.7993C35.0496 46.7993 34.9975 46.7993 34.9525 46.7993C34.8768 46.8931 32.1227 51.6973 31.9959 51.9546C31.9874 51.9716 31.9857 51.9921 31.9787 52.0197C32.0527 52.0409 32.1201 52.0324 32.1863 52.0322C38.0476 52.0244 43.9089 52.015 49.7703 52.0081C54.25 52.0029 58.7299 52.0006 63.2095 51.997C63.4556 51.997 63.7014 51.9956 63.9474 51.9937C63.9926 51.9933 64.0379 51.9869 64.0947 51.9822V51.9824ZM64.3108 52.5947C64.171 52.5749 35.1669 52.5987 31.8521 52.6204C31.7951 52.6208 31.7383 52.6237 31.6794 52.6253C31.6624 52.6661 31.6443 52.6984 31.6355 52.7328C31.6205 52.7936 31.6058 52.8553 31.6004 52.9173C31.586 53.0898 31.5886 53.2625 31.619 53.4336C31.7131 53.9632 31.9412 54.4246 32.3147 54.8141C32.5261 55.0345 32.7759 55.1912 33.0636 55.2864C33.3186 55.3708 33.5818 55.4122 33.8503 55.4103C37.0529 55.3894 40.2555 55.3668 43.4579 55.346C46.8333 55.3243 50.2084 55.3038 53.5837 55.2831C56.0537 55.268 58.5237 55.2522 60.9936 55.2393C61.3756 55.2371 61.7574 55.247 62.1394 55.2527C62.2073 55.2536 62.2749 55.2657 62.3428 55.2642C62.4733 55.2616 62.6041 55.255 62.7347 55.2468C62.7811 55.244 62.8287 55.2369 62.8728 55.2225C63.1688 55.1271 63.4438 54.9897 63.6919 54.8007C63.9167 54.6296 64.0942 54.4187 64.2125 54.1623C64.2714 54.0346 64.323 53.9019 64.3643 53.7673C64.4321 53.5456 64.4592 53.3172 64.4416 53.0849C64.4284 52.9112 64.3798 52.7476 64.3103 52.5942L64.3108 52.5947Z" stroke="#F2F3FA" stroke-width="0.4" mask="url(#path-2-outside-1_8248_108385)"/>
<path d="M53.9104 31.6612C53.9106 31.6645 53.9108 31.6681 53.911 31.6722C53.9111 31.6736 53.9112 31.6751 53.9113 31.6766C53.9121 31.6876 53.913 31.7022 53.9131 31.7166L53.8131 31.7171L53.9131 31.7163C53.915 31.9537 53.9175 32.1898 53.92 32.4261C53.9222 32.6391 53.9245 32.8523 53.9263 33.0665L53.9263 33.0666C53.9298 33.502 53.933 33.9373 53.9362 34.3725C53.9403 34.9315 53.9444 35.4905 53.9492 36.0498L53.9492 36.0498C53.9564 36.9245 53.9647 37.7992 53.9729 38.674C53.9744 38.825 53.9758 38.9761 53.9772 39.1272C53.9871 40.1779 53.9973 41.2284 54.0075 42.2791C54.0142 42.9764 54.021 43.6738 54.0276 44.3713L53.9276 44.3722M53.9104 31.6612L54.0283 44.4226C54.0281 44.4051 54.0278 44.388 54.0276 44.3712L53.9276 44.3722M53.9104 31.6612C53.9282 31.6604 53.95 31.6595 53.9759 31.6588C54.0439 31.6568 54.133 31.6556 54.2367 31.6552C54.4439 31.6544 54.7075 31.6565 54.9732 31.6607C55.2389 31.665 55.5062 31.6714 55.7207 31.6792C55.8672 31.6845 55.9849 31.6904 56.061 31.6961C56.0622 31.7427 56.0632 31.7866 56.0633 31.8312L56.0633 31.8313C56.0723 34.1551 56.081 36.4789 56.0895 38.8028L56.0895 38.8028C56.093 39.7422 56.0964 40.6817 56.0998 41.6213L56.0998 41.622C56.1031 42.5612 56.1065 43.5005 56.11 44.4398C56.11 44.4398 56.11 44.4398 56.11 44.4398L53.9104 31.6612ZM53.9276 44.3722C53.9278 44.3901 53.9281 44.408 53.9284 44.4259C53.9295 44.4971 53.9306 44.5682 53.9262 44.639L53.82 32.4276C53.8223 32.6408 53.8245 32.8541 53.8263 33.0674C53.8298 33.5026 53.833 33.9378 53.8362 34.373C53.8403 34.9322 53.8444 35.4914 53.8492 36.0506C53.8564 36.9254 53.8647 37.8002 53.8729 38.675C53.8744 38.826 53.8758 38.9771 53.8772 39.1281C53.8871 40.1788 53.8973 41.2295 53.9075 42.2801C53.9142 42.9775 53.921 43.6748 53.9276 44.3722ZM53.6093 30.9648C53.6699 30.9639 53.7305 30.9625 53.791 30.9611C53.9084 30.9584 54.0256 30.9556 54.1428 30.9561C54.509 30.9578 54.8755 30.9611 55.2417 30.9679C55.4008 30.9709 55.5599 30.9763 55.719 30.9816C55.837 30.9856 55.955 30.9896 56.0731 30.9926C56.1239 30.994 56.1747 30.9929 56.2256 30.9917C56.2637 30.9909 56.3018 30.9901 56.3399 30.9903C56.4876 30.9912 56.5998 31.0598 56.6835 31.1783C56.7233 31.2349 56.7487 31.2976 56.7504 31.368C56.7506 31.3797 56.7509 31.3914 56.7512 31.403C56.7522 31.4437 56.7532 31.4843 56.7532 31.525M53.6093 30.9648L56.7978 44.451C56.7977 44.4446 56.7977 44.4382 56.7977 44.4319C56.7971 44.2091 56.796 43.9863 56.795 43.7635C56.7941 43.5781 56.7932 43.3926 56.7926 43.2071L56.7532 31.525M53.6093 30.9648C53.51 30.9665 53.4245 31.0002 53.3594 31.0763C53.2723 31.1783 53.2126 31.2919 53.2192 31.4321M53.6093 30.9648L53.2834 31.0113C53.1871 31.1241 53.1112 31.2617 53.1193 31.4366M56.7532 31.525L56.8532 31.5247L56.8532 31.5248M56.7532 31.525H56.8532L56.8729 37.3657L56.8926 43.2068C56.8932 43.3918 56.8941 43.5773 56.895 43.7628C56.896 43.9858 56.8971 44.209 56.8977 44.4316L56.8977 44.4319C56.8977 44.4382 56.8977 44.4447 56.8978 44.4513C56.8979 44.512 56.898 44.5803 56.8897 44.6479C56.865 44.8498 56.7092 44.9986 56.51 45.0008L56.5098 45.0008C56.3117 45.0028 56.1494 44.8579 56.1205 44.6573L56.2194 44.643L56.1205 44.6573L56.8532 31.5248M56.8532 31.5248C56.8532 31.4829 56.8522 31.4406 56.8512 31.3998C56.8509 31.3884 56.8506 31.377 56.8504 31.3658L56.8503 31.3657C56.8481 31.2712 56.8137 31.1896 56.7652 31.1208L56.7652 31.1207C56.6657 30.9798 56.5251 30.8915 56.3405 30.8903L56.3404 30.8903C56.3008 30.8901 56.2612 30.8909 56.2231 30.8918C56.2168 30.8919 56.2106 30.8921 56.2044 30.8922C56.16 30.8931 56.1176 30.8938 56.0757 30.8927L56.0756 30.8927C55.9597 30.8897 55.8421 30.8857 55.724 30.8817C55.5638 30.8763 55.4026 30.8709 55.2435 30.8679L55.2435 30.8679C54.8767 30.8611 54.5097 30.8578 54.1432 30.8561L54.1432 30.8561C54.0248 30.8556 53.905 30.8584 53.7868 30.8611C53.7266 30.8625 53.6667 30.8639 53.6077 30.8648L53.6076 30.8648C53.4845 30.8669 53.37 30.91 53.2834 31.0113L56.8532 31.5248ZM53.2192 31.4321L53.1193 31.4366M53.2192 31.4321L53.1194 31.4368C53.1194 31.4368 53.1194 31.4367 53.1193 31.4366M53.2192 31.4321C53.2212 31.476 53.221 31.52 53.2208 31.564L53.1193 31.4366M53.1193 31.4366C53.1212 31.4784 53.121 31.5178 53.1208 31.5598C53.1207 31.5844 53.1206 31.6098 53.1209 31.6372L53.1193 31.4366ZM53.214 41.8975C53.2035 40.8431 53.193 39.7886 53.1836 38.734C53.1778 38.0949 53.173 37.4553 53.1682 36.8158C53.164 36.2617 53.1599 35.7077 53.1551 35.1541C53.1475 34.3029 53.139 33.4519 53.1305 32.6007C53.1273 32.2796 53.1241 31.9584 53.1209 31.6373L53.214 41.8975ZM53.214 41.8975C53.2187 42.366 53.2233 42.8346 53.2279 43.3031L53.214 41.8975ZM56.1895 38.8024C56.181 36.4786 56.1723 34.1547 56.1633 31.8309C56.1632 31.7819 56.1619 31.733 56.1607 31.6819C56.16 31.6572 56.1594 31.632 56.1589 31.6061C55.9345 31.5669 54.0005 31.5372 53.8348 31.5674L56.1895 38.8024ZM53.9829 44.8309C54.0096 44.771 54.0224 44.7052 54.026 44.6451L53.2715 44.7903C53.2955 44.8638 53.3368 44.9262 53.3955 44.972C53.454 45.0176 53.5246 45.0426 53.6012 45.0499L53.6012 45.0499C53.761 45.065 53.9149 44.9828 53.9828 44.8309L53.9829 44.8309ZM53.2314 43.701C53.2337 43.987 53.2361 44.2734 53.2401 44.5596L53.2279 43.3031C53.2291 43.4356 53.2303 43.5683 53.2314 43.701ZM53.2401 44.5596C53.2411 44.629 53.2458 44.7121 53.2715 44.7903L53.2401 44.5596Z" fill="#F2F3FA" stroke="#F2F3FA" stroke-width="0.2"/>
<path d="M51.3098 34.3316L51.2098 34.3324C51.2096 34.3124 51.21 34.2961 51.2103 34.2824C51.2106 34.2677 51.2108 34.2559 51.2103 34.2455C51.2048 34.2449 51.1992 34.2444 51.1933 34.2441L51.1932 34.2441C50.8824 34.2267 50.3669 34.2136 49.9026 34.2079C49.6706 34.205 49.452 34.204 49.2789 34.2052C49.1567 34.2061 49.0602 34.208 48.9977 34.2109L51.3108 34.2603C51.311 34.2728 51.3106 34.2852 51.3103 34.2975C51.31 34.309 51.3097 34.3203 51.3098 34.3316ZM51.3098 34.3316C51.3221 36.2522 51.3336 38.1731 51.3449 40.0937C51.3493 40.8343 51.3534 41.5748 51.3575 42.3154C51.3617 43.0559 51.3658 43.7965 51.3701 44.5371M51.3098 34.3316L51.2098 34.3322C51.2221 36.2528 51.2336 38.1737 51.2449 40.0943C51.2493 40.8344 51.2534 41.5745 51.2575 42.3146L51.2575 42.3159L51.2575 42.3169C51.2617 43.0571 51.2658 43.7974 51.2701 44.5377M51.3701 44.5371L51.2701 44.5374L51.2701 44.5377M51.3701 44.5371L51.2701 44.5377M51.3701 44.5371L51.2701 44.5377M51.2701 44.5377L51.2702 44.5446C51.2704 44.6039 51.2706 44.6731 51.2818 44.7411L51.2818 44.7412C51.3134 44.9326 51.4741 45.0699 51.6626 45.0711C51.8529 45.0724 52.0123 44.9366 52.0464 44.745L52.0464 44.7449C52.0579 44.6801 52.0579 44.6142 52.0579 44.5591L52.0579 44.5554C52.0579 44.2985 52.0567 44.0419 52.0553 43.7855C52.0419 41.3518 52.0284 38.9181 52.0145 36.4845C52.0105 35.7709 52.005 35.0572 51.9995 34.3436C51.9989 34.2564 51.9982 34.1693 51.9975 34.0822C51.9975 34.0822 51.9975 34.0822 51.9975 34.0822L51.8975 34.0829M51.2701 44.5377L51.2782 33.5515C51.4474 33.5572 51.5938 33.6187 51.7406 33.6849C51.8259 33.7233 51.8749 33.8013 51.8874 33.8951C51.8957 33.9571 51.8971 34.0203 51.8975 34.0829M51.8975 34.0829C51.8982 34.1701 51.8989 34.2573 51.8996 34.3445C51.905 35.0581 51.9105 35.7717 51.9145 36.485L51.8975 34.0829ZM48.3081 44.7394C48.345 44.9283 48.5028 45.0645 48.6915 45.0655C48.6916 45.0655 48.6916 45.0655 48.6916 45.0655L48.6921 44.9655L48.2379 38.0492C48.2487 39.3522 48.2605 40.6555 48.2723 41.9584L48.2723 41.9584C48.2787 42.6583 48.2857 43.3581 48.2928 44.0578C48.2945 44.2321 48.2963 44.4063 48.298 44.5805L48.298 44.5805C48.2981 44.5861 48.2981 44.5921 48.2981 44.5984C48.2982 44.6382 48.2984 44.6899 48.3081 44.7394ZM48.3081 44.7394L48.4062 44.7202L48.3081 44.7394C48.3081 44.7394 48.3081 44.7394 48.3081 44.7394ZM48.2261 36.2907L48.2261 36.2907C48.2224 35.8375 48.2179 35.3844 48.2134 34.9313C48.2106 34.6467 48.2078 34.362 48.2051 34.0773L48.2051 34.0772L48.2051 34.0768C48.2047 34.0249 48.2042 33.9707 48.2059 33.9162L48.2059 33.9161C48.2113 33.7529 48.2941 33.6298 48.3874 33.5329L48.2261 36.2907ZM48.2261 36.2907C48.2286 36.5836 48.2303 36.8766 48.232 37.1697M48.2261 36.2907L48.232 37.1697M48.6462 33.4168L48.6462 33.4168C48.6908 33.4118 48.7364 33.4116 48.7757 33.4114C48.7831 33.4113 48.7904 33.4113 48.7974 33.4112L48.7975 33.4112C49.6265 33.4041 50.4545 33.4235 51.2816 33.4516L48.6462 33.4168ZM48.6462 33.4168L48.6458 33.4168M48.6462 33.4168L48.6458 33.4168M48.6458 33.4168C48.5604 33.4266 48.463 33.4543 48.3875 33.5328L48.6458 33.4168ZM48.232 37.1697L48.232 37.1698M48.232 37.1697L48.232 37.1698M48.232 37.1698C48.2337 37.4629 48.2354 37.7561 48.2379 38.0492L48.232 37.1698ZM51.7817 33.5938C51.6351 33.5276 51.4726 33.458 51.2816 33.4516L51.7817 33.5938ZM48.3051 34.0763C48.3047 34.024 48.3042 33.9717 48.3058 33.9194L48.3051 34.0763Z" fill="#F2F3FA" stroke="#F2F3FA" stroke-width="0.2"/>
<path d="M42.0831 35.5735C42.0838 35.593 42.0837 35.6126 42.0837 35.6321C42.0836 35.6387 42.0836 35.6453 42.0836 35.6519M42.0831 35.5735L41.4928 35.9998C41.4962 38.768 41.4995 41.536 41.5027 44.3042L41.5029 44.5399C41.503 44.5582 41.5026 44.5766 41.5022 44.5951C41.5012 44.6396 41.5002 44.6842 41.506 44.7279C41.5142 44.789 41.5267 44.8531 41.5541 44.9075M42.0831 35.5735C42.0768 35.4021 41.9907 35.2864 41.8293 35.2344M42.0831 35.5735L41.5691 35.1823C41.6566 35.1865 41.7454 35.2073 41.8293 35.2344M42.0836 35.6519L42.0951 44.5844C42.0951 44.5985 42.0953 44.6126 42.0955 44.6267C42.096 44.6702 42.0965 44.7138 42.0921 44.7569C42.0871 44.8029 42.0777 44.8509 42.0581 44.8927M42.0836 35.6519H42.1836L41.8601 35.1392M42.0836 35.6519L42.1836 35.6518C42.1836 35.6462 42.1836 35.6403 42.1837 35.6341C42.1837 35.6142 42.1839 35.5917 42.1831 35.5699L42.1831 35.5698C42.1793 35.468 42.1514 35.3755 42.0945 35.2993C42.0375 35.223 41.9568 35.1704 41.8601 35.1392M42.0581 44.8927C42.0098 44.9959 41.9238 45.0536 41.8102 45.0574C41.6967 45.0612 41.605 45.0095 41.5541 44.9075M42.0581 44.8927L42.1487 44.9351C42.1487 44.9351 42.1487 44.9351 42.1487 44.935L42.0581 44.8927ZM41.5541 44.9075L41.4646 44.9521C41.4646 44.9522 41.4646 44.9522 41.4646 44.9523M41.5541 44.9075L41.4647 44.9524C41.4647 44.9523 41.4647 44.9523 41.4646 44.9523M41.4646 44.9523C41.4296 44.8823 41.4154 44.8045 41.4069 44.7413L41.4069 44.7412C41.3999 44.6891 41.4012 44.6314 41.4023 44.5845C41.4027 44.5682 41.403 44.5532 41.4029 44.5402L41.4029 44.54L41.4027 44.3045C41.3995 41.5363 41.3962 38.7682 41.3928 35.9999L41.3928 35.9998C41.3928 35.9575 41.3922 35.9157 41.3914 35.8681C41.3881 35.8678 41.3849 35.8674 41.3818 35.867C41.3281 35.8609 41.2819 35.8557 41.2337 35.8529L41.4646 44.9523ZM41.8601 35.1392L41.8293 35.2344M41.8601 35.1392L41.574 35.0824C41.6733 35.0872 41.7713 35.1105 41.86 35.1392L41.8293 35.2344M39.1502 35.9535V35.9535C39.1469 36.8796 39.1443 37.8059 39.1419 38.732C39.1408 39.1925 39.1396 39.6529 39.1385 40.1134C39.135 41.5262 39.1315 42.9392 39.1276 44.3519C39.1276 44.4308 39.1258 44.5178 39.1104 44.6036L39.1104 44.6037C39.0813 44.7662 38.951 44.8874 38.7988 44.9137L38.7987 44.9137C38.587 44.9501 38.3856 44.8146 38.3496 44.5962L38.3496 44.596C38.3368 44.5174 38.3372 44.4367 38.3376 44.3666C38.3376 44.3593 38.3377 44.352 38.3377 44.3449L38.4377 44.3452L38.3377 44.3451C38.3389 43.5846 38.341 42.8242 38.3431 42.0638L38.3431 42.0374C38.3431 42.0374 38.3431 42.0374 38.3431 42.0374C38.3437 41.7944 38.3444 41.5515 38.345 41.3085C38.3496 39.5107 38.3542 37.7128 38.3575 35.915L39.1502 35.9535ZM39.1502 35.9535C39.1504 35.9017 39.1508 35.8709 39.1532 35.8496L39.1502 35.9535ZM38.4206 35.5026L38.4206 35.5025C38.4729 35.3097 38.6027 35.1658 38.8033 35.1096L38.4206 35.5026ZM38.4206 35.5026C38.3856 35.6322 38.3577 35.7699 38.3575 35.915L38.4206 35.5026ZM40.1125 35.0238L40.1125 35.0238C40.5335 35.0306 40.9545 35.0516 41.3734 35.0724C41.4403 35.0758 41.5072 35.0791 41.574 35.0824L40.1125 35.0238ZM40.1125 35.0238C39.8369 35.0195 39.5604 35.0338 39.2882 35.0479C39.2313 35.0508 39.1746 35.0537 39.1182 35.0565L40.1125 35.0238ZM39.1181 35.0565C39.0111 35.0616 38.9042 35.0813 38.8033 35.1095L39.1181 35.0565Z" fill="#F2F3FA" stroke="#F2F3FA" stroke-width="0.2"/>
<path d="M46.2951 37.7241C46.2065 37.7143 46.0744 37.706 45.9133 37.6997C45.6953 37.6912 45.4323 37.6867 45.1707 37.6862C44.9092 37.6858 44.6501 37.6893 44.4398 37.6968C44.2749 37.7027 44.1467 37.711 44.0705 37.7203C44.0705 37.7283 44.071 37.7373 44.0717 37.749C44.0718 37.7499 44.0719 37.7509 44.0719 37.7518L46.2951 37.7241ZM46.2951 37.7241V37.7244V37.7248V37.7251V37.7255V37.7258V37.7262V37.7265V37.7268V37.7272V37.7275V37.7279V37.7282V37.7286V37.7289V37.7293V37.7296V37.73V37.7303V37.7306V37.731V37.7313V37.7317V37.732V37.7324V37.7327V37.733V37.7334V37.7337V37.7341V37.7344V37.7348V37.7351V37.7354V37.7358V37.7361V37.7365V37.7368V37.7372V37.7375V37.7378V37.7382V37.7385V37.7389V37.7392V37.7396V37.7399V37.7402V37.7406V37.7409V37.7413V37.7416V37.742V37.7423V37.7426V37.743V37.7433V37.7437V37.744V37.7443V37.7447V37.745V37.7454V37.7457V37.746V37.7464V37.7467V37.7471V37.7474V37.7477V37.7481V37.7484V37.7488V37.7491V37.7494V37.7498V37.7501V37.7505V37.7508V37.7511V37.7515V37.7518V37.7522V37.7525V37.7528V37.7532V37.7535V37.7539V37.7542V37.7545V37.7549V37.7552V37.7556V37.7559V37.7562V37.7566V37.7569V37.7572V37.7576V37.7579V37.7583V37.7586V37.7589V37.7593V37.7596V37.76V37.7603V37.7606V37.761V37.7613V37.7616V37.762V37.7623V37.7627V37.763V37.7633V37.7637V37.764V37.7643V37.7647V37.765V37.7654V37.7657V37.766V37.7664V37.7667V37.767V37.7674V37.7677V37.7681V37.7684V37.7687V37.7691V37.7694V37.7697V37.7701V37.7704V37.7708V37.7711V37.7714V37.7718V37.7721V37.7724V37.7728V37.7731V37.7734V37.7738V37.7741V37.7745V37.7748V37.7751V37.7755V37.7758V37.7761V37.7765V37.7768V37.7771V37.7775V37.7778V37.7781V37.7785V37.7788V37.7792V37.7795V37.7798V37.7802V37.7805V37.7808V37.7812V37.7815V37.7818V37.7822V37.7825V37.7828V37.7832V37.7835V37.7839V37.7842V37.7845V37.7849V37.7852V37.7855V37.7859V37.7862V37.7865V37.7869V37.7872V37.7875V37.7879V37.7882V37.7885V37.7889V37.7892V37.7895V37.7899V37.7902V37.7906V37.7909V37.7912V37.7916V37.7919V37.7922V37.7926V37.7929V37.7932V37.7936V37.7939V37.7942V37.7946V37.7949V37.7952V37.7956V37.7959V37.7962V37.7966V37.7969V37.7972V37.7976V37.7979V37.7982V37.7986V37.7989V37.7992V37.7996V37.7999V37.8003V37.8006V37.8009V37.8013V37.8016V37.8019V37.8023V37.8026V37.8029V37.8033V37.8036V37.8039V37.8043V37.8046V37.8049V37.8053V37.8056V37.8059V37.8063V37.8066V37.8069V37.8073V37.8076V37.8079V37.8083V37.8086V37.8089V37.8093V37.8096V37.8099V37.8103V37.8106V37.8109V37.8113V37.8116V37.8119V37.8123V37.8126V37.8129V37.8133V37.8136V37.814V37.8143V37.8146V37.815L46.2951 37.815L46.2951 37.8153L46.2914 39.1183L46.2878 40.4216C46.2878 40.4217 46.2878 40.4217 46.2878 40.4217C46.284 41.7877 46.2803 43.1538 46.277 44.5199C46.2767 44.5873 46.2768 44.6623 46.2868 44.7371L46.2868 44.7371C46.3037 44.8638 46.3752 44.9625 46.485 45.0226C46.485 45.0226 46.485 45.0226 46.485 45.0226L46.533 44.9348L46.2951 37.7241ZM44.0426 44.6134C44.0546 44.5472 44.0548 44.4805 44.0548 44.4238C44.0598 43.0316 44.0643 41.6394 44.0683 40.2471L44.0683 40.2471C44.0692 39.8966 44.0698 39.5462 44.0705 39.1958C44.0713 38.7298 44.0722 38.2639 44.0737 37.7978L43.278 44.6074C43.278 44.6074 43.278 44.6074 43.278 44.6074C43.309 44.799 43.4704 44.9385 43.6582 44.9398M44.0426 44.6134C44.0087 44.8028 43.8467 44.9415 43.6582 44.9398M44.0426 44.6134C44.0427 44.6134 44.0427 44.6134 44.0427 44.6133L43.9442 44.5957L44.0426 44.6134ZM43.6582 44.9398L43.6591 44.8398L43.6584 44.9398C43.6583 44.9398 43.6583 44.9398 43.6582 44.9398ZM47.0882 37.5363C47.0883 37.5261 47.0884 37.5155 47.0885 37.5047C47.0889 37.4531 47.0894 37.3953 47.0843 37.3387L47.0843 37.3386C47.0744 37.2309 47.0389 37.1361 46.9698 37.0641C46.9007 36.9921 46.8077 36.9529 46.7016 36.9383L46.7016 36.9383C46.6651 36.9333 46.6291 36.9318 46.5972 36.9308L46.5971 36.9308C46.4769 36.9274 46.3567 36.9237 46.2363 36.92C45.912 36.9102 45.587 36.9002 45.2621 36.8947L45.262 36.8947C44.9571 36.8898 44.652 36.8926 44.348 36.8987L44.348 36.8987C44.1515 36.9028 43.9507 36.917 43.7516 36.9609C43.7517 36.9609 43.7517 36.9609 43.7517 36.9609L47.0882 37.5363ZM43.2808 37.6048C43.2786 38.8662 43.2761 40.1274 43.2735 41.3889C43.2729 41.6358 43.2724 41.8827 43.2719 42.1297C43.2702 42.8824 43.2686 43.6352 43.2673 44.3879L43.2808 37.6048Z" fill="#F2F3FA" stroke="#F2F3FA" stroke-width="0.2"/>
<path d="M49.5991 50.8213C49.646 50.8211 49.6939 50.8197 49.7394 50.8096L47.8183 50.2315H47.818V50.1532C47.7847 50.1532 47.7513 50.1532 47.718 50.1532M49.5991 50.8213C48.4274 50.8303 47.2557 50.8388 46.0838 50.8456M49.5991 50.8213L49.5999 50.9213C48.4282 50.9303 47.2564 50.9388 46.0844 50.9456M49.5991 50.8213L45.8469 50.1815M46.0838 50.8456C46.0166 50.8461 45.9471 50.8409 45.8825 50.8237M46.0838 50.8456L46.0845 50.9456C46.0845 50.9456 46.0844 50.9456 46.0844 50.9456M46.0838 50.8456L46.0844 50.9456M45.8825 50.8237C45.7567 50.79 45.6768 50.6835 45.6721 50.5612C45.6672 50.4311 45.7442 50.3161 45.8752 50.2774M45.8825 50.8237L45.8825 50.8237L45.8825 50.8237ZM45.8752 50.2774C45.9391 50.2586 46.0088 50.2543 46.076 50.2541C46.5225 50.2528 46.9689 50.253 47.4154 50.2531C47.5163 50.2531 47.6171 50.2531 47.718 50.2532V50.2531V50.2531V50.253V50.253V50.253V50.2529V50.2529V50.2528V50.2528V50.2527V50.2527V50.2527V50.2526V50.2526V50.2525V50.2525V50.2524V50.2524V50.2524V50.2523V50.2523V50.2522V50.2522V50.2521V50.2521V50.2521V50.252V50.252V50.2519V50.2519V50.2518V50.2518V50.2518V50.2517V50.2517V50.2516V50.2516V50.2515V50.2515V50.2515V50.2514V50.2514V50.2513V50.2513V50.2512V50.2512V50.2512V50.2511V50.2511V50.251V50.251V50.2509V50.2509V50.2509V50.2508V50.2508V50.2507V50.2507V50.2506V50.2506V50.2506V50.2505V50.2505V50.2504V50.2504V50.2503V50.2503V50.2503V50.2502V50.2502V50.2501V50.2501V50.25V50.25V50.25V50.2499V50.2499V50.2498V50.2498V50.2497V50.2497V50.2497V50.2496V50.2496V50.2495V50.2495V50.2494V50.2494V50.2494V50.2493V50.2493V50.2492V50.2492V50.2491V50.2491V50.2491V50.249V50.249V50.2489V50.2489V50.2488V50.2488V50.2488V50.2487V50.2487V50.2486V50.2486V50.2485V50.2485V50.2485V50.2484V50.2484V50.2483V50.2483V50.2482V50.2482V50.2482V50.2481V50.2481V50.248V50.248V50.2479V50.2479V50.2479V50.2478V50.2478V50.2477V50.2477V50.2476V50.2476V50.2476V50.2475V50.2475V50.2474V50.2474V50.2473V50.2473V50.2473V50.2472V50.2472V50.2471V50.2471V50.247V50.247V50.247V50.2469V50.2469V50.2468V50.2468V50.2467V50.2467V50.2467V50.2466V50.2466V50.2465V50.2465V50.2465V50.2464V50.2464V50.2463V50.2463V50.2462V50.2462V50.2462V50.2461V50.2461V50.246V50.246V50.2459V50.2459V50.2459V50.2458V50.2458V50.2457V50.2457V50.2456V50.2456V50.2456V50.2455V50.2455V50.2454V50.2454V50.2453V50.2453V50.2453V50.2452V50.2452V50.2451V50.2451V50.245V50.245V50.245V50.2449V50.2449V50.2448V50.2448V50.2447V50.2447V50.2447V50.2446V50.2446V50.2445V50.2445V50.2444V50.2444V50.2444V50.2443V50.2443V50.2442V50.2442V50.2441V50.2441V50.2441V50.244V50.244V50.2439V50.2439V50.2439V50.2438V50.2438V50.2437V50.2437V50.2436V50.2436V50.2436V50.2435V50.2435V50.2434V50.2434V50.2433V50.2433V50.2433V50.2432V50.2432V50.2431V50.2431V50.243V50.243V50.243V50.2429V50.2429V50.2428V50.2428V50.2427V50.2427V50.2427V50.2426V50.2426V50.2425V50.2425V50.2424V50.2424V50.2424V50.2423V50.2423V50.2422V50.2422V50.2422V50.2421V50.2421V50.242V50.242V50.2419V50.2419V50.2419V50.2418V50.2418V50.2417V50.2417V50.2416V50.2416V50.2416V50.2415V50.2415V50.2414V50.2414V50.2413V50.2413V50.2413V50.2412V50.2412V50.2411V50.2411V50.241V50.241V50.241V50.2409V50.2409V50.2408V50.2408V50.2408V50.2407V50.2407V50.2406V50.2406V50.2405V50.2405V50.2405V50.2404V50.2404V50.2403V50.2403V50.2402V50.2402V50.2402V50.2401V50.2401V50.24V50.24V50.2399V50.2399V50.2399V50.2398V50.2398V50.2397V50.2397V50.2397V50.2396V50.2396V50.2395V50.2395V50.2394V50.2394V50.2394V50.2393V50.2393V50.2392V50.2392V50.2391V50.2391V50.2391V50.239V50.239V50.2389V50.2389V50.2388V50.2388V50.2388V50.2387V50.2387V50.2386V50.2386V50.2386V50.2385V50.2385V50.2384V50.2384V50.2383V50.2383V50.2383V50.2382V50.2382V50.2381V50.2381V50.238V50.238V50.238V50.2379V50.2379V50.2378V50.2378V50.2378V50.2377V50.2377V50.2376V50.2376V50.2375V50.2375V50.2375V50.2374V50.2374V50.2373V50.2373V50.2372V50.2372V50.2372V50.2371V50.2371V50.237V50.237V50.237V50.2369V50.2369V50.2368V50.2368V50.2367V50.2367V50.2367V50.2366V50.2366V50.2365V50.2365V50.2364V50.2364V50.2364V50.2363V50.2363V50.2362V50.2362V50.2362V50.2361V50.2361V50.236V50.236V50.2359V50.2359V50.2359V50.2358V50.2358V50.2357V50.2357V50.2357V50.2356V50.2356V50.2355V50.2355V50.2354V50.2354V50.2354V50.2353V50.2353V50.2352V50.2352V50.2351V50.2351V50.2351V50.235V50.235V50.2349V50.2349V50.2349V50.2348V50.2348V50.2347V50.2347V50.2346V50.2346V50.2346V50.2345V50.2345V50.2344V50.2344V50.2344V50.2343V50.2343V50.2342V50.2342V50.2341V50.2341V50.2341V50.234V50.234V50.2339V50.2339V50.2339V50.2338V50.2338V50.2337V50.2337V50.2336V50.2336V50.2336V50.2335V50.2335V50.2334V50.2334V50.2334V50.2333V50.2333V50.2332V50.2332V50.2331V50.2331V50.2331V50.233V50.233V50.2329V50.2329V50.2329V50.2328V50.2328V50.2327V50.2327V50.2326V50.2326V50.2326V50.2325V50.2325V50.2324V50.2324V50.2324V50.2323V50.2323V50.2322V50.2322V50.2321V50.2321V50.2321V50.232V50.232V50.2319V50.2319V50.2319V50.2318V50.2318V50.2317V50.2317V50.2316V50.2316V50.2316V50.2315V50.2315V50.1532M45.8752 50.2774L45.847 50.1815M45.8752 50.2774L45.8469 50.1815M47.718 50.1532C47.6172 50.1531 47.5164 50.1531 47.4155 50.1531C46.969 50.153 46.5224 50.1528 46.0757 50.1541L46.0757 50.1541C46.0058 50.1544 45.9247 50.1586 45.847 50.1815M47.718 50.1532V50.1315H47.818H47.8183C47.9332 50.1315 48.0482 50.1315 48.1631 50.1315C48.6235 50.1314 49.084 50.1314 49.5445 50.132L49.5484 50.132C49.6082 50.1319 49.6801 50.1319 49.7506 50.1455C49.7506 50.1455 49.7507 50.1455 49.7508 50.1456L45.847 50.1815M45.847 50.1815L45.8469 50.1815M45.8469 50.1815C45.6704 50.2336 45.5656 50.391 45.5722 50.565L45.5722 50.565C45.5785 50.7299 45.6873 50.8749 45.8567 50.9203L45.8568 50.9203C45.9331 50.9407 46.0123 50.9461 46.0844 50.9456" fill="#F2F3FA" stroke="#F2F3FA" stroke-width="0.2"/>
</g>
<defs>
<filter id="filter0_d_8248_108385" x="0.4" y="0.699999" width="95.2" height="95.2" filterUnits="userSpaceOnUse" color-interpolation-filters="sRGB">
<feFlood flood-opacity="0" result="BackgroundImageFix"/>
<feColorMatrix in="SourceAlpha" type="matrix" values="0 0 0 0 0 0 0 0 0 0 0 0 0 0 0 0 0 0 127 0" result="hardAlpha"/>
<feOffset dy="6.3"/>
<feGaussianBlur stdDeviation="9.8"/>
<feComposite in2="hardAlpha" operator="out"/>
<feColorMatrix type="matrix" values="0 0 0 0 0.245422 0 0 0 0 0.258826 0 0 0 0 0.384821 0 0 0 0.11 0"/>
<feBlend mode="normal" in2="BackgroundImageFix" result="effect1_dropShadow_8248_108385"/>
<feBlend mode="normal" in="SourceGraphic" in2="effect1_dropShadow_8248_108385" result="shape"/>
</filter>
</defs>
</svg>
