<svg width="96" height="96" viewBox="0 0 96 96" fill="none" xmlns="http://www.w3.org/2000/svg">
<g filter="url(#filter0_d_8248_108566)">
<rect x="20" y="14" width="56" height="56" rx="28" fill="#12163E"/>
<g clip-path="url(#clip0_8248_108566)">
<mask id="path-2-outside-1_8248_108566" maskUnits="userSpaceOnUse" x="32.5" y="27.5693" width="31" height="28" fill="black">
<rect fill="white" x="32.5" y="27.5693" width="31" height="28"/>
<path fill-rule="evenodd" clip-rule="evenodd" d="M43.533 28.5693C40.1232 28.5693 37.3476 31.3328 37.3476 34.7267C37.3476 37.1637 38.7789 39.2739 40.8485 40.2701C36.607 41.4331 33.5 45.2847 33.5 49.8722V54.7135C33.5 54.8452 33.5527 54.9715 33.6465 55.0646C33.7402 55.1577 33.8674 55.2101 34 55.2101H53.0631C53.1957 55.2101 53.3229 55.1577 53.4167 55.0646C53.5105 54.9715 53.5631 54.8452 53.5631 54.7135V50.0138C53.5631 49.9486 53.5502 49.884 53.5251 49.8238C53.5 49.7635 53.4631 49.7088 53.4167 49.6627C53.3703 49.6166 53.3151 49.58 53.2545 49.5551C53.1938 49.5301 53.1288 49.5173 53.0631 49.5173C52.9305 49.5173 52.8034 49.5696 52.7096 49.6627C52.6158 49.7558 52.5632 49.8821 52.5632 50.0138V54.217H34.5V49.8722C34.5 44.894 38.5192 40.9015 43.5311 40.9015C47.3637 40.9015 50.6141 43.242 51.9343 46.5642C51.983 46.6866 52.0787 46.7848 52.2003 46.8371C52.3219 46.8895 52.4594 46.8918 52.5827 46.8435C52.7059 46.7951 52.8048 46.7001 52.8575 46.5793C52.9103 46.4586 52.9126 46.322 52.8639 46.1995C51.7189 43.3181 49.2619 41.1024 46.2215 40.2682C48.2879 39.2711 49.7155 37.1622 49.7156 34.7267C49.7156 31.3328 46.9429 28.5693 43.533 28.5693ZM43.533 29.5624C46.4008 29.5624 48.7146 31.8679 48.7146 34.7267C48.7146 37.5854 46.4008 39.888 43.533 39.888C40.6652 39.888 38.3476 37.5854 38.3476 34.7267C38.3476 31.8679 40.6652 29.5624 43.533 29.5624ZM53.6237 31.1306C53.4916 31.1311 53.3651 31.1835 53.2718 31.2764C53.1784 31.3692 53.1259 31.495 53.1257 31.6262V31.6737H52.3649C52.3275 31.6734 52.2902 31.6773 52.2536 31.6853C52.2524 31.6857 52.2511 31.686 52.2498 31.6863C52.2162 31.6942 52.1834 31.7056 52.1521 31.7203C52.149 31.7218 52.1458 31.7234 52.1427 31.7251C52.1141 31.7393 52.087 31.7562 52.0616 31.7755C52.0565 31.779 52.0515 31.7825 52.0465 31.7862C51.9906 31.8316 51.9453 31.8885 51.9137 31.953C51.913 31.9546 51.9124 31.9562 51.9118 31.9578C51.8966 31.9895 51.8848 32.0226 51.8766 32.0568C51.8763 32.059 51.8759 32.0613 51.8756 32.0635C51.8672 32.0992 51.8628 32.1356 51.8624 32.1722V35.3318C51.8624 38.0883 53.9788 40.354 56.6826 40.6047V45.6758C56.6826 46.8066 55.7825 47.7027 54.6495 47.7027H50.5324C50.2977 46.4598 49.1952 45.511 47.8801 45.511C46.3953 45.511 45.1819 46.7208 45.1819 48.1973C45.1819 49.6739 46.3953 50.8837 47.8801 50.8837C49.1936 50.8837 50.2949 49.9366 50.5314 48.6958H54.6495C56.3207 48.6958 57.6797 47.3381 57.6797 45.6758V40.6047C60.384 40.3545 62.4999 38.0886 62.4999 35.3318V32.1722C62.5 32.1664 62.5 32.1606 62.4999 32.1547C62.4998 32.1473 62.4994 32.1399 62.499 32.1324C62.4987 32.1285 62.4984 32.1247 62.498 32.1208C62.497 32.1117 62.4957 32.1027 62.4942 32.0936C62.4939 32.0914 62.4936 32.0891 62.4932 32.0868C62.491 32.0764 62.4885 32.0661 62.4857 32.0558C62.4857 32.0552 62.4857 32.0545 62.4857 32.0539C62.4794 32.029 62.4713 32.0047 62.4613 31.9811C62.4601 31.9785 62.4588 31.976 62.4575 31.9734C62.4534 31.9639 62.449 31.9545 62.4443 31.9453C62.4437 31.9443 62.443 31.9433 62.4424 31.9424C62.4371 31.9318 62.4314 31.9215 62.4254 31.9113C62.4223 31.9067 62.4192 31.9022 62.4159 31.8977C62.4117 31.8912 62.4073 31.8847 62.4027 31.8783C62.4008 31.8757 62.399 31.8732 62.397 31.8706C62.391 31.8626 62.3847 31.8549 62.3781 31.8473C62.3769 31.846 62.3756 31.8447 62.3744 31.8434C62.3668 31.8351 62.359 31.827 62.3509 31.8192C62.3466 31.8152 62.3422 31.8113 62.3377 31.8075C62.3322 31.8022 62.3265 31.7971 62.3207 31.792C62.3176 31.7894 62.3144 31.7868 62.3112 31.7843C62.3042 31.7786 62.297 31.7731 62.2897 31.7678C62.2878 31.7665 62.2859 31.7652 62.284 31.7639C62.2751 31.7578 62.266 31.752 62.2566 31.7464C62.2563 31.7461 62.257 31.7468 62.2566 31.7464C62.2458 31.7399 62.2337 31.7328 62.2224 31.727C62.218 31.725 62.2136 31.7231 62.2092 31.7212C62.2088 31.7209 62.2095 31.7215 62.2092 31.7212C62.2017 31.7178 62.1933 31.7136 62.1857 31.7106C62.1832 31.7096 62.1807 31.7086 62.1782 31.7076C62.1316 31.6895 62.0825 31.6784 62.0326 31.6747C62.0196 31.6738 62.0066 31.6735 61.9935 31.6737H61.2328V31.6262C61.2325 31.495 61.18 31.3692 61.0867 31.2764C60.9934 31.1835 60.8668 31.1311 60.7347 31.1306C60.669 31.1303 60.6039 31.143 60.543 31.1677C60.4822 31.1925 60.4269 31.229 60.3803 31.275C60.3337 31.321 60.2966 31.3757 60.2713 31.436C60.246 31.4963 60.2329 31.5609 60.2328 31.6262V32.1722V32.7143C60.2325 32.7798 60.2453 32.8448 60.2705 32.9054C60.2956 32.966 60.3326 33.021 60.3792 33.0674C60.4259 33.1137 60.4813 33.1504 60.5424 33.1754C60.6034 33.2003 60.6688 33.213 60.7347 33.2128C60.8674 33.2123 60.9943 33.1595 61.0877 33.066C61.1811 32.9725 61.2333 32.846 61.2328 32.7143V32.6668H61.4955V35.3318C61.4955 37.7244 59.5769 39.6349 57.1772 39.6349C54.7774 39.6349 52.8589 37.7244 52.8589 35.3318V32.6668H53.1206V32.7143C53.1203 32.7795 53.133 32.8441 53.1579 32.9045C53.1828 32.9648 53.2194 33.0197 53.2657 33.066C53.3119 33.1123 53.3669 33.1491 53.4275 33.1743C53.488 33.1994 53.553 33.2125 53.6187 33.2128C53.6846 33.213 53.75 33.2003 53.811 33.1754C53.872 33.1504 53.9275 33.1137 53.9741 33.0674C54.0208 33.021 54.0578 32.966 54.0829 32.9054C54.108 32.8448 54.1208 32.7798 54.1206 32.7143V32.1722C54.1207 32.1664 54.1207 32.1606 54.1206 32.1547V31.6262C54.1204 31.5609 54.1074 31.4963 54.0821 31.436C54.0567 31.3758 54.0197 31.3211 53.9731 31.275C53.9265 31.229 53.8712 31.1925 53.8104 31.1678C53.7495 31.143 53.6844 31.1304 53.6187 31.1306L53.6237 31.1306ZM47.8367 46.5041C47.8518 46.5037 47.866 46.5041 47.8807 46.5041C48.8235 46.5041 49.5789 47.256 49.5789 48.1974C49.5789 49.1387 48.8235 49.8906 47.8807 49.8906C46.9379 49.8906 46.1835 49.1387 46.1835 48.1974C46.1835 47.2707 46.9145 46.5271 47.8367 46.5041Z"/>
</mask>
<path fill-rule="evenodd" clip-rule="evenodd" d="M43.533 28.5693C40.1232 28.5693 37.3476 31.3328 37.3476 34.7267C37.3476 37.1637 38.7789 39.2739 40.8485 40.2701C36.607 41.4331 33.5 45.2847 33.5 49.8722V54.7135C33.5 54.8452 33.5527 54.9715 33.6465 55.0646C33.7402 55.1577 33.8674 55.2101 34 55.2101H53.0631C53.1957 55.2101 53.3229 55.1577 53.4167 55.0646C53.5105 54.9715 53.5631 54.8452 53.5631 54.7135V50.0138C53.5631 49.9486 53.5502 49.884 53.5251 49.8238C53.5 49.7635 53.4631 49.7088 53.4167 49.6627C53.3703 49.6166 53.3151 49.58 53.2545 49.5551C53.1938 49.5301 53.1288 49.5173 53.0631 49.5173C52.9305 49.5173 52.8034 49.5696 52.7096 49.6627C52.6158 49.7558 52.5632 49.8821 52.5632 50.0138V54.217H34.5V49.8722C34.5 44.894 38.5192 40.9015 43.5311 40.9015C47.3637 40.9015 50.6141 43.242 51.9343 46.5642C51.983 46.6866 52.0787 46.7848 52.2003 46.8371C52.3219 46.8895 52.4594 46.8918 52.5827 46.8435C52.7059 46.7951 52.8048 46.7001 52.8575 46.5793C52.9103 46.4586 52.9126 46.322 52.8639 46.1995C51.7189 43.3181 49.2619 41.1024 46.2215 40.2682C48.2879 39.2711 49.7155 37.1622 49.7156 34.7267C49.7156 31.3328 46.9429 28.5693 43.533 28.5693ZM43.533 29.5624C46.4008 29.5624 48.7146 31.8679 48.7146 34.7267C48.7146 37.5854 46.4008 39.888 43.533 39.888C40.6652 39.888 38.3476 37.5854 38.3476 34.7267C38.3476 31.8679 40.6652 29.5624 43.533 29.5624ZM53.6237 31.1306C53.4916 31.1311 53.3651 31.1835 53.2718 31.2764C53.1784 31.3692 53.1259 31.495 53.1257 31.6262V31.6737H52.3649C52.3275 31.6734 52.2902 31.6773 52.2536 31.6853C52.2524 31.6857 52.2511 31.686 52.2498 31.6863C52.2162 31.6942 52.1834 31.7056 52.1521 31.7203C52.149 31.7218 52.1458 31.7234 52.1427 31.7251C52.1141 31.7393 52.087 31.7562 52.0616 31.7755C52.0565 31.779 52.0515 31.7825 52.0465 31.7862C51.9906 31.8316 51.9453 31.8885 51.9137 31.953C51.913 31.9546 51.9124 31.9562 51.9118 31.9578C51.8966 31.9895 51.8848 32.0226 51.8766 32.0568C51.8763 32.059 51.8759 32.0613 51.8756 32.0635C51.8672 32.0992 51.8628 32.1356 51.8624 32.1722V35.3318C51.8624 38.0883 53.9788 40.354 56.6826 40.6047V45.6758C56.6826 46.8066 55.7825 47.7027 54.6495 47.7027H50.5324C50.2977 46.4598 49.1952 45.511 47.8801 45.511C46.3953 45.511 45.1819 46.7208 45.1819 48.1973C45.1819 49.6739 46.3953 50.8837 47.8801 50.8837C49.1936 50.8837 50.2949 49.9366 50.5314 48.6958H54.6495C56.3207 48.6958 57.6797 47.3381 57.6797 45.6758V40.6047C60.384 40.3545 62.4999 38.0886 62.4999 35.3318V32.1722C62.5 32.1664 62.5 32.1606 62.4999 32.1547C62.4998 32.1473 62.4994 32.1399 62.499 32.1324C62.4987 32.1285 62.4984 32.1247 62.498 32.1208C62.497 32.1117 62.4957 32.1027 62.4942 32.0936C62.4939 32.0914 62.4936 32.0891 62.4932 32.0868C62.491 32.0764 62.4885 32.0661 62.4857 32.0558C62.4857 32.0552 62.4857 32.0545 62.4857 32.0539C62.4794 32.029 62.4713 32.0047 62.4613 31.9811C62.4601 31.9785 62.4588 31.976 62.4575 31.9734C62.4534 31.9639 62.449 31.9545 62.4443 31.9453C62.4437 31.9443 62.443 31.9433 62.4424 31.9424C62.4371 31.9318 62.4314 31.9215 62.4254 31.9113C62.4223 31.9067 62.4192 31.9022 62.4159 31.8977C62.4117 31.8912 62.4073 31.8847 62.4027 31.8783C62.4008 31.8757 62.399 31.8732 62.397 31.8706C62.391 31.8626 62.3847 31.8549 62.3781 31.8473C62.3769 31.846 62.3756 31.8447 62.3744 31.8434C62.3668 31.8351 62.359 31.827 62.3509 31.8192C62.3466 31.8152 62.3422 31.8113 62.3377 31.8075C62.3322 31.8022 62.3265 31.7971 62.3207 31.792C62.3176 31.7894 62.3144 31.7868 62.3112 31.7843C62.3042 31.7786 62.297 31.7731 62.2897 31.7678C62.2878 31.7665 62.2859 31.7652 62.284 31.7639C62.2751 31.7578 62.266 31.752 62.2566 31.7464C62.2563 31.7461 62.257 31.7468 62.2566 31.7464C62.2458 31.7399 62.2337 31.7328 62.2224 31.727C62.218 31.725 62.2136 31.7231 62.2092 31.7212C62.2088 31.7209 62.2095 31.7215 62.2092 31.7212C62.2017 31.7178 62.1933 31.7136 62.1857 31.7106C62.1832 31.7096 62.1807 31.7086 62.1782 31.7076C62.1316 31.6895 62.0825 31.6784 62.0326 31.6747C62.0196 31.6738 62.0066 31.6735 61.9935 31.6737H61.2328V31.6262C61.2325 31.495 61.18 31.3692 61.0867 31.2764C60.9934 31.1835 60.8668 31.1311 60.7347 31.1306C60.669 31.1303 60.6039 31.143 60.543 31.1677C60.4822 31.1925 60.4269 31.229 60.3803 31.275C60.3337 31.321 60.2966 31.3757 60.2713 31.436C60.246 31.4963 60.2329 31.5609 60.2328 31.6262V32.1722V32.7143C60.2325 32.7798 60.2453 32.8448 60.2705 32.9054C60.2956 32.966 60.3326 33.021 60.3792 33.0674C60.4259 33.1137 60.4813 33.1504 60.5424 33.1754C60.6034 33.2003 60.6688 33.213 60.7347 33.2128C60.8674 33.2123 60.9943 33.1595 61.0877 33.066C61.1811 32.9725 61.2333 32.846 61.2328 32.7143V32.6668H61.4955V35.3318C61.4955 37.7244 59.5769 39.6349 57.1772 39.6349C54.7774 39.6349 52.8589 37.7244 52.8589 35.3318V32.6668H53.1206V32.7143C53.1203 32.7795 53.133 32.8441 53.1579 32.9045C53.1828 32.9648 53.2194 33.0197 53.2657 33.066C53.3119 33.1123 53.3669 33.1491 53.4275 33.1743C53.488 33.1994 53.553 33.2125 53.6187 33.2128C53.6846 33.213 53.75 33.2003 53.811 33.1754C53.872 33.1504 53.9275 33.1137 53.9741 33.0674C54.0208 33.021 54.0578 32.966 54.0829 32.9054C54.108 32.8448 54.1208 32.7798 54.1206 32.7143V32.1722C54.1207 32.1664 54.1207 32.1606 54.1206 32.1547V31.6262C54.1204 31.5609 54.1074 31.4963 54.0821 31.436C54.0567 31.3758 54.0197 31.3211 53.9731 31.275C53.9265 31.229 53.8712 31.1925 53.8104 31.1678C53.7495 31.143 53.6844 31.1304 53.6187 31.1306L53.6237 31.1306ZM47.8367 46.5041C47.8518 46.5037 47.866 46.5041 47.8807 46.5041C48.8235 46.5041 49.5789 47.256 49.5789 48.1974C49.5789 49.1387 48.8235 49.8906 47.8807 49.8906C46.9379 49.8906 46.1835 49.1387 46.1835 48.1974C46.1835 47.2707 46.9145 46.5271 47.8367 46.5041Z" fill="white"/>
<path d="M40.8485 40.2701L40.875 40.3666L41.1326 40.2959L40.8919 40.18L40.8485 40.2701ZM33.5 54.7135H33.4V54.7135L33.5 54.7135ZM34 55.2101L34 55.3101H34V55.2101ZM53.0631 55.2101V55.3101H53.0631L53.0631 55.2101ZM53.5631 54.7135L53.6631 54.7135V54.7135H53.5631ZM53.5631 50.0138H53.6631H53.5631ZM53.0631 49.5173L53.0631 49.6173H53.0631L53.0631 49.5173ZM52.5632 50.0138H52.4632H52.5632ZM52.5632 54.217V54.317H52.6632V54.217H52.5632ZM34.5 54.217H34.4V54.317H34.5V54.217ZM43.5311 40.9015V40.8015V40.9015ZM51.9343 46.5642L51.8413 46.6011L51.8414 46.6012L51.9343 46.5642ZM52.5827 46.8435L52.6192 46.9366L52.6193 46.9366L52.5827 46.8435ZM52.8639 46.1995L52.9569 46.1626L52.9569 46.1626L52.8639 46.1995ZM46.2215 40.2682L46.178 40.1781L45.9378 40.294L46.195 40.3646L46.2215 40.2682ZM49.7156 34.7267L49.8156 34.7267V34.7267H49.7156ZM53.6237 31.1306L53.6241 31.2306L53.6237 31.0306L53.6237 31.1306ZM53.1257 31.6262L53.0257 31.626V31.6262H53.1257ZM53.1257 31.6737V31.7737H53.2257V31.6737H53.1257ZM52.3649 31.6737L52.3642 31.7737H52.3649V31.6737ZM52.2536 31.6853L52.2322 31.5876L52.2291 31.5884L52.2536 31.6853ZM52.2498 31.6863L52.2728 31.7837L52.2751 31.7831L52.2498 31.6863ZM52.1521 31.7203L52.1098 31.6296L52.1075 31.6308L52.1521 31.7203ZM52.1427 31.7251L52.1872 31.8147L52.1892 31.8136L52.1427 31.7251ZM52.0616 31.7755L52.1178 31.8584L52.1223 31.855L52.0616 31.7755ZM52.0465 31.7862L51.9873 31.7054L51.9834 31.7086L52.0465 31.7862ZM51.9137 31.953L51.8236 31.9088L51.8207 31.9161L51.9137 31.953ZM51.9118 31.9578L52.0022 32.0013L52.0051 31.9937L51.9118 31.9578ZM51.8766 32.0568L51.779 32.0334L51.7777 32.0417L51.8766 32.0568ZM51.8756 32.0635L51.9734 32.0867L51.9747 32.0772L51.8756 32.0635ZM51.8624 32.1722L51.7624 32.1712V32.1722H51.8624ZM56.6826 40.6047H56.7826V40.5135L56.6919 40.5051L56.6826 40.6047ZM50.5324 47.7027L50.4341 47.7213L50.4495 47.8027H50.5324V47.7027ZM50.5314 48.6958V48.5958H50.4486L50.4331 48.6771L50.5314 48.6958ZM57.6797 40.6047L57.6705 40.5051L57.5797 40.5135V40.6047H57.6797ZM62.4999 32.1722L62.3999 32.1704V32.1722H62.4999ZM62.4999 32.1547L62.5999 32.153L62.5999 32.1527L62.4999 32.1547ZM62.499 32.1324L62.5987 32.1259L62.5987 32.1252L62.499 32.1324ZM62.498 32.1208L62.5975 32.1112L62.5974 32.1098L62.498 32.1208ZM62.4942 32.0936L62.395 32.107L62.3956 32.1102L62.4942 32.0936ZM62.4932 32.0868L62.5923 32.0721L62.5911 32.0663L62.4932 32.0868ZM62.4857 32.0558L62.3857 32.0556L62.3856 32.0694L62.3893 32.0826L62.4857 32.0558ZM62.4857 32.0539L62.5857 32.0537L62.5856 32.0414L62.5827 32.0296L62.4857 32.0539ZM62.4613 31.9811L62.5534 31.9421L62.5516 31.9381L62.4613 31.9811ZM62.4575 31.9734L62.3656 32.0131L62.368 32.018L62.4575 31.9734ZM62.4443 31.9453L62.5339 31.8996L62.5283 31.8911L62.4443 31.9453ZM62.4424 31.9424L62.3525 31.9875L62.3587 31.9971L62.4424 31.9424ZM62.4254 31.9113L62.5114 31.8601L62.5084 31.8556L62.4254 31.9113ZM62.4159 31.8977L62.3319 31.9522L62.3348 31.9562L62.4159 31.8977ZM62.4027 31.8783L62.3214 31.9366L62.3215 31.9366L62.4027 31.8783ZM62.397 31.8706L62.4772 31.8108L62.4765 31.8099L62.397 31.8706ZM62.3781 31.8473L62.454 31.7819L62.4502 31.778L62.3781 31.8473ZM62.3744 31.8434L62.3001 31.9105L62.3031 31.9136L62.3744 31.8434ZM62.3509 31.8192L62.4205 31.7473L62.4183 31.7453L62.3509 31.8192ZM62.3377 31.8075L62.2685 31.88L62.273 31.8838L62.3377 31.8075ZM62.3207 31.792L62.3864 31.7166L62.3851 31.7155L62.3207 31.792ZM62.3112 31.7843L62.2483 31.862L62.2488 31.8624L62.3112 31.7843ZM62.2897 31.7678L62.3483 31.6867L62.3468 31.6857L62.2897 31.7678ZM62.284 31.7639L62.2276 31.8465L62.2281 31.8468L62.284 31.7639ZM62.2224 31.727L62.2675 31.6377L62.264 31.6361L62.2224 31.727ZM62.1857 31.7106L62.2231 31.6178L62.2224 31.6175L62.1857 31.7106ZM62.1782 31.7076L62.1418 31.8008L62.143 31.8013L62.1782 31.7076ZM62.0326 31.6747L62.04 31.5749L62.039 31.5749L62.0326 31.6747ZM61.9935 31.6737V31.7737L61.9949 31.7737L61.9935 31.6737ZM61.2328 31.6737H61.1328V31.7737H61.2328V31.6737ZM61.2328 31.6262H61.3328V31.626L61.2328 31.6262ZM60.7347 31.1306L60.7344 31.2306H60.7344L60.7347 31.1306ZM60.2328 31.6262L60.1328 31.626V31.6262H60.2328ZM60.2328 32.7143L60.3328 32.7147V32.7143H60.2328ZM60.7347 33.2128L60.7344 33.1128H60.7344L60.7347 33.2128ZM61.2328 32.7143H61.1328L61.1328 32.7147L61.2328 32.7143ZM61.2328 32.6668V32.5668H61.1328V32.6668H61.2328ZM61.4955 32.6668H61.5955V32.5668H61.4955V32.6668ZM52.8589 32.6668V32.5668H52.7589V32.6668H52.8589ZM53.1206 32.6668H53.2206V32.5668H53.1206V32.6668ZM53.1206 32.7143L53.2206 32.7147V32.7143H53.1206ZM53.6187 33.2128L53.6183 33.3128H53.6183L53.6187 33.2128ZM54.1206 32.7143H54.0206L54.0206 32.7147L54.1206 32.7143ZM54.1206 32.1722L54.0206 32.1704V32.1722H54.1206ZM54.1206 32.1547H54.0206L54.0206 32.1565L54.1206 32.1547ZM54.1206 31.6262H54.2206V31.626L54.1206 31.6262ZM53.6187 31.1306L53.6183 31.0306L53.6186 31.2306L53.6187 31.1306ZM47.8367 46.5041L47.8343 46.4041L47.8342 46.4041L47.8367 46.5041ZM43.533 28.4693C40.0684 28.4693 37.2476 31.2771 37.2476 34.7267H37.4476C37.4476 31.3884 40.178 28.6693 43.533 28.6693V28.4693ZM37.2476 34.7267C37.2476 37.2039 38.7025 39.3481 40.8051 40.3602L40.8919 40.18C38.8552 39.1996 37.4476 37.1235 37.4476 34.7267H37.2476ZM40.8221 40.1737C36.5386 41.3481 33.4 45.2381 33.4 49.8722H33.6C33.6 45.3312 36.6754 41.518 40.875 40.3666L40.8221 40.1737ZM33.4 49.8722V54.7135H33.6V49.8722H33.4ZM33.4 54.7135C33.4 54.872 33.4634 55.0238 33.576 55.1356L33.7169 54.9937C33.642 54.9192 33.6 54.8185 33.6 54.7135L33.4 54.7135ZM33.576 55.1356C33.6886 55.2474 33.8411 55.3101 34 55.3101L34 55.1101C33.8937 55.1101 33.7919 55.0681 33.7169 54.9937L33.576 55.1356ZM34 55.3101H53.0631V55.1101H34V55.3101ZM53.0631 55.3101C53.222 55.3101 53.3746 55.2474 53.4872 55.1356L53.3462 54.9937C53.2713 55.0681 53.1694 55.1101 53.0631 55.1101L53.0631 55.3101ZM53.4872 55.1356C53.5997 55.0238 53.6631 54.872 53.6631 54.7135L53.4632 54.7135C53.4631 54.8185 53.4212 54.9193 53.3462 54.9937L53.4872 55.1356ZM53.6631 54.7135V50.0138H53.4632V54.7135H53.6631ZM53.6631 50.0138C53.6631 49.9354 53.6476 49.8577 53.6174 49.7853L53.4328 49.8623C53.4528 49.9103 53.4632 49.9618 53.4632 50.0138H53.6631ZM53.6174 49.7853C53.5872 49.7129 53.5429 49.6471 53.4872 49.5917L53.3462 49.7337C53.3833 49.7705 53.4127 49.8142 53.4328 49.8623L53.6174 49.7853ZM53.4872 49.5917C53.4314 49.5364 53.3653 49.4925 53.2925 49.4626L53.2164 49.6475C53.265 49.6675 53.3091 49.6968 53.3462 49.7337L53.4872 49.5917ZM53.2925 49.4626C53.2198 49.4327 53.1418 49.4173 53.0631 49.4173L53.0631 49.6173C53.1158 49.6173 53.1679 49.6276 53.2164 49.6475L53.2925 49.4626ZM53.0631 49.4173C52.9042 49.4173 52.7517 49.48 52.6391 49.5918L52.7801 49.7337C52.855 49.6592 52.9568 49.6173 53.0631 49.6173L53.0631 49.4173ZM52.6391 49.5918C52.5265 49.7036 52.4632 49.8554 52.4632 50.0138H52.6632C52.6632 49.9089 52.7051 49.8081 52.7801 49.7337L52.6391 49.5918ZM52.4632 50.0138V54.217H52.6632V50.0138H52.4632ZM52.5632 54.117H34.5V54.317H52.5632V54.117ZM34.6 54.217V49.8722H34.4V54.217H34.6ZM34.6 49.8722C34.6 44.9498 38.5738 41.0015 43.5311 41.0015V40.8015C38.4646 40.8015 34.4 44.8381 34.4 49.8722H34.6ZM43.5311 41.0015C47.3218 41.0015 50.536 43.3162 51.8413 46.6011L52.0272 46.5273C50.6923 43.1678 47.4056 40.8015 43.5311 40.8015V41.0015ZM51.8414 46.6012C51.9 46.7484 52.0149 46.8662 52.1607 46.929L52.2398 46.7453C52.1425 46.7034 52.066 46.6248 52.0272 46.5272L51.8414 46.6012ZM52.1607 46.929C52.3065 46.9918 52.4714 46.9945 52.6192 46.9366L52.5462 46.7504C52.4475 46.7891 52.3372 46.7872 52.2398 46.7453L52.1607 46.929ZM52.6193 46.9366C52.767 46.8785 52.8858 46.7645 52.9492 46.6194L52.7659 46.5393C52.7238 46.6356 52.6449 46.7117 52.5461 46.7504L52.6193 46.9366ZM52.9492 46.6194C53.0126 46.4742 53.0154 46.3099 52.9569 46.1626L52.771 46.2365C52.8098 46.3341 52.808 46.443 52.7659 46.5393L52.9492 46.6194ZM52.9569 46.1626C51.8003 43.252 49.3187 41.0143 46.2479 40.1717L46.195 40.3646C49.2052 41.1905 51.6376 43.3841 52.771 46.2365L52.9569 46.1626ZM46.2649 40.3582C48.3643 39.3453 49.8155 37.2023 49.8156 34.7267L49.6156 34.7267C49.6155 37.122 48.2114 39.197 46.178 40.1781L46.2649 40.3582ZM49.8156 34.7267C49.8156 31.2772 46.9977 28.4693 43.533 28.4693V28.6693C46.888 28.6693 49.6156 31.3884 49.6156 34.7267H49.8156ZM43.533 29.6624C46.3459 29.6624 48.6146 31.9235 48.6146 34.7267H48.8146C48.8146 31.8124 46.4557 29.4624 43.533 29.4624V29.6624ZM48.6146 34.7267C48.6146 37.5298 46.346 39.788 43.533 39.788V39.988C46.4557 39.988 48.8146 37.6411 48.8146 34.7267H48.6146ZM43.533 39.788C40.72 39.788 38.4476 37.5297 38.4476 34.7267H38.2476C38.2476 37.6411 40.6105 39.988 43.533 39.988V39.788ZM38.4476 34.7267C38.4476 31.9236 40.72 29.6624 43.533 29.6624V29.4624C40.6104 29.4624 38.2476 31.8123 38.2476 34.7267H38.4476ZM53.6233 31.0306C53.465 31.0312 53.3133 31.094 53.2012 31.2055L53.3423 31.3473C53.4169 31.273 53.5182 31.231 53.6241 31.2306L53.6233 31.0306ZM53.2012 31.2055C53.0892 31.317 53.026 31.4682 53.0257 31.626L53.2257 31.6264C53.2259 31.5218 53.2677 31.4215 53.3423 31.3473L53.2012 31.2055ZM53.0257 31.6262V31.6737H53.2257V31.6262H53.0257ZM53.1257 31.5737H52.3649V31.7737H53.1257V31.5737ZM52.3656 31.5737C52.3208 31.5734 52.276 31.5781 52.2322 31.5877L52.275 31.783C52.3043 31.7766 52.3342 31.7735 52.3642 31.7737L52.3656 31.5737ZM52.2291 31.5884C52.2276 31.5888 52.2261 31.5891 52.2246 31.5895L52.2751 31.7831C52.2761 31.7828 52.2771 31.7826 52.2781 31.7823L52.2291 31.5884ZM52.2269 31.589C52.1866 31.5985 52.1473 31.6121 52.1098 31.6297L52.1945 31.8108C52.2196 31.7991 52.2458 31.79 52.2728 31.7836L52.2269 31.589ZM52.1075 31.6308C52.1037 31.6327 52.0999 31.6346 52.0961 31.6366L52.1892 31.8136C52.1917 31.8123 52.1942 31.811 52.1968 31.8097L52.1075 31.6308ZM52.0982 31.6355C52.0639 31.6526 52.0313 31.6728 52.0009 31.696L52.1223 31.855C52.1426 31.8395 52.1643 31.826 52.1872 31.8147L52.0982 31.6355ZM52.0055 31.6927C51.9994 31.6969 51.9933 31.7012 51.9874 31.7055L52.1056 31.8668C52.1096 31.8639 52.1136 31.8611 52.1177 31.8583L52.0055 31.6927ZM51.9834 31.7086C51.9163 31.7631 51.8619 31.8314 51.8239 31.9089L52.0034 31.997C52.0287 31.9456 52.0649 31.9001 52.1096 31.8638L51.9834 31.7086ZM51.8207 31.9161C51.8199 31.9181 51.8191 31.9201 51.8184 31.922L52.0051 31.9937C52.0056 31.9924 52.0061 31.9911 52.0066 31.9898L51.8207 31.9161ZM51.8216 31.9145C51.8033 31.9526 51.7892 31.9924 51.7794 32.0335L51.9739 32.08C51.9804 32.0528 51.9898 32.0264 52.0019 32.0011L51.8216 31.9145ZM51.7777 32.0417C51.7773 32.0445 51.7769 32.0473 51.7766 32.0499L51.9747 32.0772C51.975 32.0753 51.9752 32.0735 51.9755 32.0718L51.7777 32.0417ZM51.7783 32.0405C51.7682 32.0834 51.7628 32.1272 51.7624 32.1712L51.9624 32.1732C51.9627 32.144 51.9662 32.115 51.9729 32.0866L51.7783 32.0405ZM51.7624 32.1722V35.3318H51.9624V32.1722H51.7624ZM51.7624 35.3318C51.7624 38.1408 53.919 40.4489 56.6734 40.7043L56.6919 40.5051C54.0386 40.2592 51.9624 38.0358 51.9624 35.3318H51.7624ZM56.5826 40.6047V45.6758H56.7826V40.6047H56.5826ZM56.5826 45.6758C56.5826 46.7511 55.7276 47.6027 54.6495 47.6027V47.8027C55.8374 47.8027 56.7826 46.8622 56.7826 45.6758H56.5826ZM54.6495 47.6027H50.5324V47.8027H54.6495V47.6027ZM50.6306 47.6842C50.3871 46.3947 49.244 45.411 47.8801 45.411V45.611C49.1463 45.611 50.2082 46.5248 50.4341 47.7213L50.6306 47.6842ZM47.8801 45.411C46.3404 45.411 45.0819 46.6652 45.0819 48.1973H45.2819C45.2819 46.7764 46.4501 45.611 47.8801 45.611V45.411ZM45.0819 48.1973C45.0819 49.7295 46.3404 50.9837 47.8801 50.9837V50.7837C46.4501 50.7837 45.2819 49.6183 45.2819 48.1973H45.0819ZM47.8801 50.9837C49.2424 50.9837 50.3843 50.0016 50.6296 48.7145L50.4331 48.6771C50.2055 49.8715 49.1448 50.7837 47.8801 50.7837V50.9837ZM50.5314 48.7958H54.6495V48.5958H50.5314V48.7958ZM54.6495 48.7958C56.3757 48.7958 57.7797 47.3935 57.7797 45.6758H57.5797C57.5797 47.2826 56.2658 48.5958 54.6495 48.5958V48.7958ZM57.7797 45.6758V40.6047H57.5797V45.6758H57.7797ZM57.6889 40.7043C60.4438 40.4494 62.5999 38.1411 62.5999 35.3318H62.3999C62.3999 38.0362 60.3242 40.2596 57.6705 40.5051L57.6889 40.7043ZM62.5999 35.3318V32.1722H62.3999V35.3318H62.5999ZM62.5999 32.174C62.6 32.167 62.6 32.16 62.5999 32.153L62.3999 32.1565C62.4 32.1611 62.4 32.1658 62.3999 32.1704L62.5999 32.174ZM62.5999 32.1527C62.5997 32.1437 62.5993 32.1348 62.5987 32.1259L62.3992 32.139C62.3996 32.1449 62.3998 32.1509 62.3999 32.1568L62.5999 32.1527ZM62.5987 32.1252C62.5984 32.1206 62.598 32.1159 62.5975 32.1112L62.3984 32.1304C62.3987 32.1334 62.399 32.1365 62.3992 32.1397L62.5987 32.1252ZM62.5974 32.1098C62.5962 32.0988 62.5946 32.0879 62.5928 32.0771L62.3956 32.1102C62.3968 32.1174 62.3978 32.1246 62.3986 32.1318L62.5974 32.1098ZM62.5933 32.0803C62.5929 32.0776 62.5926 32.0749 62.5921 32.0721L62.3943 32.1016C62.3946 32.1033 62.3948 32.1051 62.3951 32.107L62.5933 32.0803ZM62.5911 32.0663C62.5885 32.0538 62.5854 32.0414 62.582 32.029L62.3893 32.0826C62.3916 32.0908 62.3936 32.099 62.3954 32.1074L62.5911 32.0663ZM62.5857 32.056C62.5857 32.0552 62.5857 32.0545 62.5857 32.0537L62.3857 32.0541C62.3857 32.0546 62.3857 32.0551 62.3857 32.0556L62.5857 32.056ZM62.5827 32.0296C62.5752 31.9997 62.5654 31.9704 62.5534 31.9421L62.3692 32.0202C62.3772 32.039 62.3837 32.0584 62.3887 32.0782L62.5827 32.0296ZM62.5516 31.9381C62.5501 31.935 62.5486 31.9319 62.547 31.9288L62.368 32.018C62.369 32.02 62.37 32.0221 62.371 32.0242L62.5516 31.9381ZM62.5493 31.9337C62.5444 31.9223 62.5391 31.911 62.5334 31.8999L62.3552 31.9906C62.3589 31.998 62.3625 32.0055 62.3657 32.0131L62.5493 31.9337ZM62.5283 31.8911C62.5275 31.8898 62.5267 31.8886 62.5261 31.8876L62.3587 31.9971C62.3593 31.998 62.3598 31.9988 62.3602 31.9995L62.5283 31.8911ZM62.5317 31.8975C62.5254 31.8848 62.5186 31.8724 62.5113 31.8602L62.3395 31.9625C62.3443 31.9706 62.3488 31.9788 62.353 31.9873L62.5317 31.8975ZM62.5084 31.8556C62.5047 31.8501 62.5009 31.8446 62.4971 31.8393L62.3348 31.9562C62.3374 31.9598 62.3399 31.9634 62.3424 31.967L62.5084 31.8556ZM62.4999 31.8434C62.4948 31.8355 62.4895 31.8277 62.484 31.8201L62.3215 31.9366C62.3251 31.9417 62.3286 31.9469 62.332 31.9521L62.4999 31.8434ZM62.484 31.8201C62.4817 31.817 62.4795 31.8139 62.4772 31.8108L62.3169 31.9304C62.3184 31.9325 62.3199 31.9345 62.3214 31.9366L62.484 31.8201ZM62.4765 31.8099C62.4693 31.8004 62.4617 31.7911 62.4538 31.782L62.3024 31.9127C62.3077 31.9187 62.3127 31.9249 62.3175 31.9313L62.4765 31.8099ZM62.4502 31.778C62.4487 31.7764 62.4472 31.7748 62.4457 31.7733L62.3031 31.9136C62.3041 31.9146 62.3051 31.9156 62.3061 31.9167L62.4502 31.778ZM62.4486 31.7764C62.4395 31.7664 62.4302 31.7567 62.4204 31.7473L62.2814 31.8911C62.2879 31.8973 62.2941 31.9038 62.3001 31.9104L62.4486 31.7764ZM62.4183 31.7453C62.4131 31.7405 62.4078 31.7359 62.4024 31.7313L62.273 31.8838C62.2766 31.8868 62.2801 31.8899 62.2836 31.8931L62.4183 31.7453ZM62.4068 31.7353C62.4001 31.7289 62.3933 31.7227 62.3864 31.7166L62.255 31.8674C62.2596 31.8715 62.2642 31.8756 62.2686 31.8798L62.4068 31.7353ZM62.3851 31.7155C62.3813 31.7124 62.3776 31.7093 62.3737 31.7062L62.2488 31.8624C62.2513 31.8644 62.2538 31.8665 62.2563 31.8686L62.3851 31.7155ZM62.3742 31.7066C62.3657 31.6997 62.3571 31.6931 62.3483 31.6868L62.2311 31.8488C62.237 31.853 62.2427 31.8574 62.2483 31.862L62.3742 31.7066ZM62.3468 31.6857C62.3445 31.6841 62.3423 31.6825 62.34 31.681L62.2281 31.8468C62.2296 31.8478 62.2311 31.8488 62.2326 31.8499L62.3468 31.6857ZM62.3405 31.6813C62.3297 31.674 62.3188 31.667 62.3076 31.6604L62.2057 31.8325C62.2131 31.8369 62.2204 31.8416 62.2276 31.8464L62.3405 31.6813ZM62.327 31.6754C62.3269 31.6753 62.327 31.6754 62.327 31.6754C62.327 31.6754 62.3271 31.6755 62.3271 31.6755C62.3271 31.6755 62.3273 31.6757 62.3275 31.6759C62.3276 31.676 62.3277 31.6761 62.3278 31.6762C62.3279 31.6763 62.3283 31.6767 62.3288 31.6772C62.329 31.6774 62.3297 31.6781 62.3305 31.6791C62.3311 31.6797 62.3325 31.6813 62.3335 31.6825C62.3356 31.6852 62.3471 31.7039 62.3534 31.7214C62.3216 31.8223 62.2068 31.8331 62.1974 31.827C62.1952 31.8253 62.192 31.8227 62.1911 31.8219C62.1897 31.8207 62.1886 31.8198 62.1885 31.8196C62.1879 31.8191 62.1874 31.8186 62.1873 31.8185C62.1872 31.8184 62.187 31.8183 62.187 31.8182C62.1868 31.8181 62.1867 31.818 62.1867 31.8179C62.1864 31.8177 62.1862 31.8175 62.1864 31.8176C62.1865 31.8178 62.1863 31.8176 62.1861 31.8173C62.186 31.8173 62.1859 31.8172 62.1858 31.817C62.1857 31.817 62.1856 31.8168 62.1854 31.8167C62.1854 31.8166 62.1849 31.8161 62.1843 31.8155C62.1842 31.8154 62.1832 31.8143 62.182 31.813C62.1812 31.812 62.1786 31.8089 62.1769 31.8067C62.1706 31.7973 62.1801 31.6823 62.2808 31.6495C62.2981 31.6555 62.3169 31.6667 62.3196 31.6688C62.3207 31.6697 62.3224 31.6711 62.323 31.6717C62.324 31.6725 62.3247 31.6732 62.3249 31.6734C62.3254 31.6739 62.3258 31.6743 62.3259 31.6743C62.3261 31.6745 62.3262 31.6746 62.3263 31.6747C62.3265 31.6749 62.3266 31.675 62.3266 31.675C62.3267 31.6751 62.3267 31.6751 62.3267 31.6751C62.3268 31.6752 62.3268 31.6752 62.3268 31.6752L62.1865 31.8177C62.1865 31.8178 62.1866 31.8178 62.1867 31.8179C62.1867 31.8179 62.1867 31.818 62.1868 31.818C62.1868 31.818 62.187 31.8182 62.1872 31.8184C62.1873 31.8185 62.1874 31.8186 62.1875 31.8187C62.1876 31.8188 62.188 31.8192 62.1885 31.8197C62.1887 31.8198 62.1895 31.8205 62.1904 31.8214C62.191 31.8219 62.1927 31.8234 62.1938 31.8243C62.1966 31.8264 62.2153 31.8376 62.2327 31.8436C62.3334 31.8108 62.3429 31.6958 62.3366 31.6864C62.3349 31.6841 62.3323 31.681 62.3315 31.6801C62.3302 31.6787 62.3293 31.6777 62.3291 31.6776C62.3286 31.6769 62.3281 31.6765 62.328 31.6764C62.3279 31.6762 62.3277 31.6761 62.3277 31.676C62.3275 31.6759 62.3274 31.6758 62.3274 31.6758C62.3273 31.6757 62.3272 31.6756 62.3272 31.6756C62.3271 31.6755 62.3271 31.6755 62.3271 31.6755C62.3271 31.6754 62.327 31.6754 62.327 31.6754C62.327 31.6753 62.3269 31.6753 62.3269 31.6753C62.3268 31.6752 62.3268 31.6752 62.3268 31.6752C62.3267 31.6751 62.3267 31.6751 62.3267 31.6751C62.3267 31.675 62.3266 31.675 62.3266 31.675C62.3266 31.675 62.3265 31.6749 62.3264 31.6748C62.3263 31.6747 62.3262 31.6746 62.3261 31.6745C62.326 31.6744 62.3259 31.6743 62.3257 31.6741C62.3257 31.6741 62.3252 31.6736 62.3246 31.6731C62.3244 31.6729 62.3234 31.6719 62.322 31.6708C62.3211 31.6699 62.3179 31.6674 62.3157 31.6657C62.3063 31.6596 62.1915 31.6704 62.1597 31.7713C62.166 31.7888 62.1774 31.8075 62.1796 31.8102C62.1805 31.8113 62.182 31.813 62.1825 31.8136C62.1834 31.8146 62.1841 31.8153 62.1843 31.8155C62.1848 31.816 62.1852 31.8164 62.1852 31.8165C62.1854 31.8166 62.1855 31.8167 62.1856 31.8168C62.1858 31.817 62.186 31.8172 62.186 31.8172C62.186 31.8173 62.1861 31.8173 62.1861 31.8173C62.1862 31.8174 62.1862 31.8175 62.1863 31.8175L62.327 31.6754ZM62.3084 31.6609C62.2972 31.6541 62.2824 31.6453 62.2675 31.6378L62.1773 31.8163C62.185 31.8202 62.1943 31.8256 62.2049 31.832L62.3084 31.6609ZM62.264 31.6361C62.2587 31.6337 62.2534 31.6314 62.2481 31.6291L62.1702 31.8133C62.1738 31.8148 62.1773 31.8164 62.1808 31.818L62.264 31.6361ZM62.2802 31.6508C62.2801 31.6508 62.2802 31.6508 62.2802 31.6509C62.2802 31.6509 62.2803 31.6509 62.2803 31.651C62.2803 31.651 62.2805 31.6511 62.2807 31.6513C62.2808 31.6514 62.2809 31.6515 62.281 31.6517C62.2811 31.6518 62.2815 31.6522 62.282 31.6527C62.2821 31.6528 62.2828 31.6536 62.2837 31.6545C62.2842 31.6551 62.2856 31.6568 62.2865 31.6579C62.2887 31.6606 62.2999 31.6793 62.306 31.6967C62.2734 31.7977 62.1583 31.8073 62.149 31.8011C62.1468 31.7994 62.1438 31.7969 62.1428 31.796C62.1415 31.7949 62.1404 31.7939 62.1403 31.7937C62.1397 31.7932 62.1392 31.7927 62.1392 31.7927C62.139 31.7925 62.1389 31.7924 62.1388 31.7923C62.1387 31.7922 62.1386 31.7921 62.1385 31.792C62.1383 31.7918 62.1381 31.7916 62.1382 31.7917C62.1384 31.7919 62.1382 31.7917 62.1379 31.7914C62.1379 31.7914 62.1378 31.7913 62.1377 31.7911C62.1376 31.7911 62.1375 31.7909 62.1373 31.7908C62.1372 31.7907 62.1368 31.7902 62.1362 31.7896C62.1361 31.7895 62.1351 31.7884 62.1339 31.7871C62.1331 31.7862 62.1306 31.783 62.1289 31.7808C62.1227 31.7714 62.1333 31.6563 62.2346 31.6246C62.2518 31.6308 62.2703 31.6421 62.273 31.6442C62.2741 31.6452 62.2757 31.6466 62.2763 31.6471C62.2773 31.648 62.278 31.6487 62.2782 31.6488C62.2787 31.6493 62.2791 31.6497 62.2791 31.6498C62.2793 31.6499 62.2794 31.6501 62.2795 31.6501C62.2797 31.6503 62.2799 31.6505 62.2799 31.6505C62.2799 31.6505 62.2799 31.6506 62.28 31.6506C62.28 31.6506 62.28 31.6507 62.28 31.6506L62.1383 31.7918C62.1384 31.7919 62.1384 31.7919 62.1385 31.792C62.1385 31.792 62.1386 31.7921 62.1386 31.7921C62.1386 31.7921 62.1388 31.7923 62.139 31.7925C62.1391 31.7926 62.1392 31.7927 62.1394 31.7928C62.1394 31.7929 62.1398 31.7933 62.1403 31.7938C62.1405 31.7939 62.1412 31.7946 62.1422 31.7955C62.1428 31.796 62.1444 31.7975 62.1455 31.7984C62.1482 31.8005 62.1667 31.8118 62.1839 31.818C62.2853 31.7863 62.2958 31.6712 62.2896 31.6618C62.2879 31.6596 62.2854 31.6565 62.2846 31.6555C62.2834 31.6542 62.2824 31.6531 62.2823 31.653C62.2817 31.6524 62.2813 31.6519 62.2812 31.6519C62.281 31.6517 62.2809 31.6516 62.2808 31.6515C62.2807 31.6514 62.2806 31.6513 62.2806 31.6512C62.2805 31.6511 62.2804 31.651 62.2804 31.651C62.2803 31.651 62.2803 31.651 62.2803 31.6509C62.2803 31.6509 62.2802 31.6509 62.2802 31.6508C62.2802 31.6508 62.2801 31.6508 62.2801 31.6507C62.2801 31.6507 62.28 31.6507 62.28 31.6506C62.28 31.6506 62.2799 31.6506 62.2799 31.6505C62.2799 31.6505 62.2798 31.6505 62.2798 31.6504C62.2798 31.6504 62.2797 31.6503 62.2796 31.6503C62.2796 31.6502 62.2795 31.6501 62.2793 31.65C62.2793 31.6499 62.2791 31.6498 62.279 31.6496C62.2789 31.6495 62.2784 31.6491 62.2778 31.6485C62.2777 31.6484 62.2767 31.6474 62.2753 31.6462C62.2744 31.6454 62.2713 31.6428 62.2691 31.6412C62.2598 31.635 62.1447 31.6446 62.1121 31.7456C62.1182 31.7629 62.1295 31.7816 62.1316 31.7844C62.1325 31.7855 62.1339 31.7871 62.1345 31.7877C62.1353 31.7887 62.136 31.7894 62.1362 31.7896C62.1367 31.7901 62.137 31.7905 62.1371 31.7906C62.1373 31.7907 62.1374 31.7908 62.1374 31.7909C62.1376 31.7911 62.1378 31.7913 62.1378 31.7913C62.1379 31.7914 62.1379 31.7914 62.1379 31.7914C62.138 31.7915 62.1381 31.7916 62.1381 31.7916L62.2802 31.6508ZM62.251 31.6304C62.2477 31.6289 62.2336 31.622 62.2231 31.6178L62.1483 31.8033C62.153 31.8052 62.1558 31.8067 62.1673 31.812L62.251 31.6304ZM62.2224 31.6175C62.2194 31.6163 62.2163 31.6152 62.2133 31.614L62.143 31.8013C62.145 31.802 62.147 31.8028 62.149 31.8036L62.2224 31.6175ZM62.2145 31.6145C62.1586 31.5927 62.0998 31.5794 62.04 31.5749L62.0252 31.7744C62.0652 31.7774 62.1045 31.7863 62.1418 31.8008L62.2145 31.6145ZM62.039 31.5749C62.0234 31.5739 62.0078 31.5735 61.9921 31.5737L61.9949 31.7737C62.0054 31.7735 62.0158 31.7738 62.0263 31.7745L62.039 31.5749ZM61.9935 31.5737H61.2328V31.7737H61.9935V31.5737ZM61.3328 31.6737V31.6262H61.1328V31.6737H61.3328ZM61.3328 31.626C61.3325 31.4682 61.2693 31.317 61.1572 31.2055L61.0161 31.3473C61.0907 31.4215 61.1326 31.5218 61.1328 31.6264L61.3328 31.626ZM61.1572 31.2055C61.0452 31.094 60.8934 31.0312 60.7351 31.0306L60.7344 31.2306C60.8403 31.231 60.9415 31.273 61.0161 31.3473L61.1572 31.2055ZM60.7351 31.0306C60.6563 31.0303 60.5782 31.0454 60.5053 31.0751L60.5808 31.2604C60.6295 31.2405 60.6817 31.2304 60.7344 31.2306L60.7351 31.0306ZM60.5053 31.0751C60.4324 31.1048 60.366 31.1486 60.31 31.2038L60.4505 31.3462C60.4878 31.3094 60.532 31.2802 60.5808 31.2604L60.5053 31.0751ZM60.31 31.2038C60.254 31.2591 60.2095 31.3248 60.1791 31.3973L60.3635 31.4747C60.3837 31.4267 60.4133 31.383 60.4505 31.3462L60.31 31.2038ZM60.1791 31.3973C60.1487 31.4697 60.1329 31.5474 60.1328 31.626L60.3328 31.6264C60.3329 31.5743 60.3433 31.5228 60.3635 31.4747L60.1791 31.3973ZM60.1328 31.6262V32.1722H60.3328V31.6262H60.1328ZM60.1328 32.1722V32.7143H60.3328V32.1722H60.1328ZM60.1328 32.7139C60.1325 32.7927 60.1479 32.8708 60.1781 32.9437L60.3628 32.8671C60.3428 32.8187 60.3326 32.7669 60.3328 32.7147L60.1328 32.7139ZM60.1781 32.9437C60.2083 33.0165 60.2527 33.0827 60.3088 33.1383L60.4497 32.9964C60.4124 32.9594 60.3829 32.9154 60.3628 32.8671L60.1781 32.9437ZM60.3088 33.1383C60.3648 33.194 60.4313 33.238 60.5045 33.2679L60.5802 33.0828C60.5313 33.0628 60.487 33.0335 60.4497 32.9964L60.3088 33.1383ZM60.5045 33.2679C60.5777 33.2979 60.656 33.3131 60.7351 33.3128L60.7344 33.1128C60.6815 33.113 60.6291 33.1028 60.5802 33.0828L60.5045 33.2679ZM60.7351 33.3128C60.894 33.3122 61.0463 33.2489 61.1585 33.1367L61.017 32.9953C60.9423 33.07 60.8407 33.1124 60.7344 33.1128L60.7351 33.3128ZM61.1585 33.1367C61.2706 33.0244 61.3334 32.8723 61.3328 32.7139L61.1328 32.7147C61.1332 32.8196 61.0916 32.9206 61.017 32.9953L61.1585 33.1367ZM61.3328 32.7143V32.6668H61.1328V32.7143H61.3328ZM61.2328 32.7668H61.4955V32.5668H61.2328V32.7668ZM61.3955 32.6668V35.3318H61.5955V32.6668H61.3955ZM61.3955 35.3318C61.3955 37.6688 59.5221 39.5349 57.1772 39.5349V39.7349C59.6318 39.7349 61.5955 37.78 61.5955 35.3318H61.3955ZM57.1772 39.5349C54.8323 39.5349 52.9589 37.6688 52.9589 35.3318H52.7589C52.7589 37.78 54.7225 39.7349 57.1772 39.7349V39.5349ZM52.9589 35.3318V32.6668H52.7589V35.3318H52.9589ZM52.8589 32.7668H53.1206V32.5668H52.8589V32.7668ZM53.0206 32.6668V32.7143H53.2206V32.6668H53.0206ZM53.0206 32.7139C53.0203 32.7924 53.0355 32.8701 53.0655 32.9426L53.2504 32.8663C53.2305 32.8182 53.2204 32.7667 53.2206 32.7147L53.0206 32.7139ZM53.0655 32.9426C53.0954 33.0152 53.1394 33.0811 53.1949 33.1367L53.3364 32.9953C53.2994 32.9583 53.2702 32.9145 53.2504 32.8663L53.0655 32.9426ZM53.1949 33.1367C53.2505 33.1923 53.3164 33.2364 53.3891 33.2666L53.4659 33.0819C53.4174 33.0618 53.3734 33.0323 53.3364 32.9953L53.1949 33.1367ZM53.3891 33.2666C53.4617 33.2968 53.5396 33.3125 53.6183 33.3128L53.619 33.1128C53.5664 33.1126 53.5144 33.1021 53.4659 33.0819L53.3891 33.2666ZM53.6183 33.3128C53.6974 33.3131 53.7757 33.2979 53.8489 33.2679L53.7732 33.0828C53.7243 33.1028 53.6719 33.113 53.619 33.1128L53.6183 33.3128ZM53.8489 33.2679C53.9221 33.238 53.9886 33.1939 54.0446 33.1383L53.9037 32.9964C53.8664 33.0334 53.822 33.0628 53.7732 33.0828L53.8489 33.2679ZM54.0446 33.1383C54.1006 33.0827 54.1451 33.0165 54.1753 32.9437L53.9905 32.8671C53.9705 32.9154 53.941 32.9594 53.9037 32.9964L54.0446 33.1383ZM54.1753 32.9437C54.2055 32.8708 54.2209 32.7927 54.2206 32.7139L54.0206 32.7147C54.0208 32.7669 54.0106 32.8187 53.9905 32.8671L54.1753 32.9437ZM54.2206 32.7143V32.1722H54.0206V32.7143H54.2206ZM54.2206 32.174C54.2207 32.167 54.2207 32.16 54.2206 32.153L54.0206 32.1565C54.0207 32.1611 54.0207 32.1658 54.0206 32.1704L54.2206 32.174ZM54.2206 32.1547V31.6262H54.0206V32.1547H54.2206ZM54.2206 31.626C54.2204 31.5475 54.2047 31.4697 54.1743 31.3973L53.9899 31.4747C54.01 31.5228 54.0205 31.5743 54.0206 31.6264L54.2206 31.626ZM54.1743 31.3973C54.1438 31.3249 54.0993 31.2591 54.0434 31.2039L53.9028 31.3462C53.9401 31.383 53.9697 31.4267 53.9899 31.4747L54.1743 31.3973ZM54.0434 31.2039C53.9874 31.1486 53.921 31.1049 53.8481 31.0752L53.7726 31.2604C53.8213 31.2802 53.8656 31.3094 53.9028 31.3462L54.0434 31.2039ZM53.8481 31.0752C53.7752 31.0454 53.6971 31.0303 53.6183 31.0306L53.619 31.2306C53.6717 31.2304 53.7239 31.2405 53.7726 31.2604L53.8481 31.0752ZM53.6186 31.2306L53.6237 31.2306L53.6237 31.0306L53.6187 31.0306L53.6186 31.2306ZM47.8391 46.604C47.8528 46.6037 47.8625 46.6041 47.8807 46.6041V46.4041C47.8695 46.4041 47.8508 46.4037 47.8343 46.4041L47.8391 46.604ZM47.8807 46.6041C48.7686 46.6041 49.4789 47.3115 49.4789 48.1974H49.6789C49.6789 47.2004 48.8784 46.4041 47.8807 46.4041V46.6041ZM49.4789 48.1974C49.4789 49.0832 48.7686 49.7906 47.8807 49.7906V49.9906C48.8784 49.9906 49.6789 49.1943 49.6789 48.1974H49.4789ZM47.8807 49.7906C46.9929 49.7906 46.2835 49.0833 46.2835 48.1974H46.0835C46.0835 49.1942 46.883 49.9906 47.8807 49.9906V49.7906ZM46.2835 48.1974C46.2835 47.3252 46.971 46.6257 47.8392 46.604L47.8342 46.4041C46.8581 46.4284 46.0835 47.2161 46.0835 48.1974H46.2835Z" fill="white" mask="url(#path-2-outside-1_8248_108566)"/>
</g>
</g>
<defs>
<filter id="filter0_d_8248_108566" x="0.4" y="0.699999" width="95.2" height="95.2" filterUnits="userSpaceOnUse" color-interpolation-filters="sRGB">
<feFlood flood-opacity="0" result="BackgroundImageFix"/>
<feColorMatrix in="SourceAlpha" type="matrix" values="0 0 0 0 0 0 0 0 0 0 0 0 0 0 0 0 0 0 127 0" result="hardAlpha"/>
<feOffset dy="6.3"/>
<feGaussianBlur stdDeviation="9.8"/>
<feComposite in2="hardAlpha" operator="out"/>
<feColorMatrix type="matrix" values="0 0 0 0 0.245422 0 0 0 0 0.258826 0 0 0 0 0.384821 0 0 0 0.11 0"/>
<feBlend mode="normal" in2="BackgroundImageFix" result="effect1_dropShadow_8248_108566"/>
<feBlend mode="normal" in="SourceGraphic" in2="effect1_dropShadow_8248_108566" result="shape"/>
</filter>
<clipPath id="clip0_8248_108566">
<rect width="32" height="32" fill="white" transform="translate(32 26)"/>
</clipPath>
</defs>
</svg>
