<svg width="96" height="96" viewBox="0 0 96 96" fill="none" xmlns="http://www.w3.org/2000/svg">
<g filter="url(#filter0_d_8248_108422)">
<rect x="20" y="14" width="56" height="56" rx="28" fill="#848BCD"/>
<path d="M38.8943 43.8579C38.7655 43.9392 38.6638 44.0028 38.5625 44.0676C37.5538 44.7149 36.5443 45.3615 35.5369 46.0114C35.3733 46.1169 35.2039 46.2215 35.0648 46.3552C34.7591 46.6488 34.6894 47.0292 34.7915 47.4208C34.8783 47.7538 35.0004 48.0839 35.1528 48.3929C35.7067 49.5178 36.3662 50.5813 37.0979 51.5991C37.3043 51.886 37.5588 52.1132 37.9176 52.2029C38.3681 52.3158 38.7693 52.1858 39.1476 51.9612C40.0873 51.4027 41.022 50.8363 41.9593 50.2736C42.2499 50.0992 42.5394 49.9223 42.8342 49.7549C42.938 49.696 43.0539 49.6561 43.1672 49.6171C47.6171 48.0777 52.0671 46.5396 56.5174 45.0015C56.5743 44.982 56.6303 44.9608 56.7134 44.9309C56.6673 44.8457 56.627 44.7689 56.5838 44.6938C55.3173 42.4912 54.0504 40.2892 52.7842 38.0866C52.7319 37.9953 52.6771 37.9031 52.6418 37.8051C52.5575 37.5713 52.648 37.3337 52.8531 37.2212C53.0579 37.1091 53.3054 37.1614 53.4611 37.3566C53.5126 37.421 53.5529 37.4945 53.5944 37.5663C54.9668 39.9511 56.3388 42.3368 57.7108 44.722C57.7407 44.7744 57.7719 44.8263 57.7989 44.8798C57.948 45.1792 57.8645 45.4666 57.5738 45.6343C57.4966 45.6792 57.4089 45.7078 57.3238 45.7373C53.1949 47.1658 49.0656 48.5939 44.9363 50.022C44.8516 50.0514 44.7677 50.0821 44.663 50.1199C44.7 50.1893 44.7282 50.2466 44.7606 50.3018C45.055 50.8018 45.3619 51.2951 45.6418 51.803C45.9599 52.3794 46.2041 52.9877 46.327 53.6384C46.4021 54.0371 46.3921 54.4324 46.2676 54.8232C45.9727 55.7455 45.126 56.1952 44.1955 55.9232C43.894 55.8351 43.6278 55.6832 43.3782 55.4971C43.0003 55.2156 42.6773 54.8759 42.3895 54.5072C41.8787 53.8519 41.4452 53.1443 41.0358 52.4225C40.9731 52.3121 40.924 52.1942 40.8622 52.0663C40.7978 52.1011 40.7393 52.1302 40.6832 52.1634C40.3402 52.3686 40.0009 52.5795 39.655 52.7792C39.2464 53.0151 38.8158 53.1912 38.3349 53.2061C37.6929 53.2257 37.1348 53.0197 36.673 52.5704C36.5439 52.4446 36.428 52.305 36.2947 52.1597C36.2341 52.1892 36.1677 52.2195 36.1029 52.2527C35.551 52.538 34.9792 52.7709 34.3596 52.8552C33.6562 52.9512 33.0283 52.7988 32.5192 52.2664C31.8847 51.6028 31.8257 50.72 32.3755 49.9804C32.7277 49.5062 33.1878 49.1549 33.679 48.8397C33.8306 48.7425 33.9843 48.6487 34.1512 48.5445C34.0889 48.3775 34.0287 48.2168 33.9693 48.0557C33.843 47.7123 33.7779 47.3631 33.8074 46.9922C33.8493 46.4574 34.0773 46.0185 34.473 45.6755C34.7857 45.4047 35.1166 45.151 35.4621 44.9242C36.4073 44.3034 37.3653 43.7026 38.3154 43.0888C38.4728 42.9871 38.6235 42.8716 38.7626 42.7462C42.3866 39.4786 46.0089 36.2088 49.6312 32.9395C49.7038 32.8739 49.7732 32.8041 49.8467 32.7393C50.0726 32.5404 50.345 32.5466 50.5506 32.7672C50.6477 32.8714 50.7337 32.9885 50.808 33.1101C51.1302 33.6379 51.4467 34.1686 51.7631 34.6998C51.7975 34.7575 51.8246 34.8215 51.8433 34.8858C51.9001 35.0822 51.8229 35.2899 51.6576 35.4032C51.4799 35.5249 51.2552 35.5207 51.0925 35.375C51.0156 35.306 50.9546 35.2159 50.9006 35.1267C50.678 34.7592 50.4613 34.3879 50.2412 34.0188C50.2034 33.9552 50.1606 33.8946 50.1046 33.8078C46.6185 36.9538 43.1444 40.0894 39.6579 43.2354C39.6978 43.3126 39.7327 43.3853 39.7721 43.4555C40.4614 44.6855 41.1516 45.9146 41.8401 47.1446C41.8916 47.2364 41.9431 47.3302 41.9755 47.4295C42.0448 47.6421 41.953 47.8651 41.7641 47.9752C41.5839 48.0798 41.3518 48.0561 41.2023 47.9C41.1254 47.8198 41.0661 47.7202 41.0108 47.6222C40.3485 46.4466 39.6886 45.2693 39.028 44.0925C38.9877 44.0211 38.9462 43.9501 38.8939 43.8587L38.8943 43.8579ZM41.7043 51.5501C41.7977 51.7552 41.8621 51.9513 41.9688 52.1207C42.3301 52.6941 42.6943 53.2668 43.0817 53.8232C43.3184 54.1633 43.6049 54.4698 43.9459 54.7115C44.1153 54.8315 44.3059 54.9357 44.5027 54.9988C44.8926 55.1238 45.2016 54.9498 45.3386 54.5628C45.4296 54.3062 45.4271 54.0433 45.3752 53.7817C45.2726 53.2676 45.0841 52.7813 44.8299 52.3266C44.499 51.7353 44.1419 51.1585 43.7943 50.5763C43.7686 50.5331 43.7274 50.4991 43.6942 50.4613C43.4206 50.5319 43.1801 50.6365 42.9501 50.7919C42.5577 51.0568 42.142 51.2864 41.7047 51.5501H41.7043ZM34.5777 49.4182C34.1487 49.6736 33.7392 49.9252 33.3983 50.2703C33.2928 50.377 33.1919 50.4916 33.1089 50.6162C32.8884 50.9471 32.9224 51.2681 33.1849 51.5667C33.449 51.8673 33.7854 51.9533 34.1653 51.9064C34.7031 51.8395 35.1968 51.6386 35.6718 51.3873C35.6905 51.3774 35.7042 51.3587 35.7283 51.3358C35.3492 50.7042 34.9713 50.0743 34.5777 49.4182Z" fill="#F2F3FA"/>
<path d="M57.8213 39.2989C57.5252 39.2989 57.3263 39.1352 57.2939 38.8948C57.2611 38.6494 57.3973 38.4318 57.651 38.3662C57.869 38.3097 58.0937 38.2794 58.3159 38.2395C59.9972 37.9376 61.6786 37.6357 63.36 37.3347C63.4115 37.3255 63.4642 37.316 63.5165 37.3164C63.759 37.3185 63.9617 37.4858 63.999 37.7117C64.0368 37.9393 63.9039 38.1685 63.6722 38.2416C63.5223 38.2885 63.3641 38.3114 63.2088 38.3392C61.4614 38.6535 59.7136 38.9666 57.9658 39.2793C57.9068 39.2897 57.8466 39.2955 57.8213 39.2989Z" fill="#F2F3FA"/>
<path d="M53.1723 32.9786C53.1677 32.8694 53.2462 32.7498 53.3301 32.6323C53.7063 32.1049 54.0825 31.5779 54.4592 31.051C55.1028 30.1503 55.7465 29.2492 56.3909 28.3489C56.4433 28.2758 56.4964 28.2006 56.5608 28.1388C56.7319 27.9743 56.9752 27.9556 57.1617 28.0848C57.3444 28.211 57.4133 28.4539 57.3191 28.6682C57.2863 28.7434 57.2377 28.8123 57.1899 28.8796C56.1709 30.3081 55.151 31.7361 54.1294 33.1634C54.073 33.2423 54.0124 33.3233 53.938 33.3839C53.7852 33.5085 53.6095 33.5338 53.4306 33.442C53.2628 33.3561 53.1752 33.2136 53.1719 32.9782L53.1723 32.9786Z" fill="#F2F3FA"/>
<path d="M60.7691 32.8892C60.7168 32.9939 60.6745 33.1056 60.6089 33.2015C60.5636 33.2671 60.4893 33.3153 60.4224 33.3635C59.1264 34.2991 57.8295 35.2334 56.5319 36.1673C56.4646 36.2155 56.3961 36.2645 56.3218 36.2993C56.1058 36.3998 55.87 36.3404 55.7346 36.1594C55.5938 35.9713 55.6121 35.7188 55.7836 35.5394C55.8301 35.4908 55.8849 35.4493 55.9397 35.4095C57.2544 34.4614 58.5699 33.5138 59.8851 32.5662C60.003 32.4815 60.1247 32.4105 60.2775 32.4142C60.5325 32.42 60.7368 32.6218 60.7691 32.8901V32.8892Z" fill="#F2F3FA"/>
</g>
<defs>
<filter id="filter0_d_8248_108422" x="0.4" y="0.699999" width="95.2" height="95.2" filterUnits="userSpaceOnUse" color-interpolation-filters="sRGB">
<feFlood flood-opacity="0" result="BackgroundImageFix"/>
<feColorMatrix in="SourceAlpha" type="matrix" values="0 0 0 0 0 0 0 0 0 0 0 0 0 0 0 0 0 0 127 0" result="hardAlpha"/>
<feOffset dy="6.3"/>
<feGaussianBlur stdDeviation="9.8"/>
<feComposite in2="hardAlpha" operator="out"/>
<feColorMatrix type="matrix" values="0 0 0 0 0.245422 0 0 0 0 0.258826 0 0 0 0 0.384821 0 0 0 0.11 0"/>
<feBlend mode="normal" in2="BackgroundImageFix" result="effect1_dropShadow_8248_108422"/>
<feBlend mode="normal" in="SourceGraphic" in2="effect1_dropShadow_8248_108422" result="shape"/>
</filter>
</defs>
</svg>
