<svg width="96" height="96" viewBox="0 0 96 96" fill="none" xmlns="http://www.w3.org/2000/svg">
<g filter="url(#filter0_d_8248_108623)">
<rect x="20" y="13.5" width="56" height="56" rx="28" fill="#F2F3FA"/>
<path d="M34.5664 48.9176C35.7328 50.635 36.8863 52.3331 38.044 54.0376C38.2206 53.9557 38.376 53.8785 38.5361 53.8104C39.3723 53.4558 40.2281 53.3707 41.1039 53.643C43.1671 54.2846 45.229 54.9317 47.2923 55.5734C47.5788 55.6626 47.8718 55.7302 48.1606 55.8116C48.7079 55.9661 49.1968 55.8314 49.6572 55.526C51.1948 54.5049 52.7337 53.4862 54.2717 52.466C56.0466 51.2895 57.8215 50.1126 59.5973 48.937C59.7086 48.8634 59.8254 48.7981 59.9404 48.73C60.2554 48.5433 60.5249 48.306 60.6946 47.9799C60.782 47.8124 60.8538 47.6266 60.8818 47.4413C60.9701 46.8535 60.6541 46.3798 60.0778 46.2354C59.6175 46.1199 59.1837 46.1571 58.7648 46.4377C57.1683 47.5057 55.5595 48.5548 53.9543 49.6099C53.8568 49.6738 53.7584 49.74 53.6517 49.7851C53.4107 49.8867 53.1486 49.8039 53.011 49.5956C52.8721 49.3849 52.9002 49.1177 53.0874 48.931C53.1458 48.8726 53.2157 48.8243 53.2852 48.7783C54.624 47.8957 55.9592 47.008 57.3049 46.1365C57.7037 45.878 58.125 45.6526 58.5467 45.4337C59.152 45.12 59.8079 45.0593 60.4495 45.2424C61.5473 45.556 62.0698 46.5601 61.959 47.5255C61.8932 48.0976 61.6306 48.5704 61.2318 48.9751C60.9081 49.3035 60.5488 49.585 60.1634 49.8398C57.0354 51.9077 53.9111 53.9811 50.7859 56.053C50.5771 56.1915 50.3623 56.3221 50.1604 56.4697C49.5247 56.9356 48.8109 57.0511 48.0668 56.8736C47.3134 56.6937 46.572 56.4591 45.832 56.2283C44.494 55.8106 43.1616 55.3751 41.8251 54.9533C41.4355 54.8305 41.0418 54.716 40.6444 54.6226C40.0796 54.4897 39.5125 54.5017 38.9703 54.7248C38.6547 54.8545 38.3466 55.009 38.0545 55.1856C37.8112 55.3323 37.6461 55.261 37.4814 55.0872C37.4304 55.0329 37.3886 54.969 37.3467 54.9069C36.0534 52.9991 34.7601 51.0908 33.4677 49.1817C33.4258 49.1196 33.3862 49.0547 33.3545 48.9871C33.2754 48.8197 33.2832 48.6624 33.4309 48.5322C33.7749 48.2287 34.106 47.9081 34.4666 47.6257C35.4605 46.847 36.5221 46.1677 37.5974 45.5063C38.5582 44.9158 39.5824 44.7539 40.6771 44.9457C41.9948 45.1766 43.2798 45.5381 44.5575 45.9281C46.2491 46.4446 47.9426 46.9556 49.6319 47.4795C50.0376 47.605 50.4322 47.7665 50.8287 47.9196C52.2581 48.4734 52.5148 50.5826 51.1998 51.5209C50.7454 51.8451 50.2441 52.0194 49.6963 52.094C48.8707 52.2062 48.0608 52.0972 47.2605 51.9169C46.325 51.7058 45.3969 51.4611 44.466 51.2288C44.3942 51.2109 44.3229 51.181 44.2586 51.1437C44.03 51.0113 43.9357 50.7597 44.0184 50.521C44.1067 50.2671 44.3091 50.1447 44.5915 50.2073C45.1618 50.3338 45.7289 50.4745 46.2969 50.6097C47.0926 50.7988 47.8874 50.9952 48.7065 51.06C49.0924 51.0908 49.4746 51.0628 49.8527 50.9855C50.1447 50.9257 50.3981 50.7882 50.6336 50.6061C51.1961 50.1715 51.0609 49.1421 50.4294 48.9085C50.1089 48.7898 49.797 48.644 49.471 48.5437C47.4054 47.9095 45.3399 47.2748 43.2679 46.6603C42.3646 46.3927 41.4502 46.1599 40.5193 45.9989C39.6707 45.8522 38.8851 45.9658 38.1391 46.4253C36.9645 47.1488 35.8119 47.9008 34.738 48.7687C34.6865 48.8105 34.6373 48.8551 34.5655 48.9163L34.5664 48.9176Z" fill="#3F49A7"/>
<path d="M57.298 32.8879C56.6035 32.9105 55.9467 32.9316 55.2559 32.9541C55.2559 33.0737 55.2559 33.1791 55.2559 33.2848C55.2725 37.3447 55.2895 41.4045 55.3056 45.4648C55.3061 45.5899 55.3139 45.7168 55.2982 45.84C55.2486 46.2264 54.8691 46.4398 54.5412 46.2705C54.3825 46.1887 54.285 46.0567 54.2593 45.88C54.2459 45.7899 54.2464 45.697 54.2464 45.605C54.2289 41.5034 54.2124 37.4017 54.1958 33.3C54.1944 32.9997 54.1958 32.6989 54.2022 32.3985C54.2082 32.1046 54.3195 31.974 54.6061 31.9166C54.6792 31.9018 54.7551 31.8986 54.83 31.8963C55.8069 31.8632 56.7834 31.8315 57.7603 31.7993C58.0629 31.7892 58.2749 31.9492 58.3338 32.2449C58.3531 32.3424 58.3568 32.4441 58.3577 32.5434C58.3788 36.1438 58.3991 39.7446 58.4189 43.3449C58.4189 43.4199 58.4221 43.4958 58.4152 43.5703C58.3876 43.8683 58.1728 44.0753 57.8946 44.0767C57.6135 44.0785 57.3964 43.8771 57.3661 43.579C57.356 43.4797 57.3592 43.379 57.3583 43.2787C57.338 39.929 57.3183 36.5789 57.2985 33.2292C57.298 33.1234 57.2985 33.0172 57.2985 32.8884L57.298 32.8879Z" fill="#3F49A7"/>
<path d="M56.3163 28.1341C55.8987 28.6336 55.4811 29.1326 55.0639 29.6326C54.0093 30.8951 52.9556 32.158 51.9005 33.4205C51.8255 33.5102 51.7487 33.5986 51.6678 33.6823C51.4668 33.8906 51.2336 33.9435 50.96 33.8349C50.518 33.6597 50.0732 33.4918 49.6294 33.3207C48.6253 32.9339 47.6195 32.5517 46.6182 32.1571C46.4499 32.0909 46.334 32.1098 46.1895 32.2183C44.6088 33.4086 43.0229 34.5924 41.4376 35.7763C41.3511 35.8411 41.2619 35.906 41.1653 35.9525C40.9275 36.0661 40.6635 35.9985 40.5154 35.7975C40.3682 35.5974 40.3811 35.3215 40.5559 35.1292C40.6226 35.0556 40.704 34.9949 40.784 34.9351C42.448 33.6892 44.1162 32.4483 45.7752 31.195C46.0769 30.9668 46.3786 30.9356 46.7134 31.0625C47.2828 31.2782 47.8504 31.4989 48.4189 31.7174C49.2987 32.0555 50.1781 32.394 51.0855 32.7426C52.5375 31.0041 53.9909 29.2637 55.4783 27.4829C55.3725 27.4911 55.3123 27.4888 55.2557 27.5017C54.7512 27.6144 54.2475 27.733 53.7421 27.842C53.639 27.8641 53.5245 27.8729 53.4229 27.8512C53.1957 27.8034 53.0609 27.6466 53.0269 27.4189C52.9942 27.1995 53.0862 27.0229 53.2716 26.9084C53.3617 26.8527 53.4693 26.8173 53.5733 26.7934C54.5083 26.5782 55.4438 26.3671 56.3798 26.1564C56.4856 26.1325 56.5932 26.1136 56.7008 26.104C57.0237 26.0759 57.2642 26.2231 57.3392 26.54C57.404 26.8137 57.4487 27.0997 57.4491 27.3803C57.4501 28.1318 57.4229 28.8829 57.404 29.6344C57.4017 29.7342 57.3898 29.8349 57.3691 29.9324C57.3167 30.1794 57.1171 30.3436 56.8738 30.3505C56.6254 30.3574 56.4212 30.2107 56.3586 29.9614C56.3329 29.8584 56.3306 29.7471 56.3329 29.6395C56.3425 29.2136 56.3586 28.7881 56.371 28.3622C56.3733 28.2905 56.371 28.2183 56.371 28.1465C56.3526 28.1424 56.3342 28.1382 56.3154 28.1346L56.3163 28.1341Z" fill="#3F49A7"/>
<path d="M47.1841 37.2397H45.1494C45.1466 37.3515 45.142 37.448 45.142 37.5446C45.1452 39.7997 45.1489 42.0547 45.1521 44.3097C45.1521 44.3847 45.1553 44.4606 45.1484 44.5351C45.1231 44.8088 44.9276 45.0065 44.6673 45.0268C44.396 45.0479 44.1605 44.8722 44.1039 44.5977C44.0874 44.5172 44.0901 44.4316 44.0897 44.3484C44.0855 41.9181 44.0818 39.4874 44.0786 37.0571C44.0786 36.9651 44.0759 36.8731 44.0832 36.7816C44.1076 36.4693 44.3431 36.2182 44.6522 36.1736C44.7097 36.1653 44.7685 36.1658 44.827 36.1658C45.7289 36.1621 46.6308 36.1593 47.5332 36.1566C47.6081 36.1566 47.6845 36.1538 47.7581 36.1644C48.017 36.2026 48.1959 36.3842 48.2332 36.6432C48.2415 36.7007 48.2401 36.76 48.2405 36.818C48.2599 39.6741 48.2787 42.5307 48.2976 45.3869C48.298 45.4789 48.3017 45.5714 48.2902 45.662C48.2543 45.9471 48.0414 46.1394 47.7696 46.1394C47.4982 46.1394 47.2834 45.9471 47.2476 45.6629C47.2351 45.564 47.2393 45.4628 47.2388 45.3626C47.2204 42.7483 47.2025 40.1345 47.1845 37.5202C47.1841 37.4375 47.1845 37.3542 47.1845 37.2402L47.1841 37.2397Z" fill="#3F49A7"/>
<path d="M52.2218 39.1578C51.5029 39.1803 50.8282 39.202 50.1323 39.2236C50.1245 39.2903 50.1102 39.3533 50.1116 39.4163C50.135 40.9782 50.1604 42.5401 50.1848 44.1016C50.1949 44.7529 50.204 45.4046 50.2132 46.0559C50.2137 46.0977 50.2132 46.1396 50.2087 46.1809C50.1774 46.4606 49.9608 46.6676 49.6963 46.6726C49.442 46.6777 49.2184 46.4914 49.1674 46.2265C49.155 46.1616 49.1554 46.0936 49.1545 46.0269C49.1191 43.7134 49.0837 41.4 49.0487 39.0861C49.0478 39.0277 49.0469 38.9693 49.0469 38.9109C49.0464 38.4252 49.2828 38.1809 49.7846 38.1625C50.394 38.1404 51.0034 38.1262 51.6133 38.1083C51.9306 38.0991 52.2475 38.0866 52.5649 38.0806C52.673 38.0783 52.782 38.083 52.8891 38.0972C53.0653 38.1211 53.1826 38.2205 53.2042 38.4021C53.235 38.6588 53.2773 38.9164 53.2773 39.1735C53.2801 41.6295 53.2759 44.0855 53.2713 46.5411C53.2713 46.6404 53.2649 46.7435 53.2382 46.8377C53.1725 47.0695 52.9618 47.2213 52.7355 47.2172C52.5074 47.213 52.3013 47.0571 52.242 46.8249C52.2158 46.7214 52.213 46.6101 52.213 46.5025C52.2149 44.155 52.219 41.8079 52.2222 39.4604C52.2222 39.3707 52.2222 39.2806 52.2222 39.1569L52.2218 39.1578Z" fill="#3F49A7"/>
<path d="M42.0844 40.9876H40.3137C40.3008 41.0745 40.2856 41.1371 40.2838 41.2001C40.2635 41.8592 40.247 42.5183 40.2249 43.1769C40.2212 43.2841 40.2088 43.3949 40.1752 43.4961C40.1007 43.7228 39.8809 43.8663 39.6564 43.8535C39.4269 43.8401 39.2296 43.6787 39.1744 43.4473C39.1537 43.3595 39.1459 43.2656 39.1491 43.1746C39.1777 42.3071 39.2094 41.4397 39.2407 40.5728C39.243 40.5061 39.2462 40.4389 39.2558 40.3732C39.2912 40.14 39.4228 40.0029 39.6569 39.956C39.7139 39.9445 39.7728 39.9376 39.8307 39.9362C40.6903 39.9169 41.5495 39.9004 42.4091 39.8792C42.6731 39.8728 42.8769 39.9721 43.0282 40.1887C43.1133 40.3101 43.1501 40.4426 43.1491 40.5884C43.1418 41.7235 43.1363 42.8586 43.1266 43.9937C43.1257 44.0839 43.1091 44.1781 43.0802 44.2632C43.0052 44.484 42.778 44.6298 42.5554 44.6119C42.3245 44.5935 42.1272 44.426 42.0844 44.1942C42.0632 44.0806 42.0637 43.9615 42.0646 43.8452C42.0697 42.9773 42.0775 42.1094 42.0839 41.241C42.0844 41.1592 42.0839 41.0769 42.0839 40.9872L42.0844 40.9876Z" fill="#3F49A7"/>
</g>
<defs>
<filter id="filter0_d_8248_108623" x="0.4" y="0.199999" width="95.2" height="95.2" filterUnits="userSpaceOnUse" color-interpolation-filters="sRGB">
<feFlood flood-opacity="0" result="BackgroundImageFix"/>
<feColorMatrix in="SourceAlpha" type="matrix" values="0 0 0 0 0 0 0 0 0 0 0 0 0 0 0 0 0 0 127 0" result="hardAlpha"/>
<feOffset dy="6.3"/>
<feGaussianBlur stdDeviation="9.8"/>
<feComposite in2="hardAlpha" operator="out"/>
<feColorMatrix type="matrix" values="0 0 0 0 0.245422 0 0 0 0 0.258826 0 0 0 0 0.384821 0 0 0 0.11 0"/>
<feBlend mode="normal" in2="BackgroundImageFix" result="effect1_dropShadow_8248_108623"/>
<feBlend mode="normal" in="SourceGraphic" in2="effect1_dropShadow_8248_108623" result="shape"/>
</filter>
</defs>
</svg>
