<svg width="96" height="96" viewBox="0 0 96 96" fill="none" xmlns="http://www.w3.org/2000/svg">
<g filter="url(#filter0_d_8248_108508)">
<rect x="20.0391" y="13.5" width="56" height="56" rx="28" fill="#F2F3FA"/>
<g clip-path="url(#clip0_8248_108508)">
<mask id="path-2-outside-1_8248_108508" maskUnits="userSpaceOnUse" x="36.6406" y="26.5361" width="23" height="34" fill="black">
<rect fill="white" x="36.6406" y="26.5361" width="23" height="34"/>
<path d="M56.074 27.5361H40.1942C38.7864 27.5361 37.6406 28.7399 37.6406 30.2199V56.9937C37.6406 58.4738 38.7864 59.6775 40.1942 59.6775H56.074C57.4818 59.6775 58.6275 58.4738 58.6275 56.9937V30.2199C58.6275 28.7399 57.4818 27.5361 56.074 27.5361ZM38.4078 31.7031H57.8583V55.0315H38.4094V31.7031H38.4078ZM40.1923 28.3036H56.0721C57.0562 28.3036 57.8566 29.1636 57.8566 30.2199V30.934L38.4094 30.9356V30.2215C38.4094 29.1652 39.2098 28.3052 40.1939 28.3052L40.1923 28.3036ZM56.0721 58.91L40.1935 58.9116C39.2095 58.9116 38.409 58.0515 38.409 56.9953V55.8009H57.8595V56.9953C57.8595 58.0515 57.0591 58.9116 56.075 58.9116L56.0721 58.91ZM45.2866 29.6206C45.2866 29.4088 45.4592 29.2361 45.6711 29.2361H46.1953C46.4072 29.2361 46.5798 29.4088 46.5798 29.6206C46.5798 29.8325 46.4072 30.0052 46.1953 30.0052H45.6711C45.4592 30.0052 45.2866 29.8325 45.2866 29.6206ZM47.2767 29.6206C47.2767 29.4088 47.4493 29.2361 47.6612 29.2361H50.5945C50.8064 29.2361 50.9791 29.4088 50.9791 29.6206C50.9791 29.8325 50.8064 30.0052 50.5945 30.0052H47.6612C47.4493 30.0052 47.2767 29.8325 47.2767 29.6206ZM48.132 56.1449C47.4634 56.1449 46.9204 56.688 46.9204 57.3566C46.9204 58.0251 47.4634 58.5682 48.132 58.5682C48.8006 58.5682 49.3436 58.0251 49.3436 57.3566C49.3436 56.688 48.8006 56.1449 48.132 56.1449ZM48.132 57.8007C47.8872 57.8007 47.6878 57.6014 47.6878 57.3566C47.6878 57.1117 47.8872 56.9124 48.132 56.9124C48.3769 56.9124 48.5762 57.1117 48.5762 57.3566C48.5762 57.6014 48.3769 57.8007 48.132 57.8007ZM46.1184 40.4564L44.3041 41.2208C44.1613 41.2804 44.0687 41.4201 44.0687 41.5755V43.5232C43.7626 43.3772 43.3859 43.2925 42.9731 43.2925C41.9279 43.2925 41.1086 43.8387 41.1086 44.5355C41.1086 45.2324 41.9279 45.7786 42.9731 45.7786C44.0184 45.7786 44.8377 45.2324 44.8377 44.5355V44.534V41.8297L46.4166 41.1643C46.6128 41.0827 46.7038 40.8567 46.6222 40.6605C46.5406 40.4643 46.3146 40.3733 46.1184 40.4549L46.1184 40.4564ZM42.9747 45.0079C42.2952 45.0079 41.8792 44.7003 41.8792 44.5323C41.8792 44.3644 42.2952 44.0568 42.9747 44.0568C43.6543 44.0568 44.0702 44.3644 44.0702 44.5323C44.0702 44.7003 43.6543 45.0079 42.9747 45.0079ZM47.1292 47.009C46.8906 47.1471 46.7478 47.3935 46.7478 47.6681V50.7537C46.7478 51.0284 46.8906 51.2764 47.1292 51.4129C47.2485 51.482 47.3787 51.5165 47.5106 51.5165C47.6408 51.5165 47.7727 51.4819 47.892 51.4129L50.5648 49.8701C50.8033 49.732 50.9461 49.4856 50.9461 49.2109C50.9461 48.9347 50.8033 48.6883 50.5648 48.5518L47.892 47.009C47.6534 46.8709 47.3693 46.8709 47.1308 47.009L47.1292 47.009ZM47.5169 47.6807L50.1677 49.2109L47.5153 50.7412V47.6791L47.5169 47.6807ZM55.6249 33.6592H47.8073C47.1984 33.6592 46.7024 34.1771 46.7024 34.8143V38.7553H40.7166C40.0669 38.7553 39.5364 39.2842 39.5364 39.9355V46.2685C39.5364 46.9182 40.0653 47.4487 40.7166 47.4487H44.5007V52.3786C44.5007 53.0284 45.0296 53.5589 45.6809 53.5589H52.0138C52.6636 53.5589 53.1941 53.03 53.1941 52.3786V46.0457C53.1941 45.3959 52.6652 44.8654 52.0138 44.8654H48.2298V40.6218H51.5759L54.04 42.7249C54.1106 42.7861 54.2001 42.8175 54.2896 42.8175C54.3445 42.8175 54.3994 42.8065 54.4496 42.7814C54.5862 42.7186 54.6725 42.5821 54.6725 42.433V40.6218H55.6252C56.2341 40.6218 56.7301 40.1038 56.7301 39.4667V34.8132C56.7301 34.176 56.2341 33.658 55.6252 33.658L55.6249 33.6592ZM52.4247 46.0454V52.3784C52.4247 52.606 52.2396 52.7896 52.0136 52.7896H45.6806C45.453 52.7896 45.2694 52.6044 45.2694 52.3784V46.0454C45.2694 45.8179 45.4546 45.6343 45.6806 45.6343H52.0136C52.2396 45.6343 52.4247 45.8194 52.4247 46.0454ZM45.6808 44.8652C45.031 44.8652 44.5005 45.3941 44.5005 46.0454V46.6795H40.7165C40.4889 46.6795 40.3053 46.4943 40.3053 46.2683V39.9354C40.3053 39.7078 40.4905 39.5242 40.7165 39.5242H46.7039C46.7259 40.0091 47.0367 40.4172 47.4604 40.5632V44.8667H45.6806L45.6808 44.8652ZM55.9625 39.4676C55.9625 39.6811 55.8118 39.8537 55.625 39.8537H54.2879C54.076 39.8537 53.9033 40.0263 53.9033 40.2382V41.6005L51.965 39.9463C51.965 39.9463 51.9635 39.9447 51.9619 39.9447C51.9556 39.94 51.9493 39.9353 51.9431 39.9306C51.9384 39.9274 51.9352 39.9243 51.9321 39.9212C51.9258 39.9165 51.9195 39.9133 51.9117 39.9086C51.907 39.9055 51.9038 39.9039 51.8991 39.9008C51.8928 39.8976 51.885 39.8945 51.8787 39.8913C51.874 39.8898 51.8693 39.8866 51.8662 39.8851C51.8599 39.8819 51.852 39.8804 51.8458 39.8772C51.8411 39.8757 51.8363 39.8741 51.8316 39.8725C51.8254 39.8709 51.8191 39.8694 51.8128 39.8678C51.8065 39.8662 51.8018 39.8647 51.7955 39.8631C51.7893 39.8615 51.7845 39.8615 51.7783 39.86C51.772 39.8584 51.7641 39.8568 51.7579 39.8568C51.7532 39.8568 51.7469 39.8552 51.7422 39.8552C51.7343 39.8552 51.728 39.8537 51.7202 39.8537H51.7171H47.8075C47.6207 39.8537 47.47 39.681 47.47 39.4676V34.8141C47.47 34.6007 47.6207 34.428 47.8075 34.428H55.625C55.8118 34.428 55.9625 34.6007 55.9625 34.8141L55.9625 39.4676ZM52.6273 35.332C52.2083 35.332 51.9258 35.478 51.717 35.6804C51.5083 35.478 51.2258 35.332 50.8068 35.332C50.0927 35.332 49.5119 35.8688 49.5119 36.528C49.5119 37.512 50.5022 38.3941 51.4612 39.2479C51.5334 39.3122 51.626 39.3452 51.7171 39.3452C51.8081 39.3452 51.8991 39.3122 51.9729 39.2479C52.9318 38.3941 53.9222 37.5105 53.9222 36.528C53.9222 35.8688 53.3415 35.332 52.6273 35.332ZM51.717 38.4459C50.9731 37.7772 50.281 37.1008 50.281 36.528C50.281 36.2926 50.5164 36.1011 50.8068 36.1011C51.061 36.1011 51.185 36.1639 51.3812 36.5138C51.4487 36.6347 51.5774 36.71 51.7171 36.71C51.8567 36.71 51.9839 36.6347 52.0529 36.5138C52.2491 36.1638 52.3747 36.1011 52.6274 36.1011C52.9177 36.1011 53.1531 36.2926 53.1531 36.528C53.1531 37.1024 52.461 37.7773 51.717 38.4459Z"/>
</mask>
<path d="M56.074 27.5361H40.1942C38.7864 27.5361 37.6406 28.7399 37.6406 30.2199V56.9937C37.6406 58.4738 38.7864 59.6775 40.1942 59.6775H56.074C57.4818 59.6775 58.6275 58.4738 58.6275 56.9937V30.2199C58.6275 28.7399 57.4818 27.5361 56.074 27.5361ZM38.4078 31.7031H57.8583V55.0315H38.4094V31.7031H38.4078ZM40.1923 28.3036H56.0721C57.0562 28.3036 57.8566 29.1636 57.8566 30.2199V30.934L38.4094 30.9356V30.2215C38.4094 29.1652 39.2098 28.3052 40.1939 28.3052L40.1923 28.3036ZM56.0721 58.91L40.1935 58.9116C39.2095 58.9116 38.409 58.0515 38.409 56.9953V55.8009H57.8595V56.9953C57.8595 58.0515 57.0591 58.9116 56.075 58.9116L56.0721 58.91ZM45.2866 29.6206C45.2866 29.4088 45.4592 29.2361 45.6711 29.2361H46.1953C46.4072 29.2361 46.5798 29.4088 46.5798 29.6206C46.5798 29.8325 46.4072 30.0052 46.1953 30.0052H45.6711C45.4592 30.0052 45.2866 29.8325 45.2866 29.6206ZM47.2767 29.6206C47.2767 29.4088 47.4493 29.2361 47.6612 29.2361H50.5945C50.8064 29.2361 50.9791 29.4088 50.9791 29.6206C50.9791 29.8325 50.8064 30.0052 50.5945 30.0052H47.6612C47.4493 30.0052 47.2767 29.8325 47.2767 29.6206ZM48.132 56.1449C47.4634 56.1449 46.9204 56.688 46.9204 57.3566C46.9204 58.0251 47.4634 58.5682 48.132 58.5682C48.8006 58.5682 49.3436 58.0251 49.3436 57.3566C49.3436 56.688 48.8006 56.1449 48.132 56.1449ZM48.132 57.8007C47.8872 57.8007 47.6878 57.6014 47.6878 57.3566C47.6878 57.1117 47.8872 56.9124 48.132 56.9124C48.3769 56.9124 48.5762 57.1117 48.5762 57.3566C48.5762 57.6014 48.3769 57.8007 48.132 57.8007ZM46.1184 40.4564L44.3041 41.2208C44.1613 41.2804 44.0687 41.4201 44.0687 41.5755V43.5232C43.7626 43.3772 43.3859 43.2925 42.9731 43.2925C41.9279 43.2925 41.1086 43.8387 41.1086 44.5355C41.1086 45.2324 41.9279 45.7786 42.9731 45.7786C44.0184 45.7786 44.8377 45.2324 44.8377 44.5355V44.534V41.8297L46.4166 41.1643C46.6128 41.0827 46.7038 40.8567 46.6222 40.6605C46.5406 40.4643 46.3146 40.3733 46.1184 40.4549L46.1184 40.4564ZM42.9747 45.0079C42.2952 45.0079 41.8792 44.7003 41.8792 44.5323C41.8792 44.3644 42.2952 44.0568 42.9747 44.0568C43.6543 44.0568 44.0702 44.3644 44.0702 44.5323C44.0702 44.7003 43.6543 45.0079 42.9747 45.0079ZM47.1292 47.009C46.8906 47.1471 46.7478 47.3935 46.7478 47.6681V50.7537C46.7478 51.0284 46.8906 51.2764 47.1292 51.4129C47.2485 51.482 47.3787 51.5165 47.5106 51.5165C47.6408 51.5165 47.7727 51.4819 47.892 51.4129L50.5648 49.8701C50.8033 49.732 50.9461 49.4856 50.9461 49.2109C50.9461 48.9347 50.8033 48.6883 50.5648 48.5518L47.892 47.009C47.6534 46.8709 47.3693 46.8709 47.1308 47.009L47.1292 47.009ZM47.5169 47.6807L50.1677 49.2109L47.5153 50.7412V47.6791L47.5169 47.6807ZM55.6249 33.6592H47.8073C47.1984 33.6592 46.7024 34.1771 46.7024 34.8143V38.7553H40.7166C40.0669 38.7553 39.5364 39.2842 39.5364 39.9355V46.2685C39.5364 46.9182 40.0653 47.4487 40.7166 47.4487H44.5007V52.3786C44.5007 53.0284 45.0296 53.5589 45.6809 53.5589H52.0138C52.6636 53.5589 53.1941 53.03 53.1941 52.3786V46.0457C53.1941 45.3959 52.6652 44.8654 52.0138 44.8654H48.2298V40.6218H51.5759L54.04 42.7249C54.1106 42.7861 54.2001 42.8175 54.2896 42.8175C54.3445 42.8175 54.3994 42.8065 54.4496 42.7814C54.5862 42.7186 54.6725 42.5821 54.6725 42.433V40.6218H55.6252C56.2341 40.6218 56.7301 40.1038 56.7301 39.4667V34.8132C56.7301 34.176 56.2341 33.658 55.6252 33.658L55.6249 33.6592ZM52.4247 46.0454V52.3784C52.4247 52.606 52.2396 52.7896 52.0136 52.7896H45.6806C45.453 52.7896 45.2694 52.6044 45.2694 52.3784V46.0454C45.2694 45.8179 45.4546 45.6343 45.6806 45.6343H52.0136C52.2396 45.6343 52.4247 45.8194 52.4247 46.0454ZM45.6808 44.8652C45.031 44.8652 44.5005 45.3941 44.5005 46.0454V46.6795H40.7165C40.4889 46.6795 40.3053 46.4943 40.3053 46.2683V39.9354C40.3053 39.7078 40.4905 39.5242 40.7165 39.5242H46.7039C46.7259 40.0091 47.0367 40.4172 47.4604 40.5632V44.8667H45.6806L45.6808 44.8652ZM55.9625 39.4676C55.9625 39.6811 55.8118 39.8537 55.625 39.8537H54.2879C54.076 39.8537 53.9033 40.0263 53.9033 40.2382V41.6005L51.965 39.9463C51.965 39.9463 51.9635 39.9447 51.9619 39.9447C51.9556 39.94 51.9493 39.9353 51.9431 39.9306C51.9384 39.9274 51.9352 39.9243 51.9321 39.9212C51.9258 39.9165 51.9195 39.9133 51.9117 39.9086C51.907 39.9055 51.9038 39.9039 51.8991 39.9008C51.8928 39.8976 51.885 39.8945 51.8787 39.8913C51.874 39.8898 51.8693 39.8866 51.8662 39.8851C51.8599 39.8819 51.852 39.8804 51.8458 39.8772C51.8411 39.8757 51.8363 39.8741 51.8316 39.8725C51.8254 39.8709 51.8191 39.8694 51.8128 39.8678C51.8065 39.8662 51.8018 39.8647 51.7955 39.8631C51.7893 39.8615 51.7845 39.8615 51.7783 39.86C51.772 39.8584 51.7641 39.8568 51.7579 39.8568C51.7532 39.8568 51.7469 39.8552 51.7422 39.8552C51.7343 39.8552 51.728 39.8537 51.7202 39.8537H51.7171H47.8075C47.6207 39.8537 47.47 39.681 47.47 39.4676V34.8141C47.47 34.6007 47.6207 34.428 47.8075 34.428H55.625C55.8118 34.428 55.9625 34.6007 55.9625 34.8141L55.9625 39.4676ZM52.6273 35.332C52.2083 35.332 51.9258 35.478 51.717 35.6804C51.5083 35.478 51.2258 35.332 50.8068 35.332C50.0927 35.332 49.5119 35.8688 49.5119 36.528C49.5119 37.512 50.5022 38.3941 51.4612 39.2479C51.5334 39.3122 51.626 39.3452 51.7171 39.3452C51.8081 39.3452 51.8991 39.3122 51.9729 39.2479C52.9318 38.3941 53.9222 37.5105 53.9222 36.528C53.9222 35.8688 53.3415 35.332 52.6273 35.332ZM51.717 38.4459C50.9731 37.7772 50.281 37.1008 50.281 36.528C50.281 36.2926 50.5164 36.1011 50.8068 36.1011C51.061 36.1011 51.185 36.1639 51.3812 36.5138C51.4487 36.6347 51.5774 36.71 51.7171 36.71C51.8567 36.71 51.9839 36.6347 52.0529 36.5138C52.2491 36.1638 52.3747 36.1011 52.6274 36.1011C52.9177 36.1011 53.1531 36.2926 53.1531 36.528C53.1531 37.1024 52.461 37.7773 51.717 38.4459Z" fill="#3F49A7"/>
<path d="M56.074 27.5361H40.1942C38.7864 27.5361 37.6406 28.7399 37.6406 30.2199V56.9937C37.6406 58.4738 38.7864 59.6775 40.1942 59.6775H56.074C57.4818 59.6775 58.6275 58.4738 58.6275 56.9937V30.2199C58.6275 28.7399 57.4818 27.5361 56.074 27.5361ZM38.4078 31.7031H57.8583V55.0315H38.4094V31.7031H38.4078ZM40.1923 28.3036H56.0721C57.0562 28.3036 57.8566 29.1636 57.8566 30.2199V30.934L38.4094 30.9356V30.2215C38.4094 29.1652 39.2098 28.3052 40.1939 28.3052L40.1923 28.3036ZM56.0721 58.91L40.1935 58.9116C39.2095 58.9116 38.409 58.0515 38.409 56.9953V55.8009H57.8595V56.9953C57.8595 58.0515 57.0591 58.9116 56.075 58.9116L56.0721 58.91ZM45.2866 29.6206C45.2866 29.4088 45.4592 29.2361 45.6711 29.2361H46.1953C46.4072 29.2361 46.5798 29.4088 46.5798 29.6206C46.5798 29.8325 46.4072 30.0052 46.1953 30.0052H45.6711C45.4592 30.0052 45.2866 29.8325 45.2866 29.6206ZM47.2767 29.6206C47.2767 29.4088 47.4493 29.2361 47.6612 29.2361H50.5945C50.8064 29.2361 50.9791 29.4088 50.9791 29.6206C50.9791 29.8325 50.8064 30.0052 50.5945 30.0052H47.6612C47.4493 30.0052 47.2767 29.8325 47.2767 29.6206ZM48.132 56.1449C47.4634 56.1449 46.9204 56.688 46.9204 57.3566C46.9204 58.0251 47.4634 58.5682 48.132 58.5682C48.8006 58.5682 49.3436 58.0251 49.3436 57.3566C49.3436 56.688 48.8006 56.1449 48.132 56.1449ZM48.132 57.8007C47.8872 57.8007 47.6878 57.6014 47.6878 57.3566C47.6878 57.1117 47.8872 56.9124 48.132 56.9124C48.3769 56.9124 48.5762 57.1117 48.5762 57.3566C48.5762 57.6014 48.3769 57.8007 48.132 57.8007ZM46.1184 40.4564L44.3041 41.2208C44.1613 41.2804 44.0687 41.4201 44.0687 41.5755V43.5232C43.7626 43.3772 43.3859 43.2925 42.9731 43.2925C41.9279 43.2925 41.1086 43.8387 41.1086 44.5355C41.1086 45.2324 41.9279 45.7786 42.9731 45.7786C44.0184 45.7786 44.8377 45.2324 44.8377 44.5355V44.534V41.8297L46.4166 41.1643C46.6128 41.0827 46.7038 40.8567 46.6222 40.6605C46.5406 40.4643 46.3146 40.3733 46.1184 40.4549L46.1184 40.4564ZM42.9747 45.0079C42.2952 45.0079 41.8792 44.7003 41.8792 44.5323C41.8792 44.3644 42.2952 44.0568 42.9747 44.0568C43.6543 44.0568 44.0702 44.3644 44.0702 44.5323C44.0702 44.7003 43.6543 45.0079 42.9747 45.0079ZM47.1292 47.009C46.8906 47.1471 46.7478 47.3935 46.7478 47.6681V50.7537C46.7478 51.0284 46.8906 51.2764 47.1292 51.4129C47.2485 51.482 47.3787 51.5165 47.5106 51.5165C47.6408 51.5165 47.7727 51.4819 47.892 51.4129L50.5648 49.8701C50.8033 49.732 50.9461 49.4856 50.9461 49.2109C50.9461 48.9347 50.8033 48.6883 50.5648 48.5518L47.892 47.009C47.6534 46.8709 47.3693 46.8709 47.1308 47.009L47.1292 47.009ZM47.5169 47.6807L50.1677 49.2109L47.5153 50.7412V47.6791L47.5169 47.6807ZM55.6249 33.6592H47.8073C47.1984 33.6592 46.7024 34.1771 46.7024 34.8143V38.7553H40.7166C40.0669 38.7553 39.5364 39.2842 39.5364 39.9355V46.2685C39.5364 46.9182 40.0653 47.4487 40.7166 47.4487H44.5007V52.3786C44.5007 53.0284 45.0296 53.5589 45.6809 53.5589H52.0138C52.6636 53.5589 53.1941 53.03 53.1941 52.3786V46.0457C53.1941 45.3959 52.6652 44.8654 52.0138 44.8654H48.2298V40.6218H51.5759L54.04 42.7249C54.1106 42.7861 54.2001 42.8175 54.2896 42.8175C54.3445 42.8175 54.3994 42.8065 54.4496 42.7814C54.5862 42.7186 54.6725 42.5821 54.6725 42.433V40.6218H55.6252C56.2341 40.6218 56.7301 40.1038 56.7301 39.4667V34.8132C56.7301 34.176 56.2341 33.658 55.6252 33.658L55.6249 33.6592ZM52.4247 46.0454V52.3784C52.4247 52.606 52.2396 52.7896 52.0136 52.7896H45.6806C45.453 52.7896 45.2694 52.6044 45.2694 52.3784V46.0454C45.2694 45.8179 45.4546 45.6343 45.6806 45.6343H52.0136C52.2396 45.6343 52.4247 45.8194 52.4247 46.0454ZM45.6808 44.8652C45.031 44.8652 44.5005 45.3941 44.5005 46.0454V46.6795H40.7165C40.4889 46.6795 40.3053 46.4943 40.3053 46.2683V39.9354C40.3053 39.7078 40.4905 39.5242 40.7165 39.5242H46.7039C46.7259 40.0091 47.0367 40.4172 47.4604 40.5632V44.8667H45.6806L45.6808 44.8652ZM55.9625 39.4676C55.9625 39.6811 55.8118 39.8537 55.625 39.8537H54.2879C54.076 39.8537 53.9033 40.0263 53.9033 40.2382V41.6005L51.965 39.9463C51.965 39.9463 51.9635 39.9447 51.9619 39.9447C51.9556 39.94 51.9493 39.9353 51.9431 39.9306C51.9384 39.9274 51.9352 39.9243 51.9321 39.9212C51.9258 39.9165 51.9195 39.9133 51.9117 39.9086C51.907 39.9055 51.9038 39.9039 51.8991 39.9008C51.8928 39.8976 51.885 39.8945 51.8787 39.8913C51.874 39.8898 51.8693 39.8866 51.8662 39.8851C51.8599 39.8819 51.852 39.8804 51.8458 39.8772C51.8411 39.8757 51.8363 39.8741 51.8316 39.8725C51.8254 39.8709 51.8191 39.8694 51.8128 39.8678C51.8065 39.8662 51.8018 39.8647 51.7955 39.8631C51.7893 39.8615 51.7845 39.8615 51.7783 39.86C51.772 39.8584 51.7641 39.8568 51.7579 39.8568C51.7532 39.8568 51.7469 39.8552 51.7422 39.8552C51.7343 39.8552 51.728 39.8537 51.7202 39.8537H51.7171H47.8075C47.6207 39.8537 47.47 39.681 47.47 39.4676V34.8141C47.47 34.6007 47.6207 34.428 47.8075 34.428H55.625C55.8118 34.428 55.9625 34.6007 55.9625 34.8141L55.9625 39.4676ZM52.6273 35.332C52.2083 35.332 51.9258 35.478 51.717 35.6804C51.5083 35.478 51.2258 35.332 50.8068 35.332C50.0927 35.332 49.5119 35.8688 49.5119 36.528C49.5119 37.512 50.5022 38.3941 51.4612 39.2479C51.5334 39.3122 51.626 39.3452 51.7171 39.3452C51.8081 39.3452 51.8991 39.3122 51.9729 39.2479C52.9318 38.3941 53.9222 37.5105 53.9222 36.528C53.9222 35.8688 53.3415 35.332 52.6273 35.332ZM51.717 38.4459C50.9731 37.7772 50.281 37.1008 50.281 36.528C50.281 36.2926 50.5164 36.1011 50.8068 36.1011C51.061 36.1011 51.185 36.1639 51.3812 36.5138C51.4487 36.6347 51.5774 36.71 51.7171 36.71C51.8567 36.71 51.9839 36.6347 52.0529 36.5138C52.2491 36.1638 52.3747 36.1011 52.6274 36.1011C52.9177 36.1011 53.1531 36.2926 53.1531 36.528C53.1531 37.1024 52.461 37.7773 51.717 38.4459Z" stroke="#3F49A7" stroke-width="0.1875" mask="url(#path-2-outside-1_8248_108508)"/>
</g>
</g>
<defs>
<filter id="filter0_d_8248_108508" x="0.439062" y="0.199999" width="95.2" height="95.2" filterUnits="userSpaceOnUse" color-interpolation-filters="sRGB">
<feFlood flood-opacity="0" result="BackgroundImageFix"/>
<feColorMatrix in="SourceAlpha" type="matrix" values="0 0 0 0 0 0 0 0 0 0 0 0 0 0 0 0 0 0 127 0" result="hardAlpha"/>
<feOffset dy="6.3"/>
<feGaussianBlur stdDeviation="9.8"/>
<feComposite in2="hardAlpha" operator="out"/>
<feColorMatrix type="matrix" values="0 0 0 0 0.245422 0 0 0 0 0.258826 0 0 0 0 0.384821 0 0 0 0.11 0"/>
<feBlend mode="normal" in2="BackgroundImageFix" result="effect1_dropShadow_8248_108508"/>
<feBlend mode="normal" in="SourceGraphic" in2="effect1_dropShadow_8248_108508" result="shape"/>
</filter>
<clipPath id="clip0_8248_108508">
<rect width="44.1964" height="45" fill="white" transform="translate(26.0391 19.5)"/>
</clipPath>
</defs>
</svg>
