<svg width="44" height="44" viewBox="0 0 44 44" fill="none" xmlns="http://www.w3.org/2000/svg">
<rect width="44" height="44" rx="22" fill="#F2F3FA"/>
<path d="M26.9957 15.8139C28.2597 15.8139 29.5237 15.8139 30.7878 15.8141C30.8529 15.8141 30.9197 15.8125 30.9832 15.8244C31.1529 15.8568 31.2635 15.9977 31.2522 16.1566C31.2408 16.3176 31.1158 16.4377 30.9425 16.4507C30.8873 16.4549 30.8318 16.4541 30.7764 16.4541C28.2533 16.4524 25.7306 16.4507 23.2075 16.4485C23.1471 16.4485 23.0858 16.451 23.0267 16.4421C22.8573 16.4166 22.7389 16.2805 22.7423 16.1219C22.7456 15.9553 22.8742 15.8255 23.0528 15.8119C23.113 15.8072 23.1737 15.8089 23.2341 15.8089C24.4882 15.8089 25.7419 15.8089 26.996 15.8089V15.8136L26.9957 15.8139Z" fill="#3F49A7"/>
<path d="M26.95 18.0096C25.6862 18.0162 24.4225 18.0226 23.1587 18.029C23.1235 18.029 23.088 18.029 23.0531 18.0254C22.8978 18.0079 22.7822 17.8923 22.7672 17.7409C22.7528 17.5962 22.8371 17.4609 22.9816 17.4146C23.0423 17.3952 23.1099 17.3899 23.1743 17.3894C24.448 17.3788 25.722 17.37 26.9957 17.3611C28.2242 17.3525 29.4528 17.3439 30.6813 17.337C30.7612 17.3364 30.8435 17.3397 30.9203 17.3586C31.0606 17.3932 31.1507 17.5188 31.151 17.6589C31.1513 17.7969 31.0589 17.9253 30.9197 17.9594C30.8427 17.9783 30.7603 17.9819 30.6805 17.9824C29.437 17.9905 28.1932 17.9971 26.9494 18.0038C26.9494 18.0057 26.9494 18.0079 26.9494 18.0099L26.95 18.0096Z" fill="#3F49A7"/>
<path d="M24.9417 28.9137C24.9325 29.7996 24.9234 30.6588 24.9142 31.5336C24.9849 31.5363 25.0437 31.5405 25.1025 31.5405C25.6714 31.5422 26.2406 31.5427 26.8096 31.5446C26.875 31.5446 26.9413 31.5446 27.0053 31.5552C27.1553 31.5799 27.2593 31.698 27.267 31.8447C27.2751 31.9938 27.1891 32.1236 27.0408 32.161C26.9593 32.1815 26.8717 32.1837 26.7868 32.1835C24.2083 32.1799 21.6301 32.1749 19.0516 32.1704C18.397 32.1693 17.7424 32.1685 17.0875 32.1671C17.0473 32.1671 17.0065 32.1677 16.9669 32.1621C16.828 32.1427 16.7196 32.0335 16.6971 31.894C16.6755 31.7609 16.7509 31.6131 16.882 31.5632C16.9502 31.5372 17.029 31.5294 17.1027 31.5291C17.6819 31.5275 18.2611 31.5294 18.84 31.5302C18.8897 31.5302 18.939 31.5302 19.0103 31.5302C19.0006 30.6591 18.9909 29.8007 18.9812 28.9201C18.9143 28.9201 18.8558 28.9201 18.7973 28.9201C17.1757 28.9215 15.5542 28.9232 13.9326 28.9246C13.454 28.9248 12.9765 28.9068 12.5008 28.8475C12.0863 28.7959 11.781 28.5783 11.5503 28.2447C11.3177 27.9084 11.2185 27.5258 11.1868 27.1235C11.1774 27.0031 11.1799 26.882 11.1802 26.7611C11.1846 23.3516 11.188 19.9425 11.1971 16.533C11.1982 16.1157 11.2057 15.6951 11.2564 15.282C11.3302 14.6801 11.6005 14.181 12.1481 13.8683C12.3766 13.7377 12.6308 13.6939 12.887 13.6723C13.1526 13.6498 13.4196 13.6359 13.6861 13.6368C19.3566 13.6545 25.0271 13.6745 30.6976 13.6955C30.9438 13.6964 31.1925 13.6955 31.4356 13.7271C32.0187 13.8026 32.4263 14.1175 32.6406 14.6707C32.7682 14.9992 32.8153 15.3441 32.8158 15.6924C32.8175 16.8657 32.8075 18.0391 32.8056 19.2124C32.8017 21.5339 32.8014 23.8554 32.7961 26.1769C32.7953 26.5035 32.7831 26.8307 32.7626 27.1568C32.736 27.5771 32.5638 27.9433 32.3115 28.2747C32.164 28.4685 31.9669 28.5957 31.742 28.6831C31.2892 28.8588 30.8184 28.9215 30.3355 28.9093C30.2551 28.9074 30.1744 28.9046 30.094 28.9049C28.4421 28.9076 26.7904 28.911 25.1385 28.914C25.0789 28.914 25.019 28.914 24.9414 28.914L24.9417 28.9137ZM32.1593 25.6138C32.1593 25.5453 32.1593 25.4807 32.1593 25.4164C32.1623 22.2393 32.1657 19.0622 32.1682 15.8853C32.1682 15.7495 32.1651 15.6133 32.1593 15.4778C32.1507 15.2751 32.108 15.0785 32.0359 14.8891C31.9147 14.5709 31.676 14.3984 31.3433 14.3629C31.1437 14.3416 30.9418 14.3368 30.7408 14.3346C30.333 14.3299 29.9251 14.3321 29.5173 14.3307C24.0242 14.3113 18.5312 14.2919 13.0381 14.2728C12.5593 14.2711 12.2235 14.4993 12.0228 14.9246C11.8589 15.272 11.7965 15.6425 11.8121 16.0262C11.8223 16.2777 11.8384 16.5291 11.8381 16.7806C11.8343 19.6658 11.8279 22.5506 11.8223 25.4358C11.8223 25.4896 11.8223 25.5437 11.8223 25.6141H32.1595L32.1593 25.6138ZM32.1379 26.2817C31.8427 26.2501 11.9349 26.2562 11.8301 26.2867C11.8301 26.5728 11.8135 26.8604 11.8351 27.1451C11.8548 27.4063 11.9283 27.6597 12.0805 27.8823C12.1966 28.0523 12.3472 28.169 12.5546 28.2006C12.7134 28.225 12.8726 28.2589 13.0323 28.2658C13.3436 28.2794 13.6558 28.2808 13.9675 28.2805C19.3557 28.2752 24.744 28.2688 30.1322 28.2622C30.3086 28.2622 30.4846 28.2611 30.661 28.2569C30.961 28.25 31.2493 28.184 31.5282 28.0753C31.6428 28.0307 31.7428 27.9641 31.8169 27.8638C31.9372 27.7002 32.0423 27.5255 32.083 27.3262C32.1523 26.9854 32.182 26.6402 32.1382 26.2814L32.1379 26.2817ZM19.6529 31.513C19.8662 31.5496 24.1587 31.5449 24.2693 31.5083C24.2787 30.6522 24.2882 29.7935 24.2976 28.9284H19.6247C19.6341 29.796 19.6432 30.6502 19.6527 31.513H19.6529Z" fill="#3F49A7"/>
<path d="M16.3688 24.1116C15.1749 24.0409 14.1213 23.5233 13.3944 22.4361C12.3918 20.9364 12.6774 19.0075 13.9356 17.7843C14.1272 17.5979 14.2988 17.609 14.4818 17.7992C14.7052 18.031 14.9356 18.2564 15.1638 18.4838C15.6626 18.9815 16.1639 19.4767 16.6593 19.9777C16.747 20.0664 16.8329 20.106 16.9607 20.1049C17.9572 20.0958 18.9537 20.095 19.9504 20.0916C20.0109 20.0916 20.0716 20.0902 20.1315 20.0961C20.3147 20.1143 20.4226 20.2266 20.4359 20.4099C20.4575 20.7052 20.4093 20.9938 20.3253 21.2738C19.8922 22.7175 18.9262 23.6106 17.4817 23.9993C17.1495 24.0886 16.8083 24.1155 16.3688 24.1113V24.1116ZM14.7194 22.8942C14.7823 22.9358 14.8272 22.9679 14.8744 22.9962C15.6113 23.439 16.4082 23.5815 17.2411 23.3905C18.5206 23.0974 19.3624 22.3163 19.7225 21.0404C19.7491 20.9464 19.7594 20.8477 19.7788 20.7423C19.7234 20.739 19.689 20.7351 19.6546 20.7351C18.7435 20.7371 17.8327 20.7407 16.9216 20.7396C16.831 20.7396 16.7727 20.7745 16.7137 20.8355C16.0865 21.4821 15.4574 22.127 14.8292 22.7727C14.7945 22.8082 14.7626 22.8462 14.7191 22.8942H14.7194ZM14.2358 22.4605C14.891 21.7876 15.5459 21.1153 16.2108 20.4326C15.5378 19.7622 14.8738 19.1004 14.2089 18.438C13.1512 19.6217 13.2097 21.4047 14.2358 22.4605Z" fill="#3F49A7"/>
<path d="M19.9139 19.8255C19.3957 19.8119 18.8773 19.7981 18.3591 19.7853C18.3089 19.7842 18.2587 19.7898 18.2085 19.7923C18.0277 19.8011 17.896 19.7033 17.8586 19.5272C17.8472 19.4737 17.8448 19.4174 17.8445 19.3622C17.8384 18.2648 17.8334 17.1675 17.8281 16.0701C17.8281 16.0601 17.8281 16.0498 17.8281 16.0398C17.8339 15.7712 17.9795 15.635 18.2512 15.6484C18.5293 15.6619 18.7999 15.7152 19.0636 15.8047C19.7467 16.0371 20.3179 16.4388 20.802 16.9667C21.3751 17.5917 21.7702 18.3114 21.9291 19.151C21.9515 19.2693 21.969 19.3897 21.9743 19.5097C21.9842 19.7254 21.8531 19.8621 21.6349 19.8638C21.4034 19.8655 21.1719 19.858 20.9404 19.8524C20.5982 19.8438 20.2561 19.8333 19.9139 19.8236C19.9139 19.8241 19.9139 19.8247 19.9139 19.8253V19.8255ZM18.4844 16.3063V19.1462C19.4221 19.1695 20.3451 19.1923 21.2648 19.2153C21.2711 19.1884 21.2761 19.1784 21.275 19.1693C21.2728 19.1496 21.2675 19.1299 21.2628 19.1105C21.1563 18.6591 20.9634 18.2463 20.6994 17.867C20.2647 17.2417 19.714 16.7532 19.0001 16.4679C18.8384 16.4033 18.6671 16.3628 18.4844 16.3063Z" fill="#3F49A7"/>
<path d="M28.917 21.5889C28.917 20.8896 28.9168 20.1904 28.917 19.4908C28.917 19.2291 29.0318 19.1093 29.2905 19.1077C29.7532 19.1046 30.2163 19.1035 30.679 19.1055C30.9887 19.1066 31.1021 19.225 31.1002 19.541C31.0913 20.8691 31.0808 22.1974 31.0719 23.5255C31.0713 23.6007 31.0747 23.6764 31.0833 23.7509C31.1088 23.9705 30.9829 24.1277 30.7597 24.1286C30.478 24.1294 30.1966 24.1164 29.9149 24.1097C29.6986 24.1044 29.4824 24.097 29.2664 24.0961C29.0415 24.095 28.9107 23.975 28.9004 23.7471C28.8965 23.6567 28.8996 23.566 28.8996 23.4753C28.8996 22.8465 28.8996 22.2177 28.8996 21.5886C28.9051 21.5886 28.9109 21.5886 28.9165 21.5886L28.917 21.5889ZM30.4298 23.4809C30.4375 22.223 30.4453 20.9883 30.4528 19.7537H29.5769C29.547 19.9128 29.5403 23.3578 29.57 23.4548C29.8483 23.4631 30.1287 23.4717 30.4295 23.4809H30.4298Z" fill="#3F49A7"/>
<path d="M27.9556 22.1223C27.9556 22.6458 27.9564 23.1689 27.9547 23.6924C27.9547 23.757 27.9497 23.8241 27.9323 23.8857C27.8915 24.0282 27.7767 24.1119 27.6309 24.1152C27.1532 24.1266 26.6757 24.1377 26.198 24.1485C26.0097 24.1527 25.8805 24.0775 25.8287 23.9228C25.8068 23.8571 25.8001 23.7853 25.7949 23.7154C25.7882 23.6253 25.7893 23.5344 25.7882 23.4437C25.7766 22.4777 25.771 21.5115 25.7502 20.5455C25.7436 20.2289 25.8781 20.057 26.2158 20.0606C26.6685 20.0653 27.1215 20.0667 27.574 20.0797C27.8629 20.088 27.9824 20.2184 27.9838 20.5073C27.9863 21.0457 27.9847 21.5841 27.9847 22.1226C27.975 22.1226 27.9653 22.1226 27.9556 22.1226V22.1223ZM27.3226 23.4748V20.7166H26.3954C26.424 21.6454 26.4087 22.5631 26.4381 23.4748H27.3226Z" fill="#3F49A7"/>
<path d="M17.6007 17.7894C17.6126 18.3129 17.6245 18.8361 17.6362 19.3595C17.637 19.3947 17.637 19.43 17.6378 19.4652C17.6417 19.6124 17.5979 19.7402 17.4546 19.7995C17.3035 19.8619 17.1496 19.8658 17.0157 19.7483C16.9705 19.7086 16.9283 19.6648 16.8859 19.6218C16.2294 18.9545 15.5731 18.2865 14.916 17.6197C14.8242 17.5266 14.7288 17.4373 14.6326 17.3486C14.4629 17.1919 14.4693 16.9646 14.6332 16.806C14.8805 16.5667 15.1422 16.3504 15.448 16.1888C15.9954 15.8996 16.5754 15.7358 17.1953 15.718C17.3974 15.7122 17.5183 15.8103 17.5519 16.0089C17.5594 16.0532 17.5613 16.099 17.5624 16.1442C17.5752 16.6926 17.5871 17.2413 17.5993 17.7897C17.5996 17.7897 17.6001 17.7897 17.6004 17.7897L17.6007 17.7894ZM15.2883 17.0699C15.6274 17.4614 16.8643 18.6983 16.9813 18.7601C16.9619 17.9677 16.943 17.1819 16.9233 16.3782C16.31 16.4713 15.7675 16.6779 15.2883 17.0697V17.0699Z" fill="#3F49A7"/>
<path d="M24.8817 22.6482C24.8817 22.9754 24.8817 23.3025 24.8817 23.63C24.8817 23.6802 24.8811 23.7309 24.8758 23.7808C24.8514 24.0051 24.7236 24.126 24.4971 24.1263C24.2304 24.1263 23.9637 24.1188 23.697 24.1124C23.5007 24.1077 23.3046 24.0985 23.1086 24.0936C22.8446 24.0869 22.6877 23.9364 22.6816 23.6705C22.6669 23.0161 22.6561 22.3618 22.6431 21.7077C22.6417 21.6323 22.6334 21.5569 22.6328 21.4815C22.6309 21.2794 22.767 21.1288 22.9672 21.1319C23.4804 21.1402 23.9939 21.1518 24.5068 21.1729C24.7799 21.1843 24.8894 21.3129 24.8911 21.591C24.893 21.9434 24.8917 22.2958 24.8917 22.6482H24.8822H24.8817ZM24.2332 21.8048C23.9168 21.7948 23.6124 21.7854 23.2908 21.7751C23.298 22.3424 23.2971 22.8928 23.3199 23.4506C23.6329 23.4625 23.9271 23.4739 24.2332 23.4858V21.8048Z" fill="#3F49A7"/>
</svg>
